<svg id="Group_803" data-name="Group 803" xmlns="http://www.w3.org/2000/svg" xmlns:xlink="http://www.w3.org/1999/xlink" width="36.19" height="36.19" viewBox="0 0 36.19 36.19">
  <defs>
    <clipPath id="clip-path">
      <rect id="Rectangle_474" data-name="Rectangle 474" width="36.19" height="36.19" fill="#fff"/>
    </clipPath>
  </defs>
  <g id="Group_794" data-name="Group 794" transform="translate(0)">
    <g id="Group_785" data-name="Group 785">
      <g id="Group_784" data-name="Group 784" clip-path="url(#clip-path)">
        <path id="Path_2113" data-name="Path 2113" d="M63.187,49.1a12.86,12.86,0,0,0-.892-4.931,13.911,13.911,0,0,0-5.685-6.839,13.047,13.047,0,0,0-7.96-1.979,15.543,15.543,0,0,0-2.56.374,12.988,12.988,0,0,0-2.3.789.96.96,0,0,1-.629.118.691.691,0,0,1-.541-.6.677.677,0,0,1,.385-.68c.21-.1.434-.179.649-.275a13.2,13.2,0,0,1,2.7-.845,14.642,14.642,0,0,1,8.525.69,15.391,15.391,0,0,1,9.234,10.406,14.681,14.681,0,0,1,.48,3.694,14.446,14.446,0,0,1-.528,3.812,15.17,15.17,0,0,1-3.457,6.253,15.394,15.394,0,0,1-3.894,3.1,14.563,14.563,0,0,1-4.314,1.6,13.978,13.978,0,0,1-4.721.162,14.94,14.94,0,0,1-4.722-1.472,15.615,15.615,0,0,1-6.637-6.481,14.652,14.652,0,0,1-1.5-4.16,14.123,14.123,0,0,1-.226-4.318,15.508,15.508,0,0,1,2.5-7.045c.354-.527.744-1.033,1.145-1.526a.689.689,0,1,1,1.081.853c-.362.487-.735.967-1.085,1.463a11.591,11.591,0,0,0-1.59,3.28,16.44,16.44,0,0,0-.518,2.091,13.7,13.7,0,0,0,0,4.618A13.334,13.334,0,0,0,37.869,55.9a13.934,13.934,0,0,0,5.4,5.166,12.84,12.84,0,0,0,4.656,1.49,13.283,13.283,0,0,0,3.885-.094A13.884,13.884,0,0,0,62.956,51.49c.15-.785.19-1.592.28-2.389Z" transform="translate(-31.468 -30.882)" fill="#fff"/>
        <path id="Path_2114" data-name="Path 2114" d="M106.276,112.972h-4.647c-.071,0-.141,0-.212,0a.755.755,0,0,1-.79-.83q-.006-2.694,0-5.387c0-.584.308-.867.921-.868q2.251,0,4.5,0h.225v-4.636c0-.053,0-.106,0-.16a.789.789,0,0,1,.863-.874c.188-.006.377,0,.565,0h4.731a.8.8,0,0,1,.9.906q0,2.268,0,4.537v.229h4.633c.059,0,.118,0,.177,0a.77.77,0,0,1,.837.843q.012,2.72,0,5.44a.771.771,0,0,1-.875.8c-.889,0-1.777,0-2.666,0h-2.107v.213q0,2.268,0,4.537a.8.8,0,0,1-.92.922H107.1a.767.767,0,0,1-.828-.848c0-.632,0-1.264,0-1.9v-2.927m5.65,4.245V117q0-2.259,0-4.519a.8.8,0,0,1,.906-.922h4.734V107.3h-4.3c-.182,0-.365.006-.547,0a.759.759,0,0,1-.8-.826c0-.053,0-.106,0-.159v-4.67h-4.238v1.341q0,1.728,0,3.456a.764.764,0,0,1-.733.852,1.59,1.59,0,0,1-.229.009H102.05v4.254h.786c1.318,0,2.636,0,3.954,0a.794.794,0,0,1,.9.892c0,.047,0,.095,0,.142v4.629Z" transform="translate(-91.707 -91.329)" fill="#fff"/>
        <path id="Path_2115" data-name="Path 2115" d="M99.947,66.658a.677.677,0,1,1-1.354-.031.717.717,0,0,1,.7-.684.707.707,0,0,1,.659.715" transform="translate(-89.855 -60.099)" fill="#fff"/>
        <path id="Path_2116" data-name="Path 2116" d="M30.89,5.3a18.1,18.1,0,1,0,5.3,12.8,18.043,18.043,0,0,0-5.3-12.8M27.469,32a16.735,16.735,0,1,1,6.075-7.377A16.681,16.681,0,0,1,27.469,32" transform="translate(0 0)" fill="#fff"/>
      </g>
    </g>
  </g>
</svg>
