<svg xmlns="http://www.w3.org/2000/svg" xmlns:xlink="http://www.w3.org/1999/xlink" width="10.705" height="18.266" viewBox="0 0 10.705 18.266">
  <defs>
    <clipPath id="clip-path">
      <rect id="Rectangle_216" data-name="Rectangle 216" width="10.705" height="18.266" fill="#fff"/>
    </clipPath>
  </defs>
  <g id="Group_407" data-name="Group 407" clip-path="url(#clip-path)">
    <path id="Path_1235" data-name="Path 1235" d="M134.834,319.8c-.552.648-1.14,1.285-1.751,1.9.924.891,1.766,1.617,2.362,2.113a.5.5,0,0,0,.719-.082l.957-1.245a.5.5,0,0,0-.078-.7c-.738-.607-1.494-1.293-2.209-1.99Z" transform="translate(-127.2 -305.664)" fill="#fff"/>
    <path id="Path_1236" data-name="Path 1236" d="M5.351,0C2.884,0,0,1.621,0,6.185c0,1.971,1.054,4.274,3.126,6.848.637-.652,1.226-1.3,1.747-1.941-1.524-1.956-2.3-3.607-2.3-4.907,0-3.137,1.736-3.607,2.772-3.607s2.776.47,2.776,3.607c0,1.345-.835,3.074-2.478,5.138l-.011.011a31.2,31.2,0,0,1-2.273,2.522c-.812.8-1.677,1.591-2.5,2.269a.505.505,0,0,0-.082.7l.961,1.241a.5.5,0,0,0,.719.082c.637-.529,1.595-1.356,2.627-2.373a30.866,30.866,0,0,0,2.232-2.422C9.565,10.645,10.7,8.235,10.7,6.185,10.7,1.621,7.821,0,5.351,0Z" transform="translate(0 0)" fill="#fff"/>
  </g>
</svg>
