<svg xmlns="http://www.w3.org/2000/svg" xmlns:xlink="http://www.w3.org/1999/xlink" width="40" height="37" viewBox="0 0 40 37">
  <defs>
    <clipPath id="clip-path">
      <rect id="Rectangle_475" data-name="Rectangle 475" width="40" height="37" transform="translate(-0.105 0.301)" fill="#fff"/>
    </clipPath>
  </defs>
  <g id="Group_974" data-name="Group 974" transform="translate(0.105 -0.301)">
    <g id="Group_795" data-name="Group 795" transform="translate(0 0)">
      <g id="Group_787" data-name="Group 787" transform="translate(0 0)">
        <g id="Group_786" data-name="Group 786" clip-path="url(#clip-path)">
          <path id="Path_2117" data-name="Path 2117" d="M20.463,0l-.625.064,0,.036.394.022a5.812,5.812,0,0,1,.632.042.7.7,0,0,1,.6.742.722.722,0,0,1-.781.668c-.4-.024-.807-.07-1.211-.09A16.747,16.747,0,0,0,7.059,5.9a16.751,16.751,0,0,0-4.4,6.328,15.955,15.955,0,0,0-1.048,3.944A17,17,0,0,0,4.4,28.195a16.7,16.7,0,0,0,4.417,4.457,16.967,16.967,0,0,0,6.259,2.7,17.5,17.5,0,0,0,5.573.23,16.4,16.4,0,0,0,4.869-1.337,16.919,16.919,0,0,0,4.77-3.18,17.271,17.271,0,0,0,3.293-4.208,16.925,16.925,0,0,0,1.892-5.445,17.635,17.635,0,0,0,.135-4.662,15.537,15.537,0,0,0-.736-3.482,17.1,17.1,0,0,0-2.4-4.729.448.448,0,0,0-.165-.145c0,.06-.012.121-.012.181,0,.217.015.436,0,.652a.71.71,0,0,1-.678.638.718.718,0,0,1-.733-.555A1.5,1.5,0,0,1,30.852,9q0-1.215.005-2.431a1.547,1.547,0,0,1,.035-.36.739.739,0,0,1,.762-.55q1.315-.011,2.63,0a.733.733,0,0,1,.766.711.756.756,0,0,1-.788.734c-.29.013-.58,0-.871,0h-.221A18.292,18.292,0,0,1,37.092,17.6l.061-.515v2.794l-.059-.214A18.009,18.009,0,0,1,31.739,31.66a18.123,18.123,0,0,1-11.951,5.433l.457.059H16.617l.732-.057a.385.385,0,0,0-.166-.043c-.458-.034-.92-.038-1.372-.107a18.292,18.292,0,0,1-3.754-.991,18.493,18.493,0,0,1-8.642-6.679A17.91,17.91,0,0,1,.656,23.411a12.483,12.483,0,0,1-.518-3.3c0-.137-.02-.275-.031-.413a.317.317,0,0,0-.038.138Q.034,20.2,0,20.572V16.8l.084.708a17.644,17.644,0,0,1,5.3-11.977A17.885,17.885,0,0,1,17.352.072L16.871,0Z" transform="translate(1.312 0.231)" fill="#fff"/>
          <path id="Path_2118" data-name="Path 2118" d="M48.482,62.656a13.984,13.984,0,0,1,2.09-7.188,1.689,1.689,0,0,1,.215-.29.676.676,0,0,1,.862-.107.688.688,0,0,1,.294.851,6.8,6.8,0,0,1-.348.634,11.892,11.892,0,0,0-1.48,4.23,12.594,12.594,0,0,0,.656,6.277,12.314,12.314,0,0,0,2.22,3.753,12.184,12.184,0,0,0,5.236,3.575,12.53,12.53,0,0,0,5.428.632,12.426,12.426,0,0,0,9.74-6.634,12.417,12.417,0,0,0-4.732-16.394,11.86,11.86,0,0,0-4.169-1.541,12.978,12.978,0,0,0-3.738-.081,12.537,12.537,0,0,0-4.873,1.743,1.15,1.15,0,0,1-.555.169.677.677,0,0,1-.642-.5.67.67,0,0,1,.3-.775,17.259,17.259,0,0,1,1.528-.864A13.405,13.405,0,0,1,60.326,49a13.248,13.248,0,0,1,4.67.11,13.593,13.593,0,0,1,6.332,3.032A13.938,13.938,0,0,1,75,57.072a13.689,13.689,0,0,1,1.18,6.261,13.536,13.536,0,0,1-2.024,6.612,13.864,13.864,0,0,1-9.676,6.416,12.954,12.954,0,0,1-4.081.021,13.774,13.774,0,0,1-9.5-5.95,13.479,13.479,0,0,1-2.239-5.847c-.1-.638-.124-1.286-.182-1.929" transform="translate(-42.479 -43.887)" fill="#fff"/>
          <path id="Path_2119" data-name="Path 2119" d="M144.373,122.027c-.818-.824-1.62-1.63-2.419-2.437a.725.725,0,0,1,.562-1.257.806.806,0,0,1,.512.281L145.1,120.7c.068.068.141.133.205.2a.159.159,0,0,0,.217.04,2.45,2.45,0,0,1,2.119,0c.119.056.175,0,.246-.069q2.383-2.387,4.767-4.774a.773.773,0,0,1,.606-.275.693.693,0,0,1,.618.405.67.67,0,0,1-.057.72,1.582,1.582,0,0,1-.19.219q-2.361,2.358-4.726,4.711a.235.235,0,0,0-.054.314,2.487,2.487,0,1,1-4.744,1.276,2.615,2.615,0,0,1,.266-1.445m1.172,1.106a1.044,1.044,0,1,0,2.085.079,1.064,1.064,0,0,0-1.044-1.06,1,1,0,0,0-1.041.981" transform="translate(-126.694 -104.39)" fill="#fff"/>
          <path id="Path_2120" data-name="Path 2120" d="M186.02,79.111c0,.151,0,.3,0,.453a.706.706,0,0,1-.608.7.686.686,0,0,1-.8-.529,5.011,5.011,0,0,1,0-1.241.659.659,0,0,1,.774-.548.734.734,0,0,1,.633.726c0,.145,0,.29,0,.435" transform="translate(-165.406 -70.172)" fill="#fff"/>
          <path id="Path_2121" data-name="Path 2121" d="M79.07,184.486c.157,0,.315-.006.472,0a.733.733,0,0,1,.715.668.71.71,0,0,1-.587.741,5.157,5.157,0,0,1-1.17,0,.675.675,0,0,1-.56-.817.7.7,0,0,1,.714-.591c.139,0,.278,0,.417,0h0" transform="translate(-69.081 -166.404)" fill="#fff"/>
          <path id="Path_2122" data-name="Path 2122" d="M185.957,283.228a4.485,4.485,0,0,1-.055.611.7.7,0,0,1-.825.536.691.691,0,0,1-.587-.716c0-.278,0-.556,0-.834a.735.735,0,0,1,.709-.766.777.777,0,0,1,.74.751c.006.139,0,.278,0,.417Z" transform="translate(-165.328 -254.539)" fill="#fff"/>
          <path id="Path_2123" data-name="Path 2123" d="M283.183,185.989h-.363a.743.743,0,0,1-.79-.665.71.71,0,0,1,.635-.754,4.852,4.852,0,0,1,1.117.01.653.653,0,0,1,.566.741.732.732,0,0,1-.694.667c-.157.007-.314,0-.471,0" transform="translate(-253.429 -166.456)" fill="#fff"/>
          <path id="Path_2124" data-name="Path 2124" d="M89.225,90a.736.736,0,0,1-.719-.718.723.723,0,1,1,1.447.006.746.746,0,0,1-.727.712" transform="translate(-78.631 -79.754)" fill="#fff"/>
          <path id="Path_2125" data-name="Path 2125" d="M236.6,8.222a.733.733,0,0,1,.727-.709.743.743,0,0,1,.7.762.718.718,0,0,1-.73.681.709.709,0,0,1-.694-.734" transform="translate(-212.393 -6.555)" fill="#fff"/>
        </g>
      </g>
    </g>
  </g>
</svg>
