<svg xmlns="http://www.w3.org/2000/svg" xmlns:xlink="http://www.w3.org/1999/xlink" width="223" height="223" viewBox="0 0 223 223">
  <defs>
    <filter id="Rectangle_225" x="0" y="0" width="223" height="223" filterUnits="userSpaceOnUse">
      <feOffset dy="3" input="SourceAlpha"/>
      <feGaussianBlur stdDeviation="4.5" result="blur"/>
      <feFlood flood-opacity="0.161"/>
      <feComposite operator="in" in2="blur"/>
      <feComposite in="SourceGraphic"/>
    </filter>
    <clipPath id="clip-path">
      <rect id="Rectangle_226" data-name="Rectangle 226" width="93.074" height="92.884" fill="#fff"/>
    </clipPath>
  </defs>
  <g id="Component_31_2" data-name="Component 31 – 2" transform="translate(13.5 10.5)">
    <g transform="matrix(1, 0, 0, 1, -13.5, -10.5)" filter="url(#Rectangle_225)">
      <rect id="Rectangle_225-2" data-name="Rectangle 225" width="196" height="196" rx="23" transform="translate(13.5 10.5)" fill="#ec6e7a"/>
    </g>
    <g id="Group_420" data-name="Group 420" transform="translate(51 52)">
      <g id="Group_419" data-name="Group 419" clip-path="url(#clip-path)">
        <path id="Path_1243" data-name="Path 1243" d="M262.553,48.632c-.072.563-.16,1.125-.214,1.691-.294,3.06-2.229,5.043-4.928,5.043a4.69,4.69,0,0,1-4.751-5.418c1.01-7.95-1.552-14.881-5.93-21.265A46.925,46.925,0,0,0,228.9,12.9,27.718,27.718,0,0,0,214.8,9.731c-.906.05-1.81.189-2.714.183A4.607,4.607,0,0,1,207.252,5.7,4.659,4.659,0,0,1,211.005.485a24.493,24.493,0,0,1,7.954-.3c10.478,1.063,19.234,5.792,26.886,12.8A54.039,54.039,0,0,1,258.668,30.09a40.476,40.476,0,0,1,3.717,13.491,8.488,8.488,0,0,0,.168.871v4.18" transform="translate(-169.48 0)" fill="#fff"/>
        <path id="Path_1244" data-name="Path 1244" d="M69.882,133.2a37.942,37.942,0,0,1-13.9-2.779c-9.453-3.673-17.717-9.267-25.337-15.87A110.211,110.211,0,0,1,8.489,88.862,58.932,58.932,0,0,1,.681,70.5,19.286,19.286,0,0,1,.417,61.6a7.54,7.54,0,0,1,1.4-3.188A67.133,67.133,0,0,1,8.73,51.6c3.718-3.038,7.281-3.069,11.094-.081a28.007,28.007,0,0,1,8.733,11.744c1.384,3.431.547,6.464-1.882,9.129-.958,1.052-1.909,2.119-2.957,3.077a4.069,4.069,0,0,0-1.2,4.85,30.52,30.52,0,0,0,2.7,5.309,77.437,77.437,0,0,0,10.316,11.94A86.6,86.6,0,0,0,47.917,108.2a16.219,16.219,0,0,0,6.135,2.824,3.962,3.962,0,0,0,3.79-1.221c1.033-1.064,2.109-2.088,3.184-3.109,2.793-2.652,6.014-3.479,9.6-1.922a28.41,28.41,0,0,1,11.939,9.2,7.77,7.77,0,0,1,.207,9.408,31.413,31.413,0,0,1-2.829,3.537c-.883.994-1.947,1.83-2.813,2.837a9.485,9.485,0,0,1-7.247,3.448" transform="translate(0 -40.322)" fill="#fff"/>
        <path id="Path_1245" data-name="Path 1245" d="M237.116,98.233c1.17.291,3.06.611,4.848,1.228a32.79,32.79,0,0,1,21.274,21.256,31.028,31.028,0,0,1,1.2,5.021,4.8,4.8,0,0,1-3.655,5.413,4.739,4.739,0,0,1-5.733-3.354c-.494-1.68-.723-3.457-1.375-5.068-3.142-7.768-8.727-12.772-16.986-14.639-.649-.147-1.309-.262-1.938-.469a4.809,4.809,0,0,1-3.272-5.415c.4-2.363,2.337-3.924,5.634-3.973" transform="translate(-189.268 -80.343)" fill="#fff"/>
      </g>
    </g>
  </g>
</svg>
