<svg id="Group_1256" data-name="Group 1256" xmlns="http://www.w3.org/2000/svg" xmlns:xlink="http://www.w3.org/1999/xlink" width="38.692" height="38.692" viewBox="0 0 38.692 38.692">
  <defs>
    <clipPath id="clip-path">
      <rect id="Rectangle_639" data-name="Rectangle 639" width="38.692" height="38.692" fill="#ed7580"/>
    </clipPath>
  </defs>
  <g id="Group_1255" data-name="Group 1255" transform="translate(0 0)" clip-path="url(#clip-path)">
    <path id="Path_4113" data-name="Path 4113" d="M34.259,78.136H4.434A4.437,4.437,0,0,1,0,73.7V47.1a4.437,4.437,0,0,1,4.434-4.433H34.259A4.437,4.437,0,0,1,38.692,47.1V73.7a4.437,4.437,0,0,1-4.434,4.434M4.434,45.086A2.018,2.018,0,0,0,2.418,47.1V73.7a2.018,2.018,0,0,0,2.015,2.015H34.259A2.018,2.018,0,0,0,36.274,73.7V47.1a2.018,2.018,0,0,0-2.015-2.015Z" transform="translate(-0.222 -39.666)" fill="#ed7580"/>
    <path id="Path_4114" data-name="Path 4114" d="M37.483,173.086H1.209a1.209,1.209,0,1,1,0-2.418H37.483a1.209,1.209,0,1,1,0,2.418" transform="translate(-0.222 -157.993)" fill="#ed7580"/>
    <path id="Path_4115" data-name="Path 4115" d="M107.877,9.673a1.21,1.21,0,0,1-1.209-1.209V1.209a1.209,1.209,0,0,1,2.418,0V8.464a1.21,1.21,0,0,1-1.209,1.209" transform="translate(-98.829 -0.222)" fill="#ed7580"/>
    <path id="Path_4116" data-name="Path 4116" d="M374.541,9.673a1.21,1.21,0,0,1-1.209-1.209V1.209a1.209,1.209,0,1,1,2.418,0V8.464a1.21,1.21,0,0,1-1.209,1.209" transform="translate(-345.341 -0.222)" fill="#ed7580"/>
  </g>
</svg>
