<svg xmlns="http://www.w3.org/2000/svg" xmlns:xlink="http://www.w3.org/1999/xlink" width="36" height="35" viewBox="0 0 36 35">
  <defs>
    <clipPath id="clip-path">
      <rect id="Rectangle_477" data-name="Rectangle 477" width="36" height="35" transform="translate(0.157 0.301)"/>
    </clipPath>
  </defs>
  <g id="Group_975" data-name="Group 975" transform="translate(-2.157 -0.301)">
    <g id="Group_797" data-name="Group 797" transform="translate(2 0)" opacity="0.11">
      <g id="Group_791" data-name="Group 791" transform="translate(0 0)">
        <g id="Group_790" data-name="Group 790" clip-path="url(#clip-path)">
          <path id="Path_2129" data-name="Path 2129" d="M19.151,0a5.415,5.415,0,0,1,1.212,1.07c1.8,1.789,3.587,3.6,5.383,5.391a.961.961,0,0,1,.3.738c-.012,1.258,0,2.516-.008,3.775a.311.311,0,0,0,.183.312,9.063,9.063,0,0,1,4.231,5.16c.123.37.2.756.291,1.137a.517.517,0,0,1-.354.626.5.5,0,0,1-.618-.386c-.12-.415-.19-.847-.343-1.248a7.912,7.912,0,0,0-6.512-5.347,7.73,7.73,0,0,0-5.97,1.472,7.79,7.79,0,0,0-3.232,5.416,7.911,7.911,0,0,0,2.5,7.086,7.693,7.693,0,0,0,4.394,2.089,8.11,8.11,0,0,0,9.2-6.954c.024-.171.028-.345.047-.517a.524.524,0,0,1,.561-.529.549.549,0,0,1,.459.641,9.186,9.186,0,0,1-1.413,4.237c-.012.019-.02.04-.049.1l1.024.993a1.323,1.323,0,0,0,.172.17.2.2,0,0,0,.161.021.552.552,0,0,1,.776.122q1.6,1.6,3.191,3.2a2.22,2.22,0,0,1,.659,1.3c0,.033.044.061.067.091v.554c-.021.083-.047.166-.064.25a2.261,2.261,0,0,1-.37.905,2.39,2.39,0,0,1-2.309,1.069,2.418,2.418,0,0,1-1.5-.744q-1.592-1.59-3.182-3.182a.505.505,0,0,1-.112-.685c.083-.126.047-.188-.042-.274-.236-.229-.465-.465-.7-.7-.143-.141-.281-.375-.439-.391s-.355.179-.54.268a.269.269,0,0,0-.164.285q.007,3.176,0,6.353a1.553,1.553,0,0,1-1.164,1.514.467.467,0,0,0-.117.073H1.143l.113-.046A3.7,3.7,0,0,1,.7,35.172a1.44,1.44,0,0,1-.633-.905c-.005-.021-.046-.034-.07-.051V7.931c.032-.054.064-.108.1-.161a.5.5,0,0,1,.529-.248.512.512,0,0,1,.4.441,1.33,1.33,0,0,1,.006.173q0,12.821,0,25.643a1,1,0,0,0,.1.427.439.439,0,0,0,.424.22c.289,0,.577,0,.866,0h21.7c.1,0,.208,0,.312,0a.531.531,0,0,0,.577-.585q0-2.164,0-4.329c0-.558,0-1.116,0-1.7-.134.039-.259.073-.382.113a9.65,9.65,0,0,1-3.008.478c-3.769-.01-7.538,0-11.306,0a.587.587,0,0,1-.481-.187.5.5,0,0,1,.255-.819,1.22,1.22,0,0,1,.291-.03q3.281,0,6.562,0h.545c-.1-.07-.163-.118-.229-.155a9.6,9.6,0,0,1-1.69-1.228.472.472,0,0,0-.29-.109c-1.668,0-3.336,0-5,0a.517.517,0,0,1-.576-.508.509.509,0,0,1,.413-.505,1.816,1.816,0,0,1,.327-.022l3.844,0c.061,0,.122-.006.218-.011-.059-.086-.1-.146-.14-.2a8.821,8.821,0,0,1-1.548-3.478c-.027-.139-.075-.192-.235-.188-.738.017-1.477.016-2.216.014a.9.9,0,0,1-.351-.071.507.507,0,0,1-.292-.522.536.536,0,0,1,.458-.434,2.682,2.682,0,0,1,.328-.016c.692,0,1.384,0,2.094,0V18.424H12.36c-.687,0-1.374,0-2.06,0a.8.8,0,0,1-.3-.056.5.5,0,0,1,.115-.953,2.021,2.021,0,0,1,.361-.023c.716,0,1.431,0,2.147,0,.128,0,.176-.036.2-.165a8.888,8.888,0,0,1,1.623-3.461c.013-.018.024-.037.053-.082-.089-.007-.16-.017-.23-.017q-1.974,0-3.948.008a.579.579,0,0,1-.513-.23.5.5,0,0,1,.359-.8c.149-.014.3-.006.45-.006q2.3,0,4.606,0a.559.559,0,0,0,.359-.131c.51-.385,1.028-.76,1.548-1.132a3.632,3.632,0,0,0,.336-.221,2.342,2.342,0,0,0-.264-.028q-2.4.006-4.8.016-1.047,0-2.1,0a.553.553,0,0,1-.566-.344.512.512,0,0,1,.433-.684,4.174,4.174,0,0,1,.5-.018q5.324,0,10.648,0a10.254,10.254,0,0,1,3.058.395c.2.062.4.13.626.2v-.257c0-.918-.005-1.835,0-2.753,0-.16-.039-.2-.2-.2-1.529.006-3.059,0-4.588,0a1.558,1.558,0,0,1-1.665-1.668q0-2.277,0-4.554V1.035h-.228l-16.345,0c-.127,0-.254,0-.381,0a.518.518,0,0,0-.578.578c0,1.356,0,2.713.005,4.069,0,.087,0,.173,0,.26a.512.512,0,0,1-.378.482A.486.486,0,0,1,.108,6.2C.07,6.145.036,6.085,0,6.026V1.385C.031,1.3.067,1.216.093,1.13A1.466,1.466,0,0,1,1.227.068,1.8,1.8,0,0,0,1.42,0ZM31.1,26.579c-.025.01-.039.012-.046.019-.636.636-1.27,1.275-1.91,1.908-.095.094-.029.139.027.195q1.383,1.382,2.767,2.764a1.489,1.489,0,0,0,.98.453,1.4,1.4,0,0,0,1.514-1.345,1.6,1.6,0,0,0-.562-1.249c-.878-.868-1.749-1.743-2.624-2.614-.048-.048-.1-.091-.147-.131M24.181,6.448,19.6,1.873c0-.019,0,0,0,.014q0,1.877,0,3.754c0,.115,0,.231.008.346a.484.484,0,0,0,.459.458c.092.008.184.01.277.009l3.131-.007h.711m3.477,19.9c.308.318.655.679,1.009,1.034a.155.155,0,0,0,.151-.005c.356-.346.7-.7,1.057-1.048.078-.076.073-.126-.006-.2-.107-.1-.2-.2-.306-.306l-.709-.7-1.2,1.223" transform="translate(0.584 -0.058)"/>
          <path id="Path_2130" data-name="Path 2130" d="M38.616,105.993c0-.449-.035-.9.009-1.347a1.07,1.07,0,0,1,1.031-.971c.818-.027,1.638-.034,2.455,0a1.144,1.144,0,0,1,1.081,1.194q0,1.073,0,2.146a1.145,1.145,0,0,1-1.129,1.237c-.811.032-1.627.029-2.438-.013a1.111,1.111,0,0,1-1.037-1.122c-.012-.375,0-.75,0-1.125Zm2.288-1.288h0c-.363,0-.727,0-1.09,0-.1,0-.191.005-.191.14q0,1.107,0,2.214c0,.106.049.155.159.155q1.09,0,2.18,0c.139,0,.185-.074.186-.193,0-.71,0-1.419,0-2.129,0-.135-.058-.2-.2-.192-.346.007-.692,0-1.039,0" transform="translate(-34.435 -94.138)"/>
          <path id="Path_2131" data-name="Path 2131" d="M38.614,265.666c0-.461-.036-.925.01-1.381a1.052,1.052,0,0,1,.966-.9c.564-.032,1.13-.021,1.7-.023a8.3,8.3,0,0,1,.864.02,1.142,1.142,0,0,1,1.038,1.129q.016,1.142,0,2.285a1.133,1.133,0,0,1-1.1,1.157c-.829.03-1.661.025-2.49-.006a1.1,1.1,0,0,1-1.009-1.091c-.015-.4,0-.8,0-1.194h.03m2.255,1.265v0c.34,0,.681,0,1.021,0,.235,0,.253-.021.254-.261q0-.978,0-1.957c0-.052-.006-.1-.01-.155a.132.132,0,0,0-.155-.141q-1.09,0-2.181,0c-.121,0-.179.044-.18.172q0,1.073-.015,2.146c0,.145.061.2.21.2.352-.007.7,0,1.056,0" transform="translate(-34.433 -239.101)"/>
          <path id="Path_2132" data-name="Path 2132" d="M38.576,185.057c0-.381-.008-.762,0-1.142a1.116,1.116,0,0,1,1.069-1.128c.818-.03,1.639-.032,2.457,0a1.123,1.123,0,0,1,1.077,1.14c.011.762.012,1.524,0,2.285a1.181,1.181,0,0,1-1.191,1.148q-1.1,0-2.2,0a1.167,1.167,0,0,1-1.213-1.174c-.009-.375,0-.75,0-1.125m2.305,1.269v0c.328,0,.657,0,.985,0,.254,0,.273-.027.273-.281q0-.968,0-1.936c0-.293-.009-.309-.294-.311-.663,0-1.326,0-1.988,0-.173,0-.256.062-.255.24q0,1.054,0,2.109c0,.132.06.184.19.182.363,0,.726,0,1.089,0" transform="translate(-34.427 -165.943)"/>
          <path id="Path_2133" data-name="Path 2133" d="M168.805,136.233a5.546,5.546,0,0,0-4.5,2.157,5.409,5.409,0,0,0-1.174,2.585,5.76,5.76,0,0,0,.133,2.518c.024.083.049.166.068.25a.508.508,0,0,1-.338.616.481.481,0,0,1-.623-.316,8.8,8.8,0,0,1-.261-1.037,6,6,0,0,1,.383-3.51,6.722,6.722,0,0,1,5.341-4.217,6.751,6.751,0,0,1,2.335,13.293,6.589,6.589,0,0,1-6.676-2.428.588.588,0,0,1-.182-.518.471.471,0,0,1,.318-.377.478.478,0,0,1,.5.1,1.522,1.522,0,0,1,.162.18,5.64,5.64,0,0,0,4.829,2.16,5.741,5.741,0,0,0,1.391-11.212,5.509,5.509,0,0,0-1.708-.245" transform="translate(-146.461 -122.767)"/>
          <path id="Path_2134" data-name="Path 2134" d="M199.46,179.095c.493-.468.99-.932,1.478-1.4a2.121,2.121,0,0,1,.9-.589,1.642,1.642,0,0,1,1.752.641,1.6,1.6,0,0,1-.065,1.874c-.186.227-.406.425-.611.636-.728.748-1.451,1.5-2.185,2.243a1.562,1.562,0,0,1-1.8.4,1.674,1.674,0,0,1-.463-.295c-.513-.473-1.026-.947-1.515-1.444a1.574,1.574,0,0,1,.224-2.428,1.625,1.625,0,0,1,2.151.252,1.479,1.479,0,0,1,.142.2l-.006-.086m3.361-.543a.531.531,0,0,0-.3-.418.588.588,0,0,0-.749.154q-.881.894-1.753,1.8c-.388.4-.613.408-1.019.019-.175-.168-.343-.343-.525-.5a.557.557,0,0,0-.7-.054.571.571,0,0,0-.083.9c.473.481.958.95,1.449,1.414a.569.569,0,0,0,.812-.017c.318-.31.63-.627.938-.947q.859-.891,1.712-1.788a.7.7,0,0,0,.225-.557" transform="translate(-177.749 -160.755)"/>
        </g>
      </g>
    </g>
  </g>
</svg>
