<svg xmlns="http://www.w3.org/2000/svg" xmlns:xlink="http://www.w3.org/1999/xlink" width="68" height="68" viewBox="0 0 68 68">
  <defs>
    <clipPath id="clip-path">
      <rect id="Rectangle_477" data-name="Rectangle 477" width="68" height="68" fill="#ee7f88"/>
    </clipPath>
  </defs>
  <g id="Group_800" data-name="Group 800" transform="translate(-1033 -1353)">
    <g id="Group_797" data-name="Group 797" transform="translate(1033 1353)">
      <g id="Group_791" data-name="Group 791">
        <g id="Group_790" data-name="Group 790" transform="translate(0 0)" clip-path="url(#clip-path)">
          <path id="Path_2129" data-name="Path 2129" d="M36.309,0a10.267,10.267,0,0,1,2.3,2.029c3.417,3.392,6.8,6.816,10.2,10.22a1.821,1.821,0,0,1,.573,1.4c-.022,2.385,0,4.771-.016,7.156a.589.589,0,0,0,.346.591,17.182,17.182,0,0,1,8.022,9.784c.234.7.388,1.432.553,2.156a.98.98,0,0,1-.671,1.186.947.947,0,0,1-1.172-.732c-.227-.786-.36-1.606-.651-2.366-2.188-5.715-6.278-9.184-12.345-10.137a14.656,14.656,0,0,0-11.319,2.791A14.769,14.769,0,0,0,26,34.346,15,15,0,0,0,30.742,47.78a14.586,14.586,0,0,0,8.331,3.961A15.376,15.376,0,0,0,56.514,38.556c.046-.324.053-.654.089-.98a.994.994,0,0,1,1.064-1,1.041,1.041,0,0,1,.87,1.216,17.416,17.416,0,0,1-2.68,8.033c-.022.035-.038.075-.093.184.641.621,1.292,1.251,1.942,1.883a2.509,2.509,0,0,0,.326.321.373.373,0,0,0,.305.039,1.047,1.047,0,0,1,1.471.231q3.028,3.03,6.05,6.065a4.208,4.208,0,0,1,1.249,2.471c.008.062.083.115.127.172v1.051c-.041.158-.089.314-.121.474a4.286,4.286,0,0,1-.7,1.716,4.532,4.532,0,0,1-4.378,2.026,4.584,4.584,0,0,1-2.848-1.41q-3.018-3.015-6.033-6.033a.958.958,0,0,1-.212-1.3c.157-.239.089-.356-.079-.519-.448-.434-.882-.882-1.325-1.32-.272-.268-.532-.711-.832-.742-.319-.034-.673.34-1.024.509a.51.51,0,0,0-.311.54q.013,6.022.005,12.045a2.945,2.945,0,0,1-2.208,2.87.886.886,0,0,0-.221.138H2.167l.214-.087a7.019,7.019,0,0,1-1.048-.465,2.729,2.729,0,0,1-1.2-1.716c-.01-.04-.087-.064-.133-.1V15.036c.061-.1.12-.2.182-.305a.952.952,0,0,1,1-.47.97.97,0,0,1,.767.837,2.521,2.521,0,0,1,.011.328q0,24.308,0,48.616a1.9,1.9,0,0,0,.189.81.833.833,0,0,0,.8.417c.547,0,1.094,0,1.641,0H45.73c.2,0,.394,0,.591-.007a1.007,1.007,0,0,0,1.095-1.109q.006-4.1,0-8.207c0-1.058,0-2.116,0-3.219-.254.075-.491.139-.724.214a18.3,18.3,0,0,1-5.7.906c-7.145-.02-14.29-.009-21.436,0a1.114,1.114,0,0,1-.912-.355.939.939,0,0,1,.483-1.552,2.312,2.312,0,0,1,.552-.057q6.22,0,12.441,0h1.034c-.195-.133-.309-.223-.435-.294a18.191,18.191,0,0,1-3.2-2.329.9.9,0,0,0-.549-.207c-3.162-.009-6.325,0-9.487,0a.98.98,0,0,1-1.092-.962.966.966,0,0,1,.783-.958,3.443,3.443,0,0,1,.621-.042q3.644,0,7.287.006c.115,0,.231-.011.414-.02-.112-.162-.186-.276-.266-.387A16.724,16.724,0,0,1,24.288,40.1c-.052-.264-.142-.364-.445-.357-1.4.032-2.8.031-4.2.026a1.7,1.7,0,0,1-.666-.134.962.962,0,0,1-.554-.989,1.016,1.016,0,0,1,.868-.823,5.084,5.084,0,0,1,.622-.03c1.312,0,2.624,0,3.969,0V34.931h-.447c-1.3,0-2.6,0-3.906,0a1.526,1.526,0,0,1-.572-.106.947.947,0,0,1,.218-1.806,3.831,3.831,0,0,1,.685-.044c1.357,0,2.714-.009,4.07,0,.243,0,.333-.068.387-.314a16.852,16.852,0,0,1,3.077-6.562c.025-.033.045-.07.1-.156-.17-.013-.3-.032-.436-.031q-3.742,0-7.484.016a1.1,1.1,0,0,1-.973-.436.946.946,0,0,1,.681-1.515c.282-.026.569-.012.853-.012q4.366,0,8.732,0a1.06,1.06,0,0,0,.681-.248c.967-.73,1.95-1.44,2.935-2.147a6.886,6.886,0,0,0,.636-.419,4.44,4.44,0,0,0-.5-.053q-4.546.011-9.092.03-1.986.006-3.972,0a1.049,1.049,0,0,1-1.074-.652.971.971,0,0,1,.82-1.3,7.914,7.914,0,0,1,.95-.034q10.094,0,20.187,0a19.441,19.441,0,0,1,5.8.749c.382.118.762.246,1.187.383v-.488c0-1.74-.01-3.48.006-5.219,0-.3-.074-.389-.378-.387-2.9.011-5.8.007-8.7.006a2.953,2.953,0,0,1-3.156-3.162q0-4.317,0-8.633V1.961h-.432L3.773,1.97c-.241,0-.481-.009-.722,0a.983.983,0,0,0-1.1,1.1c0,2.571.006,5.143.01,7.714,0,.164.009.328,0,.492a.971.971,0,0,1-.716.914.921.921,0,0,1-1.045-.425C.133,11.65.068,11.536,0,11.425v-8.8c.06-.161.127-.32.177-.484A2.779,2.779,0,0,1,2.327.129,3.413,3.413,0,0,0,2.692,0ZM58.958,50.391c-.048.019-.073.022-.087.036-1.206,1.206-2.408,2.417-3.62,3.617-.179.177-.056.263.051.37q2.623,2.621,5.247,5.24a2.823,2.823,0,0,0,1.857.859,2.661,2.661,0,0,0,2.871-2.55A3.038,3.038,0,0,0,64.211,55.6c-1.665-1.645-3.317-3.3-4.975-4.956-.091-.091-.192-.172-.278-.249M45.845,12.224,37.162,3.552c.007-.036,0,0,0,.026q0,3.559-.006,7.118c0,.219,0,.438.016.656a.918.918,0,0,0,.869.868c.174.016.349.018.524.018l5.937-.013h1.347m6.592,37.735c.583.6,1.241,1.288,1.912,1.96a.294.294,0,0,0,.286-.01c.674-.655,1.333-1.327,2-1.986.147-.145.138-.238-.011-.372-.2-.182-.386-.387-.58-.58-.47-.466-.941-.931-1.345-1.331l-2.267,2.318" transform="translate(0.095 0.671)" fill="#ee7f88"/>
          <path id="Path_2130" data-name="Path 2130" d="M38.646,108.091c0-.852-.066-1.71.017-2.553a2.029,2.029,0,0,1,1.954-1.841c1.55-.052,3.105-.064,4.654,0a2.168,2.168,0,0,1,2.05,2.264q.007,2.034,0,4.069a2.172,2.172,0,0,1-2.14,2.345c-1.539.061-3.085.054-4.622-.024a2.106,2.106,0,0,1-1.966-2.127c-.022-.71,0-1.422,0-2.133Zm4.338-2.441v0c-.689,0-1.378,0-2.067,0-.181,0-.363.01-.363.266q0,2.1,0,4.2c0,.2.093.294.3.293q2.066,0,4.133.006c.264,0,.352-.14.352-.366,0-1.345,0-2.691-.006-4.036,0-.256-.11-.37-.38-.365-.656.013-1.313,0-1.969,0" transform="translate(-31.732 -84.833)" fill="#ee7f88"/>
          <path id="Path_2131" data-name="Path 2131" d="M38.645,267.728c0-.873-.068-1.753.019-2.618a1.994,1.994,0,0,1,1.831-1.7c1.069-.061,2.142-.04,3.214-.044a15.762,15.762,0,0,1,1.638.037,2.165,2.165,0,0,1,1.967,2.14q.031,2.165,0,4.332a2.149,2.149,0,0,1-2.088,2.194c-1.572.057-3.149.047-4.721-.011a2.082,2.082,0,0,1-1.912-2.068c-.027-.754-.005-1.509-.005-2.264h.057m4.276,2.4v-.006c.646,0,1.291,0,1.937,0,.445,0,.48-.04.481-.494q0-1.855,0-3.709c0-.1-.011-.2-.019-.294a.251.251,0,0,0-.293-.267q-2.067.007-4.135,0c-.229,0-.34.084-.341.326q-.008,2.034-.028,4.069c0,.274.116.388.4.383.667-.013,1.335,0,2,0" transform="translate(-31.73 -216.582)" fill="#ee7f88"/>
          <path id="Path_2132" data-name="Path 2132" d="M38.579,187.113c0-.722-.015-1.444,0-2.166a2.117,2.117,0,0,1,2.026-2.139c1.551-.056,3.107-.061,4.658-.007a2.129,2.129,0,0,1,2.043,2.161c.02,1.444.023,2.888,0,4.332a2.239,2.239,0,0,1-2.258,2.177q-2.084,0-4.168,0a2.212,2.212,0,0,1-2.3-2.225c-.018-.711,0-1.422,0-2.133m4.37,2.406v0c.623,0,1.246.006,1.868,0,.481-.006.518-.051.518-.532q0-1.836,0-3.671c0-.555-.017-.586-.558-.589-1.256-.007-2.513,0-3.769-.005-.328,0-.484.117-.483.454q.008,2,0,4c0,.25.114.348.361.346.688-.007,1.376,0,2.065,0" transform="translate(-31.725 -150.092)" fill="#ee7f88"/>
          <path id="Path_2133" data-name="Path 2133" d="M174.9,137.164a10.516,10.516,0,0,0-8.524,4.09,10.256,10.256,0,0,0-2.225,4.9,10.92,10.92,0,0,0,.251,4.774c.046.157.093.314.129.473a.964.964,0,0,1-.641,1.168.912.912,0,0,1-1.182-.6,16.7,16.7,0,0,1-.5-1.967,11.37,11.37,0,0,1,.725-6.655,12.745,12.745,0,0,1,10.126-7.994,12.8,12.8,0,0,1,4.427,25.2c-5.115,1.025-9.308-.679-12.657-4.6a1.114,1.114,0,0,1-.346-.982.894.894,0,0,1,.6-.715.906.906,0,0,1,.946.194,2.891,2.891,0,0,1,.307.341,10.693,10.693,0,0,0,9.155,4.1,10.884,10.884,0,0,0,2.638-21.257,10.443,10.443,0,0,0-3.238-.465" transform="translate(-133.547 -110.852)" fill="#ee7f88"/>
          <path id="Path_2134" data-name="Path 2134" d="M202.13,180.929c.935-.887,1.877-1.767,2.8-2.663a4.022,4.022,0,0,1,1.706-1.116,3.113,3.113,0,0,1,3.321,1.215,3.029,3.029,0,0,1-.123,3.553c-.352.43-.769.806-1.158,1.205-1.38,1.419-2.751,2.846-4.142,4.253a2.962,2.962,0,0,1-3.415.763,3.175,3.175,0,0,1-.878-.559c-.973-.9-1.946-1.795-2.873-2.737a2.985,2.985,0,0,1,.425-4.6,3.08,3.08,0,0,1,4.078.479,2.8,2.8,0,0,1,.269.371l-.012-.162M208.5,179.9a1.007,1.007,0,0,0-.577-.792,1.115,1.115,0,0,0-1.421.292q-1.67,1.7-3.324,3.406c-.736.761-1.163.774-1.932.036-.332-.318-.651-.65-1-.953a1.056,1.056,0,0,0-1.332-.1,1.083,1.083,0,0,0-.157,1.7c.9.912,1.817,1.8,2.747,2.681a1.079,1.079,0,0,0,1.54-.031c.6-.588,1.194-1.189,1.778-1.8q1.629-1.689,3.245-3.39a1.322,1.322,0,0,0,.427-1.056" transform="translate(-161.983 -145.377)" fill="#ee7f88"/>
        </g>
      </g>
    </g>
  </g>
</svg>
