<svg xmlns="http://www.w3.org/2000/svg" xmlns:xlink="http://www.w3.org/1999/xlink" width="72.207" height="78.723" viewBox="0 0 72.207 78.723">
  <defs>
    <clipPath id="clip-path">
      <rect id="Rectangle_478" data-name="Rectangle 478" width="72.206" height="78.723" fill="#ee7f88"/>
    </clipPath>
  </defs>
  <g id="Group_801" data-name="Group 801" transform="translate(-1021 -1461)">
    <g id="Group_798" data-name="Group 798" transform="translate(1021 1461)">
      <g id="Group_793" data-name="Group 793" transform="translate(0 0)">
        <g id="Group_792" data-name="Group 792" clip-path="url(#clip-path)">
          <path id="Path_2135" data-name="Path 2135" d="M22.874,218.553q-7.065-7-14.131-14.01a6.109,6.109,0,0,1-.548-.591,1.118,1.118,0,0,1,.092-1.5,1.145,1.145,0,0,1,1.54-.026c.156.132.3.284.44.429L23,215.612c.044.044.1.082.13.111l5.227-5.256L7.979,190.12a1.044,1.044,0,0,0-.141.118q-2.405,2.406-4.81,4.812c-.2.2-.289.305-.013.569,1.074,1.027,2.106,2.1,3.151,3.154a1.2,1.2,0,0,1,.424,1.1,1.1,1.1,0,0,1-1.761.717,3.415,3.415,0,0,1-.371-.333Q2.5,198.3.544,196.339c-.731-.736-.726-1.264.013-2.005q3.244-3.252,6.494-6.5a1.232,1.232,0,0,1,2.067.025,8.609,8.609,0,0,1,.7.714c.218.282.368.262.6.019.63-.656,1.281-1.291,1.925-1.934a1.277,1.277,0,0,1,2.138,0c.66.661,1.313,1.329,2,2.029.091-.128.163-.227.231-.328a23.211,23.211,0,0,1,4.928-5.5,14.447,14.447,0,0,1,9.582-3.351,18.52,18.52,0,0,1,6.618,1.534c.506.215,1,.466,1.523.63a4.4,4.4,0,0,0,1.274.205c2.139.014,4.28-.035,6.419,0a4.008,4.008,0,0,1,3.8,2.638c.057.129.109.259.169.386.015.031.052.052.078.076,1.709-.99,3.409-1.981,5.116-2.961,3.151-1.81,6.314-3.6,9.456-5.424a4.074,4.074,0,0,1,4.464-.074,4.218,4.218,0,0,1,2.014,4.149,4.27,4.27,0,0,1-1.4,2.5c-1.091.949-2.216,1.861-3.354,2.753-5.413,4.243-10.848,8.458-16.246,12.718a10,10,0,0,1-6.4,2.2c-1.32,0-2.639,0-3.959,0a3.691,3.691,0,0,1-.611-.045,1.2,1.2,0,0,1-1-1.143,1.207,1.207,0,0,1,1.021-1.091,5.757,5.757,0,0,1,.767-.04c1.627-.014,3.254,0,4.881-.043a5.649,5.649,0,0,0,3.333-1.232q3.834-2.955,7.639-5.947,5.977-4.675,11.947-9.358a2.235,2.235,0,0,0,1.046-1.82,1.975,1.975,0,0,0-2.978-1.588c-1.238.769-2.517,1.475-3.78,2.2q-5.135,2.967-10.274,5.929c-.554.319-1.123.613-1.673.939a1.117,1.117,0,0,0-.395.393,4.159,4.159,0,0,1-3.909,2.314q-5.843-.032-11.685-.033c-.615,0-1.23.031-1.844.024a2.312,2.312,0,0,1-.751-.114,1.1,1.1,0,0,1-.7-1.121,1.161,1.161,0,0,1,1.076-1.029c.331-.026.665,0,1,0q6.189,0,12.378-.006a8.941,8.941,0,0,0,1.11-.081,1.682,1.682,0,0,0,1.523-1.269,1.906,1.906,0,0,0-.567-1.964,2.161,2.161,0,0,0-1.577-.595c-2.063,0-4.126-.016-6.188.018a4.991,4.991,0,0,1-2.084-.408,24.882,24.882,0,0,0-5.611-1.8,11.612,11.612,0,0,0-8.323,1.621,18.989,18.989,0,0,0-6.241,6.564c-.152.255-.011.367.137.515q2.587,2.576,5.171,5.156c.807.806,1.615,1.61,2.41,2.428a.936.936,0,0,0,.738.315q4-.025,7.995-.015a2.79,2.79,0,0,1,.9.134,1.148,1.148,0,0,1,.727,1.114,1.2,1.2,0,0,1-1.048,1.022c-.356.035-.716.046-1.074.045-1.793,0-3.587-.009-5.38-.012a.638.638,0,0,0-.145.047,1.9,1.9,0,0,0,.151.2c.626.642,1.261,1.275,1.882,1.922a1.139,1.139,0,0,1,0,1.84c-.771.768-1.577,1.5-2.39,2.272.17.188.247.281.333.368.679.68,1.37,1.349,2.035,2.042a1.183,1.183,0,0,1,0,1.858q-3.212,3.229-6.447,6.436a8.666,8.666,0,0,1-.978.734Zm4.088-12.892c.435-.49.847-.982,1.292-1.442.208-.215.219-.335,0-.554q-7.315-7.306-14.616-14.624a1.388,1.388,0,0,0-.159-.132l-1.67,1.584,15.154,15.168" transform="translate(0 -139.83)" fill="#ee7f88"/>
          <path id="Path_2136" data-name="Path 2136" d="M148.733,0c.269.07.534.164.807.207a11.237,11.237,0,0,1,9.19,9.13,11.11,11.11,0,0,1-3.322,10.121Q147.418,27.45,139.4,35.412c-.959.954-1.168.947-2.121,0q-3.106-3.09-6.2-6.2a1.829,1.829,0,0,1-.476-.8.965.965,0,0,1,.513-1.1,1.12,1.12,0,0,1,1.3.071,5.337,5.337,0,0,1,.59.549q2.545,2.537,5.087,5.077c.063.063.13.121.226.211.125-.112.249-.214.362-.327q4.328-4.314,8.655-8.63c2.286-2.279,4.581-4.548,6.857-6.836A8.952,8.952,0,1,0,139.684,7.273c-.107.218-.209.439-.321.654a1.129,1.129,0,0,1-2.072-.022A17,17,0,0,0,135.808,5.5,8.953,8.953,0,1,0,122.665,17.63c2.052,1.969,4.036,4.008,6.051,6.015a1.406,1.406,0,0,1,.533,1.326,1.086,1.086,0,0,1-1.827.575c-.814-.76-1.6-1.555-2.384-2.344-1.4-1.405-2.808-2.808-4.195-4.229A11.13,11.13,0,0,1,124.967.795a19.309,19.309,0,0,1,2.56-.6c.06-.014.118-.036.206-.065l-.3-.128h2.922l-.109.124a11.176,11.176,0,0,1,8.066,4.943A11.2,11.2,0,0,1,146.47.123L146.2,0Z" transform="translate(-93.567)" fill="#ee7f88"/>
          <path id="Path_2137" data-name="Path 2137" d="M183.49,58.726h-3.243c-1.1,0-1.541-.439-1.537-1.532q.008-2.074.011-4.149c0-.985.434-1.44,1.42-1.451,1.012-.011,2.024,0,3.036-.007.087,0,.173-.011.315-.02,0-.2,0-.39,0-.578,0-.935,0-1.87,0-2.8a1.2,1.2,0,0,1,1.354-1.383q2.248-.017,4.5,0a1.178,1.178,0,0,1,1.273,1.306c0,1.138,0,2.277,0,3.447.116.011.212.028.308.029.986,0,1.973.023,2.959,0a1.363,1.363,0,0,1,1.525,1.534c-.045,1.382-.011,2.766-.012,4.149a1.3,1.3,0,0,1-1.474,1.457q-1.441,0-2.882,0H190.6c0,.429,0,.821,0,1.214,0,.743.015,1.485.014,2.228a1.189,1.189,0,0,1-1.3,1.323q-2.248.012-4.5,0a1.2,1.2,0,0,1-1.328-1.3c-.017-1,0-2-.005-3v-.467m9.606-2.339c0-.754-.012-1.457.006-2.158.007-.284-.1-.338-.36-.335-1.037.012-2.075.018-3.111-.006a1.219,1.219,0,0,1-1.31-1.365c0-1.024-.009-2.049.005-3.073,0-.267-.077-.369-.345-.357-.345.017-.691.009-1.037.01-.366,0-.731,0-1.109,0,0,1.174.006,2.287,0,3.4a1.244,1.244,0,0,1-1.4,1.4c-1.011,0-2.023,0-3.035-.023-.3-.006-.447.036-.427.387.034.6.034,1.2.021,1.8-.006.283.1.34.363.335q1.478-.028,2.958-.02c1.079,0,1.5.4,1.518,1.473.021.973,0,1.946,0,2.919,0,.123,0,.247,0,.378h2.489c0-1.179,0-2.33,0-3.481a1.141,1.141,0,0,1,1.211-1.276c.934-.027,1.869-.011,2.8-.014h.76" transform="translate(-142.073 -37.2)" fill="#ee7f88"/>
        </g>
      </g>
    </g>
  </g>
</svg>
