<svg xmlns="http://www.w3.org/2000/svg" xmlns:xlink="http://www.w3.org/1999/xlink" width="197.424" height="240.96" viewBox="0 0 197.424 240.96">
  <defs>
    <filter id="Ellipse_39" x="0" y="43.536" width="197.424" height="197.424" filterUnits="userSpaceOnUse">
      <feOffset dy="9" input="SourceAlpha"/>
      <feGaussianBlur stdDeviation="12" result="blur"/>
      <feFlood flood-opacity="0.153"/>
      <feComposite operator="in" in2="blur"/>
      <feComposite in="SourceGraphic"/>
    </filter>
    <clipPath id="clip-path">
      <path id="Path_944" data-name="Path 944" d="M252.925,0c-19.461,0-50.816,24.816-63.068,54.809-10.851,26.565-3.754,57.47-3.754,74.705a66.446,66.446,0,1,0,132.892,0C319,106,330.555,65.7,312.239,35.288,301.967,18.233,266.11,0,252.925,0Z" transform="translate(-183.824)" fill="none"/>
    </clipPath>
  </defs>
  <g id="Group_1007" data-name="Group 1007" transform="translate(-459.331 -2223.946)">
    <g transform="matrix(1, 0, 0, 1, 459.33, 2223.95)" filter="url(#Ellipse_39)">
      <circle id="Ellipse_39-2" data-name="Ellipse 39" cx="62.712" cy="62.712" r="62.712" transform="translate(36 70.54)" fill="#fff"/>
    </g>
    <g id="Group_805" data-name="Group 805" transform="translate(302.353 2217.442)">
      <g id="Group_320" data-name="Group 320" transform="translate(186.305 6.503)" clip-path="url(#clip-path)">
        <path id="Path_912" data-name="Path 912" d="M303.326,118.645l7.233-.625,9.885,5.972s14.944-.823,20.143,1.1c2.043.735,4.9,2.718,7.413,4.4a5.592,5.592,0,0,1,2.327,5.957l-.934,3.869c-1.077,10.01-21.048,26.782-28.223,24.319l.931-23.214,11.4-4.944-12.357-4.119-11.574-.312Z" transform="translate(-213.604 -29.41)" fill="#ffbe9d"/>
        <path id="Path_913" data-name="Path 913" d="M254.294,159.411s-19.252,11.482-22.309,14.26-8.658,19.895-8.658,19.895l18.338,6.879,4.119,19,45.852-.881,5.322-42.065,4.334-1.779,1.342-27.094-14.318,4.333L274.906,158.1Z" transform="translate(-193.668 -36.787)" fill="#1a2942"/>
        <path id="Path_914" data-name="Path 914" d="M247.971,219.759a3.837,3.837,0,0,1-.272-.824l-.61-2.381c-.527-2.117-1.211-4.861-1.969-7.884s-1.426-5.882-1.854-7.925c-.214-1.014-.379-1.845-.478-2.414a3.832,3.832,0,0,1-.107-.906,3.725,3.725,0,0,1,.272.865c.164.659.371,1.458.61,2.389.527,2.117,1.211,4.861,1.969,7.884s1.425,5.882,1.854,7.916c.214,1.022.379,1.845.478,2.422a3.333,3.333,0,0,1,.107.857" transform="translate(-198.491 -49.198)" fill="#455a64"/>
        <path id="Path_915" data-name="Path 915" d="M324.481,170.785a15.8,15.8,0,0,1-.824,1.977,39.351,39.351,0,0,0-1.7,4.836,38.551,38.551,0,0,0-1,5.017,15.012,15.012,0,0,1-.3,2.117,8.6,8.6,0,0,1,0-2.142,27.738,27.738,0,0,1,2.727-9.951,8,8,0,0,1,1.1-1.854" transform="translate(-217.904 -42.559)" fill="#455a64"/>
        <path id="Path_916" data-name="Path 916" d="M251.753,169.315l25.538,17.44s4.457-2.035,7.1-1.475,22.1,10.529,22.1,10.529,1.5,2.924.05,4.407l-.223,5.767-2.727,5.61-3.509,1.211a3.763,3.763,0,0,0-2.414.824c-1.384.972-19.022-7.414-19.022-7.414l-7.332-16.163-2.167-3.427-22.168-14.491Z" transform="translate(-199.563 -42.193)" fill="#e17296"/>
        <path id="Path_917" data-name="Path 917" d="M296.819,197.27a3.52,3.52,0,0,1,.931.181c.593.14,1.442.379,2.472.7a63.6,63.6,0,0,1,15.4,7.192c.914.585,1.647,1.087,2.134,1.45a4.245,4.245,0,0,1,.733.593,4.112,4.112,0,0,1-.824-.453L315.47,205.6c-1.862-1.112-4.473-2.57-7.464-3.979a78.406,78.406,0,0,0-7.834-3.18l-2.472-.824a4.083,4.083,0,0,1-.881-.346" transform="translate(-211.982 -49.159)" fill="#263238"/>
        <path id="Path_918" data-name="Path 918" d="M316.622,215.93a5.579,5.579,0,0,1-1.062,0,24.213,24.213,0,0,1-2.892-.23,32.739,32.739,0,0,1-4.226-.824,36.87,36.87,0,0,1-4.943-1.771,37.412,37.412,0,0,1-4.638-2.529,32.708,32.708,0,0,1-3.452-2.587,25.453,25.453,0,0,1-2.1-1.994,4.874,4.874,0,0,1-.691-.824c.058-.058,1.1,1.038,2.99,2.571a38.088,38.088,0,0,0,3.468,2.471,41.746,41.746,0,0,0,4.6,2.472,40.343,40.343,0,0,0,4.943,1.788,36.273,36.273,0,0,0,4.16.923c2.34.4,3.855.453,3.847.535" transform="translate(-210.935 -51.127)" fill="#263238"/>
        <path id="Path_919" data-name="Path 919" d="M297.058,101.418c1.952-.931,4.424.206,5.527,2.059a8.878,8.878,0,0,1,.684,6.286c-.428,2.117-1.062,4.382.363,5.849,1.112,1.145,3.163,1.211,3.954,2.6,1.137,2-1.418,4.342-1.071,6.591a4.37,4.37,0,0,0,2.883,3.015,15.743,15.743,0,0,1,3.938,1.829c1.137.9,1.829,2.636.989,3.822l-7.414,2.34-1.532-2.57a3.829,3.829,0,0,1-.338,3.509,9.214,9.214,0,0,1-2.578,2.57c-3.847,2.81-8.519,4.77-13.28,4.506" transform="translate(-210.079 -25.19)" fill="#263238"/>
        <path id="Path_920" data-name="Path 920" d="M256.351,102.107c-.058-1.985,1.779-3.518,3.633-4.251s3.9-1,5.552-2.109a23.027,23.027,0,0,0,3.674-3.765,12.225,12.225,0,0,1,20.595,5.61c.717,2.826.231,6.17-2,8.057-2.587,2.175-6.425,1.7-9.737,1.014s-7.076-1.343-9.845.6c-1.647,1.178-2.628,3.081-3.641,4.852s-2.306,3.575-4.234,4.243-4.556-.486-4.63-2.529" transform="translate(-201.74 -22.008)" fill="#263238"/>
        <path id="Path_921" data-name="Path 921" d="M254.539,105.177c.214,1.647-.989,3.163-2.192,4.333s-2.553,2.422-2.767,4.12c-.247,1.952,1.178,3.864.766,5.766-.264,1.219-1.211,2.159-1.788,3.3a6.948,6.948,0,0,0-.346,5.1c.495,1.647,1.277,5.429,2.472,6.73a26.892,26.892,0,0,0,13.065,7.793,50.712,50.712,0,0,0,14.433.824c3.946-.239,8.494-.058,11.781-5.494,1.705-2.818,2.554-6.591,3.46-9.721.774-2.726,1.45-5.643.643-8.353-.469-1.582-1.425-2.99-1.9-4.572-.577-1.977-.362-4.119-.6-6.145a14.1,14.1,0,0,0-20.076-11.213" transform="translate(-199.787 -23.99)" fill="#263238"/>
        <path id="Path_922" data-name="Path 922" d="M293.436,113.234c-.371-5.668-4.119-12.613-9.795-12l-17.63,4.5a3.3,3.3,0,0,0-2.966,3.378l1.145,38.719a10.222,10.222,0,0,0,20.439-.313v-6c0,.017,7.241-1.219,8.724-10.709.742-4.63.495-11.27.083-17.572" transform="translate(-203.565 -25.217)" fill="#ffbe9d"/>
        <path id="Path_923" data-name="Path 923" d="M298.529,126.608a1.211,1.211,0,0,1-1.17,1.219,1.153,1.153,0,0,1-1.249-1.048h0v-.038a1.22,1.22,0,0,1,1.171-1.228,1.162,1.162,0,0,1,1.248,1.068v.031" transform="translate(-211.805 -31.276)" fill="#263238"/>
        <path id="Path_924" data-name="Path 924" d="M299.707,122.152c-.148.156-1.071-.519-2.373-.511s-2.265.659-2.406.5.083-.354.5-.659a3.307,3.307,0,0,1,1.92-.6,3.2,3.2,0,0,1,1.887.61c.4.3.544.593.469.659" transform="translate(-211.501 -30.124)" fill="#263238"/>
        <path id="Path_925" data-name="Path 925" d="M281.862,126.608a1.211,1.211,0,0,1-1.17,1.219,1.153,1.153,0,0,1-1.249-1.048h0v-.038a1.22,1.22,0,0,1,1.171-1.228,1.162,1.162,0,0,1,1.248,1.068v.031" transform="translate(-207.652 -31.276)" fill="#263238"/>
        <path id="Path_926" data-name="Path 926" d="M282.634,122.514c-.156.156-1.071-.519-2.381-.511s-2.257.658-2.4.5.083-.354.5-.659a3.306,3.306,0,0,1,1.92-.6,3.235,3.235,0,0,1,1.887.61c.4.3.544.593.469.659" transform="translate(-207.246 -30.214)" fill="#263238"/>
        <path id="Path_927" data-name="Path 927" d="M290.355,132.213a8.643,8.643,0,0,1,2.117-.387c.33,0,.651-.1.7-.33a1.645,1.645,0,0,0-.223-.988l-.988-2.529a45.819,45.819,0,0,1-2.225-6.591,47,47,0,0,1,2.752,6.434c.33.89.651,1.738.948,2.554a1.859,1.859,0,0,1,.173,1.3.821.821,0,0,1-.544.486,2.241,2.241,0,0,1-.568.083,8.42,8.42,0,0,1-2.142-.033" transform="translate(-210.214 -30.249)" fill="#263238"/>
        <path id="Path_928" data-name="Path 928" d="M287.778,153.792a24.04,24.04,0,0,1-12.662-3.3s3.2,6.483,12.662,5.577Z" transform="translate(-206.574 -37.503)" fill="#eb996e"/>
        <path id="Path_929" data-name="Path 929" d="M288.551,139.7a2.355,2.355,0,0,0-2.109-.873,2.167,2.167,0,0,0-1.483.824,1.376,1.376,0,0,0-.1,1.557,1.572,1.572,0,0,0,1.714.428,5.133,5.133,0,0,0,1.647-1,1.517,1.517,0,0,0,.371-.387.434.434,0,0,0,0-.486" transform="translate(-208.953 -34.591)" fill="#ff725e"/>
        <path id="Path_930" data-name="Path 930" d="M285.382,137.023c.214,0,.222,1.4,1.433,2.406s2.719.824,2.735,1.038-.338.272-.972.3a3.582,3.582,0,0,1-2.282-.824,3.073,3.073,0,0,1-1.112-2.018c-.058-.56.1-.906.2-.9" transform="translate(-209.08 -34.146)" fill="#263238"/>
        <path id="Path_931" data-name="Path 931" d="M282.676,117.533c-.132.354-1.433.189-2.957.371s-2.768.61-2.974.3c-.091-.157.124-.487.618-.824a4.888,4.888,0,0,1,2.207-.775,4.949,4.949,0,0,1,2.315.264c.56.215.848.462.791.667" transform="translate(-206.974 -29.047)" fill="#263238"/>
        <path id="Path_932" data-name="Path 932" d="M299.184,117.14c-.23.3-1.128,0-2.208,0s-2,.2-2.207-.107c-.1-.148.05-.453.444-.733a3.206,3.206,0,0,1,3.559.107c.387.264.511.569.412.734" transform="translate(-211.464 -28.86)" fill="#263238"/>
        <path id="Path_933" data-name="Path 933" d="M258.219,136.137a8.395,8.395,0,0,0,9.976-9.317c-.3-2.315-1.548-4.679-.741-6.878,1.062-2.9,5.141-3.8,6.22-6.7.626-1.647.058-3.65.774-5.305a5.975,5.975,0,0,1,3.888-3.015,15.41,15.41,0,0,0,4.63-2.01c1.334-1.038,2.166-3,1.309-4.457a89.631,89.631,0,0,0-20.652,5.025,8.248,8.248,0,0,0-4.119,2.636c-.956,1.367-.914,3.3-.824,5.066l1.186,25.521" transform="translate(-202.363 -24.535)" fill="#263238"/>
        <path id="Path_934" data-name="Path 934" d="M278.319,93.738a19.223,19.223,0,0,1-.173,7.134c-.651,2.3-2.4,4.465-4.762,4.861-1.121.189-2.373,0-3.3.667-1.953,1.4-.354,4.7-1.508,6.813-1.03,1.9-3.806,2.068-5.182,3.724-1.516,1.837-.725,4.6.33,6.722s2.364,4.473,1.648,6.739c-.824,2.537-3.815,3.888-4.564,6.434-.477,1.647,0,3.674-1.145,4.943-.906.956-2.414.981-3.732.824a37.323,37.323,0,0,1-15.364-4.943,8.812,8.812,0,0,0,1.269-4.349l-2.653,1.927q-3.04-3.805-6.1-7.6a12.357,12.357,0,0,1,6.854-6.879c1.845-.733,4.21-1.359,4.638-3.3.239-1.071-1.047-3.023-.354-5.511,0,0,1.161-4.745,3.9-6.08s2.364-2.142,2.966-3.962" transform="translate(-196.101 -23.359)" fill="#263238"/>
        <path id="Path_935" data-name="Path 935" d="M246.7,242.984a73.764,73.764,0,0,1-9.284,20.859c-5.066,7.826-10.264,37.747-10.264,37.747s9.251-5.585,17.431-6.377,16.081,7.645,27.186,8.963,17.67.527,25.051-2.9,15.817-1.845,15.817-1.845-6.03-13.963-10.4-24.385-9.655-32.952-9.655-32.952" transform="translate(-194.622 -60.329)" fill="#e17296"/>
        <path id="Path_936" data-name="Path 936" d="M302.457,257.173a1.705,1.705,0,0,1-.379.255,12.031,12.031,0,0,1-1.145.643,20.648,20.648,0,0,1-4.531,1.647,29.817,29.817,0,0,1-7.118.824,52.216,52.216,0,0,1-8.724-.824c-3.057-.535-5.94-1.194-8.567-1.738s-5-1-7-1.26-3.65-.4-4.778-.445-1.763-.05-1.763-.083a1.673,1.673,0,0,1,.453-.05c.3,0,.741-.041,1.309,0a41.725,41.725,0,0,1,4.811.3c2.026.231,4.415.643,7.052,1.178s5.52,1.171,8.559,1.706a53.407,53.407,0,0,0,8.65.824,30.983,30.983,0,0,0,7.044-.709,22.045,22.045,0,0,0,4.53-1.508c1.03-.486,1.574-.8,1.6-.766" transform="translate(-202.42 -63.825)" fill="#fafafa"/>
        <path id="Path_937" data-name="Path 937" d="M302.738,245.616a8.821,8.821,0,0,1-1.359.4c-.873.23-2.167.511-3.765.824a74.551,74.551,0,0,1-25.323.255c-1.6-.264-2.892-.519-3.774-.734a8.436,8.436,0,0,1-1.367-.37,10.251,10.251,0,0,1,1.4.206c.89.164,2.183.371,3.789.6a87.179,87.179,0,0,0,12.621.824,85.706,85.706,0,0,0,12.6-1.079c1.6-.255,2.892-.494,3.782-.676a10.048,10.048,0,0,1,1.392-.247" transform="translate(-204.589 -61.206)" fill="#fafafa"/>
        <path id="Path_938" data-name="Path 938" d="M227.156,210.253s0,32.318,10.462,36.651c5.19,2.15,12.439-1.269,12.439-1.269L270.4,218.763l-5.47-6.8L244.1,222.956l-1.483-6.9Z" transform="translate(-194.622 -52.394)" fill="#ffbe9d"/>
        <path id="Path_939" data-name="Path 939" d="M288.556,190.6h12.011a2.052,2.052,0,0,1,2.051,2.051v23.989a2.052,2.052,0,0,1-2.051,2.051H288.556a2.051,2.051,0,0,1-2.051-2.051V192.652a2.051,2.051,0,0,1,2.051-2.051" transform="translate(-209.412 -47.497)" fill="#455a64"/>
        <path id="Path_940" data-name="Path 940" d="M280.876,209.241a14.065,14.065,0,0,0,.989-5.108,9.262,9.262,0,0,1,.378-3.122,2.363,2.363,0,0,1,2.472-1.648l.371,7.719Z" transform="translate(-208.009 -49.669)" fill="#ffbe9d"/>
        <path id="Path_941" data-name="Path 941" d="M288.95,202.931c-.313,0-7.744,2.472-7.744,2.472l-4.185,3.2a7.414,7.414,0,0,0-1.128,5.569c.5,3.575,2.026,5.05,5.824,6.648h7.654l4.259-2.472a2.4,2.4,0,0,0,1.153-2.414v-.164l.536-.643a1.313,1.313,0,0,0-1.6-2.018l-4.753,2.471-2.982-.074-.288-1.03,4.638-1.549,6.13-3.361a1.648,1.648,0,0,0,.615-2.248l-.005-.01a1.648,1.648,0,0,0-1.986-.675l-5.536,2.183-5.66,1.491,1.161-1.969,6.953-3.617s.832-2.159-3.057-1.8" transform="translate(-206.733 -50.559)" fill="#ffbe9d"/>
        <path id="Path_942" data-name="Path 942" d="M277.464,208.845a30.952,30.952,0,0,0,4.316-3.032h-.065l.288-.09a34.81,34.81,0,0,0,5.223-1.945,35.848,35.848,0,0,0-5.363,1.524l-.28.091h-.041a33.184,33.184,0,0,0-4.078,3.451" transform="translate(-207.159 -50.781)" fill="#eb996e"/>
        <path id="Path_943" data-name="Path 943" d="M286.67,222.541a5.155,5.155,0,0,0,1.582.618,6.405,6.405,0,0,0,4.119,0,16.794,16.794,0,0,0,2.026-.989l1.6-.89a6.386,6.386,0,0,0,1.409-.923,6.086,6.086,0,0,0-1.557.643l-1.647.824a18.641,18.641,0,0,1-1.994.939,6.742,6.742,0,0,1-3.872.116,8.848,8.848,0,0,0-1.664-.338" transform="translate(-209.453 -54.912)" fill="#eb996e"/>
      </g>
    </g>
  </g>
</svg>
