<svg xmlns="http://www.w3.org/2000/svg" xmlns:xlink="http://www.w3.org/1999/xlink" width="197.424" height="236.651" viewBox="0 0 197.424 236.651">
  <defs>
    <filter id="Ellipse_39" x="0" y="39.227" width="197.424" height="197.424" filterUnits="userSpaceOnUse">
      <feOffset dy="9" input="SourceAlpha"/>
      <feGaussianBlur stdDeviation="12" result="blur"/>
      <feFlood flood-opacity="0.153"/>
      <feComposite operator="in" in2="blur"/>
      <feComposite in="SourceGraphic"/>
    </filter>
    <clipPath id="clip-path">
      <rect id="Rectangle_178" data-name="Rectangle 178" width="135.696" height="200.676" fill="none"/>
    </clipPath>
    <clipPath id="clip-path-2">
      <path id="Path_1174" data-name="Path 1174" d="M67.57,0C48.54,0,17.88,24.265,5.9,53.594,1.3,64.849,0,76.9,0,88.318v.035c0,14.918,2.229,28.747,2.229,38.291a64.974,64.974,0,0,0,129.948,0c0-22.991,11.3-62.4-6.608-92.138C115.526,17.829,80.463,0,67.57,0Z" transform="translate(0)" fill="none"/>
    </clipPath>
    <clipPath id="clip-path-3">
      <rect id="Rectangle_162" data-name="Rectangle 162" width="17.864" height="3.798" fill="none"/>
    </clipPath>
    <clipPath id="clip-path-4">
      <rect id="Rectangle_163" data-name="Rectangle 163" width="19.664" height="16.3" fill="none"/>
    </clipPath>
    <clipPath id="clip-path-5">
      <rect id="Rectangle_164" data-name="Rectangle 164" width="31.639" height="55.426" fill="none"/>
    </clipPath>
    <clipPath id="clip-path-6">
      <rect id="Rectangle_165" data-name="Rectangle 165" width="2.99" height="30.54" fill="none"/>
    </clipPath>
    <clipPath id="clip-path-7">
      <rect id="Rectangle_175" data-name="Rectangle 175" width="11.826" height="5.948" fill="none"/>
    </clipPath>
    <clipPath id="clip-path-8">
      <rect id="Rectangle_176" data-name="Rectangle 176" width="1.903" height="1.903" fill="none"/>
    </clipPath>
    <clipPath id="clip-path-9">
      <rect id="Rectangle_177" data-name="Rectangle 177" width="8.59" height="16.887" fill="none"/>
    </clipPath>
  </defs>
  <g id="Group_811" data-name="Group 811" transform="translate(-459.331 -2228.255)">
    <g transform="matrix(1, 0, 0, 1, 459.33, 2228.25)" filter="url(#Ellipse_39)">
      <circle id="Ellipse_39-2" data-name="Ellipse 39" cx="62.712" cy="62.712" r="62.712" transform="translate(36 66.23)" fill="#fff"/>
    </g>
    <g id="Group_813" data-name="Group 813" transform="translate(489.683 2228.255)">
      <g id="Group_373" data-name="Group 373" clip-path="url(#clip-path)">
        <g id="Group_372" data-name="Group 372" transform="translate(0)">
          <g id="Group_371" data-name="Group 371" clip-path="url(#clip-path-2)">
            <path id="Path_1100" data-name="Path 1100" d="M50.745,92.334c-4.5-.165-9,2.156-11.05,5.707a9.69,9.69,0,0,0,1.269,11.243,3.684,3.684,0,0,0-1.652,5.529,4.843,4.843,0,0,0,6.453.533c-1.056,1.979.1,4.531,2.219,5.657a8.388,8.388,0,0,0,7.125-.042,12.658,12.658,0,0,0,5.156-4.613l.95-17.515c-1.7-3.691-5.967-6.334-10.469-6.5" transform="translate(-10.223 -24.543)" fill="#263238"/>
            <path id="Path_1101" data-name="Path 1101" d="M52.714,120.459a5.321,5.321,0,0,1,.238-6.884,3.565,3.565,0,0,1,.216-4.366,10.682,10.682,0,0,1,3.865-2.72,7.309,7.309,0,0,1,8.333-5.571c1.794-2.813,5.808-3.386,9.068-2.568a8.635,8.635,0,0,0,2.416.435,13.8,13.8,0,0,0,1.779-.317c3.269-.548,6.61,1.623,8,4.6a5.993,5.993,0,0,0,.748,1.388,8.143,8.143,0,0,0,1.667,1.224,5.178,5.178,0,0,1,2.144,3.764c.1,1.268-.26,2.609.317,3.735.289.565.792,1.012,1.02,1.585.67,1.712-1.208,3.548-.786,5.337.089.361.267.7.384,1.056A3.169,3.169,0,0,1,92,123.4a4.721,4.721,0,0,0-.656,1.633,5.472,5.472,0,0,0,.317,1.3c.26,1.065-1.937,5.285-2.854,5.9l-28.035,1.224a5.215,5.215,0,0,1-4.213-4.318,1.863,1.863,0,0,0-.3-1.011,2.306,2.306,0,0,0-.783-.466c-1.843-.894-2.147-3.336-2.026-5.359a2.433,2.433,0,0,0-.048-.847,3.042,3.042,0,0,0-.7-1" transform="translate(-13.708 -26.054)" fill="#263238"/>
            <path id="Path_1102" data-name="Path 1102" d="M65.417,122.8c-.257-4.9,1.661-10.714,6.506-13.285a18.768,18.768,0,0,1,7.105-1.96,11.479,11.479,0,0,1,6.658,1.141c1.557.317,7.4,5.235,7.9,10.781.546,6.167.951,13.717.339,18.345-1.255,9.309-9.245,10.678-9.245,10.678l-.048,6.025c-4.461,6.776-12.4,7.1-17.654.932Z" transform="translate(-17.384 -28.566)" fill="#ffbf9d"/>
            <path id="Path_1103" data-name="Path 1103" d="M86.082,146.941a1.81,1.81,0,0,1,.542-1.167,1.9,1.9,0,0,1,2.264-.317,2.055,2.055,0,0,1,.822,2.114c-.346.555-.59,1.1-1.24,1.206-.1,0-.2.028-.317.035a2.07,2.07,0,0,1-1.424-.435,1.786,1.786,0,0,1-.647-1.436" transform="translate(-22.883 -38.603)" fill="#ff9a6c"/>
            <path id="Path_1104" data-name="Path 1104" d="M97.919,133.883a1.192,1.192,0,0,1-1.128,1.227,1.147,1.147,0,0,1-1.266-1.016c0-.009,0-.018,0-.027a1.2,1.2,0,0,1,1.129-1.227,1.147,1.147,0,0,1,1.265,1.016c0,.01,0,.018,0,.027" transform="translate(-25.392 -35.311)" fill="#263238"/>
            <path id="Path_1105" data-name="Path 1105" d="M99.26,128.316c-.142.159-1.072-.485-2.365-.45s-2.219.7-2.371.542c-.07-.066.076-.352.482-.659a3.336,3.336,0,0,1,1.9-.634,3.167,3.167,0,0,1,1.886.552c.4.3.539.577.466.65" transform="translate(-25.123 -33.79)" fill="#263238"/>
            <path id="Path_1106" data-name="Path 1106" d="M90.694,138.907a8.816,8.816,0,0,1,2.092-.425c.317-.041.634-.114.692-.339a1.749,1.749,0,0,0-.244-.951q-.494-1.177-1.04-2.464a43,43,0,0,1-2.356-6.453,42.545,42.545,0,0,1,2.876,6.25l1,2.479a1.866,1.866,0,0,1,.2,1.268.82.82,0,0,1-.533.488,2.18,2.18,0,0,1-.558.093,8.5,8.5,0,0,1-2.131.054" transform="translate(-23.878 -34.099)" fill="#263238"/>
            <path id="Path_1107" data-name="Path 1107" d="M87.126,162.274a24.184,24.184,0,0,1-12.683-3.006s3.2,6.576,12.565,5.482Z" transform="translate(-19.789 -42.338)" fill="#ff9a6c"/>
            <path id="Path_1108" data-name="Path 1108" d="M97.923,121.432c-.209.317-1.2.133-2.362.257s-2.106.447-2.368.171c-.115-.133,0-.44.4-.764a3.72,3.72,0,0,1,3.805-.346c.45.247.621.53.529.682" transform="translate(-24.762 -32.001)" fill="#263238"/>
            <path id="Path_1109" data-name="Path 1109" d="M79.008,133.986a1.2,1.2,0,0,0,1.233,1.125,1.144,1.144,0,0,0,1.17-1.119v-.026a1.2,1.2,0,0,0-1.233-1.125,1.142,1.142,0,0,0-1.17,1.112v.032" transform="translate(-21.003 -35.313)" fill="#263238"/>
            <path id="Path_1110" data-name="Path 1110" d="M76.875,129.517c.159.146,1.027-.574,2.318-.634s2.28.5,2.41.339c.064-.073-.1-.342-.536-.615a3.325,3.325,0,0,0-1.94-.463,3.176,3.176,0,0,0-1.832.71c-.38.311-.5.6-.418.663" transform="translate(-20.429 -34.062)" fill="#263238"/>
            <path id="Path_1111" data-name="Path 1111" d="M76.621,122.659c.272.276,1.253-.086,2.448-.175s2.219.061,2.441-.256c.1-.156-.085-.435-.545-.682a3.736,3.736,0,0,0-2.023-.355,3.667,3.667,0,0,0-1.9.7c-.418.317-.539.625-.418.764" transform="translate(-20.356 -32.211)" fill="#263238"/>
            <path id="Path_1112" data-name="Path 1112" d="M64.025,139.288c-.019-.691-.866-2.3-1.56-2.388-1.849-.241-5.165,0-5.073,4.61.115,6.32,6.659,4.864,6.659,4.68s.037-4.522-.026-6.9" transform="translate(-15.256 -36.376)" fill="#ffbf9d"/>
            <path id="Path_1113" data-name="Path 1113" d="M62.748,144.715c-.029-.022-.111.076-.3.165a1.1,1.1,0,0,1-.833.032,2.691,2.691,0,0,1-1.319-2.419,3.592,3.592,0,0,1,.282-1.586,1.27,1.27,0,0,1,.824-.859.565.565,0,0,1,.663.289c.089.174.051.317.082.317s.137-.111.079-.372a.7.7,0,0,0-.257-.39.847.847,0,0,0-.634-.149,1.559,1.559,0,0,0-1.145,1,3.724,3.724,0,0,0-.355,1.769,2.864,2.864,0,0,0,1.674,2.7,1.207,1.207,0,0,0,1.018-.187c.206-.149.238-.291.216-.311" transform="translate(-15.906 -37.145)" fill="#ff9a6c"/>
            <path id="Path_1114" data-name="Path 1114" d="M93.473,118.46a3.662,3.662,0,0,1-2.121-3.335c-.853.272-1.75-.8-2.267-1.516s-1.138-1.075-1.123-1.956a1,1,0,0,0-.079-.514,1.051,1.051,0,0,0-.707-.383,4.25,4.25,0,0,1-2.895-2.873,9.16,9.16,0,0,1-4.366.824,3.488,3.488,0,0,1-5.865-.108,3.086,3.086,0,0,1-2.039,1.566,9.248,9.248,0,0,1-2.647.209,3.618,3.618,0,0,1-2.308,4.163c-.228.076-.488.149-.587.364a.925.925,0,0,0,.117.7,2.837,2.837,0,0,1-1.843,3.678,2.113,2.113,0,0,1-.111,3.338c-.228.146-.526.317-.485.584a.572.572,0,0,0,.148.267,4.129,4.129,0,0,1,1.062,2.064,1.528,1.528,0,0,1-1.224,1.722,2.015,2.015,0,0,1,.846,1.363c.023.548-.523,1.123-1.049.935-.222-.076-3.421-.618-3.567-.8-1.871-2.381.339-5.12.441-8.132a19.53,19.53,0,0,1,2.537-8.605,14.28,14.28,0,0,1,2.194-3.1,19,19,0,0,1,3.45-2.644,17.334,17.334,0,0,1,5.073-2.537c3.431-.888,7.045.26,10.3,1.648a15.17,15.17,0,0,1,3.539,1.928,13.4,13.4,0,0,1,3.025,3.7,16.6,16.6,0,0,1,2.476,6.412" transform="translate(-15.848 -27.492)" fill="#263238"/>
            <path id="Path_1115" data-name="Path 1115" d="M92.505,114.748a2.418,2.418,0,0,0-.361-.669c-.139-.206-.339-.444-.526-.755a2.845,2.845,0,0,1-.39-1.17,9.037,9.037,0,0,1-.016-1.563,6.847,6.847,0,0,0-.1-1.877,5.288,5.288,0,0,0-.894-1.969,5.2,5.2,0,0,0-.808-.872,7.924,7.924,0,0,0-1.031-.717,4.054,4.054,0,0,1-1-.8,5.247,5.247,0,0,1-.634-1.173,8.211,8.211,0,0,0-1.617-2.4,8.319,8.319,0,0,0-2.537-1.82,7.5,7.5,0,0,0-1.554-.529,6.924,6.924,0,0,0-1.687-.146,8.038,8.038,0,0,0-.859.092c-.286.051-.565.117-.846.175a4.2,4.2,0,0,1-1.709.048c-.573-.1-1.142-.286-1.737-.416a11.346,11.346,0,0,0-3.688-.238,9.787,9.787,0,0,0-1.864.39,6.288,6.288,0,0,0-3.171,2.185l-.228.317.1-.045a7.246,7.246,0,0,0-5.475,1.246,7.038,7.038,0,0,0-2.968,4.4l.051-.063a19.784,19.784,0,0,0-2.219,1.227,6.754,6.754,0,0,0-1.788,1.668,4.292,4.292,0,0,0-.771,2.2,2.946,2.946,0,0,0,.67,2.121v-.1a5.19,5.19,0,0,0-1.36,3.3,5.317,5.317,0,0,0,.748,3.123,5.113,5.113,0,0,0,.444.612c.159.19.317.365.453.555a1.268,1.268,0,0,1,.244.612,3.5,3.5,0,0,1,0,.656,10.479,10.479,0,0,0,.133,2.4,4.994,4.994,0,0,0,.678,1.808,3.092,3.092,0,0,0,1.024,1c.336.209.634.282.8.4a1.492,1.492,0,0,1,.238.184.8.8,0,0,0-.225-.206c-.165-.12-.46-.206-.783-.412a3.141,3.141,0,0,1-.99-1,4.981,4.981,0,0,1-.634-1.788,10.208,10.208,0,0,1-.111-2.375,4.149,4.149,0,0,0,0-.675,1.477,1.477,0,0,0-.261-.666,7.088,7.088,0,0,0-.46-.568,4.776,4.776,0,0,1-.425-.6,5.162,5.162,0,0,1-.717-3.047A5.046,5.046,0,0,1,53,113.626l.051-.051-.048-.054a2.82,2.82,0,0,1-.634-2.01,4.145,4.145,0,0,1,.748-2.112,6.547,6.547,0,0,1,1.744-1.617,20.2,20.2,0,0,1,2.194-1.214l.041-.019V106.5a6.856,6.856,0,0,1,2.9-4.3,7.06,7.06,0,0,1,5.326-1.211h.06l.041-.054.219-.317a6.131,6.131,0,0,1,3.07-2.115,9.512,9.512,0,0,1,1.826-.383,10.759,10.759,0,0,1,1.839-.032,11.079,11.079,0,0,1,1.791.26c.584.127,1.154.317,1.747.416a4.533,4.533,0,0,0,.9.07,5.4,5.4,0,0,0,.881-.121c.286-.057.565-.123.841-.174a6.809,6.809,0,0,1,.837-.089,6.718,6.718,0,0,1,1.639.137,7.427,7.427,0,0,1,1.518.513,8.391,8.391,0,0,1,4.081,4.122,5.29,5.29,0,0,0,.662,1.2,4.14,4.14,0,0,0,1.034.827,7.7,7.7,0,0,1,1.018.7,5.155,5.155,0,0,1,1.684,2.771,6.761,6.761,0,0,1,.111,1.845,9.145,9.145,0,0,0,.032,1.585,2.978,2.978,0,0,0,.416,1.189c.2.317.4.548.545.748a3.961,3.961,0,0,1,.316.476,1.8,1.8,0,0,0,.076.181" transform="translate(-13.685 -26.022)" fill="#455a64"/>
            <path id="Path_1116" data-name="Path 1116" d="M74.387,99.653s.165-.1.472-.26a4.353,4.353,0,0,1,1.392-.444,4.069,4.069,0,0,1,4.068,1.9,3.4,3.4,0,0,1,.339.7.8.8,0,0,1-.029.669l-.152.219.257-.079a2.677,2.677,0,0,1,1.985.178,2.541,2.541,0,0,1,1.116,1.164,2.806,2.806,0,0,1,.279,1.034,2.57,2.57,0,0,1,0,.394.319.319,0,0,1,.025-.1,1.592,1.592,0,0,0,.026-.3,2.57,2.57,0,0,0-.235-1.084,2.6,2.6,0,0,0-1.148-1.23,2.82,2.82,0,0,0-2.118-.216l.108.139a.951.951,0,0,0,.054-.824,3.509,3.509,0,0,0-.355-.748,4.235,4.235,0,0,0-2.058-1.725,4.132,4.132,0,0,0-2.2-.219,4.042,4.042,0,0,0-1.4.511,2.9,2.9,0,0,0-.333.225.547.547,0,0,0-.1.086" transform="translate(-19.774 -26.256)" fill="#455a64"/>
            <path id="Path_1117" data-name="Path 1117" d="M60.541,110.241a1.509,1.509,0,0,0,.228.222,4.181,4.181,0,0,0,.739.476,3.066,3.066,0,0,0,1.269.346,2.312,2.312,0,0,0,1.585-.517l-.142-.019.193.253c.073.083.152.162.225.244a3.892,3.892,0,0,0,1.626.951,4.043,4.043,0,0,0,1.529.149,3.7,3.7,0,0,0,1-.254,1.241,1.241,0,0,0,.316-.187,5.356,5.356,0,0,1-1.341.317,4.012,4.012,0,0,1-1.465-.181,3.807,3.807,0,0,1-1.54-.907c-.07-.076-.146-.149-.213-.228l-.184-.238-.067-.086-.076.067a2.166,2.166,0,0,1-1.446.492,3.065,3.065,0,0,1-1.233-.292c-.644-.342-.986-.644-1.005-.609" transform="translate(-16.094 -29.305)" fill="#455a64"/>
            <path id="Path_1118" data-name="Path 1118" d="M56.158,118.087a.564.564,0,0,0,.018.117,1.169,1.169,0,0,0,.152.317,1.706,1.706,0,0,0,1.05.65,3.3,3.3,0,0,0,1.82-.247c.316-.123.657-.247,1-.418a1.753,1.753,0,0,0,.858-.821l.039-.1-.149.051a7.4,7.4,0,0,0,1.927,1.072,3.33,3.33,0,0,0,1.8.137,2.437,2.437,0,0,0,1.091-.526,1.622,1.622,0,0,0,.225-.241.334.334,0,0,0,.061-.1c-.016,0-.112.114-.333.282a2.5,2.5,0,0,1-1.072.454,3.291,3.291,0,0,1-1.715-.171,7.462,7.462,0,0,1-1.871-1.062l-.1-.076-.043.127-.032.086a1.591,1.591,0,0,1-.772.726c-.317.164-.659.294-.974.421a3.278,3.278,0,0,1-1.731.276,1.7,1.7,0,0,1-1.015-.562,3.054,3.054,0,0,1-.231-.39" transform="translate(-14.928 -31.209)" fill="#455a64"/>
            <path id="Path_1119" data-name="Path 1119" d="M85.746,145.95c.152-.1.786.951,2.14,1.151s2.41-.571,2.508-.428c.054.057-.13.352-.6.634a3.092,3.092,0,0,1-2.058.418,2.666,2.666,0,0,1-1.725-1.005c-.3-.4-.343-.732-.267-.77" transform="translate(-22.785 -38.796)" fill="#263238"/>
            <path id="Path_1120" data-name="Path 1120" d="M62.925,153.159a2.476,2.476,0,0,1-1.849-4.087l.241.206a2.122,2.122,0,1,0,1.608-.745v-.317a2.473,2.473,0,0,1,0,4.943" transform="translate(-16.078 -39.4)" fill="#455a64"/>
            <path id="Path_1121" data-name="Path 1121" d="M107.809,213.679c.57,0,20.926-4.087,20.926-4.087s-5.548-31.446-16.17-33.162L106.388,202l.711,11.678Z" transform="translate(-28.281 -46.9)" fill="#5d51a3"/>
            <path id="Path_1122" data-name="Path 1122" d="M99.616,211.821c2.416-12.429-1.233-20.013-1.233-20.013L95.815,174.2l-14-2.854s-2.3,4.227-10.831,4.122c-4.439-.063-10.165-7.435-10.165-7.435l-12.6,3.326,2.892,48.53s-3.573,13.589-7.686,25.3l57.886.155c-1.005-5.954-5.152-24.36-5.152-24.36,1.135-2.816,3.164-6.63,3.456-9.163" transform="translate(-11.544 -44.668)" fill="#5d51a3"/>
            <g id="Group_352" data-name="Group 352" transform="translate(68.449 180.14)" opacity="0.3">
              <g id="Group_351" data-name="Group 351">
                <g id="Group_350" data-name="Group 350" clip-path="url(#clip-path-3)">
                  <path id="Path_1123" data-name="Path 1123" d="M93.233,246.234l.6,2.929H111.1l-.837-3.8Z" transform="translate(-93.233 -245.365)"/>
                </g>
              </g>
            </g>
            <path id="Path_1124" data-name="Path 1124" d="M111.843,186.946a.574.574,0,0,1,.048.092l.127.273.469,1.056c.412.916,1.024,2.219,1.785,3.855s1.661,3.567,2.537,5.78c.428,1.106.844,2.286,1.189,3.536a21.563,21.563,0,0,1,.681,3.944,38.878,38.878,0,0,1-.159,7.721,48.492,48.492,0,0,1-1.106,6.208,29.17,29.17,0,0,1-1.269,4.058c-.174.472-.355.821-.465,1.059-.054.111-.1.2-.134.269l-.048.092a.293.293,0,0,1,.035-.1l.114-.276c.1-.244.273-.6.438-1.068a31.435,31.435,0,0,0,1.218-4.062,50.075,50.075,0,0,0,1.059-6.2,39.923,39.923,0,0,0,.143-7.689,21.825,21.825,0,0,0-.673-3.919c-.342-1.239-.752-2.415-1.173-3.523-.856-2.219-1.75-4.15-2.492-5.783s-1.345-2.958-1.735-3.881c-.2-.46-.345-.822-.443-1.068l-.112-.279a.618.618,0,0,1-.035-.1" transform="translate(-29.731 -49.696)" fill="#263238"/>
            <path id="Path_1125" data-name="Path 1125" d="M34.879,219.682s-1.268,3.592,7.9,2.838,11.709-6.493,11.709-6.493l-1.816-6.976-11.7-2.727-4.893,4.02Z" transform="translate(-9.256 -54.847)" fill="#455a64"/>
            <g id="Group_355" data-name="Group 355" transform="translate(25.564 151.477)" opacity="0.3">
              <g id="Group_354" data-name="Group 354">
                <g id="Group_353" data-name="Group 353" clip-path="url(#clip-path-4)">
                  <path id="Path_1126" data-name="Path 1126" d="M34.879,219.682s-1.268,3.592,7.9,2.838,11.709-6.493,11.709-6.493l-1.816-6.976-11.7-2.727-4.893,4.02Z" transform="translate(-34.82 -206.324)"/>
                </g>
              </g>
            </g>
            <g id="Group_358" data-name="Group 358" transform="translate(37.618 130.153)" opacity="0.3">
              <g id="Group_357" data-name="Group 357">
                <g id="Group_356" data-name="Group 356" clip-path="url(#clip-path-5)">
                  <path id="Path_1127" data-name="Path 1127" d="M82.184,177.841c-.866-1.018-3.034-.587-2.9.748L51.239,228.841c4.312,2.559,9.452,5.073,14.106,3.231,4.519-1.8,6.618-6.975,8.127-11.64a236.28,236.28,0,0,0,9.268-38.739c.19-1.316.32-2.84-.555-3.852" transform="translate(-51.239 -177.279)"/>
                </g>
              </g>
            </g>
            <path id="Path_1128" data-name="Path 1128" d="M34.992,195.835c0,.634,7.968,23.837,9.75,28.853,2.356,6.658,12.733,10.555,18.136,2.948,5.862-8.243,14.81-43.533,14.81-43.533l-8.142-3.345L55.107,209.951l-7.781-29.833Z" transform="translate(-9.302 -47.881)" fill="#ffbf9d"/>
            <path id="Path_1129" data-name="Path 1129" d="M89.509,176.413s2.061-4.122,2.181-4.325c.029-.047-.095-.133-.038-.089a1.1,1.1,0,0,0,1.285-.047c.951-.695,2.59-1.741,2.894-2.512a2.988,2.988,0,0,0,1.25-2.219c.133-1.541.317-5.073.317-5.073s1.563-.57,1.452-1.9-2.188-1.008-2.188-1.008-.371-1.586-1.522-1.931a31.032,31.032,0,0,0-5.257-.254s-.13-5.428-.213-7.679a7.955,7.955,0,0,0-.847-3.561,1.059,1.059,0,0,0-1.991.387,13.075,13.075,0,0,0,.035,2.711c.316,3.17-1.57,9.077-1.75,9.277s-2.219,2-2.131,4.122a34.434,34.434,0,0,1-2.393,11.5" transform="translate(-21.424 -38.611)" fill="#ffbf9d"/>
            <path id="Path_1130" data-name="Path 1130" d="M80.6,173.76s.022-.063.07-.178.127-.289.216-.517c.174-.46.421-1.145.672-2.045s.517-2.014.761-3.317a38.219,38.219,0,0,0,.6-4.464c0-.209.022-.418.022-.634v-.653a4.131,4.131,0,0,1,.317-1.319,7.394,7.394,0,0,1,1.626-2.343l.13-.13.064-.063.035-.07c.045-.1.089-.222.13-.339.083-.232.159-.473.235-.714q.225-.726.425-1.487c.263-1.011.5-2.061.684-3.148a14.9,14.9,0,0,0,.225-3.361c-.051-.574-.1-1.164-.1-1.756a7.68,7.68,0,0,1,.035-.9,1.3,1.3,0,0,1,.336-.869,1.174,1.174,0,0,1,.885-.333,1.133,1.133,0,0,1,.841.45,5.865,5.865,0,0,1,.695,1.741,9.769,9.769,0,0,1,.256,1.874l.057,1.9c.054,2.014.108,3.992.159,5.914l-.082-.079c1.366-.019,2.708-.016,4.017.079a9.12,9.12,0,0,1,.977.117,1.836,1.836,0,0,1,.9.4,3.326,3.326,0,0,1,.951,1.649l-.089-.057a3.424,3.424,0,0,1,1.392.076,1.382,1.382,0,0,1,.606.355,1.165,1.165,0,0,1,.276.634,1.7,1.7,0,0,1-.089.675,2,2,0,0,1-.343.577,2.9,2.9,0,0,1-1.068.729l.048-.06q-.143,2.143-.269,4.075c-.019.317-.042.634-.06.951a3.54,3.54,0,0,1-.2.913,3,3,0,0,1-1.084,1.4l.026-.026a2.95,2.95,0,0,1-.749.91c-.285.253-.58.475-.866.691s-.573.409-.849.6l-.406.285a1.337,1.337,0,0,1-.434.225,1.074,1.074,0,0,1-.91-.117l-.048-.032c-.028.063.073-.076.054-.063l.022.022a.172.172,0,0,1,.035.063.077.077,0,0,1,0,.057v.025l-.1.191-.187.364-.666,1.306c-.4.777-.71,1.382-.926,1.8l-.241.466c-.057.1-.089.156-.089.156s.022-.057.073-.162l.228-.472.9-1.817.653-1.313.184-.368.1-.19s0-.022.018-.019h0l-.018-.029-.016-.015c-.019,0,.079-.134.051-.067l.045.032a.989.989,0,0,0,.833.1,1.227,1.227,0,0,0,.409-.215l.406-.289c.273-.194.555-.394.841-.606s.577-.441.856-.692a2.747,2.747,0,0,0,.713-.871v-.016a2.91,2.91,0,0,0,1.028-1.344,6.33,6.33,0,0,0,.25-1.833q.12-1.928.253-4.075v-.044h.045a2.753,2.753,0,0,0,1.005-.7,1.7,1.7,0,0,0,.317-.53,1.517,1.517,0,0,0,.076-.612.987.987,0,0,0-.234-.558,1.2,1.2,0,0,0-.543-.317,3.188,3.188,0,0,0-1.322-.07h-.066l-.019-.07a3.2,3.2,0,0,0-.913-1.563,3.1,3.1,0,0,0-1.791-.482c-1.3-.092-2.638-.095-4-.076H89.8V157c-.054-1.921-.108-3.9-.162-5.913a17.4,17.4,0,0,0-.317-3.738,5.821,5.821,0,0,0-.666-1.683.953.953,0,0,0-.72-.383,1,1,0,0,0-.761.282,1.116,1.116,0,0,0-.289.77c-.026.292-.038.587-.035.882,0,.587.045,1.167.093,1.744a14.821,14.821,0,0,1-.232,3.4c-.184,1.094-.424,2.147-.694,3.171-.134.507-.279,1.005-.428,1.49-.079.244-.156.485-.242.72-.041.12-.085.234-.139.358a.927.927,0,0,1-.054.095l-.067.07-.13.13a7.3,7.3,0,0,0-1.607,2.293,3.99,3.99,0,0,0-.317,1.268v.634a5.943,5.943,0,0,1-.023.634,38.423,38.423,0,0,1-.634,4.473c-.257,1.307-.533,2.42-.793,3.32a21.264,21.264,0,0,1-.7,2.039c-.1.225-.178.393-.232.51a.525.525,0,0,0-.054.2" transform="translate(-21.426 -38.578)" fill="#ff9a6c"/>
            <path id="Path_1131" data-name="Path 1131" d="M97.077,175.859a.764.764,0,0,1,.079-.168c.06-.12.139-.272.231-.46a7.766,7.766,0,0,0,.682-1.75,3.665,3.665,0,0,0,.073-1.268,2.54,2.54,0,0,0-.542-1.335,3.688,3.688,0,0,0-1.329-.91c-.517-.244-1.068-.466-1.639-.675s-1.138-.394-1.683-.577a14.144,14.144,0,0,0-1.585-.454,3.9,3.9,0,0,0-2.7.238,2.581,2.581,0,0,0-1.24,1.335,3.141,3.141,0,0,0-.139.669.928.928,0,0,1,0-.181,1.948,1.948,0,0,1,.089-.511A2.571,2.571,0,0,1,88.6,168.4a3.1,3.1,0,0,1,1.268-.387,5.225,5.225,0,0,1,1.515.1,13.846,13.846,0,0,1,1.6.451c.548.181,1.112.364,1.689.573s1.129.435,1.652.685a3.764,3.764,0,0,1,1.377.952,2.665,2.665,0,0,1,.561,1.414,3.784,3.784,0,0,1-.095,1.319,7.263,7.263,0,0,1-.739,1.753c-.107.2-.2.346-.26.447a.583.583,0,0,1-.092.152" transform="translate(-23.203 -44.658)" fill="#ff9a6c"/>
            <path id="Path_1132" data-name="Path 1132" d="M93.147,183.229a.672.672,0,0,1,.07-.168c.057-.123.133-.279.225-.469s.222-.45.355-.742a5.413,5.413,0,0,0,.358-1.021,6.118,6.118,0,0,0,.093-1.31,6.429,6.429,0,0,0-.2-1.5c-.232-1.046-.673-2.159-.857-3.418v-.07l.073-.019a1.9,1.9,0,0,0,.342-.133,1.787,1.787,0,0,0,.875-1.05l.057-.19.092.175a1.682,1.682,0,0,0,1.468.875h.123l-.051.111a3.147,3.147,0,0,0-.139,2.238l.019.067-.067.018a1.821,1.821,0,0,0-1.354,1.969,1.46,1.46,0,0,0,.273.663c.1.137.162.2.155.206s-.019,0-.054-.041-.076-.076-.134-.14a1.475,1.475,0,0,1-.317-.679,1.905,1.905,0,0,1,.2-1.154,1.928,1.928,0,0,1,1.2-.951l-.048.085a3.249,3.249,0,0,1,.127-2.343l.07.108a1.841,1.841,0,0,1-1.614-.951l.149-.016a1.9,1.9,0,0,1-.951,1.151,1.842,1.842,0,0,1-.377.146l.06-.089c.178,1.224.612,2.346.84,3.405a6.576,6.576,0,0,1,.184,1.529,5.926,5.926,0,0,1-.115,1.338,4.989,4.989,0,0,1-.39,1.034c-.139.291-.269.536-.377.733s-.193.352-.253.457a.97.97,0,0,1-.108.142" transform="translate(-24.761 -46.027)" fill="#ff9a6c"/>
            <path id="Path_1133" data-name="Path 1133" d="M98.606,167.9a4.172,4.172,0,0,0-.142-.558,2.825,2.825,0,0,0-.926-1.208,4.29,4.29,0,0,0-2.134-.8c-.866-.124-1.839-.079-2.854-.153a6.777,6.777,0,0,1-1.477-.257c-.466-.139-.894-.316-1.316-.424a2.5,2.5,0,0,0-1.206-.073,1.742,1.742,0,0,0-.893.523,4.26,4.26,0,0,0-.761,1.354,4.159,4.159,0,0,1-.206.539.823.823,0,0,1,.029-.145c.023-.1.064-.238.117-.415a4.007,4.007,0,0,1,.736-1.411,1.844,1.844,0,0,1,.951-.577,2.56,2.56,0,0,1,1.268.06c.435.111.869.279,1.325.416a6.6,6.6,0,0,0,1.443.247c1.009.073,1.988.032,2.873.164a4.345,4.345,0,0,1,2.185.866,2.77,2.77,0,0,1,.913,1.3,2.2,2.2,0,0,1,.086.424.5.5,0,0,1-.01.137" transform="translate(-23.045 -43.658)" fill="#ff9a6c"/>
            <path id="Path_1134" data-name="Path 1134" d="M89.467,161.342a14.139,14.139,0,0,0,1.538.051c.849-.057,1.5-.317,1.518-.269a3.766,3.766,0,0,1-3.056.219" transform="translate(-23.783 -42.83)" fill="#ff9a6c"/>
            <path id="Path_1135" data-name="Path 1135" d="M103.19,167.189c-.054,0-.1-.7-.317-1.519s-.555-1.436-.507-1.462a3.638,3.638,0,0,1,.669,1.421,4.007,4.007,0,0,1,.156,1.56" transform="translate(-27.211 -43.651)" fill="#ff9a6c"/>
            <path id="Path_1136" data-name="Path 1136" d="M34.378,210.7c0-.394-3.066-21.183-.263-28.577,2.853-7.527,11.316-9.591,11.316-9.591L53.025,201.8a18.711,18.711,0,0,0-11.04,1.224c-4.87,2.15-7.607,7.676-7.607,7.676" transform="translate(-8.755 -45.864)" fill="#5d51a3"/>
            <path id="Path_1137" data-name="Path 1137" d="M53.895,186.5c.044,0,1.132,4.236,2.432,9.486s2.315,9.513,2.271,9.528-1.135-4.236-2.432-9.486-2.314-9.519-2.27-9.528" transform="translate(-14.326 -49.577)" fill="#263238"/>
            <path id="Path_1138" data-name="Path 1138" d="M59.17,231a2.24,2.24,0,0,1-.142-.416,4.336,4.336,0,0,1-.134-.5,6.735,6.735,0,0,1-.126-.673c-.038-.25-.076-.526-.093-.824s-.022-.619-.025-.951a10.973,10.973,0,0,1,.951-4.246c.146-.317.279-.592.432-.853s.294-.494.434-.707.283-.393.4-.554.234-.3.317-.4a2.02,2.02,0,0,1,.317-.316c.025.022-.4.482-.951,1.331-.133.213-.279.447-.412.711s-.273.545-.413.846a11.382,11.382,0,0,0-.951,4.188v.951a6.706,6.706,0,0,0,.07.819c.165.989.359,1.588.324,1.595" transform="translate(-15.591 -58.63)" fill="#ff9a6c"/>
            <path id="Path_1139" data-name="Path 1139" d="M138.9,202.226l-28.317.184-4.48-4.467a4.179,4.179,0,0,0-2.955-1.227H92.266a1.25,1.25,0,0,0-1.243,1.256c0,.025,0,.051,0,.076l.719,33.327a2.017,2.017,0,0,0,2,1.984l40.965.035a4.823,4.823,0,0,0,4.8-4.728l.634-25.149a1.246,1.246,0,0,0-1.2-1.29H138.9" transform="translate(-24.197 -52.293)" fill="#ff725e"/>
            <g id="Group_361" data-name="Group 361" transform="translate(67.942 147.593)" opacity="0.3">
              <g id="Group_360" data-name="Group 360">
                <g id="Group_359" data-name="Group 359" clip-path="url(#clip-path-6)">
                  <path id="Path_1140" data-name="Path 1140" d="M95.066,201.513l-.168-.479s-.688-.07-1.062,2.321-1.294,28.219-1.294,28.219l2.99-29.281Z" transform="translate(-92.542 -201.033)"/>
                </g>
              </g>
            </g>
            <path id="Path_1141" data-name="Path 1141" d="M93.6,232.23l45.284-2.895a1.014,1.014,0,0,0,.951-.951l1.44-27.923a1.011,1.011,0,0,0-.949-1.07l-.055,0H95.989a1.012,1.012,0,0,0-1,.951l-2.463,30.793a1.01,1.01,0,0,0,.919,1.1,1.042,1.042,0,0,0,.159,0" transform="translate(-24.594 -53.003)" fill="#fafafa"/>
            <path id="Path_1142" data-name="Path 1142" d="M142.828,202.139H98.661a2.048,2.048,0,0,0-2.02,1.766l-4.233,29.15,1.522,1.786h44.135a2.047,2.047,0,0,0,2.01-1.725l4.756-28.568a2.057,2.057,0,0,0-2-2.41" transform="translate(-24.565 -53.735)" fill="#ec6e7a"/>
            <path id="Path_1143" data-name="Path 1143" d="M110.094,223.563l-.073-.91-3.111.26.073.907Z" transform="translate(-28.42 -59.188)" fill="#263238"/>
            <rect id="Rectangle_166" data-name="Rectangle 166" width="1.008" height="5.652" transform="translate(79.648 164.923) rotate(-4.634)" fill="#263238"/>
            <rect id="Rectangle_167" data-name="Rectangle 167" width="3.123" height="0.91" transform="matrix(0.996, -0.084, 0.084, 0.996, 107.653, 161.298)" fill="#263238"/>
            <rect id="Rectangle_168" data-name="Rectangle 168" width="1.01" height="5.653" transform="translate(108.811 162.494) rotate(-4.634)" fill="#263238"/>
            <path id="Path_1144" data-name="Path 1144" d="M113.566,228.415c-.222-.044-.368-.231-.4-.634l-.317-3.738c-.032-.4.082-.6.3-.685l-.083-1c-.869.146-1.3.8-1.214,1.839l.3,3.6c.082,1.037.612,1.611,1.493,1.614Z" transform="translate(-29.73 -59.11)" fill="#263238"/>
            <path id="Path_1145" data-name="Path 1145" d="M114,222.325l.079,1c.222.044.368.231.4.634l.317,3.738c.032.4-.082.6-.291.685l.079,1c.869-.149,1.3-.8,1.214-1.839l-.292-3.6c-.1-1.043-.628-1.617-1.506-1.62" transform="translate(-30.305 -59.101)" fill="#263238"/>
            <path id="Path_1146" data-name="Path 1146" d="M117.6,222.087l-.916.076.561,6.925.92-.079Z" transform="translate(-31.018 -59.037)" fill="#263238"/>
            <path id="Path_1147" data-name="Path 1147" d="M118.624,222.019l-.212.019.079.989.212-.019c.317-.025.507.117.548.612l.086,1.04c.038.492-.124.666-.444.692l-.212.019.082.989.212-.019c1.005-.082,1.452-.726,1.36-1.835l-.073-.9c-.089-1.106-.631-1.667-1.639-1.585" transform="translate(-31.477 -59.017)" fill="#263238"/>
            <rect id="Rectangle_169" data-name="Rectangle 169" width="1.11" height="0.991" transform="matrix(0.997, -0.083, 0.083, 0.997, 95.519, 165.244)" fill="#263238"/>
            <rect id="Rectangle_170" data-name="Rectangle 170" width="0.934" height="6.946" transform="translate(93.997 162.432) rotate(-4.7)" fill="#263238"/>
            <path id="Path_1148" data-name="Path 1148" d="M129.782,221.058l.079.986,1.465-.12-.079-.989Z" transform="translate(-34.5 -58.731)" fill="#263238"/>
            <path id="Path_1149" data-name="Path 1149" d="M130.518,230.127l1.465-.123-.079-.99-1.465.124Z" transform="translate(-34.675 -60.879)" fill="#263238"/>
            <path id="Path_1150" data-name="Path 1150" d="M134.4,226.674c-.228-.038-.377-.219-.409-.618l-.317-3.738c-.032-.4.086-.609.3-.688l-.079-1c-.891.134-1.306.79-1.224,1.842l.3,3.6c.086,1.053.6,1.63,1.5,1.617Z" transform="translate(-35.266 -58.649)" fill="#263238"/>
            <path id="Path_1151" data-name="Path 1151" d="M134.848,220.6l.079,1c.216.048.358.235.39.634l.06.742.951-.079-.057-.673c-.086-1.034-.577-1.607-1.424-1.623" transform="translate(-35.847 -58.641)" fill="#263238"/>
            <path id="Path_1152" data-name="Path 1152" d="M135.79,227.513c.032.39-.079.593-.286.675l.083,1.008c.84-.159,1.233-.808,1.15-1.832l-.076-.919-.951.079Z" transform="translate(-36.021 -60.196)" fill="#263238"/>
            <rect id="Rectangle_171" data-name="Rectangle 171" width="0.857" height="6.945" transform="translate(100.898 161.858) rotate(-4.674)" fill="#263238"/>
            <path id="Path_1153" data-name="Path 1153" d="M141.383,226.244l-.086-1.068c-.06-.723-.266-1.233-.789-1.418a1.413,1.413,0,0,0,.545-1.458l-.045-.545c-.085-1.069-.577-1.554-1.62-1.468l-.317.026.082.989.286-.022c.355-.032.529.174.57.669l.054.682c.045.554-.167.751-.545.783l-.194.016.079.989h.149c.46-.037.678.181.733.824l.089,1.088a2.252,2.252,0,0,0,.159.843l1.027-.085a2.167,2.167,0,0,1-.178-.844" transform="translate(-36.97 -58.556)" fill="#263238"/>
            <rect id="Rectangle_172" data-name="Rectangle 172" width="0.936" height="6.946" transform="matrix(0.997, -0.082, 0.082, 0.997, 104.577, 161.55)" fill="#263238"/>
            <rect id="Rectangle_173" data-name="Rectangle 173" width="1.109" height="0.993" transform="matrix(0.997, -0.083, 0.083, 0.997, 106.099, 164.362)" fill="#263238"/>
            <rect id="Rectangle_174" data-name="Rectangle 174" width="1.467" height="0.993" transform="translate(106.345 167.378) rotate(-4.709)" fill="#263238"/>
            <path id="Path_1154" data-name="Path 1154" d="M144.194,219.857l.079.989,1.465-.123-.082-.989Z" transform="translate(-38.331 -58.412)" fill="#263238"/>
            <path id="Path_1155" data-name="Path 1155" d="M125.137,229.249c-.247-.026-.412-.2-.447-.634l-.041-.494-.951.079.035.428c.085,1.042.6,1.62,1.484,1.614Z" transform="translate(-32.882 -60.641)" fill="#263238"/>
            <path id="Path_1156" data-name="Path 1156" d="M125.546,222.367c.225.041.365.228.4.634l.022.285.951-.079-.016-.215c-.085-1.034-.577-1.611-1.439-1.617Z" transform="translate(-33.352 -58.848)" fill="#263238"/>
            <path id="Path_1157" data-name="Path 1157" d="M124.381,223.092c-.032-.384.063-.59.257-.675l-.079-1.008c-.863.145-1.269.8-1.176,1.835.159,1.979,2.15,2.084,2.263,3.507.032.368-.067.568-.247.659l.083,1.021c.849-.153,1.249-.8,1.167-1.833-.162-1.978-2.144-2.083-2.267-3.506" transform="translate(-32.795 -58.857)" fill="#263238"/>
            <path id="Path_1158" data-name="Path 1158" d="M104.809,230.852a1.213,1.213,0,0,1-.789-.292,1.226,1.226,0,0,1-.437-.852l-.815-10.051a1.242,1.242,0,0,1,1.125-1.344l35.194-2.933a1.219,1.219,0,0,1,.893.289,1.27,1.27,0,0,1,.438.853l.815,10.051a1.244,1.244,0,0,1-1.125,1.348l-35.178,2.929Zm34.367-15.159H139.1l-35.178,2.929a.929.929,0,0,0-.84,1.005l.818,10.051a.92.92,0,0,0,.317.634.9.9,0,0,0,.663.213l35.193-2.93a.925.925,0,0,0,.841-1l-.818-10.054a.929.929,0,0,0-.316-.634.907.907,0,0,0-.6-.212" transform="translate(-27.318 -57.253)" fill="#263238"/>
            <path id="Path_1159" data-name="Path 1159" d="M151.451,202.744l.856,10.3-12.72,1.087-.857-10.3Z" transform="translate(-36.879 -53.895)" fill="#fafafa"/>
            <path id="Path_1160" data-name="Path 1160" d="M151.436,202.742h-.063l-.178.019-.692.063-2.6.232-9.195.8.028-.035c.257,3.067.552,6.58.863,10.3l-.041-.035L152.276,213l-.025.035c-.254-3.1-.463-5.672-.609-7.47-.07-.9-.127-1.608-.165-2.089-.019-.241-.032-.425-.041-.551a.959.959,0,0,1,0-.191,1.615,1.615,0,0,0,.016.184c.015.123.028.317.051.545.041.482.1,1.183.181,2.08.155,1.8.374,4.379.634,7.486v.032h-.032l-12.72,1.094h-.035v-.038c-.316-3.719-.6-7.232-.856-10.3v-.035h.045l9.195-.771,2.6-.212.685-.054h.174Z" transform="translate(-36.864 -53.893)" fill="#263238"/>
            <path id="Path_1161" data-name="Path 1161" d="M140.151,213.694l11.827-1.012-.752-9L139.4,204.692Z" transform="translate(-37.057 -54.145)" fill="#455a64"/>
            <g id="Group_364" data-name="Group 364" transform="translate(103.095 153.601)" opacity="0.3">
              <g id="Group_363" data-name="Group 363">
                <g id="Group_362" data-name="Group 362" clip-path="url(#clip-path-7)">
                  <path id="Path_1162" data-name="Path 1162" d="M140.424,215.166l3.662-5.948,2.851,3.282,1.582-2.02,3.732,3.675Z" transform="translate(-140.424 -209.217)"/>
                </g>
              </g>
            </g>
            <g id="Group_367" data-name="Group 367" transform="translate(108.446 151.719)" opacity="0.3">
              <g id="Group_366" data-name="Group 366">
                <g id="Group_365" data-name="Group 365" clip-path="url(#clip-path-8)">
                  <path id="Path_1163" data-name="Path 1163" d="M149.612,207.528a.944.944,0,1,1,0-.018v.018" transform="translate(-147.713 -206.654)"/>
                </g>
              </g>
            </g>
            <path id="Path_1164" data-name="Path 1164" d="M148.132,205a1,1,0,0,1-.993-1.005v-2.131h.381v2.131a.612.612,0,0,0,1.22.088.586.586,0,0,0,0-.088V201.1a1.211,1.211,0,1,0-2.419-.123,1.139,1.139,0,0,0,0,.123v.384h-.384V201.1a1.585,1.585,0,0,1,3.171,0v2.892a1,1,0,0,1-.976,1.005" transform="translate(-38.795 -53.037)" fill="#e0e0e0"/>
            <path id="Path_1165" data-name="Path 1165" d="M148.135,204.973a1,1,0,0,0,.187-.026.962.962,0,0,0,.479-.253,1.009,1.009,0,0,0,.317-.789v-2.632a1.926,1.926,0,0,0-.117-.786,1.585,1.585,0,0,0-.51-.672,1.546,1.546,0,0,0-1.735-.1,1.565,1.565,0,0,0-.634.732,1.609,1.609,0,0,0-.124.488v.523l-.032-.032h.384l-.035.032a4.488,4.488,0,0,1,.022-.612,1.272,1.272,0,0,1,.264-.57,1.237,1.237,0,0,1,2.109.317,1.5,1.5,0,0,1,.092.609v.6c0,.8,0,1.554-.016,2.3a.653.653,0,0,1-.336.438.634.634,0,0,1-.536.019.649.649,0,0,1-.355-.383,1.617,1.617,0,0,1-.035-.507V201.83l.022.026h-.381l.023-.022v2.178a1,1,0,0,0,.722.92,1.987,1.987,0,0,0,.254.041.892.892,0,0,1-.257-.029,1,1,0,0,1-.587-.425.981.981,0,0,1-.162-.507V201.8h.431v1.861a1.758,1.758,0,0,0,.035.488.566.566,0,0,0,.8.33.6.6,0,0,0,.317-.4c.026-.72,0-1.5,0-2.286v-.6a1.343,1.343,0,0,0-.089-.584,1.167,1.167,0,0,0-1.994-.317,1.206,1.206,0,0,0-.25.543,4.082,4.082,0,0,0-.019.6v.044h-.444v-.561a1.751,1.751,0,0,1,.13-.51,1.632,1.632,0,0,1,.663-.758,1.608,1.608,0,0,1,1.8.1,1.637,1.637,0,0,1,.523.695,1.957,1.957,0,0,1,.117.808v2.632a1.027,1.027,0,0,1-.317.805,1,1,0,0,1-.491.25.863.863,0,0,1-.238.022" transform="translate(-38.797 -53.014)" fill="#263238"/>
            <g id="Group_370" data-name="Group 370" transform="translate(110.863 157.308)" opacity="0.3">
              <g id="Group_369" data-name="Group 369">
                <g id="Group_368" data-name="Group 368" clip-path="url(#clip-path-9)">
                  <path id="Path_1166" data-name="Path 1166" d="M153.728,214.266a2.413,2.413,0,0,0,.919,2.064c.786.6,1.9.666,2.587,1.386a2.367,2.367,0,0,1,.47,2.175,4.355,4.355,0,0,1-1.208,1.944c-.545.542-1.167,1-1.747,1.506a9.412,9.412,0,0,0-2.112,2.537,14.241,14.241,0,0,0-.71,1.585q-.352.872-.7,1.741c-.2.495-.377,1.116-.022,1.507a1.407,1.407,0,0,0,.982.336,16.149,16.149,0,0,0,4.56-.107c0-.261.015-.523.022-.783,0,0,2.537-8.951,2.537-8.878s.286-5.66.286-5.66Z" transform="translate(-151.004 -214.266)"/>
                </g>
              </g>
            </g>
            <path id="Path_1167" data-name="Path 1167" d="M160.924,215.258a2.242,2.242,0,0,0-1.785-2.92c-1.656-.476-6.776-1.481-5.984.951a2.361,2.361,0,0,0,2.029,1.534,4.447,4.447,0,0,1,2.2,1.1,1.779,1.779,0,0,1,.7,1.389,3.223,3.223,0,0,1-2.248,3.269c-2.233.786-3.291,1.656-4,3.1-.634,1.269.159,1.823.159,1.823s-1.37,1.056-1.138,2.061a1.685,1.685,0,0,1-.242,1.12,1.1,1.1,0,0,0,.8,1.56l.111.022s6.776-.247,8.294-2a7.255,7.255,0,0,0,1.75-3.345s1.247-2.121-.162-3.361c.517-2.432,0-3.665-.951-4.385Z" transform="translate(-40.01 -56.282)" fill="#ffbf9d"/>
            <path id="Path_1168" data-name="Path 1168" d="M152.555,229.1a4.39,4.39,0,0,0,1.4-.187c.853-.187,2.02-.51,3.278-.885a7.289,7.289,0,0,0,1.779-.685,6.944,6.944,0,0,0,1.233-.951c.653-.618.853-1.18.8-1.192a8.12,8.12,0,0,1-.967,1,6.491,6.491,0,0,1-2.939,1.481l-3.241.99a5.6,5.6,0,0,0-1.341.431" transform="translate(-40.553 -59.866)" fill="#ff9a6c"/>
            <path id="Path_1169" data-name="Path 1169" d="M151.225,232.765a4.265,4.265,0,0,0,1.757.245,14.989,14.989,0,0,0,4.2-.8l1.157-.365a4.585,4.585,0,0,0,1.075-.454,5.151,5.151,0,0,0,1.344-1.443,3.6,3.6,0,0,0,.761-1.62c-.054-.009-.3.612-.967,1.465a5.45,5.45,0,0,1-1.31,1.306,13.766,13.766,0,0,1-2.166.758,18.564,18.564,0,0,1-4.105.888c-1.072.073-1.722-.044-1.747.016" transform="translate(-40.2 -60.697)" fill="#ff9a6c"/>
            <path id="Path_1170" data-name="Path 1170" d="M156.9,215.93a7.5,7.5,0,0,0,2.111.974,7.855,7.855,0,0,0,1.586.469c.434.054.7-.022.7-.067a3.084,3.084,0,0,0-.634-.19c-.377-.114-.913-.336-1.519-.558a7.412,7.412,0,0,0-2.241-.628" transform="translate(-41.709 -57.396)" fill="#ff9a6c"/>
            <path id="Path_1171" data-name="Path 1171" d="M141.36,241.594v1.972h-.384v-2.727h.533l.438,1.639v-1.639h.377v2.727h-.435Z" transform="translate(-37.476 -64.022)" fill="#fff"/>
            <path id="Path_1172" data-name="Path 1172" d="M143.2,241.243a.412.412,0,1,1,.821-.073.4.4,0,0,1,0,.073v.6a.412.412,0,1,1-.821.073.4.4,0,0,1,0-.073Zm.821,1.471H143.2v-.269h.822Zm-.548-.849c0,.127.051.168.139.168s.139-.041.139-.168v-.634c0-.123-.054-.168-.139-.168s-.139.045-.139.168Z" transform="translate(-38.065 -64.01)" fill="#fff"/>
            <path id="Path_1173" data-name="Path 1173" d="M151.969,244.523c0,.048-1.585.082-3.561.082s-3.557-.035-3.557-.082,1.585-.082,3.557-.082,3.561.051,3.561.082" transform="translate(-38.506 -64.98)" fill="#fff"/>
          </g>
        </g>
      </g>
    </g>
  </g>
</svg>
