<svg xmlns="http://www.w3.org/2000/svg" xmlns:xlink="http://www.w3.org/1999/xlink" width="72" height="72" viewBox="0 0 72 72">
  <defs>
    <clipPath id="clip-path">
      <rect id="Rectangle_475" data-name="Rectangle 475" width="72" height="72" fill="#ec6e7a"/>
    </clipPath>
  </defs>
  <g id="Group_802" data-name="Group 802" transform="translate(-2218 -750)">
    <g id="Group_795" data-name="Group 795" transform="translate(2218 750)">
      <g id="Group_787" data-name="Group 787">
        <g id="Group_786" data-name="Group 786" transform="translate(0 0)" clip-path="url(#clip-path)">
          <path id="Path_2117" data-name="Path 2117" d="M38.8,0,37.611.121,37.6.189c.249.014.5.026.746.041a11.019,11.019,0,0,1,1.2.081,1.33,1.33,0,0,1,1.143,1.406,1.369,1.369,0,0,1-1.48,1.266c-.766-.046-1.53-.133-2.3-.17a31.75,31.75,0,0,0-23.533,8.369,31.757,31.757,0,0,0-8.345,12A30.25,30.25,0,0,0,3.05,30.658a32.225,32.225,0,0,0,5.285,22.8,31.657,31.657,0,0,0,8.374,8.45,32.167,32.167,0,0,0,11.866,5.119,33.17,33.17,0,0,0,10.567.435,31.087,31.087,0,0,0,9.231-2.535,32.077,32.077,0,0,0,9.043-6.029,32.743,32.743,0,0,0,6.244-7.977,32.088,32.088,0,0,0,3.588-10.323,33.433,33.433,0,0,0,.256-8.839,29.456,29.456,0,0,0-1.395-6.6,32.412,32.412,0,0,0-4.551-8.966.85.85,0,0,0-.312-.275c-.008.114-.023.229-.023.344,0,.412.028.826,0,1.236a1.346,1.346,0,0,1-1.285,1.21,1.362,1.362,0,0,1-1.389-1.051,2.851,2.851,0,0,1-.056-.58q0-2.3.01-4.609a2.934,2.934,0,0,1,.067-.682,1.4,1.4,0,0,1,1.445-1.043q2.493-.02,4.987,0a1.389,1.389,0,0,1,1.452,1.347,1.434,1.434,0,0,1-1.493,1.391c-.549.025-1.1.006-1.651.007h-.42a34.679,34.679,0,0,1,7.434,19.893l.115-.976v5.3l-.111-.405A34.143,34.143,0,0,1,60.173,60.024a34.359,34.359,0,0,1-22.657,10.3l.867.113H31.5l1.387-.108a.73.73,0,0,0-.315-.081c-.867-.065-1.744-.072-2.6-.2a34.682,34.682,0,0,1-7.117-1.88A35.062,35.062,0,0,1,6.473,55.5a33.955,33.955,0,0,1-5.23-11.118A23.666,23.666,0,0,1,.262,38.13c0-.26-.038-.521-.058-.782a.6.6,0,0,0-.073.262Q.065,38.305,0,39V31.848l.16,1.343A33.451,33.451,0,0,1,10.212,10.483,33.907,33.907,0,0,1,32.9.137L31.986,0Z" transform="translate(0.781 0.781)" fill="#ec6e7a"/>
          <path id="Path_2118" data-name="Path 2118" d="M48.482,75.03A26.513,26.513,0,0,1,52.445,61.4a3.2,3.2,0,0,1,.409-.549,1.282,1.282,0,0,1,1.633-.2,1.3,1.3,0,0,1,.557,1.613,12.892,12.892,0,0,1-.661,1.2,22.546,22.546,0,0,0-2.806,8.02,23.876,23.876,0,0,0,1.244,11.9A23.347,23.347,0,0,0,57.03,90.5a23.1,23.1,0,0,0,9.927,6.779,23.755,23.755,0,0,0,10.291,1.2A23.559,23.559,0,0,0,95.715,85.9a23.542,23.542,0,0,0-8.971-31.081,22.486,22.486,0,0,0-7.9-2.922,24.6,24.6,0,0,0-7.087-.154,23.768,23.768,0,0,0-9.239,3.305,2.18,2.18,0,0,1-1.053.32,1.283,1.283,0,0,1-1.218-.943,1.269,1.269,0,0,1,.561-1.469,32.715,32.715,0,0,1,2.9-1.637,25.414,25.414,0,0,1,7.237-2.18,25.118,25.118,0,0,1,8.854.209A25.771,25.771,0,0,1,91.8,55.1a26.425,26.425,0,0,1,6.968,9.347A25.953,25.953,0,0,1,101,76.315a25.663,25.663,0,0,1-3.838,12.536A26.285,26.285,0,0,1,78.82,101.014a24.559,24.559,0,0,1-7.737.04A26.114,26.114,0,0,1,53.073,89.773a25.554,25.554,0,0,1-4.245-11.086c-.182-1.209-.234-2.438-.346-3.657" transform="translate(-38.808 -39.103)" fill="#ec6e7a"/>
          <path id="Path_2119" data-name="Path 2119" d="M146.752,127.582c-1.552-1.563-3.071-3.09-4.586-4.621a1.374,1.374,0,0,1,1.065-2.382,1.528,1.528,0,0,1,.97.534q1.963,1.975,3.929,3.948c.129.13.267.252.39.388a.3.3,0,0,0,.412.076,4.644,4.644,0,0,1,4.016.006c.227.105.333,0,.466-.132q4.518-4.526,9.037-9.05a1.465,1.465,0,0,1,1.148-.521,1.315,1.315,0,0,1,1.173.768,1.27,1.27,0,0,1-.109,1.365,3,3,0,0,1-.36.415q-4.476,4.47-8.96,8.932a.446.446,0,0,0-.1.6,4.714,4.714,0,1,1-8.993,2.419,4.957,4.957,0,0,1,.5-2.74m2.223,2.1a1.979,1.979,0,1,0,3.954.15,2.017,2.017,0,0,0-1.98-2.009,1.9,1.9,0,0,0-1.974,1.859" transform="translate(-114.941 -93.799)" fill="#ec6e7a"/>
          <path id="Path_2120" data-name="Path 2120" d="M187.314,80.157c0,.287,0,.573,0,.859a1.339,1.339,0,0,1-1.152,1.334,1.3,1.3,0,0,1-1.507-1A9.5,9.5,0,0,1,184.645,79a1.249,1.249,0,0,1,1.467-1.04,1.391,1.391,0,0,1,1.2,1.376c0,.275,0,.55,0,.825" transform="translate(-149.938 -62.865)" fill="#ec6e7a"/>
          <path id="Path_2121" data-name="Path 2121" d="M80.088,184.488c.3,0,.6-.011.894,0a1.389,1.389,0,0,1,1.356,1.266,1.345,1.345,0,0,1-1.113,1.4,9.777,9.777,0,0,1-2.219-.005,1.28,1.28,0,0,1-1.062-1.549,1.317,1.317,0,0,1,1.353-1.12c.264,0,.527,0,.791,0h0" transform="translate(-62.857 -149.862)" fill="#ec6e7a"/>
          <path id="Path_2122" data-name="Path 2122" d="M187.272,284.276a8.493,8.493,0,0,1-.1,1.158,1.333,1.333,0,0,1-1.563,1.017,1.31,1.31,0,0,1-1.112-1.357c0-.527,0-1.054,0-1.582a1.393,1.393,0,0,1,1.345-1.453,1.474,1.474,0,0,1,1.4,1.424c.01.263,0,.527,0,.791Z" transform="translate(-149.867 -229.539)" fill="#ec6e7a"/>
          <path id="Path_2123" data-name="Path 2123" d="M284.219,187.285h-.687a1.408,1.408,0,0,1-1.5-1.262,1.347,1.347,0,0,1,1.2-1.43,9.2,9.2,0,0,1,2.118.019,1.239,1.239,0,0,1,1.072,1.4,1.388,1.388,0,0,1-1.316,1.265c-.3.013-.6,0-.894,0" transform="translate(-229.514 -149.91)" fill="#ec6e7a"/>
          <path id="Path_2124" data-name="Path 2124" d="M89.87,91.294a1.4,1.4,0,0,1-1.364-1.361,1.372,1.372,0,1,1,2.743.011,1.414,1.414,0,0,1-1.379,1.351" transform="translate(-71.49 -71.528)" fill="#ec6e7a"/>
          <path id="Path_2125" data-name="Path 2125" d="M236.6,8.857a1.391,1.391,0,0,1,1.379-1.343A1.409,1.409,0,0,1,239.3,8.957a1.36,1.36,0,0,1-1.384,1.291A1.344,1.344,0,0,1,236.6,8.857" transform="translate(-192.416 -5.354)" fill="#ec6e7a"/>
        </g>
      </g>
    </g>
  </g>
</svg>
