<svg id="Group_296" data-name="Group 296" xmlns="http://www.w3.org/2000/svg" xmlns:xlink="http://www.w3.org/1999/xlink" width="543.868" height="721.774" viewBox="0 0 543.868 721.774">
  <defs>
    <clipPath id="clip-path">
      <rect id="Rectangle_144" data-name="Rectangle 144" width="543.868" height="721.774" fill="none"/>
    </clipPath>
    <clipPath id="clip-path-3">
      <rect id="Rectangle_129" data-name="Rectangle 129" width="180.001" height="435.889" fill="none"/>
    </clipPath>
    <clipPath id="clip-path-4">
      <rect id="Rectangle_130" data-name="Rectangle 130" width="171.178" height="171.18" fill="none"/>
    </clipPath>
    <clipPath id="clip-path-7">
      <rect id="Rectangle_134" data-name="Rectangle 134" width="164.931" height="249.71" fill="none"/>
    </clipPath>
    <clipPath id="clip-path-9">
      <rect id="Rectangle_136" data-name="Rectangle 136" width="104.56" height="66.178" fill="none"/>
    </clipPath>
    <clipPath id="clip-path-10">
      <rect id="Rectangle_137" data-name="Rectangle 137" width="161.544" height="241.767" fill="none"/>
    </clipPath>
    <clipPath id="clip-path-11">
      <rect id="Rectangle_138" data-name="Rectangle 138" width="159.778" height="48.971" fill="none"/>
    </clipPath>
    <clipPath id="clip-path-13">
      <rect id="Rectangle_140" data-name="Rectangle 140" width="113.36" height="16.742" fill="none"/>
    </clipPath>
    <clipPath id="clip-path-14">
      <rect id="Rectangle_141" data-name="Rectangle 141" width="45.86" height="16.742" fill="none"/>
    </clipPath>
    <clipPath id="clip-path-15">
      <path id="Path_733" data-name="Path 733" d="M4.623,179.028A103.192,103.192,0,0,0,107.814,282.219c16.744,0,31.978-3.461,53.8-16.557,5.9-3.537,11.507-.044,19.736,3.45,8.482,3.6,19.751,7.2,37,3.1,23.915-5.689,98.2-46.658,98.2-63.285,0-56.991-151.748-133.085-208.739-133.085A103.19,103.19,0,0,0,4.623,179.028" transform="translate(-4.623 -75.839)" fill="none"/>
    </clipPath>
    <clipPath id="clip-path-16">
      <rect id="Rectangle_143" data-name="Rectangle 143" width="36.426" height="20.009" fill="none"/>
    </clipPath>
  </defs>
  <g id="Group_295" data-name="Group 295" clip-path="url(#clip-path)">
    <g id="Group_261" data-name="Group 261">
      <g id="Group_260" data-name="Group 260" clip-path="url(#clip-path)">
        <path id="Path_647" data-name="Path 647" d="M361.362,0H80.771A47.7,47.7,0,0,0,33.124,47.649V674.127a47.7,47.7,0,0,0,44.8,47.555H236.047v.092H361.362a47.7,47.7,0,0,0,47.649-47.647V47.649A47.7,47.7,0,0,0,361.362,0" transform="translate(39.16)" fill="#fff"/>
        <path id="Path_648" data-name="Path 648" d="M355.628,4.852H309.989l-8.3,14.693a24.61,24.61,0,0,1-21.421,12.5H150.4a24.607,24.607,0,0,1-21.421-12.5L120.674,4.852H75.035A37.058,37.058,0,0,0,37.976,41.911V668.391a37.057,37.057,0,0,0,37.059,37.056H355.628a37.057,37.057,0,0,0,37.059-37.056V41.911A37.058,37.058,0,0,0,355.628,4.852" transform="translate(44.896 5.736)" fill="#29407c"/>
        <path id="Path_649" data-name="Path 649" d="M188.734,14.742H101.38a3.53,3.53,0,0,1,0-7.06h87.355a3.53,3.53,0,0,1,0,7.06" transform="translate(115.682 9.082)" fill="#e7e8fa"/>
        <path id="Path_650" data-name="Path 650" d="M161.231,221.641H27.112a12.354,12.354,0,0,1-12.354-12.354V196.933a12.353,12.353,0,0,1,12.354-12.351h134.12a12.353,12.353,0,0,1,12.354,12.351v12.354a12.354,12.354,0,0,1-12.354,12.354" transform="translate(17.447 218.218)" fill="#fff"/>
        <path id="Path_651" data-name="Path 651" d="M159.687,340.48H28.655a13.9,13.9,0,0,1-13.9-13.9V223.347a13.9,13.9,0,0,1,13.9-13.9H159.687a13.9,13.9,0,0,1,13.9,13.9V326.583a13.9,13.9,0,0,1-13.9,13.9" transform="translate(17.449 247.615)" fill="#fff"/>
        <path id="Path_652" data-name="Path 652" d="M109.06,199.14H25.677a3.64,3.64,0,0,1,0-7.28H109.06a3.64,3.64,0,0,1,0,7.28" transform="translate(26.053 226.822)" fill="#6694c0"/>
        <path id="Path_653" data-name="Path 653" d="M109.06,229.465H25.677a3.64,3.64,0,1,1,0-7.28H109.06a3.64,3.64,0,1,1,0,7.28" transform="translate(26.053 262.673)" fill="#6694c0"/>
        <path id="Path_654" data-name="Path 654" d="M109.06,246.144H25.677a3.64,3.64,0,0,1,0-7.28H109.06a3.64,3.64,0,0,1,0,7.28" transform="translate(26.053 282.392)" fill="#6694c0"/>
        <path id="Path_655" data-name="Path 655" d="M109.06,262.823H25.677a3.64,3.64,0,0,1,0-7.28H109.06a3.64,3.64,0,0,1,0,7.28" transform="translate(26.053 302.11)" fill="#6694c0"/>
        <path id="Path_656" data-name="Path 656" d="M143.8,237.653H25.677a3.64,3.64,0,0,1,0-7.28H143.8a3.64,3.64,0,0,1,0,7.28" transform="translate(26.053 272.353)" fill="#6694c0"/>
        <path id="Path_657" data-name="Path 657" d="M93.307,199.14H71.469a3.64,3.64,0,0,1,0-7.28H93.307a3.64,3.64,0,0,1,0,7.28" transform="translate(80.189 226.822)" fill="#6694c0"/>
        <path id="Path_658" data-name="Path 658" d="M83.774,274.01l-8.644,4.543a1.109,1.109,0,0,1-1.608-1.17l1.652-9.624a1.111,1.111,0,0,0-.321-.982l-6.992-6.815a1.109,1.109,0,0,1,.615-1.892l9.663-1.4a1.112,1.112,0,0,0,.836-.607L83.3,247.3a1.108,1.108,0,0,1,1.988,0l4.323,8.757a1.108,1.108,0,0,0,.834.607l9.663,1.4a1.109,1.109,0,0,1,.615,1.892l-6.992,6.815a1.1,1.1,0,0,0-.319.982l1.65,9.624a1.108,1.108,0,0,1-1.608,1.17l-8.644-4.543a1.107,1.107,0,0,0-1.032,0" transform="translate(79.83 291.639)" fill="#ec6e7a"/>
        <g id="Group_256" data-name="Group 256" transform="translate(228.534 89.118)" opacity="0.08">
          <g id="Group_255" data-name="Group 255">
            <g id="Group_254" data-name="Group 254" clip-path="url(#clip-path-3)">
              <path id="Path_659" data-name="Path 659" d="M260.021,476.727H129.43a24.707,24.707,0,0,1-24.705-24.707V65.545A24.707,24.707,0,0,1,129.43,40.838H260.021a24.707,24.707,0,0,1,24.707,24.707V452.02a24.707,24.707,0,0,1-24.707,24.707" transform="translate(-104.725 -40.838)" fill="#fff"/>
            </g>
          </g>
        </g>
        <g id="Group_259" data-name="Group 259" transform="translate(351.513 443.828)" opacity="0.08">
          <g id="Group_258" data-name="Group 258">
            <g id="Group_257" data-name="Group 257" clip-path="url(#clip-path-4)">
              <path id="Path_660" data-name="Path 660" d="M332.258,288.973a85.589,85.589,0,1,1-85.589-85.589,85.59,85.59,0,0,1,85.589,85.589" transform="translate(-161.08 -203.382)" fill="#fff"/>
            </g>
          </g>
        </g>
      </g>
    </g>
    <g id="Group_265" data-name="Group 265">
      <g id="Group_264" data-name="Group 264" clip-path="url(#clip-path)">
        <path id="Path_662" data-name="Path 662" d="M291.448,274.633a59.119,59.119,0,1,1-59.119-59.119,59.119,59.119,0,0,1,59.119,59.119" transform="translate(204.774 254.787)" fill="#fff"/>
        <path id="Path_663" data-name="Path 663" d="M262.368,264.415a40.258,40.258,0,1,1-40.258-40.258,40.256,40.256,0,0,1,40.258,40.258" transform="translate(214.992 265.005)" fill="#f9c650"/>
      </g>
    </g>
    <g id="Group_270" data-name="Group 270">
      <g id="Group_269" data-name="Group 269" clip-path="url(#clip-path)">
        <g id="Group_268" data-name="Group 268" transform="translate(283.24 159.706)" opacity="0.31" style="mix-blend-mode: multiply;isolation: isolate">
          <g id="Group_267" data-name="Group 267">
            <g id="Group_266" data-name="Group 266" clip-path="url(#clip-path-7)">
              <path id="Path_664" data-name="Path 664" d="M294.725,73.185H146.558a16.765,16.765,0,0,0-16.764,16.766V306.129A16.765,16.765,0,0,0,146.558,322.9H294.725Z" transform="translate(-129.794 -73.185)" fill="#565656"/>
            </g>
          </g>
        </g>
        <path id="Path_665" data-name="Path 665" d="M333.233,315.415h-180a16.763,16.763,0,0,1-16.764-16.766V82.471A16.765,16.765,0,0,1,153.23,65.705h180A16.767,16.767,0,0,1,350,82.471V298.649a16.765,16.765,0,0,1-16.766,16.766" transform="translate(161.334 77.678)" fill="#fff"/>
        <path id="Path_666" data-name="Path 666" d="M241.467,110.7v-45H153.231a16.765,16.765,0,0,0-16.766,16.764V110.7Z" transform="translate(161.333 77.678)" fill="#f9c650"/>
      </g>
    </g>
    <text id="APR" transform="translate(332.638 171.897)" fill="#fff" font-size="14" font-family="SegoeUI, Segoe UI"><tspan x="0" y="0">A</tspan><tspan y="0" letter-spacing="-0.009em">P</tspan><tspan y="0">R</tspan></text>
    <text id="MAY" transform="translate(429.703 171.897)" fill="#93a5c9" font-size="14" font-family="SegoeUI, Segoe UI"><tspan x="0" y="0">M</tspan><tspan y="0" letter-spacing="-0.041em">A</tspan><tspan y="0">Y</tspan></text>
    <g id="Group_281" data-name="Group 281">
      <g id="Group_280" data-name="Group 280" clip-path="url(#clip-path)">
        <path id="Path_667" data-name="Path 667" d="M173.436,130.939H150.273a4.962,4.962,0,0,1-4.962-4.962V102.815a4.963,4.963,0,0,1,4.962-4.965h23.162a4.963,4.963,0,0,1,4.962,4.965v23.162a4.962,4.962,0,0,1-4.962,4.962" transform="translate(171.791 115.681)" fill="#5d51a3"/>
        <path id="Path_668" data-name="Path 668" d="M194.967,130.939H171.8a4.962,4.962,0,0,1-4.962-4.962V102.815A4.963,4.963,0,0,1,171.8,97.85h23.162a4.963,4.963,0,0,1,4.962,4.965v23.162a4.962,4.962,0,0,1-4.962,4.962" transform="translate(197.245 115.681)" fill="#5d51a3"/>
        <path id="Path_669" data-name="Path 669" d="M216.5,130.939H193.335a4.962,4.962,0,0,1-4.962-4.962V102.815a4.963,4.963,0,0,1,4.962-4.965H216.5a4.963,4.963,0,0,1,4.962,4.965v23.162a4.962,4.962,0,0,1-4.962,4.962" transform="translate(222.7 115.681)" fill="#5d51a3"/>
        <path id="Path_670" data-name="Path 670" d="M238.029,130.939H214.866a4.962,4.962,0,0,1-4.962-4.962V102.815a4.963,4.963,0,0,1,4.962-4.965h23.162a4.963,4.963,0,0,1,4.962,4.965v23.162a4.962,4.962,0,0,1-4.962,4.962" transform="translate(248.154 115.681)" fill="#5d51a3"/>
        <path id="Path_671" data-name="Path 671" d="M173.436,154.593H150.273a4.962,4.962,0,0,1-4.962-4.962V126.469a4.963,4.963,0,0,1,4.962-4.965h23.162a4.963,4.963,0,0,1,4.962,4.965v23.162a4.962,4.962,0,0,1-4.962,4.962" transform="translate(171.791 143.645)" fill="#5d51a3"/>
        <path id="Path_672" data-name="Path 672" d="M194.967,154.593H171.8a4.962,4.962,0,0,1-4.962-4.962V126.469A4.963,4.963,0,0,1,171.8,121.5h23.162a4.963,4.963,0,0,1,4.962,4.965v23.162a4.962,4.962,0,0,1-4.962,4.962" transform="translate(197.245 143.645)" fill="#5d51a3"/>
        <path id="Path_673" data-name="Path 673" d="M216.5,154.593H193.335a4.962,4.962,0,0,1-4.962-4.962V126.469a4.963,4.963,0,0,1,4.962-4.965H216.5a4.963,4.963,0,0,1,4.962,4.965v23.162a4.962,4.962,0,0,1-4.962,4.962" transform="translate(222.7 143.645)" fill="#f9c650"/>
        <path id="Path_674" data-name="Path 674" d="M238.029,154.593H214.866a4.962,4.962,0,0,1-4.962-4.962V126.469a4.963,4.963,0,0,1,4.962-4.965h23.162a4.963,4.963,0,0,1,4.962,4.965v23.162a4.962,4.962,0,0,1-4.962,4.962" transform="translate(248.154 143.645)" fill="#5d51a3"/>
        <path id="Path_675" data-name="Path 675" d="M173.436,178.247H150.273a4.962,4.962,0,0,1-4.962-4.962V150.123a4.963,4.963,0,0,1,4.962-4.965h23.162a4.963,4.963,0,0,1,4.962,4.965v23.162a4.962,4.962,0,0,1-4.962,4.962" transform="translate(171.791 171.61)" fill="#5d51a3"/>
        <path id="Path_676" data-name="Path 676" d="M194.967,178.247H171.8a4.962,4.962,0,0,1-4.962-4.962V150.123a4.963,4.963,0,0,1,4.962-4.965h23.162a4.963,4.963,0,0,1,4.962,4.965v23.162a4.962,4.962,0,0,1-4.962,4.962" transform="translate(197.245 171.61)" fill="#5d51a3"/>
        <path id="Path_677" data-name="Path 677" d="M216.5,178.247H193.335a4.962,4.962,0,0,1-4.962-4.962V150.123a4.963,4.963,0,0,1,4.962-4.965H216.5a4.963,4.963,0,0,1,4.962,4.965v23.162a4.962,4.962,0,0,1-4.962,4.962" transform="translate(222.7 171.61)" fill="#5d51a3"/>
        <path id="Path_678" data-name="Path 678" d="M238.029,178.247H214.866a4.962,4.962,0,0,1-4.962-4.962V150.123a4.963,4.963,0,0,1,4.962-4.965h23.162a4.963,4.963,0,0,1,4.962,4.965v23.162a4.962,4.962,0,0,1-4.962,4.962" transform="translate(248.154 171.61)" fill="#5d51a3"/>
        <g id="Group_273" data-name="Group 273" transform="translate(103.678 91.765)" opacity="0.08">
          <g id="Group_272" data-name="Group 272">
            <g id="Group_271" data-name="Group 271" clip-path="url(#clip-path-9)">
              <path id="Path_679" data-name="Path 679" d="M144.792,68.521h-90a7.28,7.28,0,0,1-7.28-7.28V49.331a7.28,7.28,0,0,1,7.28-7.28h90a7.28,7.28,0,0,1,7.28,7.28V61.242a7.28,7.28,0,0,1-7.28,7.28" transform="translate(-47.51 -42.051)" fill="#fff"/>
              <path id="Path_680" data-name="Path 680" d="M144.792,86.717h-90a7.28,7.28,0,0,1-7.28-7.28V67.527a7.28,7.28,0,0,1,7.28-7.28h90a7.28,7.28,0,0,1,7.28,7.28V79.438a7.28,7.28,0,0,1-7.28,7.28" transform="translate(-47.51 -20.539)" fill="#fff"/>
            </g>
          </g>
        </g>
        <g id="Group_276" data-name="Group 276" transform="translate(72.284 148.237)" opacity="0.31" style="mix-blend-mode: multiply;isolation: isolate">
          <g id="Group_275" data-name="Group 275">
            <g id="Group_274" data-name="Group 274" clip-path="url(#clip-path-10)">
              <path id="Path_681" data-name="Path 681" d="M73.783,67.929a120.645,120.645,0,0,0-40.659,7.029V302.669A120.89,120.89,0,1,0,73.783,67.929" transform="translate(-33.124 -67.929)" fill="#565656"/>
            </g>
          </g>
        </g>
        <path id="Path_682" data-name="Path 682" d="M225.886,184.511A112.943,112.943,0,1,1,112.942,71.568,112.944,112.944,0,0,1,225.886,184.511" transform="translate(-0.001 84.61)" fill="#5d51a3"/>
        <path id="Path_683" data-name="Path 683" d="M208.881,178.535A101.913,101.913,0,1,1,106.966,76.623,101.914,101.914,0,0,1,208.881,178.535" transform="translate(5.975 90.586)" fill="#fff"/>
        <path id="Path_684" data-name="Path 684" d="M135.87,114.029a29.119,29.119,0,1,1-29.117-29.117,29.118,29.118,0,0,1,29.117,29.117" transform="translate(91.78 100.385)" fill="#f9c650"/>
        <path id="Path_685" data-name="Path 685" d="M85.72,102.939l9.266,9.266,17.536-17.539" transform="translate(101.341 111.917)" fill="none" stroke="#fff" stroke-linecap="round" stroke-linejoin="round" stroke-width="2"/>
        <g id="Group_279" data-name="Group 279" transform="translate(72.284 618.538)" opacity="0.31" style="mix-blend-mode: multiply;isolation: isolate">
          <g id="Group_278" data-name="Group 278">
            <g id="Group_277" data-name="Group 277" clip-path="url(#clip-path-11)">
              <path id="Path_686" data-name="Path 686" d="M184.961,283.443H33.124v48.971H184.961a7.94,7.94,0,0,0,7.941-7.941V291.384a7.94,7.94,0,0,0-7.941-7.941" transform="translate(-33.124 -283.443)" fill="#565656"/>
            </g>
          </g>
        </g>
        <path id="Path_687" data-name="Path 687" d="M198.125,328.168H22.093a7.94,7.94,0,0,1-7.941-7.941V287.138a7.94,7.94,0,0,1,7.941-7.941H198.125a7.94,7.94,0,0,1,7.941,7.941v33.089a7.94,7.94,0,0,1-7.941,7.941" transform="translate(16.731 330.075)" fill="#fff"/>
        <path id="Path_688" data-name="Path 688" d="M39.021,317.111a16.985,16.985,0,1,1,16.986-16.984,17,17,0,0,1-16.986,16.984m0-28.677a11.691,11.691,0,1,0,11.692,11.692,11.7,11.7,0,0,0-11.692-11.692" transform="translate(26.053 334.736)" fill="#6694c0"/>
        <path id="Path_689" data-name="Path 689" d="M34.486,298.18h-4.3a1.324,1.324,0,0,1-1.325-1.325v-8.6a1.324,1.324,0,0,1,2.647,0v7.28h2.979a1.324,1.324,0,0,1,0,2.647" transform="translate(34.119 339.218)" fill="#6694c0"/>
      </g>
    </g>
    <text id="_03:00_" data-name="03:00 " transform="translate(94.088 641.179)" fill="#93a5c9" font-size="21" font-family="SegoeUI, Segoe UI"><tspan x="0" y="0">03:00 </tspan></text>
    <text id="PM" transform="translate(162.325 642.179)" fill="#5a6a90" font-size="22" font-family="SegoeUI, Segoe UI"><tspan x="0" y="0">PM</tspan></text>
    <g id="Group_289" data-name="Group 289">
      <g id="Group_288" data-name="Group 288" clip-path="url(#clip-path)">
        <path id="Path_690" data-name="Path 690" d="M113.594,279.336a5.294,5.294,0,1,1-5.294-5.294,5.294,5.294,0,0,1,5.294,5.294" transform="translate(121.777 323.98)" fill="#fff"/>
        <g id="Group_284" data-name="Group 284" transform="translate(268.03 426.855)" opacity="0.44">
          <g id="Group_283" data-name="Group 283">
            <g id="Group_282" data-name="Group 282" clip-path="url(#clip-path-13)">
              <path id="Path_691" data-name="Path 691" d="M227.223,210.665H130.6a7.28,7.28,0,0,1,0-14.56h96.62a7.28,7.28,0,0,1,0,14.56Z" transform="translate(-122.232 -195.014)" fill="none" stroke="#fff" stroke-miterlimit="10" stroke-width="1"/>
            </g>
          </g>
        </g>
        <g id="Group_287" data-name="Group 287" transform="translate(268.03 450.017)" opacity="0.44">
          <g id="Group_286" data-name="Group 286">
            <g id="Group_285" data-name="Group 285" clip-path="url(#clip-path-14)">
              <path id="Path_692" data-name="Path 692" d="M159.721,221.279H130.6a7.28,7.28,0,0,1,0-14.56h29.117a7.28,7.28,0,1,1,0,14.56Z" transform="translate(-122.233 -205.628)" fill="none" stroke="#fff" stroke-miterlimit="10" stroke-width="1"/>
            </g>
          </g>
        </g>
        <path id="Path_693" data-name="Path 693" d="M24.631,80.245a7.06,7.06,0,1,1-7.06-7.06,7.06,7.06,0,0,1,7.06,7.06" transform="translate(12.428 86.521)" fill="#5d51a3"/>
      </g>
    </g>
    <g id="Group_294" data-name="Group 294" transform="translate(10.088 165.498)">
      <g id="Group_293" data-name="Group 293" clip-path="url(#clip-path-15)">
        <path id="Path_694" data-name="Path 694" d="M108.775,100.3c-1.1-3.991-3.269-7.9-6.846-9.99-1.7-.991-3.625-1.523-5.351-2.462-2.082-1.135-3.8-2.826-5.748-4.175a20.491,20.491,0,0,0-29.947,7.577c-4.024-3.068-11-1.772-15.764-.057s-8.746,7.389-9.89,12.319l22.342,6.756c4.469,4.882,9.436,9.414,15.258,12.565s12.583,4.853,19.127,3.865,12.788-4.9,15.743-10.826a22.024,22.024,0,0,0,1.076-15.572" transform="translate(31.561 -70.873)" fill="#263238"/>
        <path id="Path_695" data-name="Path 695" d="M99.628,159.859c5.676-3.969,7.042-12.888,2.813-18.374-1.259-1.632-2.981-3.11-3.265-5.15a10.109,10.109,0,0,1,.541-3.738,22.074,22.074,0,0,0-8.1-22.446c-.118-4.58-2.684-14.261-8.5-17.962L56.727,95.9q1.8,41.7-.242,83.438c-.207,4.26-.364,8.845,1.966,12.417,3.3,5.065,10.2,6.117,16.24,6.272,5.781.148,11.677-.1,17.135-2.012s10.481-5.7,12.766-11.009c3.522-8.181-.111-17.676-4.965-25.144" transform="translate(56.561 -56.511)" fill="#263238"/>
        <path id="Path_696" data-name="Path 696" d="M39.739,106.729l-.8-5.916,34.831-10.87c10.846-2.424,23.985,7.214,25.947,18.154,2.178,12.153,4.36,27.079,3.961,36.38-.8,18.7-14.612,22.66-14.612,22.66l1.412,11.088a20.487,20.487,0,0,1-40.635,5.264Z" transform="translate(35.948 -59.61)" fill="#ffc09d"/>
        <path id="Path_697" data-name="Path 697" d="M68.241,105.379a2.371,2.371,0,0,1-2,2.638,2.268,2.268,0,0,1-2.671-1.844,2.373,2.373,0,0,1,1.995-2.641,2.271,2.271,0,0,1,2.675,1.846" transform="translate(65.038 -43.14)" fill="#263238"/>
        <path id="Path_698" data-name="Path 698" d="M70.475,102.916c-.257.34-2.193-.775-4.727-.476-2.536.262-4.247,1.778-4.556,1.5-.153-.12.083-.709.825-1.392a6.5,6.5,0,0,1,3.6-1.582,6.245,6.245,0,0,1,3.808.764c.847.508,1.176,1.032,1.047,1.187" transform="translate(62.202 -46.18)" fill="#263238"/>
        <path id="Path_699" data-name="Path 699" d="M57.4,106.854a2.373,2.373,0,0,1-2,2.638,2.268,2.268,0,0,1-2.671-1.844,2.372,2.372,0,0,1,1.995-2.64,2.271,2.271,0,0,1,2.675,1.846" transform="translate(52.218 -41.396)" fill="#263238"/>
        <path id="Path_700" data-name="Path 700" d="M59.083,104.446c-.258.34-2.2-.775-4.729-.476-2.534.262-4.244,1.778-4.556,1.5-.151-.12.081-.709.827-1.392a6.5,6.5,0,0,1,3.6-1.582,6.249,6.249,0,0,1,3.808.764c.845.508,1.174,1.034,1.047,1.187" transform="translate(48.732 -44.371)" fill="#263238"/>
        <path id="Path_701" data-name="Path 701" d="M61.189,122.869c-.028-.142,1.517-.6,4.033-1.216.639-.142,1.237-.34,1.294-.8a3.3,3.3,0,0,0-.652-1.868q-1.182-2.246-2.481-4.709c-3.465-6.71-6.054-12.26-5.781-12.4s3.3,5.192,6.765,11.9q1.26,2.484,2.4,4.746a3.778,3.778,0,0,1,.628,2.5,1.645,1.645,0,0,1-.956,1.069,4.441,4.441,0,0,1-1.082.277c-2.553.434-4.146.631-4.172.487" transform="translate(57.987 -45.053)" fill="#263238"/>
        <path id="Path_702" data-name="Path 702" d="M75.986,127.138A48.97,48.97,0,0,1,50,123.441s7.684,12.146,26.5,8.277Z" transform="translate(49.023 -19.563)" fill="#ff9b6c"/>
        <path id="Path_703" data-name="Path 703" d="M63.073,115.079a4.6,4.6,0,0,0-4.29-1.224,4.19,4.19,0,0,0-2.7,1.875,2.661,2.661,0,0,0,.146,3.044,3.086,3.086,0,0,0,3.42.458,9.617,9.617,0,0,0,3.018-2.307,2.812,2.812,0,0,0,.637-.831.849.849,0,0,0-.111-.943" transform="translate(55.734 -31.031)" fill="#ff9b6c"/>
        <path id="Path_704" data-name="Path 704" d="M56.062,112.7c.41-.072.731,2.68,3.31,4.362s5.475,1.041,5.541,1.425c.057.166-.591.609-1.827.783a6.905,6.905,0,0,1-4.607-1.032,6.006,6.006,0,0,1-2.6-3.677c-.238-1.139-.009-1.855.181-1.861" transform="translate(55.856 -32.268)" fill="#263238"/>
        <path id="Path_705" data-name="Path 705" d="M60,99.545c-.17.718-2.739.683-5.672,1.384-2.948.642-5.244,1.787-5.711,1.215-.209-.277.133-.973,1.026-1.752a10.153,10.153,0,0,1,8.672-1.979c1.143.314,1.755.792,1.685,1.133" transform="translate(47.323 -49.478)" fill="#263238"/>
        <path id="Path_706" data-name="Path 706" d="M69.315,99.7c-.38.626-2.2.229-4.3.443-2.11.14-3.834.834-4.312.279-.214-.273,0-.882.714-1.517a6.256,6.256,0,0,1,6.937-.58c.81.506,1.122,1.071.958,1.375" transform="translate(61.586 -50.189)" fill="#263238"/>
        <path id="Path_707" data-name="Path 707" d="M44.8,90.622c-3.612,1.185-7.692,11.038-6.634,14.689s4.46,6.3,8.144,7.23a21.128,21.128,0,0,0,11.236-.729c5.141-1.56,10.564-5.1,10.931-10.464a20.9,20.9,0,0,0,19.664,5.4c6.885-1.781,11.989-12.314,13.927-19.16Z" transform="translate(34.835 -61.95)" fill="#263238"/>
        <path id="Path_708" data-name="Path 708" d="M68.936,111.689c-.083,0-.041-.927-.465-2.507a10.4,10.4,0,0,0-3.808-5.565,10.134,10.134,0,0,0-9.573-1.39,9.978,9.978,0,0,0-4.666,3.52,10.034,10.034,0,0,0,0,11.884,9.978,9.978,0,0,0,4.666,3.52,10.129,10.129,0,0,0,9.576-1.392,10.379,10.379,0,0,0,3.806-5.563c.423-1.58.382-2.512.465-2.507a2.235,2.235,0,0,1,.041.668,8.384,8.384,0,0,1-.227,1.909,10.382,10.382,0,0,1-3.769,5.909A10.549,10.549,0,0,1,60.5,122.22a10.717,10.717,0,0,1-5.643-.43,10.605,10.605,0,0,1-5.015-3.732,10.7,10.7,0,0,1,0-12.74A10.65,10.65,0,0,1,64.98,103.2a10.376,10.376,0,0,1,3.771,5.909,8.384,8.384,0,0,1,.227,1.909,2.235,2.235,0,0,1-.041.668" transform="translate(46.349 -46.133)" fill="#455a64"/>
        <path id="Path_709" data-name="Path 709" d="M80.889,109.535c-.083,0-.041-.927-.465-2.507a10.4,10.4,0,0,0-3.808-5.565,10.134,10.134,0,0,0-9.573-1.39,9.978,9.978,0,0,0-4.666,3.52,10.034,10.034,0,0,0,0,11.884A9.978,9.978,0,0,0,67.043,119a10.129,10.129,0,0,0,9.576-1.392,10.379,10.379,0,0,0,3.806-5.563c.423-1.58.382-2.512.465-2.507a2.235,2.235,0,0,1,.041.668,8.4,8.4,0,0,1-.227,1.909,10.382,10.382,0,0,1-3.769,5.909,10.548,10.548,0,0,1-4.482,2.045,10.717,10.717,0,0,1-5.643-.43,10.6,10.6,0,0,1-5.015-3.732,10.7,10.7,0,0,1,0-12.74,10.6,10.6,0,0,1,5.015-3.732A10.715,10.715,0,0,1,72.453,99a10.528,10.528,0,0,1,4.48,2.045,10.369,10.369,0,0,1,3.771,5.909,8.383,8.383,0,0,1,.227,1.909,2.235,2.235,0,0,1-.041.668" transform="translate(60.48 -48.679)" fill="#455a64"/>
        <path id="Path_710" data-name="Path 710" d="M56.768,105c-.087-.017-.1-.5.244-1.181a3.833,3.833,0,0,1,5.165-1.61c.672.362.934.768.873.834-.072.085-.441-.155-1.076-.351a3.991,3.991,0,0,0-4.522,1.408c-.41.524-.578.932-.685.9" transform="translate(56.961 -45.175)" fill="#455a64"/>
        <path id="Path_711" data-name="Path 711" d="M52.215,107.032c.072.19-1.724.967-4.009,1.735S44.019,110,43.96,109.8s1.739-.973,4.011-1.735,4.172-1.224,4.244-1.034" transform="translate(41.88 -39.012)" fill="#455a64"/>
        <path id="Path_712" data-name="Path 712" d="M148.726,127.3c3.046-1.178,1.787-4.345,1.787-4.345l-11.324,3.411s6.01-2.435,9.089-4.956,1.545-4.709,1.545-4.709l-11.668,4.5-6.595,3.887L115.045,150.3s12.906,6.311,15.191,4.491c4.015-3.2,6.208-10.344,7.1-13.973,1.619-.469,6.717-1.988,8.094-2.9a7.626,7.626,0,0,0,2.422-2.736l-8.991,1.713c1.3-.38,9.639-3.236,10.3-4.258,1.163-1.794.432-2.59.432-2.59L138.3,131.8l1.165-.849s6.324-2.52,9.259-3.655" transform="translate(125.921 -27.533)" fill="#ffc09d"/>
        <path id="Path_713" data-name="Path 713" d="M170.863,134.063l-38,34.791c-4.72-1.087-62.582-35.677-62.582-35.677l-9.144,44.507s59.217,27.225,75.514,23.922c2.66-.539,7.036-.877,9.781-4.4,13.034-16.755,40.692-58.2,40.692-58.2Z" transform="translate(62.191 -8.052)" fill="#ffc09d"/>
        <path id="Path_714" data-name="Path 714" d="M137.2,149.946l-6.854-3.308,4.954-8.978,3.88-8.216,6.021-11.177-9.176,3.444a7.1,7.1,0,0,0-2.769,2.117l-15.1,20.851-6.7,6.822,6.462,17.379,7.59-11.852,4.441-1.034c4.441-1.034,7.247-6.047,7.247-6.047" transform="translate(121.678 -25.679)" fill="#ffc09d"/>
        <path id="Path_715" data-name="Path 715" d="M119.857,128.662a57.62,57.62,0,0,1,9.844-3.847,8.18,8.18,0,0,1,3.4-.441,3.067,3.067,0,0,1,2.577,2.008A3.209,3.209,0,0,1,134.1,129.7a12.314,12.314,0,0,1-3.69,1.3,6.432,6.432,0,0,0-3.42,1.8,10.544,10.544,0,0,0-1.458,3.374,11.874,11.874,0,0,1-8.742,7.5" transform="translate(127.99 -18.517)" fill="#ffc09d"/>
        <path id="Path_716" data-name="Path 716" d="M116.794,143.84c-.013-.059.609-.185,1.654-.6a12.228,12.228,0,0,0,3.95-2.577,11.58,11.58,0,0,0,2-2.558,16.093,16.093,0,0,0,1.388-3.489,5.683,5.683,0,0,1,1.023-1.916,5.146,5.146,0,0,1,1.87-1.307c1.408-.615,2.957-.766,4.332-1.333a4.282,4.282,0,0,0,1.735-1.207,2.721,2.721,0,0,0,.685-1.818,2.686,2.686,0,0,0-2.649-2.217,10.549,10.549,0,0,0-3.638.618c-1.143.334-2.2.674-3.158,1.008-1.914.668-3.433,1.3-4.48,1.737a10.326,10.326,0,0,1-1.648.648,7.943,7.943,0,0,1,1.538-.884A46.817,46.817,0,0,1,125.822,126c.954-.364,2.012-.735,3.16-1.1a10.816,10.816,0,0,1,3.845-.7,3.948,3.948,0,0,1,2.084.746,2.768,2.768,0,0,1,1.172,2.049,4.05,4.05,0,0,1-2.819,3.681c-1.508.613-3.04.753-4.327,1.318a4.533,4.533,0,0,0-1.648,1.124,5.1,5.1,0,0,0-.923,1.7,16.219,16.219,0,0,1-1.49,3.568A11.741,11.741,0,0,1,122.723,141a11.457,11.457,0,0,1-4.186,2.477,7.983,7.983,0,0,1-1.283.321,1.255,1.255,0,0,1-.46.037" transform="translate(127.989 -18.68)" fill="#ff9b6c"/>
        <path id="Path_717" data-name="Path 717" d="M115.889,190.562H38.005s-11.5,14.473-19.079,29.55l111.01.458c2.178-3.572-14.047-30.008-14.047-30.008" transform="translate(12.286 59.79)" fill="#263238"/>
        <path id="Path_718" data-name="Path 718" d="M133.424,191.116c-2.636-34.865-11.286-56.773-11.286-56.773l-13.491-4.151v0c-2.04,8.91-16.561,11.852-24.829,7.954l-8.751-4.574c-28.077-4.212-26.623-1.881-33.113,2.019-5.641,3.391-5.122,28.681-5.122,28.681S22.84,230.178,23.6,240.749s8.91,21.183,8.91,21.183H110.4c7.843,0,10.082-17.731,9.534-24.166s14.361-35.191,13.495-46.65" transform="translate(17.778 -11.58)" fill="#ec6e7a"/>
        <path id="Path_719" data-name="Path 719" d="M40.019,172.27a6.079,6.079,0,0,0,1.3,1.1A24.651,24.651,0,0,0,52,177.717a22.9,22.9,0,0,0,8.5-.367,28.01,28.01,0,0,0,13.222-7.673,32.46,32.46,0,0,0,3.038-3.529,6.551,6.551,0,0,0,.914-1.445c-.118-.092-1.53,1.892-4.356,4.557a29.186,29.186,0,0,1-13.006,7.289,23.812,23.812,0,0,1-14.726-1.357c-3.568-1.519-5.477-3.059-5.569-2.922" transform="translate(37.221 29.217)" fill="#263238"/>
        <g id="Group_292" data-name="Group 292" transform="translate(77.544 195.283)" opacity="0.3">
          <g id="Group_291" data-name="Group 291">
            <g id="Group_290" data-name="Group 290" clip-path="url(#clip-path-16)">
              <path id="Path_720" data-name="Path 720" d="M76.208,165.758a22.692,22.692,0,0,1-8,15.3,18.825,18.825,0,0,1-16.668,3.631,16.121,16.121,0,0,1-11.383-12.367c4,1.827,8.076,3.671,12.428,4.327a24.4,24.4,0,0,0,24-11.328l-.635.672" transform="translate(-40.157 -165.328)"/>
            </g>
          </g>
        </g>
        <path id="Path_721" data-name="Path 721" d="M15.939,187.54l39.247,18.4s16-35.394,17.375-40.232,5.693-12.5,1.268-22.588-16.286-13.8-22.852-9.5C36.29,143.245,15.939,187.54,15.939,187.54" transform="translate(8.755 -9.61)" fill="#ec6e7a"/>
        <path id="Path_722" data-name="Path 722" d="M76.929,189.129c1.833,0,22.874,11.007,22.874,11.007l11.983-39.686C93.894,148.526,79.209,134.907,68.739,132.1l5.5,32.8Z" transform="translate(71.177 -9.33)" fill="#ec6e7a"/>
        <path id="Path_723" data-name="Path 723" d="M15.939,165.6a3.4,3.4,0,0,1,.779.275l2.174.923,7.93,3.52L52.871,182.2l3.177,1.464-.5.179c4.528-9.336,8.5-17.687,11.308-23.714,1.357-2.948,2.466-5.357,3.282-7.127.356-.779.648-1.416.884-1.931a2.836,2.836,0,0,1,.351-.653,2.94,2.94,0,0,1-.218.709c-.168.454-.412,1.128-.759,1.984-.687,1.715-1.731,4.186-3.073,7.23-2.691,6.088-6.582,14.481-11.1,23.83l-.159.332-.336-.153c-1.013-.467-2.091-.962-3.18-1.462-10.093-4.7-19.225-8.947-25.955-12.077-3.236-1.545-5.888-2.813-7.832-3.74-.855-.426-1.554-.772-2.112-1.052a3.332,3.332,0,0,1-.716-.412" transform="translate(8.755 12.327)" fill="#263238"/>
        <path id="Path_724" data-name="Path 724" d="M71.957,143.3a17.989,17.989,0,0,1,.814,2.442c.522,1.7,1.22,3.959,2.064,6.7,1.7,5.641,4.179,13.6,4.292,22.754a48.321,48.321,0,0,1-2.091,12.624c-1.091,3.78-2.357,7.086-3.435,9.844s-2.016,4.967-2.654,6.5a17.5,17.5,0,0,1-1.054,2.348,2.31,2.31,0,0,1,.168-.648c.17-.493.373-1.089.62-1.8l2.431-6.577c1.015-2.778,2.224-6.086,3.269-9.844a49.351,49.351,0,0,0,2.008-12.445c-.111-9-2.479-16.923-4.055-22.6-.805-2.85-1.445-5.163-1.842-6.771-.205-.8-.343-1.434-.434-1.859a2.306,2.306,0,0,1-.1-.661" transform="translate(72.537 3.913)" fill="#263238"/>
        <path id="Path_725" data-name="Path 725" d="M96.128,203.8a25.87,25.87,0,0,0-7.749-15.228c-2.032-2.04-4.476-4.079-4.871-6.931-.511-3.7,2.689-7.16,2.169-10.854-.648-4.611-6.42-6.617-8.482-10.791-2.774-5.615,2.058-12.912-.917-18.425-1.792-3.319-6.064-5.1-6.924-8.779-.554-2.376,3.978-5.846,5.03-11.007,2.37-11.6,3.572-20.576-7.695-27.332l-6.582-9.019c-7.376,3.6-13.573,11.7-13.7,20.164-.059,4,1.988,8.011.247,11.612-2.431,5.026-8.092,8.122-9.8,13.436-2.446,7.605,4.292,16.114,1.351,23.54-1.735,4.38-6.307,6.881-9.176,10.614a16.211,16.211,0,0,0,1.034,20.325,20.437,20.437,0,0,0-7.7,22.87c1.174,3.441,3.83,6.854,7.459,7.053,5.2.288,8.164-5.6,11.97-9.148,5.916-5.523,16.279-5.25,21.9.572,4,4.151,5.617,10.4,10.28,13.789,4.7,3.415,11.666,2.8,16.179-.858s6.586-9.829,5.981-15.6" transform="translate(15.185 -64.497)" fill="#263238"/>
        <path id="Path_726" data-name="Path 726" d="M57.264,172.407c-7.433,12.212-12.618,19.239-12.618,19.239L111.3,232.239l-7.769,18.043L17.083,214.7s-8.522-8.77-5.514-18.545l13.785-38.043Z" transform="translate(2.828 21.425)" fill="#ffc09d"/>
        <path id="Path_727" data-name="Path 727" d="M18.95,179.767c.157.207,3.306-2.44,7.978-4.144,4.655-1.757,8.766-1.8,8.751-2.062.039-.194-4.212-.522-9.037,1.292-4.84,1.772-7.849,4.792-7.692,4.914" transform="translate(12.308 39.507)" fill="#ff9b6c"/>
        <path id="Path_728" data-name="Path 728" d="M112.846,204.442l-16.624-7.954-32.445-2.573L61.13,192.08l-7.767,18.043s8.5,4.066,12.958,4.428l27.278-.827,14.263,1.5Z" transform="translate(52.999 61.584)" fill="#ffc09d"/>
        <path id="Path_729" data-name="Path 729" d="M210.768,168.4l-93.53.759c-3.033,0-5.933,1.458-6.387,4.458l-10.222,68.168H52.454a2.809,2.809,0,0,0,0,5.617H206.32l10.514-71.946a6.136,6.136,0,0,0-6.067-7.057" transform="translate(48.603 33.588)" fill="#e0e0e0"/>
        <path id="Path_730" data-name="Path 730" d="M210.973,168.419a4.925,4.925,0,0,1,1.473.137,6.179,6.179,0,0,1,4.729,5.355,17.345,17.345,0,0,1-.343,3.847c-.393,2.756-.842,5.927-1.349,9.493-2.06,14.294-5.026,34.889-8.674,60.212l-.035.247h-.249L57.251,247.8H53.233a3.884,3.884,0,0,1-2.125-.4,3.188,3.188,0,0,1,.015-5.573,3.915,3.915,0,0,1,2.106-.395h1.979l15.633,0,29.993.009-.36.31c3.679-24.413,7.112-47.186,10.191-67.619a5.3,5.3,0,0,1,1.731-3.561,6.945,6.945,0,0,1,3.577-1.578,31.158,31.158,0,0,1,3.771-.133l3.673-.024,14.08-.1,25.026-.157,35.625-.183c4.142-.007,7.341-.013,9.532-.017l2.459.011c.554.007.836.026.836.026s-.282.024-.836.039c-.574.011-1.39.028-2.459.052-2.189.031-5.39.076-9.53.137l-35.625.4-25.026.249-14.08.133-3.673.035a30.575,30.575,0,0,0-3.679.135,6.334,6.334,0,0,0-3.26,1.438,4.648,4.648,0,0,0-1.521,3.193c-3.049,20.437-6.448,43.215-10.091,67.634l-.046.31h-.314c-9.665,0-19.695.007-29.993.011q-7.722,0-15.633,0H53.229a3.124,3.124,0,0,0-1.741.3,2.434,2.434,0,0,0-.011,4.253,3.133,3.133,0,0,0,1.757.308h4.017l149.275.089-.286.247c3.751-25.307,6.8-45.892,8.923-60.175.535-3.564,1.01-6.732,1.425-9.484a17.328,17.328,0,0,0,.38-3.788,5.977,5.977,0,0,0-1.085-2.909,6.108,6.108,0,0,0-3.457-2.383,11.773,11.773,0,0,0-1.453-.223" transform="translate(48.397 33.568)" fill="#263238"/>
        <path id="Path_731" data-name="Path 731" d="M97.548,189.276a5.856,5.856,0,1,0,5.855-5.855,5.854,5.854,0,0,0-5.855,5.855" transform="translate(105.236 51.347)" fill="#fff"/>
        <path id="Path_732" data-name="Path 732" d="M74.747,246.361c.133.022,3.11-17.336,6.649-38.765s6.3-38.826,6.169-38.848-3.108,17.331-6.649,38.769-6.3,38.822-6.169,38.844" transform="translate(78.275 34.001)" fill="#263238"/>
      </g>
    </g>
  </g>
</svg>
