<svg xmlns="http://www.w3.org/2000/svg" xmlns:xlink="http://www.w3.org/1999/xlink" width="197.424" height="238.185" viewBox="0 0 197.424 238.185">
  <defs>
    <filter id="Ellipse_39" x="0" y="40.761" width="197.424" height="197.424" filterUnits="userSpaceOnUse">
      <feOffset dy="9" input="SourceAlpha"/>
      <feGaussianBlur stdDeviation="12" result="blur"/>
      <feFlood flood-opacity="0.153"/>
      <feComposite operator="in" in2="blur"/>
      <feComposite in="SourceGraphic"/>
    </filter>
    <clipPath id="clip-path">
      <path id="Path_1000" data-name="Path 1000" d="M84.964,0C65.8,0,34.936,24.43,22.875,53.957c-10.682,26.153-3.7,56.578-3.7,73.546a65.415,65.415,0,1,0,130.829,0c0-23.147,11.381-62.821-6.652-92.764C133.245,17.95,97.944,0,84.964,0Z" transform="translate(-16.936)" fill="none"/>
    </clipPath>
    <clipPath id="clip-path-2">
      <rect id="Rectangle_154" data-name="Rectangle 154" width="28.702" height="19.084" fill="none"/>
    </clipPath>
    <clipPath id="clip-path-3">
      <rect id="Rectangle_155" data-name="Rectangle 155" width="20.355" height="35.144" fill="none"/>
    </clipPath>
    <clipPath id="clip-path-4">
      <rect id="Rectangle_156" data-name="Rectangle 156" width="24.495" height="3.24" fill="none"/>
    </clipPath>
    <clipPath id="clip-path-5">
      <rect id="Rectangle_157" data-name="Rectangle 157" width="2.39" height="9.602" fill="none"/>
    </clipPath>
    <clipPath id="clip-path-6">
      <rect id="Rectangle_158" data-name="Rectangle 158" width="15.773" height="6.737" fill="none"/>
    </clipPath>
  </defs>
  <g id="Group_500" data-name="Group 500" transform="translate(-459.331 -2226.721)">
    <g transform="matrix(1, 0, 0, 1, 459.33, 2226.72)" filter="url(#Ellipse_39)">
      <circle id="Ellipse_39-2" data-name="Ellipse 39" cx="62.712" cy="62.712" r="62.712" transform="translate(36 67.76)" fill="#fff"/>
    </g>
    <g id="Group_806" data-name="Group 806" transform="translate(473.405 2226.721)">
      <g id="Group_337" data-name="Group 337" transform="translate(16.936)" clip-path="url(#clip-path)">
        <path id="Path_945" data-name="Path 945" d="M77.7,102.321c-10.289,7.495-6.9,20.149-8.8,23.276-.739,1.249-1.707,2.513-1.7,3.917,0,1.537,1.16,2.912,1.279,4.435.155,2.136-1.67,3.962-2.816,5.913a10.029,10.029,0,0,0-.872,8.545c.207.577,1.367.828,1.138,1.478-1.271,3.57,2.121,13.512,2.617,13.5,10.163-.089,20.112-10.089,30.239-10.91,2.314-.185,3.777-4.2,5.677-5.374,2.594-1.619,3.526-4.531,4.28-7.207q1.2-4.25,2.387-8.478a31.786,31.786,0,0,0,1.22-5.573,58,58,0,0,0-.281-7.828,71.9,71.9,0,0,0-.288-7.251,10.489,10.489,0,0,0-3.215-6.527" transform="translate(-29.268 -26.69)" fill="#263238"/>
        <path id="Path_946" data-name="Path 946" d="M89.366,87.571c-6.726,1.478-13.807,6.9-16.106,13.386s-1.582,14.65-1.087,21.524c2.077-.54,3.459.377,5.581.111a5.237,5.237,0,0,0,3.289-2.38,35.267,35.267,0,0,0,4.258-8.825q4.058-10.954,7.975-21.968" transform="translate(-31.211 -22.843)" fill="#263238"/>
        <path id="Path_947" data-name="Path 947" d="M112.9,108.291A17.059,17.059,0,0,0,95.168,91.927q-.313.012-.625.036a17.562,17.562,0,0,0-16.21,17.651c.044,7.975.273,16,.739,18.848,1.478,8.589,7.148,11.087,9.387,11.789a11.844,11.844,0,0,0,2.4.2.059.059,0,0,1,.059.059l-.37,10.186c.155,6.652,4.753,11.826,11.486,11.693s11.124-5.913,11.087-12.566Z" transform="translate(-32.951 -23.975)" fill="#ffbe9d"/>
        <path id="Path_948" data-name="Path 948" d="M84.113,124.05a1.39,1.39,0,0,0,1.375,1.375,1.354,1.354,0,0,0,1.475-1.219c0-.018,0-.035,0-.052a1.39,1.39,0,0,0-1.375-1.375,1.345,1.345,0,0,0-1.473,1.2c0,.022,0,.044-.005.067" transform="translate(-34.459 -32.025)" fill="#263238"/>
        <path id="Path_949" data-name="Path 949" d="M81.2,118.3c.14.177,1.316-.17,2.787.192s2.424,1.2,2.617,1.094,0-.34-.429-.739a4.709,4.709,0,0,0-2.055-1.057,4.442,4.442,0,0,0-2.262,0c-.51.207-.724.421-.658.51" transform="translate(-33.695 -30.687)" fill="#263238"/>
        <path id="Path_950" data-name="Path 950" d="M103.093,123.009a1.39,1.39,0,0,0,1.375,1.375,1.353,1.353,0,0,0,1.441-1.259v-.013a1.4,1.4,0,0,0-1.375-1.382A1.361,1.361,0,0,0,103.093,123v.005" transform="translate(-39.41 -31.752)" fill="#263238"/>
        <path id="Path_951" data-name="Path 951" d="M101.476,119.047c.222.052,1.094-.872,2.631-1.478a28.364,28.364,0,0,1,2.957-.665c.089-.185-.214-.237-.8-.3a5.854,5.854,0,0,0-2.454.384,5.289,5.289,0,0,0-2.033,1.3c-.347.451-.414.732-.3.754" transform="translate(-38.975 -30.414)" fill="#263238"/>
        <path id="Path_952" data-name="Path 952" d="M93.112,129.33a10.27,10.27,0,0,0-2.469-.392c-.392,0-.739-.1-.828-.362a1.95,1.95,0,0,1,.251-1.131c.355-.931.739-1.9,1.109-2.957,1.545-4.154,2.661-7.569,2.491-7.628s-1.56,3.26-3.1,7.392c-.37,1.027-.739,2-1.064,2.957a2.136,2.136,0,0,0-.185,1.478.969.969,0,0,0,.643.547,3.335,3.335,0,0,0,.658.081,9.849,9.849,0,0,0,2.5.015" transform="translate(-35.8 -30.483)" fill="#263238"/>
        <path id="Path_953" data-name="Path 953" d="M95.369,156.164s5.861.377,13.142-4.073c0,0-2.217,7.65-13.238,6.815Z" transform="translate(-37.37 -39.673)" fill="#eb996e"/>
        <path id="Path_954" data-name="Path 954" d="M95.342,138.211a2.764,2.764,0,0,1,2.439-1.035,2.5,2.5,0,0,1,1.737.88,1.53,1.53,0,0,1,.14,1.774,1.877,1.877,0,0,1-1.988.532,5.779,5.779,0,0,1-1.951-1.109,1.631,1.631,0,0,1-.436-.436.487.487,0,0,1,0-.554" transform="translate(-37.35 -35.779)" fill="#eb996e"/>
        <path id="Path_955" data-name="Path 955" d="M101.157,111.687c.2.384,1.678,0,3.467-.052s3.282.237,3.467-.155c.081-.185-.214-.525-.843-.835a6.1,6.1,0,0,0-5.285.155c-.613.347-.894.7-.806.887" transform="translate(-38.901 -28.724)" fill="#263238"/>
        <path id="Path_956" data-name="Path 956" d="M81.6,111.32c.273.333,1.316-.037,2.572-.067s2.321.185,2.565-.17c.1-.177-.067-.51-.532-.828a3.588,3.588,0,0,0-2.1-.517,3.629,3.629,0,0,0-2.04.739c-.443.333-.584.68-.466.843" transform="translate(-33.792 -28.623)" fill="#263238"/>
        <path id="Path_957" data-name="Path 957" d="M94.974,86.131a9.156,9.156,0,0,0,4.908,11.6c1.9.88,4.28,1.286,5.3,3.112.8,1.412.5,3.3,1.478,4.59s2.654,1.478,3.94,2.291c1.759,1.146,2.557,3.319,2.853,5.4a54.834,54.834,0,0,0,.739,6.238c.532,2.033,1.87,4.043,3.9,4.546.939-5.995,1.759-12.078,1.1-18.109S116.239,93.729,111.8,89.6s-11.279-5.913-16.823-3.474" transform="translate(-37.129 -22.179)" fill="#263238"/>
        <path id="Path_958" data-name="Path 958" d="M119.527,145.681a8.227,8.227,0,0,1-6.763-7.451c-.281-3.518,0-7.347-.628-9.321-1.05-3.511-2.772-2.957-3.031-6.652s2.114-7.392,1.478-10.577-1.619-2.38-3.252-7.392-4.538-6.224-4.538-6.224l1.56-12.255-1.212-.739c7.3-.126,15.685,4.376,18.545,11.087,1.441,3.385,1.951,7.332,4.516,9.971,1.619,1.656,3.917,2.617,5.27,4.5,2.89,4.028.133,9.927,2.055,14.495.865,2.047,2.779,3.444,3.925,5.344,5.825,9.72.931,17.111.931,17.111Z" transform="translate(-39.331 -22.19)" fill="#263238"/>
        <path id="Path_959" data-name="Path 959" d="M69.842,130.075c.739-1.323,1.582-2.824,1.22-4.317a28.874,28.874,0,0,0-1.4-2.89,5.04,5.04,0,0,1,.163-3.954c.421-1.286,1.035-2.5,1.367-3.807.259-1.042.34-2.136.7-3.149a3.29,3.29,0,0,1,2.158-2.217c1,4.745-.591,9.609-.577,14.473a8.3,8.3,0,0,1-.31,3.149,2.318,2.318,0,0,1-2.469,1.56" transform="translate(-30.603 -28.626)" fill="#263238"/>
        <path id="Path_960" data-name="Path 960" d="M128.085,146.584a4.889,4.889,0,0,0,.259-.7,5.351,5.351,0,0,0,.214-2.1,9,9,0,0,0-.968-3.2,31.4,31.4,0,0,0-2.469-3.747,12.211,12.211,0,0,1-2.343-4.945,35,35,0,0,1-.214-6.283,13.783,13.783,0,0,0-.37-3.319,6.33,6.33,0,0,0-1.663-2.957c-.82-.843-1.848-1.53-2.779-2.373a6.921,6.921,0,0,1-2.062-3.223c-.739-2.528-.392-5.071-.695-7.392a13.9,13.9,0,0,0-7.037-10.392c-1.707-.931-3.43-1.552-4.967-2.217A19.2,19.2,0,0,1,99,91.6a9.85,9.85,0,0,1-2.4-2.424,6.225,6.225,0,0,1-.924-1.944,3.5,3.5,0,0,1-.14-.739s.059.251.214.739a6.812,6.812,0,0,0,.968,1.892,10.125,10.125,0,0,0,2.41,2.328,18.728,18.728,0,0,0,3.969,2.062,49.507,49.507,0,0,1,5.019,2.217,13.982,13.982,0,0,1,4.708,4.161,14.188,14.188,0,0,1,2.55,6.46c.31,2.41,0,4.945.687,7.355a6.409,6.409,0,0,0,1.951,3.045c.9.828,1.929,1.515,2.787,2.395a6.645,6.645,0,0,1,1.752,3.134,14.263,14.263,0,0,1,.37,3.4,35.709,35.709,0,0,0,.17,6.231,12.06,12.06,0,0,0,2.254,4.849,30.006,30.006,0,0,1,2.439,3.807,8.959,8.959,0,0,1,.939,3.282,5.111,5.111,0,0,1-.288,2.136,2.849,2.849,0,0,1-.347.6" transform="translate(-37.438 -22.561)" fill="#455a64"/>
        <path id="Path_961" data-name="Path 961" d="M100.974,136.753c.074.207-1.33.872-2.957,1.826s-2.957,1.833-3.067,1.671.961-1.345,2.676-2.336,3.289-1.36,3.348-1.16" transform="translate(-37.284 -35.658)" fill="#263238"/>
        <path id="Path_962" data-name="Path 962" d="M68,275.065S24.32,256.12,16.19,256.261c-4.538.081-12.322,2.121-13.94,6.97A43.512,43.512,0,0,0,.032,277.57c.207,3.607,22.618,61.608,22.618,61.608l19.521-6.748-7.805-36.477,34.2-.2Z" transform="translate(-12.518 -66.845)" fill="#ffbe9d"/>
        <path id="Path_963" data-name="Path 963" d="M85.4,168.985l8.87-2.484,16.779-1.3,15.36,2.35L108.8,188.521H94.666s-10.045-3.851-10.437-4.206,1.05-14.665,1.05-14.665" transform="translate(-34.471 -43.092)" fill="#ffbe9d"/>
        <path id="Path_964" data-name="Path 964" d="M81.872,168.54s-16,2.957-18.619,8.589c0,0,12.248,42.945,14.428,46.227s5.1,8.737,4.191,10.925-3.459,3.274-2.365,6.371c0,0,1.818,8.559,19.122,8.375s30.047-5.093,35.147-3.09,3.821-4.006,1.634-6.556-3.459-7.1-4.006-10.385-3.533-60.189-3.533-60.189l-15.352-2.055s-.074,15.633-16.04,16.542S81.872,168.54,81.872,168.54" transform="translate(-29.017 -43.497)" fill="#e17296"/>
        <g id="Group_324" data-name="Group 324" transform="translate(39.335 155.645)" opacity="0.3">
          <g id="Group_323" data-name="Group 323">
            <g id="Group_322" data-name="Group 322" clip-path="url(#clip-path-2)">
              <path id="Path_965" data-name="Path 965" d="M87.708,210.653a26.056,26.056,0,0,0-9.882,2.269,13.86,13.86,0,0,0-6.985,7.125,9.545,9.545,0,0,0,1.419,9.609l4.812-.739c.429-2.173,2.306-3.74,4.147-4.975s3.866-2.454,4.871-4.435a19.359,19.359,0,0,1,1.427-3.127c1.271-1.707,3.7-1.981,5.78-2.181s4.531-.68,5.558-2.535a35.562,35.562,0,0,0-11.146-1.013" transform="translate(-70.152 -210.572)"/>
            </g>
          </g>
        </g>
        <path id="Path_966" data-name="Path 966" d="M147.293,169.481s2.957.281,6.275,5.4,6.5,28.9,6.5,28.9l-20.467.828s-1.8-8.02-1.109-10.348,8.8-24.784,8.8-24.784" transform="translate(-48.603 -44.209)" fill="#e17296"/>
        <path id="Path_967" data-name="Path 967" d="M61.711,179.3a19.214,19.214,0,0,0-3.407,8.242c-.695,4.738-1.818,8.766-2.328,11.42s-1.353,7.835-1.353,7.835l15.907.51Z" transform="translate(-26.766 -46.77)" fill="#e17296"/>
        <path id="Path_968" data-name="Path 968" d="M72.163,208.569c-.1,0-1.057-3.607-2.121-8.131s-1.855-8.175-1.752-8.2,1.05,3.607,2.121,8.131,1.855,8.175,1.752,8.2" transform="translate(-30.329 -50.146)" fill="#263238"/>
        <g id="Group_327" data-name="Group 327" transform="translate(81.283 166.576)" opacity="0.3">
          <g id="Group_326" data-name="Group 326">
            <g id="Group_325" data-name="Group 325" clip-path="url(#clip-path-3)">
              <path id="Path_969" data-name="Path 969" d="M146.2,252.089q-4.05-9.609-8.131-19.181c-.954-2.254-1.974-4.6-3.866-6.157s-4.93-2-6.7-.318l-.318.458a5.914,5.914,0,0,0,.325,4.368c.584,1.375,1.478,2.617,2.151,3.94,2.957,5.581,2.705,12.292,4.878,18.213a13.07,13.07,0,0,0,3.008,4.982,7,7,0,0,0,5.285,2.107,4.82,4.82,0,0,0,4.3-3.415c.429-1.678-.266-3.407-.931-5" transform="translate(-126.904 -225.361)"/>
            </g>
          </g>
        </g>
        <path id="Path_970" data-name="Path 970" d="M139.429,189.961c.044,0,0,.687.081,1.8.052,1.249.111,2.713.177,4.331s.14,3.23.163,4.339a8.655,8.655,0,0,1,0,1.8,8.484,8.484,0,0,1-.237-1.789c-.1-1.109-.207-2.639-.281-4.339s-.1-3.23-.067-4.346a5.273,5.273,0,0,1,.163-1.8" transform="translate(-48.841 -49.551)" fill="#263238"/>
        <path id="Path_971" data-name="Path 971" d="M120.648,253.891a5.175,5.175,0,0,1-1.042.273c-.68.155-1.663.347-2.89.554a73.833,73.833,0,0,1-19.329.606c-1.234-.126-2.217-.259-2.957-.37a6.87,6.87,0,0,1-1.057-.207,5.175,5.175,0,0,1,1.079.059c.687.067,1.685.155,2.957.244a92.448,92.448,0,0,0,9.653.222,94.417,94.417,0,0,0,9.609-.82c1.227-.17,2.217-.325,2.9-.436a5.7,5.7,0,0,1,1.079-.126" transform="translate(-36.874 -66.227)" fill="#263238"/>
        <path id="Path_972" data-name="Path 972" d="M124.476,258.078a4.815,4.815,0,0,1-.917.059l-2.5.044c-2.114.037-5.026.118-8.242.318s-6.12.466-8.219.68l-2.484.259a4.547,4.547,0,0,1-.924.052,4.092,4.092,0,0,1,.9-.2c.584-.111,1.427-.237,2.476-.384,2.092-.281,5-.6,8.227-.791s6.142-.237,8.256-.207c1.057,0,1.914.044,2.506.081a3.822,3.822,0,0,1,.917.089" transform="translate(-38.914 -67.273)" fill="#263238"/>
        <path id="Path_973" data-name="Path 973" d="M115.518,234.279a2.292,2.292,0,0,1-.695.074,16.544,16.544,0,0,1-1.914-.044,23.482,23.482,0,0,1-6.187-1.279,24.174,24.174,0,0,1-5.632-2.853,16.1,16.1,0,0,1-1.515-1.168c-.34-.3-.525-.466-.5-.488s.82.569,2.173,1.427a28,28,0,0,0,5.61,2.72,27.7,27.7,0,0,0,6.076,1.375c1.589.17,2.587.17,2.587.237" transform="translate(-38.36 -59.609)" fill="#263238"/>
        <g id="Group_330" data-name="Group 330" transform="translate(59.433 187.664)" opacity="0.3">
          <g id="Group_329" data-name="Group 329">
            <g id="Group_328" data-name="Group 328" clip-path="url(#clip-path-4)">
              <path id="Path_974" data-name="Path 974" d="M97.343,255.088h0a30.054,30.054,0,0,0,24.5-1.2,78.513,78.513,0,0,1-24.5,1.2" transform="translate(-97.343 -253.891)"/>
            </g>
          </g>
        </g>
        <g id="Group_333" data-name="Group 333" transform="translate(38.143 143.337)" opacity="0.3">
          <g id="Group_332" data-name="Group 332">
            <g id="Group_331" data-name="Group 331" clip-path="url(#clip-path-5)">
              <path id="Path_975" data-name="Path 975" d="M68.638,193.921l-.044.052a15.448,15.448,0,0,0,2.336,9.55c-.695-3.06-1.382-6.4-2.291-9.6" transform="translate(-68.54 -193.921)"/>
            </g>
          </g>
        </g>
        <path id="Path_976" data-name="Path 976" d="M121.336,166.981a2.567,2.567,0,0,1-.074.577c-.059.37-.155.917-.3,1.626a31.33,31.33,0,0,1-1.685,5.839,15.536,15.536,0,0,1-2.121,3.644,14.373,14.373,0,0,1-3.651,3.186,29.725,29.725,0,0,1-4.79,2.365,27.244,27.244,0,0,1-5.521,1.56,16.778,16.778,0,0,1-10.821-1.6,13.6,13.6,0,0,1-5.832-6.785,12.961,12.961,0,0,1-.894-3.363,13.142,13.142,0,0,1-.1-2.624,10,10,0,0,1,.392-2.217c.052,0-.17.784-.244,2.217A13.965,13.965,0,0,0,85.864,174a12.923,12.923,0,0,0,.931,3.289,13.443,13.443,0,0,0,5.758,6.556,16.558,16.558,0,0,0,10.592,1.523,26.9,26.9,0,0,0,5.448-1.53,29.724,29.724,0,0,0,4.738-2.314,14,14,0,0,0,3.585-3.082,15.369,15.369,0,0,0,2.121-3.548,33.279,33.279,0,0,0,1.789-5.773c.155-.665.273-1.2.37-1.6a3.783,3.783,0,0,1,.14-.532" transform="translate(-34.828 -43.557)" fill="#263238"/>
        <path id="Path_977" data-name="Path 977" d="M99.808,225.039a2.611,2.611,0,0,1-.059.458,12.384,12.384,0,0,0-.148,1.316,14.638,14.638,0,0,0,.421,4.982,12.631,12.631,0,0,0,4.124,6.468,14.338,14.338,0,0,0,9.335,3.393h.946l-.894.325a15.521,15.521,0,0,1-13.379-1.877,15.924,15.924,0,0,1-5.233-5.588,15,15,0,0,1-1.833-7.8,14.662,14.662,0,0,1,.865-4.317c.266-.68.591-1.323.88-1.981l.443-.976c.17-.31.37-.606.547-.909l.554-.909a5.787,5.787,0,0,1,.591-.865l1.308-1.626,1.478-1.419c.5-.458,1.079-.82,1.611-1.227a18.485,18.485,0,0,1,7.1-2.853c.6-.118,1.212-.163,1.8-.251a11.086,11.086,0,0,1,1.781-.074,18.626,18.626,0,0,1,3.422.266l.577.1-.554.2a38.882,38.882,0,0,0-8.463,4.11,21.062,21.062,0,0,0-5.307,4.827,15.017,15.017,0,0,0-2.217,4.014c-.185.5-.266.9-.355,1.16s-.133.392-.133.392a1.5,1.5,0,0,1,.089-.407c.089-.273.14-.665.31-1.175a14.552,14.552,0,0,1,2.158-4.095,21.151,21.151,0,0,1,5.315-4.923,38.546,38.546,0,0,1,8.493-4.2v.3A18.386,18.386,0,0,0,99.978,214l-1.478,1.4-1.279,1.589a5.628,5.628,0,0,0-.577.857l-.54.887c-.185.3-.37.591-.547.894l-.429.961c-.288.65-.606,1.286-.865,1.951a14.085,14.085,0,0,0-.843,4.2,14.688,14.688,0,0,0,1.833,7.532,15.519,15.519,0,0,0,5.1,5.462,15.25,15.25,0,0,0,13.076,1.885l.052.31a14.522,14.522,0,0,1-9.505-3.474,12.726,12.726,0,0,1-4.132-6.652,14.417,14.417,0,0,1-.347-5.041,11.445,11.445,0,0,1,.31-1.715" transform="translate(-36.797 -54.597)" fill="#fff"/>
        <g id="Group_336" data-name="Group 336" transform="translate(61.148 169.259)" opacity="0.3">
          <g id="Group_335" data-name="Group 335">
            <g id="Group_334" data-name="Group 334" clip-path="url(#clip-path-6)">
              <path id="Path_978" data-name="Path 978" d="M99.663,228.991l.251.251a11.716,11.716,0,0,0,15.522,5.344,25.474,25.474,0,0,1-15.773-5.6" transform="translate(-99.663 -228.991)"/>
            </g>
          </g>
        </g>
        <path id="Path_979" data-name="Path 979" d="M60.423,216.711c0,.384-1.16,26.232-1.16,26.232.6,4.753,3.452,7.347,8.766,7.561l3.393-9.4-.6-24.037Z" transform="translate(-27.977 -56.529)" fill="#ffbe9d"/>
        <path id="Path_980" data-name="Path 980" d="M82.774,208.906l9.757-.421a35.973,35.973,0,0,1,5.839-.377,17.594,17.594,0,0,0,4.184-.244s5.462-.554,6.541,0c1.7.88,1.234,2.565-1.737,2.691s-4.339-.067-6.076.333a23.67,23.67,0,0,1-5.241.473c-1.67,0-13.1.126-13.1.126-1.094-.931-.17-2.58-.17-2.58" transform="translate(-34.014 -54.157)" fill="#e0e0e0"/>
        <path id="Path_981" data-name="Path 981" d="M93.211,208.691l-10.437.5s-.924,1.648.17,2.58c0,0,8.811-.1,10.474-.1Z" transform="translate(-34.014 -54.437)" fill="#455a64"/>
        <path id="Path_982" data-name="Path 982" d="M99.341,210.221v.067a.688.688,0,0,0,.695.613l4.058-.126a.68.68,0,0,0,.66-.7.36.36,0,0,0,0-.04.681.681,0,0,0-.687-.636L100,209.46a.68.68,0,0,0-.662.7.624.624,0,0,0,0,.064" transform="translate(-38.43 -54.622)" fill="#fff"/>
        <path id="Path_983" data-name="Path 983" d="M62.5,211.656a4.129,4.129,0,0,1,.355-2.617c.658-1,6.748-2.9,9.86-3.016s5.913-.835,6.29,1.146c.207,1.22-1.6,1.87-3.016,2.166-1.286.266-8.641,2.151-8.641,2.151s14.051-2.528,15.027-1.05a1.8,1.8,0,0,1,0,2.387s1.737.628.443,2.41l-1.064.54a1.316,1.316,0,0,1,.069,1.86c-.022.024-.045.047-.069.069-.924,1.16-6.024,3.866-6.024,3.866a4.163,4.163,0,0,1-1.16,3.866,58.255,58.255,0,0,0,0,9.609c.466,4.324-1.478,11.974-6.105,12.669s-6.955-6.253-7.34-8.959,1.545-6.105,3.164-9.816,2.166-4.021,2.166-4.021a4.254,4.254,0,0,1-1.619-1.929l-.392-1.16s-1.944-.613-1.974-2.158.355-1.937.355-1.937-1.959-1.079-1.752-2.705a8.935,8.935,0,0,1,1.427-3.371" transform="translate(-28.446 -53.684)" fill="#ffbe9d"/>
        <path id="Path_984" data-name="Path 984" d="M84.492,214.731a17.891,17.891,0,0,1-2.447.628l-5.913,1.353-5.913,1.367a17.211,17.211,0,0,1-2.476.5,15.425,15.425,0,0,1,2.41-.739c1.478-.414,3.592-.946,5.913-1.478s4.435-.961,5.965-1.242a15.057,15.057,0,0,1,2.461-.384" transform="translate(-30.189 -56.012)" fill="#eb996e"/>
        <path id="Path_985" data-name="Path 985" d="M84.938,218.991a9.54,9.54,0,0,1-1.885.983c-1.2.54-2.875,1.234-4.768,1.9s-3.637,1.168-4.908,1.478a10.322,10.322,0,0,1-2.084.414,13.745,13.745,0,0,1,2.01-.673c1.249-.384,2.957-.931,4.856-1.589s3.57-1.308,4.782-1.789a14.831,14.831,0,0,1,2-.724" transform="translate(-31.115 -57.124)" fill="#eb996e"/>
        <path id="Path_986" data-name="Path 986" d="M79.032,226.691a5.605,5.605,0,0,1-1.079.739c-.687.4-1.611,1-2.72,1.545a8.784,8.784,0,0,0-1.478.783c-.4.3-.739.673-1.042.924-.673.54-1.279.443-1.249.392a2.746,2.746,0,0,0,1.072-.6c.288-.259.569-.636,1-1a7.664,7.664,0,0,1,1.53-.85c1.072-.532,2.025-1.094,2.75-1.441a3.635,3.635,0,0,1,1.22-.5" transform="translate(-31.159 -59.132)" fill="#eb996e"/>
        <path id="Path_987" data-name="Path 987" d="M75.671,232.384a2.391,2.391,0,0,1-.961.673,5.47,5.47,0,0,1-5.44-.466c-.591-.421-.857-.791-.828-.82a7.276,7.276,0,0,1,.976.591,6.008,6.008,0,0,0,5.174.443,7.143,7.143,0,0,1,1.079-.421" transform="translate(-30.37 -60.457)" fill="#eb996e"/>
        <path id="Path_988" data-name="Path 988" d="M67.307,227.185h-.347a2.645,2.645,0,0,1-.894-.407,4.029,4.029,0,0,1-1.079-1.079,3.7,3.7,0,0,1-.643-1.87l.155.163a2.329,2.329,0,0,1-2.121-1.892,4.767,4.767,0,0,1-.14-1.042,2.15,2.15,0,0,1,.421-1.478l.059.3a4.531,4.531,0,0,1-1.227-.909,2.485,2.485,0,0,1-.591-1.3,4.348,4.348,0,0,1,.436-2.262,4.3,4.3,0,0,1,1.116-1.722,14.821,14.821,0,0,0-.887,1.811,4.436,4.436,0,0,0-.333,2.121,2.221,2.221,0,0,0,.532,1.116,4.388,4.388,0,0,0,1.131.813l.207.111-.155.177a1.8,1.8,0,0,0-.325,1.2,3.284,3.284,0,0,0,.5,1.811,2.135,2.135,0,0,0,1.419.791h.148v.148a3.4,3.4,0,0,0,.54,1.722,3.944,3.944,0,0,0,.954,1.072,5.168,5.168,0,0,0,1.131.613" transform="translate(-28.4 -55.738)" fill="#eb996e"/>
        <path id="Path_989" data-name="Path 989" d="M66.809,231.591c.1.059-1.02,2.166-2.254,4.841s-2.158,4.871-2.262,4.834a5.749,5.749,0,0,1,.451-1.478c.333-.909.835-2.151,1.478-3.489s1.249-2.528,1.73-3.363a6.075,6.075,0,0,1,.857-1.345" transform="translate(-28.767 -60.41)" fill="#eb996e"/>
        <path id="Path_990" data-name="Path 990" d="M133.1,227.742c.1.362,3.9,23.527,8.6,26.972s7.236,2.624,8.685,1.175,3.9-3.348,4.258-8.323,1.22-31.5,1.22-31.5l-12.824.488-1.833,5.654Z" transform="translate(-47.238 -56.362)" fill="#ffbe9d"/>
        <path id="Path_991" data-name="Path 991" d="M156.44,248.227a8.917,8.917,0,0,0-.643-3.748,16.045,16.045,0,0,0-2.107-3.57c-.946-1.257-2.033-2.624-3.09-4.11a88.8,88.8,0,0,1-5.041-7.887c-.591-1.042-1.035-1.9-1.338-2.5a5.631,5.631,0,0,1-.429-.954,6.079,6.079,0,0,1,.562.88l1.478,2.432c1.227,2.047,2.957,4.841,5.115,7.8,1.057,1.478,2.121,2.853,3.06,4.132a15.544,15.544,0,0,1,2.084,3.7,7.829,7.829,0,0,1,.517,2.809,4.671,4.671,0,0,1-.059.739.667.667,0,0,0-.111.281" transform="translate(-50.026 -58.811)" fill="#eb996e"/>
        <path id="Path_992" data-name="Path 992" d="M116.572,208.468a2.01,2.01,0,0,1-1.67-1.36,1.087,1.087,0,0,1,.089-.976c.621-.909,2.055-1.027,4.11-1.36s7.2.044,7.695,0,9.454,1.478,10.237,2.469.37,3.533.37,3.533a4.681,4.681,0,0,1,1.146,1.937c.577,1.478-.857,2.631-.946,3.614a8.97,8.97,0,0,1-.407,3.045,6.7,6.7,0,0,1-2.217,1.523s.5,1.064-.739,2.543-2.055,3.171-3.614,3-3.237-.37-3.858-1.515a13.4,13.4,0,0,1-.954-3.371,37.684,37.684,0,0,1-4.435-1.877c-.9-.591-2.838-1.87-1.929-3.141a2.025,2.025,0,0,1-1.87-1.39c-.192-.673-.067-.739.384-1.116a6.543,6.543,0,0,1,1.36-.828s-4.768-2.373-4.561-3.378c0,0,2.957.133,3.6-1.1Z" transform="translate(-42.451 -53.378)" fill="#ffbe9d"/>
        <path id="Path_993" data-name="Path 993" d="M135.247,211.738a3.027,3.027,0,0,1-.68-.377,14.362,14.362,0,0,0-1.84-.983,8.2,8.2,0,0,0-3-.591c-.584,0-1.2-.067-1.826-.052a17.547,17.547,0,0,0-1.944.244,33.126,33.126,0,0,0-6.756,1.33,1.478,1.478,0,0,0-.939,1.56,1.323,1.323,0,0,0,.384.621s-.34-.059-.525-.577a1.284,1.284,0,0,1,.067-.953,2.048,2.048,0,0,1,.887-.887,29.3,29.3,0,0,1,6.83-1.478,17.975,17.975,0,0,1,1.988-.244c.65,0,1.271.037,1.863.081a7.992,7.992,0,0,1,3.082.695,11.156,11.156,0,0,1,1.811,1.109,3.1,3.1,0,0,1,.6.5" transform="translate(-43.314 -54.609)" fill="#eb996e"/>
        <path id="Path_994" data-name="Path 994" d="M135.01,217.94a15.642,15.642,0,0,0-2.01-1.057,14.43,14.43,0,0,0-5.366-.835c-2.151,0-4.11.118-5.536,0a9.051,9.051,0,0,1-1.67-.266,1.716,1.716,0,0,1-.584-.214c0-.067.865.177,2.269.207s3.356-.14,5.521-.14a13.112,13.112,0,0,1,5.47.968,7,7,0,0,1,1.478.872c.3.273.443.443.429.466" transform="translate(-43.779 -56.227)" fill="#eb996e"/>
        <path id="Path_995" data-name="Path 995" d="M124.067,210.3a10.341,10.341,0,0,1-4.634-.111,8.873,8.873,0,0,1,2.321-.067,9.241,9.241,0,0,1,2.314.177" transform="translate(-43.672 -54.799)" fill="#eb996e"/>
        <path id="Path_996" data-name="Path 996" d="M133.475,223.542a11.509,11.509,0,0,1-1.818-.333c-1.123-.222-2.668-.488-4.4-.695a21.862,21.862,0,0,1-4.354-1.124,9.113,9.113,0,0,1-1.722-.68,8,8,0,0,1,1.8.421,29.094,29.094,0,0,0,4.317,1,32.812,32.812,0,0,1,4.435.813,6.945,6.945,0,0,1,1.737.6" transform="translate(-44.128 -57.572)" fill="#eb996e"/>
        <path id="Path_997" data-name="Path 997" d="M134.662,218.424a10.441,10.441,0,0,1-2.01-.362c-1.234-.266-2.957-.658-4.8-1.013a48.252,48.252,0,0,0-4.849-.665,13.894,13.894,0,0,1-2.025-.2,8.645,8.645,0,0,1,2.04-.074,33.182,33.182,0,0,1,4.908.562c1.892.355,3.577.791,4.8,1.124a10.944,10.944,0,0,1,1.944.628" transform="translate(-44.074 -56.365)" fill="#eb996e"/>
        <path id="Path_998" data-name="Path 998" d="M134.626,229.923c0,.044-.3.207-.85.148a4.05,4.05,0,0,1-1.892-.857c-.636-.488-1.16-.946-1.589-1.212s-.739-.377-.7-.429.347-.037.835.192a9.513,9.513,0,0,1,1.685,1.138,4.881,4.881,0,0,0,1.707.894c.473.126.791.067.806.126" transform="translate(-46.321 -59.356)" fill="#eb996e"/>
        <path id="Path_999" data-name="Path 999" d="M134.193,223.364a5.83,5.83,0,0,0,.377-.591,3.065,3.065,0,0,0,.325-.791,1.977,1.977,0,0,0,0-1.131v-.067h.059a9.205,9.205,0,0,0,1.826-1.123,1.6,1.6,0,0,0,.562-1.064,9.609,9.609,0,0,0,.111-1.427,4.807,4.807,0,0,1,.037-.739,2.141,2.141,0,0,1,.214-.82,12.881,12.881,0,0,0,.739-1.478,2.1,2.1,0,0,0,.118-.828,2.644,2.644,0,0,0-.251-.835,4.9,4.9,0,0,0-.983-1.552l-.067-.067v-.081a8.865,8.865,0,0,0,.044-2.3,2.467,2.467,0,0,0-.37-1.072,2.6,2.6,0,0,0-1.02-.532,40.9,40.9,0,0,0-5.174-1.257q-1.36-.266-2.794-.488l-.739-.1a4.332,4.332,0,0,0-.739-.037l-1.478-.059c-.99-.037-2-.067-3.008-.074a19.163,19.163,0,0,0-3.053.163c-.806.126-1.6.229-2.365.421a3.479,3.479,0,0,0-1.035.421,1.094,1.094,0,0,0-.54.806,1.744,1.744,0,0,0,1.19,1.552,6.859,6.859,0,0,0,1.094.185l1.116.155.266.037-.126.237a1.816,1.816,0,0,1-.82.739,4.035,4.035,0,0,1-.976.31,8.269,8.269,0,0,1-1.951.148l.185-.14a.976.976,0,0,0,.273.5,4.261,4.261,0,0,0,.532.488,14.154,14.154,0,0,0,1.183.835c.813.51,1.634.968,2.439,1.39l.3.148-.3.148a6.731,6.731,0,0,0-1.175.673c-.347.266-.614.6-.51.976a2.033,2.033,0,0,0,1.759,1.39h.237l-.14.192a1.071,1.071,0,0,0-.067,1.153,3.121,3.121,0,0,0,.8.953,8.266,8.266,0,0,0,1.974,1.286c1.353.628,2.557,1.087,3.541,1.478h.044v.044a17.2,17.2,0,0,0,.562,2.543c.177.562.325.828.31.843a3.821,3.821,0,0,1-.392-.82,14.852,14.852,0,0,1-.643-2.543l.052.067c-.99-.362-2.217-.8-3.577-1.412a8.451,8.451,0,0,1-2.047-1.294,3.5,3.5,0,0,1-.85-1.1,1.345,1.345,0,0,1,.081-1.441l.1.222a2.812,2.812,0,0,1-1.227-.466,1.963,1.963,0,0,1-.8-1.138,1.043,1.043,0,0,1,.111-.739,2.079,2.079,0,0,1,.5-.54,6.926,6.926,0,0,1,1.242-.739v.3c-.82-.414-1.648-.872-2.476-1.39a14.045,14.045,0,0,1-1.22-.85,5.316,5.316,0,0,1-.577-.517,1.1,1.1,0,0,1-.362-.82v-.148h.192a8.332,8.332,0,0,0,1.863-.148,2.27,2.27,0,0,0,1.537-.85l.14.273-1.116-.148a6.867,6.867,0,0,1-1.16-.207,2.114,2.114,0,0,1-1.478-1.929,1.12,1.12,0,0,1,.237-.643,1.859,1.859,0,0,1,.473-.458,3.892,3.892,0,0,1,1.153-.48c.8-.2,1.6-.3,2.4-.429a19.3,19.3,0,0,1,3.112-.163c1.02,0,2.033.044,3.023.081l1.478.059a4.415,4.415,0,0,1,.739.044l.739.1c.953.148,1.892.318,2.809.5a41.412,41.412,0,0,1,5.218,1.3,4.674,4.674,0,0,1,.606.244,1.984,1.984,0,0,1,.3.163,1.229,1.229,0,0,1,.273.244,2.766,2.766,0,0,1,.421,1.227,8.869,8.869,0,0,1-.059,2.395l-.059-.148a4.936,4.936,0,0,1,1.064,1.685,2.766,2.766,0,0,1,.266.924,2.222,2.222,0,0,1-.14.939,12.243,12.243,0,0,1-.739,1.53,3.507,3.507,0,0,0-.244,1.478,10.114,10.114,0,0,1-.133,1.478,2.608,2.608,0,0,1-.222.665,1.813,1.813,0,0,1-.429.51,9.143,9.143,0,0,1-1.885,1.109v-.1a1.977,1.977,0,0,1,0,1.227,3.138,3.138,0,0,1-.362.8,2.95,2.95,0,0,1-.458.547" transform="translate(-42.415 -53.307)" fill="#eb996e"/>
      </g>
    </g>
  </g>
</svg>
