<svg xmlns="http://www.w3.org/2000/svg" xmlns:xlink="http://www.w3.org/1999/xlink" width="524.017" height="571.512" viewBox="0 0 524.017 571.512">
  <defs>
    <clipPath id="clip-path">
      <rect id="Rectangle_308" data-name="Rectangle 308" width="148.768" height="108.265" fill="none"/>
    </clipPath>
    <clipPath id="clip-path-2">
      <rect id="Rectangle_309" data-name="Rectangle 309" width="64.711" height="13.992" fill="none"/>
    </clipPath>
    <clipPath id="clip-path-3">
      <rect id="Rectangle_310" data-name="Rectangle 310" width="6.722" height="6.612" fill="none"/>
    </clipPath>
    <clipPath id="clip-path-4">
      <rect id="Rectangle_311" data-name="Rectangle 311" width="47.046" height="46.225" fill="none"/>
    </clipPath>
    <clipPath id="clip-path-5">
      <rect id="Rectangle_312" data-name="Rectangle 312" width="6.538" height="6.6" fill="none"/>
    </clipPath>
    <clipPath id="clip-path-6">
      <rect id="Rectangle_313" data-name="Rectangle 313" width="83.122" height="59.29" fill="none"/>
    </clipPath>
    <clipPath id="clip-path-7">
      <rect id="Rectangle_314" data-name="Rectangle 314" width="42.777" height="83.385" fill="none"/>
    </clipPath>
  </defs>
  <g id="Group_1305" data-name="Group 1305" transform="translate(-256.983 -373.017)">
    <g id="Group_564" data-name="Group 564" transform="translate(189.971 374)" opacity="0.393">
      <path id="Path_1595" data-name="Path 1595" d="M29.309,137.082a1.313,1.313,0,0,1-.009-.17c0-.125-.005-.283-.009-.479q-.007-.66-.022-1.839c-.012-1.613-.028-3.932-.049-6.856l.09.109-29.159.07c.066-.08-.149.18.147-.179v1.2q0,.6,0,1.192v2.358q0,2.34,0,4.6l-.145-.176,20.78.08,6.134.05,1.659.023.434.012a.817.817,0,0,1,.153.011.536.536,0,0,1-.135.012l-.416.011-1.627.023-6.1.05-20.882.08H0v-.177q0-2.254,0-4.6,0-1.169,0-2.358v-2.39c.3-.36.084-.1.15-.18l29.159.07H29.4v.11c-.021,2.952-.038,5.293-.049,6.921q-.014,1.163-.023,1.815c0,.189-.006.34-.009.459a.79.79,0,0,1-.009.149" transform="translate(68.029 27.284)" fill="#fff" stroke="#29407c" stroke-width="1"/>
      <rect id="Rectangle_316" data-name="Rectangle 316" width="38.08" height="10.074" transform="translate(190.923 296.065)" fill="#fff" stroke="#29407c" stroke-width="1"/>
      <path id="Path_1596" data-name="Path 1596" d="M299.714,401.838a1.212,1.212,0,0,1-.012-.183c0-.135-.007-.3-.013-.517q-.011-.711-.028-1.983c-.016-1.739-.038-4.239-.066-7.392l.118.118-38.078.076c.086-.087-.2.193.192-.194v2.577q0,1.281,0,2.542,0,2.522,0,4.955l-.19-.189,27.137.086,8.01.054,2.166.025.567.012a1.5,1.5,0,0,1,.2.013.937.937,0,0,1-.176.013l-.543.012-2.125.025-7.966.054-27.27.086h-.189v-.19q0-2.43,0-4.955,0-1.261,0-2.542,0-.64,0-1.285v-1.291c.388-.388.11-.107.2-.194l38.078.076h.119v.117c-.028,3.182-.05,5.707-.066,7.462q-.018,1.254-.028,1.956c-.005.2-.009.366-.013.5a.74.74,0,0,1-.012.16" transform="translate(-86.813 -85.088)" fill="#fff" stroke="#29407c" stroke-width="1"/>
      <rect id="Rectangle_317" data-name="Rectangle 317" width="38.08" height="10.074" transform="translate(150.256 94.353)" fill="#fff" stroke="#29407c" stroke-width="1"/>
      <path id="Path_1597" data-name="Path 1597" d="M209.427,144.122a1.216,1.216,0,0,1-.012-.183c0-.135-.007-.3-.013-.517q-.011-.711-.028-1.983c-.016-1.739-.038-4.239-.066-7.392l.118.118-38.078.076c.086-.087-.2.193.192-.194v2.577q0,1.281,0,2.542,0,2.522,0,4.955l-.19-.189,27.137.086,8.01.054,2.166.025.567.012a1.516,1.516,0,0,1,.2.013.932.932,0,0,1-.176.013l-.543.012-2.125.025-7.966.054-27.27.086h-.189v-.19q0-2.43,0-4.955,0-1.261,0-2.542,0-.64,0-1.285v-1.291c.388-.388.11-.107.2-.194l38.078.076h.119v.118c-.028,3.182-.05,5.706-.066,7.462q-.018,1.254-.028,1.956c-.005.2-.009.366-.013.5a.742.742,0,0,1-.012.16" transform="translate(-37.193 -29.084)" fill="#fff" stroke="#29407c" stroke-width="1"/>
      <path id="Path_1598" data-name="Path 1598" d="M324.7,30.1a1.213,1.213,0,0,1-.012-.183c0-.135-.007-.3-.013-.517q-.011-.711-.028-1.983c-.016-1.739-.038-4.239-.066-7.392l.118.118-38.078.076c.086-.087-.2.193.192-.194V22.6q0,1.281,0,2.542,0,2.522,0,4.955l-.19-.189,27.137.086,8.01.054,2.166.025.567.012a1.514,1.514,0,0,1,.2.013.935.935,0,0,1-.176.013l-.543.012-2.125.025-7.966.054-27.27.086h-.189V30.1q0-2.43,0-4.955,0-1.261,0-2.542,0-.64,0-1.285V20.024c.388-.388.11-.107.2-.194l38.078.076h.119v.118c-.028,3.182-.05,5.706-.066,7.462q-.018,1.254-.028,1.956c-.005.2-.009.366-.013.5a.742.742,0,0,1-.012.16" transform="translate(-62.242 -4.305)" fill="#e0e0e0" stroke="#29407c" stroke-width="1"/>
      <rect id="Rectangle_318" data-name="Rectangle 318" width="38.08" height="10.074" transform="translate(219.739 193.449)" fill="#fff" stroke="#29407c" stroke-width="1"/>
      <path id="Path_1599" data-name="Path 1599" d="M444.985,204.294a1.211,1.211,0,0,1-.012-.183c0-.135-.007-.3-.013-.517q-.011-.711-.028-1.983c-.016-1.739-.038-4.239-.066-7.392l.118.118-38.078.076c.086-.087-.2.193.192-.194V196.8q0,1.281,0,2.542,0,2.522,0,4.955l-.19-.19,27.137.087,8.01.054,2.166.025.567.012a1.365,1.365,0,0,1,.2.013.933.933,0,0,1-.176.013l-.543.012-2.125.025-7.966.054-27.27.086h-.189v-.19q0-2.43,0-4.955,0-1.261,0-2.542,0-.64,0-1.285V194.22c.388-.388.11-.107.2-.194l38.078.076h.119v.117c-.028,3.182-.05,5.706-.066,7.462q-.018,1.254-.028,1.956c-.005.2-.009.366-.013.5a.743.743,0,0,1-.012.16" transform="translate(-148.382 -42.16)" fill="#e0e0e0" stroke="#29407c" stroke-width="1"/>
      <path id="Path_1600" data-name="Path 1600" d="M125.191,23.189a1.218,1.218,0,0,1-.012-.183c0-.135-.007-.3-.013-.517q-.011-.711-.028-1.983c-.016-1.739-.038-4.239-.066-7.392l.118.118-38.078.076c.086-.087-.2.193.192-.194v2.577q0,1.281,0,2.542,0,2.522,0,4.955l-.19-.19,27.137.087,8.01.054,2.166.025.567.012a1.511,1.511,0,0,1,.2.013.935.935,0,0,1-.176.013l-.543.012-2.125.025-7.966.054-27.27.086h-.189v-.19q0-2.43,0-4.955,0-1.261,0-2.542V13.115c.388-.388.11-.107.2-.194L125.191,13h.119v.118c-.028,3.182-.05,5.707-.065,7.462q-.019,1.254-.029,1.956c-.005.2-.009.366-.013.5a.741.741,0,0,1-.012.16" transform="translate(-18.888 -2.804)" fill="#e0e0e0" stroke="#29407c" stroke-width="1"/>
      <path id="Path_1601" data-name="Path 1601" d="M136.008,10.311a1.182,1.182,0,0,1-.015-.192c0-.145-.009-.32-.015-.534q-.013-.743-.034-2.02C135.926,5.8,135.9,3.3,135.869.237l.139.139L113.13.431c-.175.173.234-.236.193-.193V2.862q0,1.3,0,2.564c0,1.685,0,3.319-.006,4.885l-.185-.185,16.367.088,4.767.051,1.286.023a3.891,3.891,0,0,1,.459.023,2.682,2.682,0,0,1-.416.023l-1.247.023-4.726.051-16.491.088h-.185v-.185c0-1.565,0-3.2-.007-4.885q0-1.264,0-2.564,0-.649,0-1.306V.238c-.043.041.368-.369.2-.195L136.008.1h.141l0,.139c-.031,3.1-.057,5.627-.075,7.414q-.022,1.255-.034,1.988a5.933,5.933,0,0,1-.03.672" transform="translate(-24.541)" fill="#e0e0e0" stroke="#29407c" stroke-width="1"/>
      <path id="Path_1602" data-name="Path 1602" d="M452.881,101.819a1.338,1.338,0,0,1-.013-.2c0-.15-.008-.338-.013-.574q-.012-.789-.032-2.2c-.017-1.931-.041-4.707-.072-8.207l.131.131-42.279.085c.095-.1-.218.215.213-.215v1.434q0,.716,0,1.427,0,1.422,0,2.823,0,2.8,0,5.5l-.211-.211,30.132.1,8.894.06,2.405.027.628.014a1.446,1.446,0,0,1,.223.013.909.909,0,0,1-.2.013l-.6.014-2.359.027-8.845.06-30.279.1h-.211v-.211q0-2.7,0-5.5,0-1.4,0-2.823V90.634c.431-.431.121-.12.218-.216l42.279.085h.132v.131c-.031,3.533-.056,6.336-.073,8.285q-.021,1.394-.032,2.172c-.005.226-.01.407-.013.551a.808.808,0,0,1-.013.178" transform="translate(-119.18 -19.644)" fill="#e0e0e0" stroke="#29407c" stroke-width="1"/>
      <path id="Path_1603" data-name="Path 1603" d="M464.89,87.52a1.2,1.2,0,0,1-.016-.213c0-.16-.01-.355-.016-.592q-.014-.827-.038-2.243c-.02-1.961-.049-4.731-.084-8.137l.155.154-25.4.061c-.193.193.26-.262.214-.214V77.8q0,.729,0,1.45,0,1.442,0,2.847c0,1.871-.005,3.686-.008,5.424l-.205-.205,18.173.1,5.293.057,1.428.026a4.364,4.364,0,0,1,.51.025,2.993,2.993,0,0,1-.461.025l-1.385.026-5.247.057-18.311.1h-.205V87.52c0-1.738-.005-3.553-.008-5.424q0-1.4,0-2.847V76.336c-.047.045.409-.409.218-.217l25.4.061h.157l0,.155c-.035,3.445-.063,6.247-.084,8.232q-.025,1.394-.038,2.208a6.315,6.315,0,0,1-.033.746" transform="translate(-135.457 -16.531)" fill="#e0e0e0" stroke="#29407c" stroke-width="1"/>
      <rect id="Rectangle_315" data-name="Rectangle 315" width="23.634" height="9.345" transform="translate(83.117 144.816)" fill="#fff" stroke="#29407c" stroke-width="1"/>
    </g>
    <g id="Group_562" data-name="Group 562" transform="translate(-528.166 71)">
      <path id="Path_1512" data-name="Path 1512" d="M51.268,370.235l-8.123,68.9H55.619l22.342-68.9Z" transform="translate(976.426 393.638)" fill="#e0e0e0"/>
      <path id="Path_1513" data-name="Path 1513" d="M79.863,353.676l-8.125,68.9H84.215l22.342-68.9Z" transform="translate(993.392 383.812)" fill="#e0e0e0"/>
      <path id="Path_1514" data-name="Path 1514" d="M193.523,370.235l8.856,68.9h-13.6l-24.354-68.9Z" transform="translate(1048.387 393.638)" fill="#e0e0e0"/>
      <path id="Path_1515" data-name="Path 1515" d="M166.954,354.734l8.856,68.9h-13.6l-24.354-68.9Z" transform="translate(1032.622 384.441)" fill="#e0e0e0"/>
      <g id="Group_560" data-name="Group 560" transform="translate(947.659 314)">
        <path id="Path_1516" data-name="Path 1516" d="M114.194,212.036S80.1,214.445,57.238,226.215C39.29,235.455,30.57,248.4,27.047,280.967S.624,320.218.038,331.367c-.574,10.876,5,57.385,45.087,150.46a11.668,11.668,0,0,0,10.718,7.043H194.778V209.856Z" transform="translate(0 -35.134)" fill="#f9c650"/>
        <path id="Path_1517" data-name="Path 1517" d="M184.767,212.036s34.095,2.409,56.956,14.179c17.948,9.24,26.67,22.189,30.191,54.752s26.423,39.251,27.009,50.4c.575,10.913-5.04,57.7-45.5,151.41a10.1,10.1,0,0,1-9.269,6.093H104.183V209.856Z" transform="translate(61.817 -35.134)" fill="#f9c650"/>
        <path id="Path_1518" data-name="Path 1518" d="M176.334,355.814a13.432,13.432,0,0,1,2.465-.457,22.749,22.749,0,0,1,6.843.312,17.551,17.551,0,0,1,8.891,4.877,28.161,28.161,0,0,1,6.24,10.755,60.565,60.565,0,0,1,2.667,12.133c.478,3.786.669,7.216.755,10.094s.073,5.207.035,6.815a13.8,13.8,0,0,1-.151,2.5,14.928,14.928,0,0,1-.172-2.494c-.061-1.606-.137-3.929-.3-6.792s-.411-6.271-.927-10.021a63.177,63.177,0,0,0-2.694-11.963,28.023,28.023,0,0,0-6-10.489,17.294,17.294,0,0,0-8.475-4.841c-5.577-1.2-9.182-.167-9.178-.427" transform="translate(104.628 51.127)" fill="#263238"/>
        <path id="Path_1519" data-name="Path 1519" d="M270.842,330.865c0,.229-51.582.414-115.2.414-63.637,0-115.207-.185-115.207-.414s51.57-.414,115.207-.414c63.616,0,115.2.185,115.2.414" transform="translate(23.993 36.422)" fill="#263238"/>
        <path id="Path_1520" data-name="Path 1520" d="M55.575,354.379a13.23,13.23,0,0,1-2.371.276c-.763.048-1.673.28-2.741.444-.532.089-1.077.3-1.667.453a10.148,10.148,0,0,0-1.821.639,18.573,18.573,0,0,0-7.519,5.586,27.74,27.74,0,0,0-4.96,10.438,54.616,54.616,0,0,0-1.6,11.6,86.81,86.81,0,0,0,.167,9.606c.191,2.733.448,4.938.634,6.461a17.087,17.087,0,0,1,.25,2.376,10.7,10.7,0,0,1-.569-2.326c-.287-1.514-.633-3.717-.9-6.461a76.942,76.942,0,0,1-.347-9.683A52.7,52.7,0,0,1,33.694,372a27.759,27.759,0,0,1,5.172-10.712,18.7,18.7,0,0,1,7.9-5.648,10.227,10.227,0,0,1,1.89-.6c.61-.139,1.174-.33,1.721-.4,1.1-.126,2.03-.314,2.8-.312a13.091,13.091,0,0,1,2.4.046" transform="translate(19.049 50.585)" fill="#263238"/>
        <path id="Path_1521" data-name="Path 1521" d="M74.363,398.294a1.519,1.519,0,0,1-.167-.37c-.112-.3-.247-.664-.414-1.115-.36-.983-.881-2.438-1.447-4.342-1.2-3.789-2.709-9.336-4.514-16.2l-6.206-24.149c-2.358-9.081-4.963-19.063-8.115-29.412a157.306,157.306,0,0,0-5.247-14.86,30.806,30.806,0,0,0-1.6-3.4c-.54-1.111-1.146-2.193-1.78-3.254-1.224-2.134-2.39-4.232-3.615-6.22-2.425-3.974-5.209-7.509-8.62-9.836a25.246,25.246,0,0,0-10.629-4,29.372,29.372,0,0,0-16.284,2.347,37.292,37.292,0,0,0-5.285,3.11c-.01-.011.091-.105.3-.277l.929-.747a25.173,25.173,0,0,1,3.921-2.377,29.161,29.161,0,0,1,16.5-2.637,25.708,25.708,0,0,1,10.942,4.014c3.54,2.377,6.415,6,8.88,10,1.246,2,2.425,4.1,3.652,6.227.631,1.047,1.241,2.129,1.8,3.273A31.31,31.31,0,0,1,49,307.522a154.767,154.767,0,0,1,5.295,14.938c3.16,10.374,5.742,20.371,8.062,29.466,2.267,9.092,4.31,17.285,6.034,24.193,1.73,6.882,3.153,12.446,4.256,16.255.516,1.917.986,3.381,1.294,4.38.135.462.247.837.336,1.141a1.515,1.515,0,0,1,.088.4" transform="translate(0.261 6.669)" fill="#263238"/>
        <path id="Path_1522" data-name="Path 1522" d="M231.91,312s-.483.027-1.426.038l-4.187.027-16.1.026-59.212-.062-40.889-.083-22.777-.148c-3.91.008-7.885.01-11.888.206a18.39,18.39,0,0,0-2.908.319,19.877,19.877,0,0,0-2.706,1.251c-1.781.961-3.532,2.022-5.269,3.128-3.469,2.219-6.886,4.624-10.242,7.183a93.4,93.4,0,0,0-9.672,8.336,20.924,20.924,0,0,0-3.877,5.037,3.954,3.954,0,0,0-.386,1.413,8.46,8.46,0,0,0,.295,1.514l.781,3.2c1.063,4.281,2.181,8.593,3.327,12.94q1.757,6.508,3.547,13.128.944,3.291,1.9,6.611c.33,1.1.666,2.207,1.048,3.268.048.148.091.194.126.3.018.035.033.121.049.118.018-.024.008-.037.014-.026.264.04.527.083.817.105.562.059,1.142.089,1.718.127,9.253.441,18.687.526,28.215.674,38.148.457,74.5.494,107.55.422,16.528-.049,32.232-.14,46.927-.338,7.347-.105,14.444-.221,21.257-.472,1.7-.069,3.387-.142,5.045-.269.414-.029.825-.068,1.228-.118.209-.017.394-.059.586-.092a.588.588,0,0,0,.376-.218,7.1,7.1,0,0,0,1.131-2.038,77.431,77.431,0,0,0,2.787-9.128c1.533-6.05,2.771-11.872,3.924-17.38q.428-2.067.843-4.076a15.276,15.276,0,0,0,.558-3.907c-.341-2.559-1.937-4.716-3.478-6.592a72.518,72.518,0,0,0-10.172-9.281c-3.348-2.616-6.5-4.893-9.307-6.971-2.828-2.06-5.2-4.085-7.629-5.236a27,27,0,0,0-10.5-2.854c-.468-.043-.825-.038-1.064-.056s-.358-.029-.358-.029.483-.032,1.428,0a24.864,24.864,0,0,1,4.162.5,26.2,26.2,0,0,1,6.445,2.215c2.473,1.144,4.88,3.167,7.709,5.2,2.823,2.057,5.988,4.316,9.358,6.92a72.485,72.485,0,0,1,10.283,9.294c1.568,1.906,3.23,4.073,3.619,6.84a15.47,15.47,0,0,1-.55,4.06q-.409,2.01-.829,4.081c-1.134,5.516-2.353,11.345-3.873,17.417a77.66,77.66,0,0,1-2.785,9.221,7.494,7.494,0,0,1-1.263,2.243,1.255,1.255,0,0,1-.676.386c-.215.037-.437.084-.644.1-.421.054-.84.094-1.257.126-1.676.132-3.364.209-5.07.284-6.824.266-13.921.4-21.271.519-14.7.228-30.408.343-46.937.414-33.057.115-69.4.1-107.562-.357-9.538-.15-18.953-.234-28.253-.68-.583-.038-1.162-.069-1.751-.131-.288-.022-.6-.069-.907-.12a1.62,1.62,0,0,1-.4-.169c-.1-.075-.107-.161-.163-.244a3.476,3.476,0,0,1-.231-.491c-.4-1.115-.735-2.218-1.066-3.327q-.951-3.327-1.9-6.627-1.785-6.625-3.544-13.14c-1.142-4.35-2.259-8.666-3.319-12.952l-.781-3.214a8.419,8.419,0,0,1-.314-1.711,4.663,4.663,0,0,1,.457-1.73,21.515,21.515,0,0,1,4.036-5.261,94.183,94.183,0,0,1,9.766-8.4q5.064-3.855,10.3-7.207c1.749-1.112,3.513-2.178,5.325-3.15a20.31,20.31,0,0,1,2.823-1.3,17.723,17.723,0,0,1,3.1-.351c4.041-.194,8.013-.188,11.931-.188q11.742.1,22.777.19l40.889.183,59.211.325,16.1.131q2.737.036,4.187.054c.943.018,1.426.048,1.426.048" transform="translate(23.481 24.919)" fill="#263238"/>
        <path id="Path_1523" data-name="Path 1523" d="M181.9,397.816a1.511,1.511,0,0,1,.083-.4c.086-.3.191-.677.322-1.138.3-.994.752-2.454,1.208-4.374,1.009-3.81,2.212-9.393,3.633-16.3,1.388-6.941,3.034-15.174,4.86-24.308,1.871-9.143,3.934-19.2,6.681-29.632a124.492,124.492,0,0,1,4.884-14.992c.515-1.173,1.131-2.3,1.686-3.427.583-1.115,1.267-2.145,1.91-3.19a67.751,67.751,0,0,1,4.16-5.881,38.5,38.5,0,0,1,9.81-8.991,27.42,27.42,0,0,1,10.934-3.843,29.151,29.151,0,0,1,16.4,2.666,25.072,25.072,0,0,1,3.9,2.369c.373.3.677.545.923.743a1.5,1.5,0,0,1,.3.276,37.712,37.712,0,0,0-5.253-3.094,29.357,29.357,0,0,0-16.185-2.377,26.993,26.993,0,0,0-10.648,3.846,38.07,38.07,0,0,0-9.573,8.881,67.48,67.48,0,0,0-4.09,5.832c-.633,1.034-1.315,2.068-1.882,3.163-.537,1.109-1.133,2.2-1.636,3.349a125.852,125.852,0,0,0-4.829,14.887c-2.737,10.4-4.823,20.441-6.734,29.571-1.891,9.133-3.539,17.376-5.033,24.275s-2.788,12.47-3.9,16.265c-.5,1.91-1.012,3.362-1.361,4.342-.161.451-.293.817-.4,1.114a1.465,1.465,0,0,1-.162.37" transform="translate(107.926 7.147)" fill="#263238"/>
        <path id="Path_1524" data-name="Path 1524" d="M196.638,225.688c.223.054-7.049,30.787-16.238,68.634s-16.824,68.5-17.046,68.444,7.046-30.779,16.239-68.64,16.821-68.492,17.044-68.438" transform="translate(96.923 -25.74)" fill="#263238"/>
        <path id="Path_1525" data-name="Path 1525" d="M41.067,231.831a8.143,8.143,0,0,1,.454,1.264q.425,1.367,1.144,3.671L46.7,250.312c3.359,11.455,7.892,27.31,12.734,44.867s9.071,33.505,12.055,45.063c1.452,5.727,2.634,10.387,3.473,13.7q.564,2.347.9,3.738a8.158,8.158,0,0,1,.26,1.316,7.917,7.917,0,0,1-.421-1.275q-.39-1.377-1.048-3.7l-3.728-13.634c-3.163-11.581-7.5-27.453-12.288-44.992-4.871-17.509-9.281-33.36-12.5-44.926-1.581-5.691-2.868-10.325-3.784-13.62q-.624-2.333-.994-3.714a8.27,8.27,0,0,1-.293-1.31" transform="translate(24.364 -22.095)" fill="#263238"/>
        <path id="Path_1526" data-name="Path 1526" d="M80.142,124.934a9.761,9.761,0,0,1,9-8.9c-2.715-4.444-.441-10.868,4.159-13.311s10.615-1.184,14.484,2.3a10.034,10.034,0,0,1,18.626,5.529c4.224-1.351,9,2.124,9.836,6.48s-1.62,8.891-5.255,11.434c2.161,1.632,1.938,5.188.175,7.242s-4.535,2.913-7.2,3.4l-16.792,4.978c-4.03,2.253-8.985,3.389-13.295,1.734S86.472,139.09,88.1,134.77a9.763,9.763,0,0,1-7.96-9.836" transform="translate(47.544 -100.199)" fill="#263238"/>
        <path id="Path_1527" data-name="Path 1527" d="M80.228,118.011a2.747,2.747,0,0,1,.586-.569,6.7,6.7,0,0,1,2.11-1.061,7.9,7.9,0,0,1,3.763-.169,7.258,7.258,0,0,1,4.324,2.557l-.505.155a10.012,10.012,0,0,1,2.645-6.1,12.769,12.769,0,0,1,6.741-3.88,14.815,14.815,0,0,1,8.63.967,21.486,21.486,0,0,1,7.637,5.441,10.286,10.286,0,0,1,2.365,3.991,5.349,5.349,0,0,1-.677,4.511,4.325,4.325,0,0,1-1.743,1.526,3.457,3.457,0,0,1-2.3.2,4.33,4.33,0,0,1-2.96-3.048,4.984,4.984,0,0,1,.758-3.959,6.5,6.5,0,0,1,2.9-2.406,11.582,11.582,0,0,1,6.573-.537,14.942,14.942,0,0,1,8.236,4.524,13.076,13.076,0,0,1,1.561,2.051,3.579,3.579,0,0,1,.4.8,27.494,27.494,0,0,0-2.2-2.631,15.021,15.021,0,0,0-8.1-4.17,11.088,11.088,0,0,0-6.193.588,5.824,5.824,0,0,0-2.57,2.172,4.261,4.261,0,0,0-.634,3.365,3.573,3.573,0,0,0,2.42,2.481,2.952,2.952,0,0,0,3.172-1.415,4.525,4.525,0,0,0,.554-3.837,9.5,9.5,0,0,0-2.186-3.658c-4.147-4.6-10.245-7.306-15.494-6.219a12.155,12.155,0,0,0-6.4,3.591,9.479,9.479,0,0,0-2.581,5.682l-.059.738-.446-.583a6.856,6.856,0,0,0-3.969-2.465,7.783,7.783,0,0,0-3.588.03,9.023,9.023,0,0,0-2.779,1.334" transform="translate(47.603 -95.171)" fill="#455a64"/>
        <path id="Path_1528" data-name="Path 1528" d="M99.012,136.313c.018.008-.032.153-.167.422a3.67,3.67,0,0,1-.865,1,4.431,4.431,0,0,1-1.95.884,4.067,4.067,0,0,1-2.863-.492l-1.53-.932,1.724.519,1.818.546,2.264.682-2.365-.178a4.554,4.554,0,0,1-2.847-7.756l.535.448a9.819,9.819,0,0,1-17.391-2.89,9.305,9.305,0,0,1,.676-7.744c1.31-2.3,4.509-3.392,6.71-1.952l-.457.617a7.033,7.033,0,0,1-2.349-4.764,7.79,7.79,0,0,1,1.069-4.705,6.194,6.194,0,0,1,3.352-2.653,7.476,7.476,0,0,1,7.989,2.352,4.309,4.309,0,0,1,.849,1.6c-.065.032-.284-.578-1.039-1.442a7.262,7.262,0,0,0-4.242-2.263,6.843,6.843,0,0,0-3.375.284,5.627,5.627,0,0,0-2.984,2.455,7.164,7.164,0,0,0-.908,4.305,6.32,6.32,0,0,0,2.129,4.24l-.457.617c-1.748-1.13-4.465-.287-5.6,1.74a8.535,8.535,0,0,0-.578,7.049,9.082,9.082,0,0,0,16.028,2.755l.535.446a4.016,4.016,0,0,0-.817,4.436,4.1,4.1,0,0,0,3.217,2.31l-.1.5-1.8-.6.194-.414a3.729,3.729,0,0,0,2.556.526,4.315,4.315,0,0,0,1.859-.727,5.775,5.775,0,0,0,1.181-1.23" transform="translate(44.407 -96.152)" fill="#263238"/>
        <path id="Path_1529" data-name="Path 1529" d="M126.724,129.593a21.14,21.14,0,0,0,1.415-2.084,9.8,9.8,0,0,0,.988-6.558,9.2,9.2,0,0,0-6.5-6.843,8.869,8.869,0,0,0-2.809-.339,3.067,3.067,0,0,0-2.428,1.044,1.32,1.32,0,0,0,.448,2.087,4,4,0,0,0,2.9-.234A7.757,7.757,0,0,0,125.1,112.5a6.319,6.319,0,0,0-.409-5.515,9.41,9.41,0,0,0-8.214-4.689,9.921,9.921,0,0,0-6.24,2.264c-1.244,1.034-1.729,1.823-1.794,1.772a1.814,1.814,0,0,1,.325-.582,8.534,8.534,0,0,1,1.257-1.434,9.936,9.936,0,0,1,6.445-2.607,10.267,10.267,0,0,1,4.78,1.06,9.421,9.421,0,0,1,4.109,3.848,7.072,7.072,0,0,1,.494,6.187,8.521,8.521,0,0,1-4.806,4.63,4.748,4.748,0,0,1-3.536.218,2.041,2.041,0,0,1-1.23-1.5,2.445,2.445,0,0,1,.448-1.813,3.82,3.82,0,0,1,3.054-1.366,9.559,9.559,0,0,1,3.064.4,9.579,9.579,0,0,1,5.57,14.3,8.037,8.037,0,0,1-1.176,1.5c-.322.3-.5.44-.518.419" transform="translate(64.342 -99.303)" fill="#263238"/>
        <path id="Path_1530" data-name="Path 1530" d="M88.463,132.093c1.893-3.623,7.1-4.084,10.862-2.473a7.4,7.4,0,0,1,11.474-7.03c.9.605,1.786,1.448,2.866,1.377,1.134-.075,1.912-1.115,2.734-1.9a7.479,7.479,0,1,1,9.573,11.451l-.515-1.993a42.331,42.331,0,0,1-23,11.192c-3.6.521-7.484.518-10.612-1.335s-5.072-6.066-3.387-9.289" transform="translate(52.121 -88.37)" fill="#ff8686"/>
        <path id="Path_1531" data-name="Path 1531" d="M83.658,162.393a13.492,13.492,0,0,1,.613-15.581,12.871,12.871,0,0,1,5.147-3.786,16.2,16.2,0,0,1,3.693-9.383c3.341-3.752,9.758-4.978,13.432-1.554,2.739-6,11.115-8.569,16.748-5.135,4.844-5.658,15.019-5.293,19.447.7a9.028,9.028,0,0,1,14,8.869,9.863,9.863,0,0,1,10.824,13.257,7.294,7.294,0,0,1,4.328,12.82c3.757,4.305,2.639,11.888-2.2,14.927a8.619,8.619,0,0,1-5.76,9.92l-60.237,17.906c-10.118-.719-12.86-7.3-13.274-13.416a9.255,9.255,0,0,1-5.089-13.142,10.378,10.378,0,0,1-1.673-16.4" transform="translate(47.701 -86.714)" fill="#263238"/>
        <path id="Path_1532" data-name="Path 1532" d="M99.865,142.245l36.953-8.2c11.784-.9,19.173,13.794,19.571,25.607.443,13.121.467,29.16-1.37,38.889-3.695,19.562-18.83,21.622-18.83,21.622,0-.065-.056.293-.338,6.126l-.266,9.468a16.4,16.4,0,0,1-3.921,10.467c-5.817,6.553-15.616,6.81-26.8,1.775-6.485-2.919-6.082-6.6-6.877-15.648l-5.256-85.542c.784-1.321,3.56-4.289,7.14-4.562" transform="translate(55.018 -80.14)" fill="#c17560"/>
        <path id="Path_1533" data-name="Path 1533" d="M129.716,162.1a2.521,2.521,0,0,1-2.5,2.471,2.413,2.413,0,0,1-2.532-2.349,2.522,2.522,0,0,1,2.5-2.473,2.414,2.414,0,0,1,2.535,2.35" transform="translate(73.978 -64.866)" fill="#263238"/>
        <path id="Path_1534" data-name="Path 1534" d="M133.5,157.463c-.322.32-2.191-1.149-4.9-1.222-2.709-.11-4.74,1.227-5.024.886-.14-.151.194-.735,1.08-1.34a6.9,6.9,0,0,1,4.033-1.115,6.644,6.644,0,0,1,3.891,1.381c.816.664,1.08,1.268.923,1.41" transform="translate(73.303 -67.88)" fill="#263238"/>
        <path id="Path_1535" data-name="Path 1535" d="M114.935,161.611a2.521,2.521,0,0,1-2.5,2.471,2.413,2.413,0,0,1-2.532-2.349,2.523,2.523,0,0,1,2.5-2.473,2.414,2.414,0,0,1,2.533,2.35" transform="translate(65.208 -65.154)" fill="#263238"/>
        <path id="Path_1536" data-name="Path 1536" d="M117.405,157.463c-.323.319-2.194-1.149-4.9-1.22-2.707-.112-4.739,1.225-5.024.884-.139-.151.193-.735,1.082-1.34a6.906,6.906,0,0,1,4.033-1.115,6.648,6.648,0,0,1,3.891,1.381c.813.664,1.079,1.267.923,1.41" transform="translate(63.753 -67.88)" fill="#263238"/>
        <path id="Path_1537" data-name="Path 1537" d="M118.734,176.257c-.01-.155,1.686-.4,4.428-.666.693-.051,1.353-.171,1.483-.639a3.517,3.517,0,0,0-.4-2.067q-.906-2.541-1.9-5.333c-2.624-7.591-4.5-13.826-4.2-13.928s2.685,5.966,5.307,13.558q.949,2.806,1.808,5.362a4,4,0,0,1,.279,2.728,1.739,1.739,0,0,1-1.166.98,4.742,4.742,0,0,1-1.182.129c-2.753.068-4.46.03-4.465-.124" transform="translate(70.086 -68.499)" fill="#263238"/>
        <path id="Path_1538" data-name="Path 1538" d="M129.777,190.981a50.013,50.013,0,0,1-26.115-7.79s6.106,13.943,25.828,12.678Z" transform="translate(61.507 -50.955)" fill="#6f4439"/>
        <path id="Path_1539" data-name="Path 1539" d="M112.958,171.85a3.932,3.932,0,0,1,3.322-1.686,5.111,5.111,0,0,1,4.592,2.446,3.192,3.192,0,0,1,.14,2.3c-.183.384-.045.2-.355.456a8.958,8.958,0,0,1-3.724,2.161,3.84,3.84,0,0,1-4.01-1.609,3.921,3.921,0,0,1,.035-4.068" transform="translate(66.675 -58.685)" fill="#6f4439"/>
        <path id="Path_1540" data-name="Path 1540" d="M113.329,168.911c.441-.014.378,2.93,2.849,5.078s5.613,1.9,5.626,2.312c.037.185-.712.554-2.038.559a7.333,7.333,0,0,1-4.7-1.762,6.386,6.386,0,0,1-2.2-4.253c-.083-1.233.261-1.955.464-1.934" transform="translate(66.961 -59.429)" fill="#263238"/>
        <path id="Path_1541" data-name="Path 1541" d="M118.542,149.7c-.247.744-2.965.473-6.134.946-3.182.409-5.722,1.415-6.163.765-.2-.311.231-1.018,1.248-1.761a10.808,10.808,0,0,1,9.369-1.3c1.182.438,1.786,1,1.681,1.354" transform="translate(63.012 -71.945)" fill="#263238"/>
        <path id="Path_1542" data-name="Path 1542" d="M133.285,151.507c-.566.586-2.616-.166-5.121-.333-2.5-.245-4.653.161-5.107-.51-.2-.323.172-.923,1.131-1.453a7.726,7.726,0,0,1,4.221-.782,7.629,7.629,0,0,1,4.018,1.461c.852.68,1.109,1.329.857,1.617" transform="translate(72.985 -71.599)" fill="#263238"/>
        <path id="Path_1543" data-name="Path 1543" d="M120.57,132.708c.024.143.041.288.064.432l-.07.024c0-.151,0-.3.006-.456" transform="translate(71.536 -80.909)" fill="#263238"/>
        <path id="Path_1544" data-name="Path 1544" d="M100.258,162.278a2.563,2.563,0,0,0-2.025-2.672c-3.174-.676-8.8-.685-9.358,7.3-.773,11.047,10.478,9.544,10.519,9.229.032-.244.607-9.638.864-13.857" transform="translate(52.711 -65.11)" fill="#c17560"/>
        <path id="Path_1545" data-name="Path 1545" d="M95.264,170.416c-.046-.038-.2.121-.539.247a1.933,1.933,0,0,1-1.44-.07c-1.136-.51-1.99-2.433-1.9-4.428a6.36,6.36,0,0,1,.731-2.717,2.229,2.229,0,0,1,1.55-1.377.983.983,0,0,1,1.1.607c.126.319.041.535.1.558.029.03.249-.169.193-.631a1.223,1.223,0,0,0-.387-.722,1.453,1.453,0,0,0-1.044-.357,2.711,2.711,0,0,0-2.13,1.573,6.53,6.53,0,0,0-.883,3.032c-.086,2.232.908,4.394,2.473,4.968a2.07,2.07,0,0,0,1.781-.169c.362-.25.437-.492.4-.515" transform="translate(53.76 -63.811)" fill="#6f4439"/>
        <path id="Path_1546" data-name="Path 1546" d="M153.219,167.332a6.857,6.857,0,0,1-6.858-8.268,7.145,7.145,0,0,1-7.041-9.057,8.877,8.877,0,0,1-12.564-5.983,2.578,2.578,0,0,1-1.4,2.14,4.7,4.7,0,0,1-2.6.459,8.332,8.332,0,0,1-6.878-4.839,7.47,7.47,0,0,1-9.111,2.925c-1.171-.513-2.31-1.6-2.111-2.865a3.289,3.289,0,0,1,.575-1.265c3.352-5.084,9.455-7.881,15.521-8.414s12.135.937,17.9,2.89c3.389,1.149,6.824,2.533,9.361,5.059,2.733,2.72,4.133,6.467,5.456,10.089a43.647,43.647,0,0,1,2.369,8.067,14.626,14.626,0,0,1-.838,8.263c-.255.021-.508.043-.762.065" transform="translate(62.083 -81.297)" fill="#263238"/>
        <path id="Path_1547" data-name="Path 1547" d="M116.737,141.079a10.4,10.4,0,0,1-8.564,9.872,5.152,5.152,0,0,1-2.83,9.871,12.614,12.614,0,0,1,1.283,5.016,4.3,4.3,0,0,1-2.677,4.082c.809,1.052,1.781,2.629,1.267,4.347a4.092,4.092,0,0,1-4.017,3.15c-1.643,0-2.943-2-4.557-2.3a7.782,7.782,0,0,0-6.77,2.052l-2.03-20.608,2.5-16.514,9.645-7.052,18.588,3.321Z" transform="translate(52.121 -80.74)" fill="#263238"/>
        <path id="Path_1548" data-name="Path 1548" d="M86.555,140.172a13.2,13.2,0,0,0,1.952-.217,5.358,5.358,0,0,0,3.687-3.244l.457-1.23.183,1.3a6.349,6.349,0,0,0,2.371,4.038,5.9,5.9,0,0,0,5.229,1.047,6.126,6.126,0,0,0,3.059-1.856l.357-.409.292.456a8.6,8.6,0,0,0,4.229,3.386,8.465,8.465,0,0,0,4.361.394,13.466,13.466,0,0,0,3.781-1.45c.027.032-.236.33-.833.744a8.29,8.29,0,0,1-2.846,1.221,8.672,8.672,0,0,1-4.7-.242,9.118,9.118,0,0,1-4.675-3.614l.647.046a6.856,6.856,0,0,1-3.461,2.129,6.631,6.631,0,0,1-5.93-1.235,6.91,6.91,0,0,1-2.54-4.575l.641.076a5.609,5.609,0,0,1-4.232,3.383,3.166,3.166,0,0,1-2.03-.151" transform="translate(51.357 -79.264)" fill="#455a64"/>
        <path id="Path_1549" data-name="Path 1549" d="M107.829,124.861a40.971,40.971,0,0,0-4.093,2.243,8.553,8.553,0,0,0-3.021,3.8,5.284,5.284,0,0,0,.862,5.472,4.063,4.063,0,0,0,1.611,1.111l.488.18-.28.432a5.17,5.17,0,0,0-.083,4.895,9.208,9.208,0,0,0,2.7,3.254c1.949,1.506,3.3,2.24,3.231,2.357-.025.045-.381-.1-1-.4a19.162,19.162,0,0,1-2.559-1.517,9.289,9.289,0,0,1-3.029-3.378,5.832,5.832,0,0,1,.054-5.656l.206.612a4.828,4.828,0,0,1-1.953-1.33,5.991,5.991,0,0,1-.956-6.3,8.809,8.809,0,0,1,3.4-4.006,12.952,12.952,0,0,1,3.174-1.491,3.309,3.309,0,0,1,1.254-.269" transform="translate(59.044 -85.575)" fill="#455a64"/>
        <path id="Path_1550" data-name="Path 1550" d="M147.039,172.311c.01.027-.121.1-.386.212a4.8,4.8,0,0,1-1.225.28,6.26,6.26,0,0,1-4.4-1.292,6.265,6.265,0,0,1,.287-9.828,3.871,3.871,0,0,1,2.181-.757,2.748,2.748,0,0,1,2.215,1.066,2.382,2.382,0,0,1,.145,2.471,4.012,4.012,0,0,1-1.585,1.673,5.906,5.906,0,0,1-4.13.54,7.172,7.172,0,0,1-3.306-1.74,7.332,7.332,0,0,1-1.781-2.709,8.915,8.915,0,0,1-.429-4.573,4.024,4.024,0,0,1,.489-1.606c.069.019-.089.593-.169,1.644a9.361,9.361,0,0,0,.653,4.316,6.9,6.9,0,0,0,1.7,2.42,6.564,6.564,0,0,0,3,1.5,5.181,5.181,0,0,0,3.556-.491c1.042-.582,1.907-2,1.184-2.957a1.936,1.936,0,0,0-1.542-.727,3.086,3.086,0,0,0-1.719.6,5.345,5.345,0,0,0-2.047,2.975,5.446,5.446,0,0,0,1.665,5.728,6.207,6.207,0,0,0,4.018,1.426c1.044-.011,1.6-.245,1.628-.169" transform="translate(79.803 -67.06)" fill="#263238"/>
        <path id="Path_1551" data-name="Path 1551" d="M93.687,164.192a3.979,3.979,0,0,1-1.426.765,12.2,12.2,0,0,1-4.356.75,17.527,17.527,0,0,1-6.469-1.2,5,5,0,0,1-2.819-2.878,3.212,3.212,0,0,1,.032-2.269,3,3,0,0,1,1.708-1.624,2.352,2.352,0,0,1,1.453-.051l-.3.771a6.752,6.752,0,0,1-3.611-6.6,5.8,5.8,0,0,1,1.273-3.168,6.549,6.549,0,0,1,2.352-1.77,6.4,6.4,0,0,1,4.124-.421,2.929,2.929,0,0,1,1.377.625c-.03.067-.511-.175-1.437-.319a6.475,6.475,0,0,0-3.819.631,5.407,5.407,0,0,0-3.121,4.484,6.054,6.054,0,0,0,3.215,5.79l-.3.77a1.522,1.522,0,0,0-.934.041,2.192,2.192,0,0,0-1.228,1.166,2.427,2.427,0,0,0-.019,1.687,4.26,4.26,0,0,0,2.369,2.439,18.055,18.055,0,0,0,6.155,1.31,16.169,16.169,0,0,0,5.774-.929" transform="translate(46.207 -72.829)" fill="#263238"/>
        <path id="Path_1552" data-name="Path 1552" d="M135.464,266.847c.5.752,18.281,24.636,18.281,24.636l21.513-19.976L161.49,236.819l-8.26-14.146Z" transform="translate(80.377 -27.529)" fill="#c17560"/>
        <g id="Group_539" data-name="Group 539" transform="translate(114.176 345.471)" opacity="0.3">
          <g id="Group_538" data-name="Group 538">
            <g id="Group_537" data-name="Group 537" clip-path="url(#clip-path)">
              <path id="Path_1553" data-name="Path 1553" d="M103.319,425.284l-8.982-.179-3.188-78-19.491-8.274,35.425-21.816L201.565,383.8l18.861,41.482Z" transform="translate(-71.658 -317.019)"/>
            </g>
          </g>
        </g>
        <path id="Path_1554" data-name="Path 1554" d="M130.6,374.331c-.07.037,16.666,31.587,16.666,31.587l24.756-13.787-10.883-34.412Z" transform="translate(77.49 52.601)" fill="#c17560"/>
        <path id="Path_1555" data-name="Path 1555" d="M139.321,391.1s25.451.781,26.007-15.632l1.362,3.3,38.017,25c6.047,4.3,5.566,9.224,3.971,11.746a5.765,5.765,0,0,1-5.617,2.675c-11.824-1.509-55.293-7.278-57.482-10.782l-2.264-3.057c-3.623-4.291-4.818-9.555-3.6-11.471Z" transform="translate(82.626 63.13)" fill="#263238"/>
        <g id="Group_542" data-name="Group 542" transform="translate(225.94 467.471)" opacity="0.6">
          <g id="Group_541" data-name="Group 541">
            <g id="Group_540" data-name="Group 540" clip-path="url(#clip-path-2)">
              <path id="Path_1556" data-name="Path 1556" d="M206.513,405.6,141.8,393.587l1.423,1.92c1.351,2.219,2.868,2.376,4.841,2.984,5.844,1.8,20.483,4.694,53.349,9.039a5.771,5.771,0,0,0,5.1-1.926" transform="translate(-141.802 -393.587)" fill="#fff"/>
            </g>
          </g>
        </g>
        <g id="Group_545" data-name="Group 545" transform="translate(227.24 459.216)" opacity="0.6">
          <g id="Group_544" data-name="Group 544">
            <g id="Group_543" data-name="Group 543" clip-path="url(#clip-path-3)">
              <path id="Path_1557" data-name="Path 1557" d="M145.848,388.435a3.494,3.494,0,0,1,3.485,3.1,3.361,3.361,0,0,1-3.04,3.483c-1.714.086-3.74-1.585-3.674-3.3s1.88-3.6,3.564-3.271" transform="translate(-142.619 -388.407)" fill="#fff"/>
            </g>
          </g>
        </g>
        <path id="Path_1558" data-name="Path 1558" d="M163.735,395.858c.349-.064-.387-3.195,1.362-6.466,1.651-3.324,4.627-4.538,4.477-4.861-.043-.14-.878-.067-2.049.569a9.2,9.2,0,0,0-4.516,8.76c.161,1.323.586,2.044.725,2" transform="translate(96.691 68.474)" fill="#fff"/>
        <path id="Path_1559" data-name="Path 1559" d="M168.049,396.609c.36.037.723-2.513,2.568-4.92,1.794-2.447,4.138-3.51,4-3.846-.04-.328-2.933.325-4.992,3.1-2.089,2.756-1.906,5.715-1.579,5.663" transform="translate(99.593 70.429)" fill="#fff"/>
        <path id="Path_1560" data-name="Path 1560" d="M158.359,394.4c.322.049.789-3.354,2.994-6.816,2.153-3.5,5.006-5.408,4.822-5.675-.092-.257-3.415,1.359-5.731,5.105-2.357,3.72-2.357,7.417-2.084,7.387" transform="translate(93.89 66.939)" fill="#fff"/>
        <path id="Path_1561" data-name="Path 1561" d="M163.477,387.844c.049-.051-.417-.663-1.5-1.514a14.824,14.824,0,0,0-5.236-2.578,6.576,6.576,0,0,0-4.214-.086,2.324,2.324,0,0,0-1.412,2.264,3.787,3.787,0,0,0,1.249,2.39,8.163,8.163,0,0,0,10.4-.064A9.466,9.466,0,0,0,165.5,378.08a3.285,3.285,0,0,0-1.89-1.981,2.278,2.278,0,0,0-2.508.916,8.077,8.077,0,0,0-1.128,4.031,16.558,16.558,0,0,0,.569,5.8,5.051,5.051,0,0,0,.832,1.964c.242-.045-1.048-2.933-.531-7.678a7.554,7.554,0,0,1,1.071-3.491,1.214,1.214,0,0,1,1.364-.507,2.256,2.256,0,0,1,1.165,1.375,8.45,8.45,0,0,1-2.476,8.8,7.087,7.087,0,0,1-8.83.18,2.741,2.741,0,0,1-.943-1.632,1.258,1.258,0,0,1,.76-1.26,5.935,5.935,0,0,1,3.571.008c4.645,1.095,6.82,3.462,6.949,3.241" transform="translate(89.657 63.447)" fill="#fff"/>
        <path id="Path_1562" data-name="Path 1562" d="M96.9,394.189c.118.016.3,38.922.3,38.922s26.974,4.23,26.974,3.539,7.972-37.871,7.972-37.871Z" transform="translate(57.493 74.241)" fill="#c17560"/>
        <path id="Path_1563" data-name="Path 1563" d="M133.349,414.053s-19.616,14.772-29.219,1.45l-.381,3.553L86.1,460.993c-2.626,6.939.516,10.762,3.246,11.968a5.766,5.766,0,0,0,6.155-.907c8.979-7.841,41.864-36.846,41.731-40.976l.177-3.8c.618-5.581-1.321-10.62-3.4-11.533Z" transform="translate(50.502 86.027)" fill="#263238"/>
        <g id="Group_548" data-name="Group 548" transform="translate(140.867 513.305)" opacity="0.6">
          <g id="Group_547" data-name="Group 547">
            <g id="Group_546" data-name="Group 546" clip-path="url(#clip-path-4)">
              <path id="Path_1564" data-name="Path 1564" d="M88.409,468.38l47.047-46.027-.112,2.387c.115,2.6-1.06,3.571-2.358,5.175-3.85,4.755-14.4,15.307-39.27,37.224a5.77,5.77,0,0,1-5.307,1.241" transform="translate(-88.41 -422.353)" fill="#fff"/>
            </g>
          </g>
        </g>
        <g id="Group_551" data-name="Group 551" transform="translate(178.002 508.524)" opacity="0.6">
          <g id="Group_550" data-name="Group 550">
            <g id="Group_549" data-name="Group 549" clip-path="url(#clip-path-5)">
              <path id="Path_1565" data-name="Path 1565" d="M113.283,419.825a3.493,3.493,0,0,0-1.168,4.514,3.359,3.359,0,0,0,4.465,1.2c1.472-.884,2.223-3.4,1.213-4.788s-3.566-1.941-4.783-.73" transform="translate(-111.716 -419.352)" fill="#fff"/>
            </g>
          </g>
        </g>
        <path id="Path_1566" data-name="Path 1566" d="M103.02,435.325c-.325.14-1.458-2.868-4.734-4.611-3.222-1.84-6.37-1.192-6.424-1.542-.043-.14.69-.545,2.017-.669a9.205,9.205,0,0,1,8.63,4.759c.6,1.189.653,2.024.511,2.063" transform="translate(54.505 94.582)" fill="#fff"/>
        <path id="Path_1567" data-name="Path 1567" d="M99.9,438.328c-.28.231-2-1.684-4.876-2.654-2.854-1.034-5.392-.612-5.467-.966-.15-.295,2.618-1.364,5.876-.2,3.271,1.125,4.764,3.684,4.466,3.822" transform="translate(53.137 97.848)" fill="#fff"/>
        <path id="Path_1568" data-name="Path 1568" d="M107.09,430.7c-.241.222-2.524-2.345-6.284-3.993-3.736-1.707-7.172-1.7-7.165-2.028-.067-.263,3.593-.773,7.6,1.048,4.028,1.778,6.088,4.847,5.846,4.973" transform="translate(55.561 92.17)" fill="#fff"/>
        <path id="Path_1569" data-name="Path 1569" d="M100.793,427.328a4.886,4.886,0,0,1,.406-2.1,14.832,14.832,0,0,1,2.913-5.057,6.563,6.563,0,0,1,3.451-2.419A2.32,2.32,0,0,1,110,418.85a3.777,3.777,0,0,1,.293,2.682,8.164,8.164,0,0,1-8.676,5.742,9.471,9.471,0,0,1-7.943-6.925,3.283,3.283,0,0,1,.467-2.7,2.277,2.277,0,0,1,2.592-.637,8.08,8.08,0,0,1,3.182,2.72,16.5,16.5,0,0,1,2.76,5.135,5.027,5.027,0,0,1,.4,2.094c-.226.1-.762-3.019-3.837-6.671a7.536,7.536,0,0,0-2.833-2.3,1.212,1.212,0,0,0-1.415.338,2.258,2.258,0,0,0-.2,1.791,8.454,8.454,0,0,0,6.955,5.926,7.091,7.091,0,0,0,7.436-4.771,2.743,2.743,0,0,0-.126-1.88,1.259,1.259,0,0,0-1.334-.623,5.929,5.929,0,0,0-2.96,1.995c-3.249,3.5-3.735,6.675-3.966,6.563" transform="translate(55.524 87.688)" fill="#fff"/>
        <path id="Path_1570" data-name="Path 1570" d="M74.732,205.733l33.637-12.946s8.48,14.643,23.416,13.365c15.283-1.307,14.8-12.455,14.8-12.455l42.272,11.995s2.784,57.157,0,66.087-10.709,20.54-10.709,20.54,8.352,19.425,8.567,24.783-2.143,4.018-2.143,4.018L82.586,322.344Z" transform="translate(44.342 -45.261)" fill="#ec6e7a"/>
        <g id="Group_554" data-name="Group 554" transform="translate(126.414 218.436)" opacity="0.3">
          <g id="Group_553" data-name="Group 553">
            <g id="Group_552" data-name="Group 552" clip-path="url(#clip-path-6)">
              <path id="Path_1571" data-name="Path 1571" d="M161.7,237.89c-1.3-1.179-3.364-.389-4.911.446-8.792,4.75-17.6,9.506-25.935,15.006-10.519,6.939-20.237,15.021-30.537,22.281q-9.106,6.42-18.787,11.964L79.339,291.4c2.32,3.775,7.124,5.481,11.542,5.134s8.512-2.42,12.254-4.791c17.313-10.959,29.5-28.695,46.816-39.654,4.283-2.71,9.049-5.177,11.647-9.528.867-1.453,1.358-3.54.1-4.675" transform="translate(-79.339 -237.29)"/>
            </g>
          </g>
        </g>
        <path id="Path_1572" data-name="Path 1572" d="M144.146,254.8a24.7,24.7,0,0,1-4.2.225c-2.592.069-6.169.2-10.11.491s-7.5.7-10.07,1.021a24.785,24.785,0,0,1-4.191.406,18.617,18.617,0,0,1,4.1-.986,101.428,101.428,0,0,1,20.269-1.518,18.589,18.589,0,0,1,4.2.362" transform="translate(68.574 -8.702)" fill="#263238"/>
        <path id="Path_1573" data-name="Path 1573" d="M65.126,250.061s9.418,26.574,13.59,33.347,5.953,15.506,19.321,11.941,20.156-12.274,34.772-24.262,24.045-21.026,24.045-21.026L146.562,237.6l-42.644,19.428L93.759,234.751Z" transform="translate(38.642 -20.362)" fill="#c17560"/>
        <path id="Path_1574" data-name="Path 1574" d="M165.894,219.317l-29.307,15.452-23.977,15.275s11.912,10.542,15.269,10.282,7.919-4.906,7.919-4.906a3.5,3.5,0,0,0,1.981,1.894c1.463.516,3.185-1.206,3.185-1.206a10.274,10.274,0,0,0,3.185.688c1.463,0,3.166-5.612,4.026-9.313s-.583-5.492-.583-5.492l1.142-.661,1.616,2.828-2.5,8.939c-1.326,4.9,3.413,4.238,3.413,4.238s5.217-9.068,5.749-14.219-4.618-8.437-4.618-8.437,10.835-9.324,13.5-11.1,0-4.262,0-4.262" transform="translate(66.817 -29.52)" fill="#c17560"/>
        <path id="Path_1575" data-name="Path 1575" d="M87.726,268.264a7.6,7.6,0,0,1-.959-2.935A19.435,19.435,0,0,1,89.821,251a7.556,7.556,0,0,1,2.073-2.288c.229.145-3.042,3.706-4.191,9.326-1.243,5.6.292,10.185.022,10.223" transform="translate(51.303 -12.078)" fill="#6f4439"/>
        <path id="Path_1576" data-name="Path 1576" d="M84.385,200.487s-18.833,5.562-22.476,25.433c-2.17,11.845,3.072,50.3,3.072,50.3l36.4-13.545Z" transform="translate(36.421 -40.693)" fill="#ec6e7a"/>
        <path id="Path_1577" data-name="Path 1577" d="M79.669,217.068a39.745,39.745,0,0,1,1.444,5.362c.854,3.553,1.931,8.042,3.125,13.008,1.238,5.075,2.414,9.654,3.332,12.948a54.316,54.316,0,0,1,1.447,5.354,5.231,5.231,0,0,1-.642-1.353c-.374-.887-.825-2.2-1.366-3.832-1.066-3.265-2.336-7.835-3.577-12.921s-2.234-9.715-2.892-13.08a34.259,34.259,0,0,1-.87-5.486" transform="translate(47.258 -30.854)" fill="#263238"/>
        <path id="Path_1578" data-name="Path 1578" d="M89.105,274.325s-24.056,28.2-23.488,50.974a85.593,85.593,0,0,0,10.736,39.23l31.894,1.875s2.835-15.21,14.24-15.21c2.47,0,44.055,79.656,44.055,79.656l40.74-18.625s-26.794-70.385-33.349-86.927-12.7-24.525-21.456-26.889l-9.759-24.694Z" transform="translate(38.928 2.758)" fill="#29407c"/>
        <path id="Path_1579" data-name="Path 1579" d="M93.432,291.666c-.038.14-1.5-.266-3.915-.454a23.732,23.732,0,0,0-9.273,1.1,20.436,20.436,0,0,0-7.93,4.849c-1.7,1.714-2.5,3.013-2.631,2.927-.048-.03.119-.371.467-.97a14.91,14.91,0,0,1,1.738-2.361,18.86,18.86,0,0,1,8.094-5.231,21.385,21.385,0,0,1,9.6-.9,10.825,10.825,0,0,1,3.854,1.037" transform="translate(41.341 12.678)" fill="#fff"/>
        <path id="Path_1580" data-name="Path 1580" d="M109.215,295.63c-.229,0-.414-4.893-.414-10.927s.185-10.93.414-10.93.414,4.893.414,10.93-.185,10.927-.414,10.927" transform="translate(64.557 2.791)" fill="#fff"/>
        <path id="Path_1581" data-name="Path 1581" d="M101.752,273.717a3.834,3.834,0,0,1-.421,1.275,20.588,20.588,0,0,1-1.759,3.209,24.181,24.181,0,0,1-20.624,10.806,20.594,20.594,0,0,1-3.639-.381,3.809,3.809,0,0,1-1.287-.379c.024-.147,1.893.252,4.923.174a25.482,25.482,0,0,0,20.146-10.556c1.789-2.449,2.527-4.211,2.661-4.148" transform="translate(43.92 2.757)" fill="#fff"/>
        <path id="Path_1582" data-name="Path 1582" d="M175.743,273.33s13.125,13.037,16.424,32.78,3.5,45.5-2.119,55.03l-16.09,3.618L159.8,379.116l-20.06,109.212-45.552-6.254s-4.262-94.9-2.8-103.936,1.745-11.506,1.745-11.506-1.012-14.88,9.739-25.631,26.142-21.988,26.142-21.988l-1.41-45.068Z" transform="translate(54.043 2.529)" fill="#29407c"/>
        <path id="Path_1583" data-name="Path 1583" d="M163.238,288.717a5.987,5.987,0,0,1-1.485.628,24.931,24.931,0,0,1-18.5-1.346,18.872,18.872,0,0,1-3.442-2.368c-1.026-.854-1.984-1.719-2.865-2.572a60.843,60.843,0,0,1-4.409-4.78c-1.184-1.42-2.1-2.6-2.717-3.424a6.044,6.044,0,0,1-.894-1.338,51.752,51.752,0,0,1,4.053,4.377c1.235,1.361,2.723,2.962,4.493,4.611a31.579,31.579,0,0,0,6.168,4.761,25.08,25.08,0,0,0,13.757,2.457c3.641-.331,5.8-1.168,5.841-1.006" transform="translate(76.495 2.638)" fill="#fff"/>
        <path id="Path_1584" data-name="Path 1584" d="M99.777,358.4s.065-.524.247-1.542a10.7,10.7,0,0,1,.443-1.872,14.44,14.44,0,0,1,.927-2.5,15.42,15.42,0,0,1,4.53-5.873,18.013,18.013,0,0,1,9.361-3.8l.126-.013.065.121,42.936,79.733-.5-.169c12.654-5.8,26.413-12.094,40.729-18.647l-.212.526c-2.083-5.307-4.291-10.94-6.526-16.639-7.721-19.715-15.124-38.62-21.963-56.081l-9.785-25.033a25.679,25.679,0,0,0-6.671-10.127,23.182,23.182,0,0,0-9.933-5.456l-.029-.006a83.32,83.32,0,0,0-26.9-3.2,84.764,84.764,0,0,0-20.339,3.37,87.6,87.6,0,0,0-12.269,4.653c-1.364.639-2.374,1.192-3.072,1.526s-1.061.5-1.061.5.336-.214,1.015-.586,1.683-.943,3.035-1.612a82.5,82.5,0,0,1,12.247-4.828,84.342,84.342,0,0,1,47.52-.44l-.029-.008a23.805,23.805,0,0,1,10.272,5.582,26.392,26.392,0,0,1,6.882,10.368c3.117,7.925,6.407,16.289,9.839,25.012,6.853,17.458,14.272,36.355,22.009,56.065l6.522,16.641.143.363-.357.163c-14.323,6.539-28.088,12.822-40.75,18.6l-.331.151-.172-.32-42.616-79.905.193.108a17.769,17.769,0,0,0-9.184,3.633,15.353,15.353,0,0,0-4.531,5.715,14.777,14.777,0,0,0-.966,2.452,11.125,11.125,0,0,0-.492,1.847c-.217,1.007-.355,1.52-.355,1.52" transform="translate(47.399 10.761)" fill="#fff"/>
        <path id="Path_1585" data-name="Path 1585" d="M163.834,297.1c-.089.137-1.839-1.106-4.979-2.446a33.7,33.7,0,0,0-5.69-1.828,34.04,34.04,0,0,0-14.527-.089,33.527,33.527,0,0,0-5.712,1.756c-3.156,1.3-4.92,2.522-5.008,2.384a5.207,5.207,0,0,1,1.187-.926,12.28,12.28,0,0,1,1.5-.931,20.3,20.3,0,0,1,2.086-1.066,30.171,30.171,0,0,1,5.781-1.965,32.24,32.24,0,0,1,14.864.092,30.237,30.237,0,0,1,5.755,2.035,20.41,20.41,0,0,1,2.073,1.093,12.113,12.113,0,0,1,1.491.95,5.257,5.257,0,0,1,1.176.94" transform="translate(75.899 13.114)" fill="#fff"/>
        <g id="Group_557" data-name="Group 557" transform="translate(162.693 353.79)" opacity="0.3">
          <g id="Group_556" data-name="Group 556">
            <g id="Group_555" data-name="Group 555" clip-path="url(#clip-path-7)">
              <path id="Path_1586" data-name="Path 1586" d="M102.108,322.24s12.049,51.516,25.2,65.933,16.671,17.452,16.671,17.452l.9-3.566Z" transform="translate(-102.108 -322.24)"/>
            </g>
          </g>
        </g>
        <path id="Path_1587" data-name="Path 1587" d="M146.736,278.665s1.324-8.035,5.231-12.573,11.091-9.957,11.091-9.957h2.016l5.295-11.856,14.86-.717s-3.141,28.958-10.323,37.78-14.439,8.338-17.463,7.457-10.706-10.134-10.706-10.134" transform="translate(87.066 -15.134)" fill="#c17560"/>
        <path id="Path_1588" data-name="Path 1588" d="M135.055,196.909,123.327,254.8a5.143,5.143,0,0,0,5.04,6.165h80.716a5.144,5.144,0,0,0,5.019-4.02l12.971-57.888a5.143,5.143,0,0,0-5.019-6.268H140.1a5.144,5.144,0,0,0-5.041,4.122" transform="translate(73.114 -45.261)" fill="#263238"/>
        <path id="Path_1589" data-name="Path 1589" d="M135.175,197.052a2.984,2.984,0,0,1,.185-.792,5.03,5.03,0,0,1,1.289-2,5.233,5.233,0,0,1,3.563-1.45l5.269-.038,33.58-.132,23.188-.051,12.917-.021,6.756-.009A5.576,5.576,0,0,1,227.5,196.6a6.765,6.765,0,0,1-.148,3.671l-.779,3.493q-.784,3.513-1.585,7.1-1.6,7.182-3.273,14.654c-2.228,9.952-4.533,20.258-6.9,30.811a8.863,8.863,0,0,1-.6,2.025,5.4,5.4,0,0,1-1.3,1.735,5.626,5.626,0,0,1-3.969,1.426q-4.006,0-7.957,0-7.9,0-15.561-.006l-29.415-.026-26.617-.037a6.79,6.79,0,0,1-3.172-.5,5.5,5.5,0,0,1-2.392-2.116,5.377,5.377,0,0,1-.8-3.029,23.86,23.86,0,0,1,.513-2.938q1.166-5.684,2.235-10.9c2.865-13.859,5.185-25.084,6.8-32.884.814-3.851,1.45-6.855,1.89-8.932.218-.993.389-1.762.511-2.318.119-.521.2-.784.2-.784s-.027.274-.119.8c-.1.559-.247,1.335-.43,2.334-.4,2.086-.988,5.1-1.737,8.963-1.55,7.812-3.783,19.055-6.539,32.936q-1.042,5.213-2.183,10.91a23.935,23.935,0,0,0-.488,2.83,4.715,4.715,0,0,0,.717,2.659,4.818,4.818,0,0,0,2.106,1.85,6.09,6.09,0,0,0,2.892.427l26.617-.038,29.415-.025q7.653,0,15.561-.006h7.957a4.784,4.784,0,0,0,3.415-1.214,4.589,4.589,0,0,0,1.1-1.475,8.164,8.164,0,0,0,.542-1.85c2.368-10.553,4.68-20.855,6.912-30.807q1.678-7.462,3.293-14.648.808-3.59,1.6-7.1.394-1.754.785-3.491a6,6,0,0,0,.166-3.3,4.813,4.813,0,0,0-4.837-3.5l-6.756-.01-12.917-.021-23.188-.051-33.58-.131-5.269-.038a5.089,5.089,0,0,0-3.45,1.326,5.608,5.608,0,0,0-1.587,2.672" transform="translate(72.994 -45.404)" fill="#455a64"/>
        <path id="Path_1590" data-name="Path 1590" d="M168.993,212.069s9.74,16.568,10.744,18.778,3.916,5.572,4.117,7.656,2.511,14.033,2.309,18.351-2.592,9.646-2.592,9.646l-13.373-3.32a21.511,21.511,0,0,1-4.994-6.827c-1.834-4.117-3.44-5.623-5.148-6.93s-8.434-5.534-9.232-7.057a3.266,3.266,0,0,1,0-3.262s-3.11-1.5-3.62-3.236c-.543-1.852,0-4.318,3.513-2.712S167.186,244,168.491,243s-.3-3.432-.3-3.432-13.757-12.533-14.46-14.742,1.3-5.323,4.519-2.611,13.757,13.355,14.861,13.355-.1-3.113-.1-3.113-5.413-11.647-6.321-14.761-.406-7.229,2.3-5.623" transform="translate(87.235 -34.034)" fill="#c17560"/>
        <path id="Path_1591" data-name="Path 1591" d="M226.636,195.089a1.411,1.411,0,0,1-.394.043l-1.154.041q-1.625.026-4.441.076c-3.926.032-9.485.078-16.325.132-13.848.032-32.861.075-53.865.121q-3.944,0-7.79,0a4.1,4.1,0,0,0-3.222,1.068,3.589,3.589,0,0,0-.91,1.407c-.17.507-.285,1.189-.429,1.77-1.1,4.833-2.119,9.506-3.069,13.961-1.875,8.905-3.566,16.929-4.992,23.7-1.442,6.741-2.674,12.183-3.571,15.933-.448,1.82-.8,3.26-1.061,4.312-.121.449-.22.816-.3,1.115a1.382,1.382,0,0,1-.129.373,1.372,1.372,0,0,1,.046-.392c.059-.3.131-.677.22-1.135q.332-1.589.908-4.344l3.313-15.984c1.375-6.777,3.007-14.813,4.817-23.733.931-4.461,1.933-9.143,3.024-13.983.155-.621.231-1.177.451-1.859a4.377,4.377,0,0,1,1.114-1.729,4.923,4.923,0,0,1,3.789-1.3l7.79,0c21,.046,40.017.089,53.865.121l16.325.132q2.813.048,4.441.078c.465.016.844.03,1.154.04a1.421,1.421,0,0,1,.394.043" transform="translate(74.158 -44.15)" fill="#455a64"/>
        <path id="Path_1592" data-name="Path 1592" d="M147.955,267.854a4.208,4.208,0,0,1,.414-1.3,17.451,17.451,0,0,1,1.864-3.217,18.441,18.441,0,0,1,9.989-6.917,17.306,17.306,0,0,1,3.66-.553l-.325.186c1.818-3.316,3.22-6.464,4.3-8.607a27.767,27.767,0,0,1,1.793-3.434,16.311,16.311,0,0,1-1.314,3.65c-.97,2.235-2.223,5.333-4.1,8.829l-.091.169-.234.017a17.3,17.3,0,0,0-3.478.543,19,19,0,0,0-9.737,6.472c-1.918,2.4-2.6,4.227-2.744,4.16" transform="translate(87.782 -14.867)" fill="#6f4439"/>
        <path id="Path_1593" data-name="Path 1593" d="M164.364,237.892c-.12.2-3.547-1.675-7.655-4.178s-7.344-4.692-7.224-4.888,3.545,1.675,7.656,4.179,7.342,4.691,7.223,4.887" transform="translate(88.695 -23.886)" fill="#6f4439"/>
        <path id="Path_1594" data-name="Path 1594" d="M163.465,205.085a2.66,2.66,0,1,1-1.649-3.623,2.824,2.824,0,0,1,1.649,3.623" transform="translate(93.907 -40.176)" fill="#e0e0e0"/>
      </g>
    </g>
  </g>
</svg>
