<svg xmlns="http://www.w3.org/2000/svg" xmlns:xlink="http://www.w3.org/1999/xlink" width="68.612" height="68.612" viewBox="0 0 68.612 68.612">
  <defs>
    <clipPath id="clip-path">
      <rect id="Rectangle_474" data-name="Rectangle 474" width="68.612" height="68.612" fill="#ec6e7a"/>
    </clipPath>
  </defs>
  <g id="Group_803" data-name="Group 803" transform="translate(-1551.931 -964.931)">
    <g id="Group_794" data-name="Group 794">
      <g id="Group_785" data-name="Group 785" transform="translate(1551.931 964.931)">
        <g id="Group_784" data-name="Group 784" clip-path="url(#clip-path)">
          <path id="Path_2113" data-name="Path 2113" d="M88.862,62.726a24.382,24.382,0,0,0-1.691-9.349A26.374,26.374,0,0,0,76.393,40.41,24.736,24.736,0,0,0,61.3,36.659a29.468,29.468,0,0,0-4.854.709,24.626,24.626,0,0,0-4.354,1.5,1.821,1.821,0,0,1-1.193.225,1.31,1.31,0,0,1-1.025-1.146,1.283,1.283,0,0,1,.73-1.29c.4-.2.823-.34,1.231-.521a25.031,25.031,0,0,1,5.124-1.6,27.76,27.76,0,0,1,16.162,1.308A29.179,29.179,0,0,1,90.628,55.567a27.834,27.834,0,0,1,.91,7,27.388,27.388,0,0,1-1,7.226,28.76,28.76,0,0,1-6.553,11.854A29.186,29.186,0,0,1,76.6,87.533a27.61,27.61,0,0,1-8.18,3.025,26.5,26.5,0,0,1-8.951.307,28.325,28.325,0,0,1-8.952-2.791A29.6,29.6,0,0,1,37.936,75.786,27.778,27.778,0,0,1,35.1,67.9a26.775,26.775,0,0,1-.428-8.186,29.4,29.4,0,0,1,4.746-13.357c.671-1,1.41-1.959,2.171-2.893a1.306,1.306,0,1,1,2.049,1.617c-.687.924-1.394,1.832-2.057,2.773a21.976,21.976,0,0,0-3.015,6.219,31.17,31.17,0,0,0-.981,3.964,25.972,25.972,0,0,0-.007,8.755,25.28,25.28,0,0,0,3.284,8.837,26.417,26.417,0,0,0,10.242,9.794,24.344,24.344,0,0,0,8.828,2.825,25.183,25.183,0,0,0,7.365-.178A26.322,26.322,0,0,0,88.425,67.262c.284-1.489.36-3.018.532-4.529Z" transform="translate(-28.726 -28.192)" fill="#ec6e7a"/>
          <path id="Path_2114" data-name="Path 2114" d="M111.339,124.407h-8.81c-.134,0-.268,0-.4-.006a1.432,1.432,0,0,1-1.5-1.574q-.012-5.107,0-10.214c0-1.108.584-1.643,1.747-1.646q4.267-.009,8.535,0h.426v-8.79c0-.1,0-.2,0-.3a1.5,1.5,0,0,1,1.637-1.657c.357-.011.714,0,1.071,0h8.97a1.512,1.512,0,0,1,1.71,1.717q.008,4.3,0,8.6v.435h8.783c.112,0,.223,0,.335,0a1.459,1.459,0,0,1,1.587,1.6q.022,5.157,0,10.314a1.461,1.461,0,0,1-1.658,1.525c-1.685.006-3.369,0-5.054,0h-3.994v.4q0,4.3,0,8.6a1.523,1.523,0,0,1-1.744,1.748q-4.937,0-9.873,0c-.067,0-.134,0-.2,0a1.454,1.454,0,0,1-1.57-1.607c-.008-1.2,0-2.4,0-3.595v-5.549m10.712,8.049v-.422q0-4.284,0-8.568a1.522,1.522,0,0,1,1.717-1.747c.1,0,.2,0,.3,0h8.673v-8.065H124.6c-.346,0-.692.012-1.037-.007a1.439,1.439,0,0,1-1.508-1.565c0-.1,0-.2,0-.3v-8.853h-8.034v2.543q0,3.276,0,6.552a1.448,1.448,0,0,1-1.39,1.616,3.01,3.01,0,0,1-.434.017h-8.865v8.065h1.49c2.5,0,5,0,7.5,0a1.506,1.506,0,0,1,1.7,1.691c0,.09,0,.179,0,.269v8.775Z" transform="translate(-83.717 -83.372)" fill="#ec6e7a"/>
          <path id="Path_2115" data-name="Path 2115" d="M101.16,67.3a1.284,1.284,0,1,1-2.567-.058,1.36,1.36,0,0,1,1.318-1.3,1.34,1.34,0,0,1,1.25,1.355" transform="translate(-82.027 -54.863)" fill="#ec6e7a"/>
          <path id="Path_2116" data-name="Path 2116" d="M58.565,10.048A34.309,34.309,0,1,0,68.612,34.306,34.207,34.207,0,0,0,58.565,10.048M52.078,60.663A31.728,31.728,0,1,1,63.6,46.677,31.626,31.626,0,0,1,52.078,60.663" transform="translate(0 0)" fill="#ec6e7a"/>
        </g>
      </g>
    </g>
  </g>
</svg>
