<svg xmlns="http://www.w3.org/2000/svg" xmlns:xlink="http://www.w3.org/1999/xlink" width="149.707" height="56.305" viewBox="0 0 149.707 56.305">
  <defs>
    <clipPath id="clip-path">
      <rect id="Rectangle_53" data-name="Rectangle 53" width="149.707" height="56.305" fill="none"/>
    </clipPath>
  </defs>
  <g id="Group_31" data-name="Group 31" transform="translate(-12.07 -25.965)">
    <g id="Group_30" data-name="Group 30" transform="translate(12.07 25.965)" clip-path="url(#clip-path)">
      <path id="Path_32" data-name="Path 32" d="M17.3,33.808c.62-.175.876.011.314,1.07L11.173,48.834c-2.937,4.725-7.7,6.7-10.98,4.27-.258-.24-.311-.729.175-.558,3.414,2.331,6.717.165,9.818-5.581l5.762-13.142Z" transform="translate(0 -10.977)" fill="#29407c" fill-rule="evenodd"/>
      <path id="Path_33" data-name="Path 33" d="M35.29,54.246c-.637-.551-.053-.882.4-.638.85.154,1.7-1.107,2.549-2.667l6.468-15.155c.338-1.254,1.591-1.858,2.419-1.086L39.657,52.4c.006,1.178.936,1.5,1.723.4.46-.811.814.036.165.85-.474.642-1.4.831-2.691.65C37.583,54.06,36.312,54.455,35.29,54.246Z" transform="translate(-11.386 -11.174)" fill="#29407c" fill-rule="evenodd"/>
      <path id="Path_34" data-name="Path 34" d="M54.588,54.21c.46-2.48,5.366-6.809,8.769-6.043a34.291,34.291,0,0,0-3.266,6.815c-2.549,4.448-6,1.886-5.5-.772M63.807,56.5c-.275,1.682-2.608,1.643-2.027-.649A36.973,36.973,0,0,1,65.612,48c-3.31-2.116-11.745.783-13.08,6.038-.5,3.013,1.134,5.418,6.087,3.8,0,.2-.078.4-.078.594l4.25-.07a2.7,2.7,0,0,0,1.6-1.92c.024-.682-.51-.509-.586.056" transform="translate(-17.058 -15.383)" fill="#29407c" fill-rule="evenodd"/>
      <path id="Path_35" data-name="Path 35" d="M72.762,49.941c-.579.156-.719-.27-.257-.651l4.02-1.885c.63-.312.887-.061.217.949a68.483,68.483,0,0,0-3.764,7.213c-.675,3.451,2.136,2.138,4.928-.949l5.95-7.4c.487-.526.983-.179.059.942a47.385,47.385,0,0,0-5.169,10.007c-3.381,6.986-7.181,11.177-10.369,11.612-2.038.324-3.27-.2-3.976-1.491-.319-.93-.059-1.372.467-.41.871,1.69,3.088,1.746,4.731.309,3.582-3.058,6.117-8.162,8.542-12.982-1.181,1.057-2.644,2.519-3.966,2.949-2.124.546-3.2-.175-3.256-1.578-.2-1.287.915-3.786,3.225-7.242Z" transform="translate(-20.9 -15.281)" fill="#29407c" fill-rule="evenodd"/>
      <path id="Path_36" data-name="Path 36" d="M86,62.57c-.708.406-1.146-.085.093-.97,7.745-9.217,8.689-30.338,16.5-32.99.318-.107,3.628-.22,3.449,1.968-.314.988-1.432.991-1.641.1.286-1.358-1.81-2.061-2.9-.713-2.285,2.814-3.727,7.559-5.172,12.366,4-2.619,3.44,3.159,1.17,1.172a5.366,5.366,0,0,0-1.854,1.063C94.067,49.6,92.2,57.283,86,62.57Z" transform="translate(-27.745 -9.29)" fill="#29407c" fill-rule="evenodd"/>
      <path id="Path_37" data-name="Path 37" d="M104.715,52.145c-.621-.372-.327-.72.244-.635,1.028.281,1.64-.519,2.1-1.709,2.97-7.669,5.31-14.665,7.786-19.049,1.872-2.91,4.007-2.912,5.529-.879.19.729-.39.832-.668.147-1.06-1.7-3.39-.733-4.295,2.051L109.4,50.045c-.213.814-.188,1.472.684,1.563.837-.26,1.04.494,0,.664-1.829-.323-3.785.167-5.372-.127" transform="translate(-33.945 -9.251)" fill="#29407c" fill-rule="evenodd"/>
      <path id="Path_38" data-name="Path 38" d="M126.409,55.2c-1.638,2.174-3.831,3.248-5.167,2.128s-.534-4.5,1.1-6.859,4.254-3.144,5.212-1.852.491,4.41-1.148,6.584m1.6-7.192h0c-1.837-1.277-5.838-.377-7.706,2.308s-1.411,6.347.426,7.625,5.632.17,7.5-2.309,1.617-6.347-.221-7.625" transform="translate(-38.74 -15.429)" fill="#29407c" fill-rule="evenodd"/>
      <path id="Path_39" data-name="Path 39" d="M139.818,48.078c-.531.462-1.069-.028-.261-.668,1-.494,2.412.323,3.451-.145.617-.14.616.165-.029.813a19.158,19.158,0,0,0-4.639,8.57c.277,1.4,2.822,1.361,4.581-2a33.931,33.931,0,0,0,2.61-6.042q-.392-1.482-1.363.291c-.455.639-.455.426-.29-.639.657-1.375,2.706-.63,4.088-1.337.42-.146.48.072.232.61-1.2,2.615-3.036,5.984-3.48,8.8-.107,1.539,1.238,1.6,3.219.087a11.83,11.83,0,0,0,3.219-9.209c-.086-.729.24-.719.637-.232,1.448,3.024-1.068,10.643-6.524,11.213-1.636.227-2.119-.908-2.435-2.237-1.789,2.266-3.586,2.847-5.22,1.627-1.442-2.237-.391-4.6,1.276-6.914l1.537-2.237c.156-.45-.264-.6-.609-.349Z" transform="translate(-44.536 -15.166)" fill="#29407c" fill-rule="evenodd"/>
      <path id="Path_40" data-name="Path 40" d="M163.695,52.8c.531-3.272,3.968-6.15,6.477-5.052,1.546,2.357-3.386,6.4-6.477,5.052m7.02,3.574c.915-.8.445-1.291-.334-.524-2.849,2.112-6.269,1.184-6.484-2.234,4.505.445,8.239-1.65,8.572-5.918-.1-2.488-7.438-1.455-10.4,3.651-2.159,3.481,1.794,10,8.644,5.024" transform="translate(-52.52 -15.093)" fill="#29407c" fill-rule="evenodd"/>
      <path id="Path_41" data-name="Path 41" d="M181.418,49.066c-.9.085-.638-.437-.034-.705a22.6,22.6,0,0,1,3.325-1.075c.694-.045.872.224.4.806a4.574,4.574,0,0,0-.672,1.041c5.153-4.844,8.2,1.066,4.333,1.814-.9.115-.935-.238-.571-.806.6-2.3-.457-2.165-1.747-1.679a13.226,13.226,0,0,0-5.877,8.127c-.078,1.17.447,1.294,1.444.941.708-.676.877.061.078.7-1.41.425-4.345-.163-5.694.193-.567-.169-.352-.675.31-.723a2.436,2.436,0,0,0,1.982-1.411l3.862-7.758-1.142.537Z" transform="translate(-57.268 -15.366)" fill="#29407c" fill-rule="evenodd"/>
      <path id="Path_42" data-name="Path 42" d="M23.585,34.815c-1.731,1.228-3.148,3.108-3.24,4.886.121.737.487,1.511,1.385.732,1.809-1.675,1.818-3.649,1.855-5.618M8.379,21.732c.339,1.788-.7.878-.727.02-.478-3.557,2.076-6.159,5.215-5.9,6.576,1.469,8.829,8.43,10.889,15.848C28.97,26.357,39.823,21.4,42.422,15.588c2.3-4.123-.059-7.947-3.253-9.673,2.565,3.165.555,5.617.735,6.451C36.959,9.123,36.919,7.5,38.352,5.852c-2.5,2.016-4.152,1.982-6.394.55,1.286-1.364,3.165-3.165,6.221-1.724-.771-1.7,1.057-3.325,2.273-4.677.432,1.778,2.028,3.146-.928,5.49,7.924,3.454,4.164,13.767-2.118,18.422C33.2,27.482,24.964,32,24.067,34.127c.216,3.634-.852,6.959-2.981,7.346-1.578-.209-3.752-2.179,1.75-9.09C20.4,26.191,18.771,21.6,12.813,17.783c-1.813-.907-4.427-.875-4.435,3.949Z" transform="translate(-2.47 0)" fill="#ec6e7a" fill-rule="evenodd"/>
      <path id="Path_43" data-name="Path 43" d="M108.992,81l-.908-3.381L107.161,81h-1.285l-1.6-4.891H105.6l.957,3.6.936-3.6h1.216l.957,3.6.943-3.6h1.271L110.27,81Z" transform="translate(-33.915 -24.755)" fill="#ec6e7a" fill-rule="evenodd"/>
      <path id="Path_44" data-name="Path 44" d="M117.6,78.538A1.423,1.423,0,0,0,118.984,80a1.455,1.455,0,1,0-1.383-1.46m4.018-.007a2.65,2.65,0,1,1-2.648-2.48,2.523,2.523,0,0,1,2.648,2.48" transform="translate(-37.835 -24.735)" fill="#ec6e7a" fill-rule="evenodd"/>
      <path id="Path_45" data-name="Path 45" d="M130.038,81l-.007-3.179-1.174,2.69h-.81l-1.174-2.69V81h-1.111V76.1h1.362l1.328,2.913L129.78,76.1h1.356V81Z" transform="translate(-40.903 -24.752)" fill="#ec6e7a" fill-rule="evenodd"/>
      <path id="Path_46" data-name="Path 46" d="M137.05,77.092v.971h2.333v.978H137.05v.985h2.662V81h-3.906V76.113h3.829v.978Z" transform="translate(-44.17 -24.755)" fill="#ec6e7a" fill-rule="evenodd"/>
      <path id="Path_47" data-name="Path 47" d="M146.824,81l-2.25-3.011V81h-1.167V76.114h1.1l2.257,3.018V76.114h1.16V81Z" transform="translate(-46.642 -24.755)" fill="#ec6e7a" fill-rule="evenodd"/>
      <path id="Path_48" data-name="Path 48" d="M152.959,76.677a.792.792,0,0,1-.154.461l-.51.741h-.573l.314-.741a.527.527,0,0,1-.23-.454.557.557,0,0,1,.58-.58.549.549,0,0,1,.573.573" transform="translate(-49.346 -24.752)" fill="#ec6e7a" fill-rule="evenodd"/>
      <path id="Path_49" data-name="Path 49" d="M158.914,76.575l-.468.971a3.646,3.646,0,0,0-1.565-.51c-.322,0-.538.119-.538.356,0,.845,2.585.364,2.585,2.131,0,.978-.866,1.5-1.955,1.5a3.645,3.645,0,0,1-2.236-.783l.482-.957a3.049,3.049,0,0,0,1.767.733c.391,0,.636-.146.636-.426,0-.866-2.585-.35-2.585-2.082,0-.9.775-1.474,1.949-1.474a3.67,3.67,0,0,1,1.928.545" transform="translate(-50.327 -24.728)" fill="#ec6e7a" fill-rule="evenodd"/>
      <path id="Path_50" data-name="Path 50" d="M168.868,81V79.1h-2.026V81H165.6V76.114h1.244v2.012h2.026V76.114h1.244V81Z" transform="translate(-53.86 -24.755)" fill="#ec6e7a" fill-rule="evenodd"/>
      <path id="Path_51" data-name="Path 51" d="M175.154,78.538A1.423,1.423,0,0,0,176.538,80a1.455,1.455,0,1,0-1.384-1.46m4.018-.007a2.65,2.65,0,1,1-2.648-2.48,2.523,2.523,0,0,1,2.648,2.48" transform="translate(-56.554 -24.735)" fill="#ec6e7a" fill-rule="evenodd"/>
      <path id="Path_52" data-name="Path 52" d="M186.945,76.575l-.468.971a3.646,3.646,0,0,0-1.565-.51c-.321,0-.538.119-.538.356,0,.845,2.586.364,2.586,2.131,0,.978-.866,1.5-1.956,1.5a3.645,3.645,0,0,1-2.236-.783l.482-.957a3.049,3.049,0,0,0,1.767.733c.391,0,.636-.146.636-.426,0-.866-2.585-.35-2.585-2.082,0-.9.775-1.474,1.949-1.474a3.67,3.67,0,0,1,1.928.545" transform="translate(-59.444 -24.728)" fill="#ec6e7a" fill-rule="evenodd"/>
      <path id="Path_53" data-name="Path 53" d="M191.849,78.649h.825c.545,0,.858-.273.858-.789s-.313-.769-.858-.769h-.825Zm.887-2.536c1.25,0,1.97.615,1.97,1.7a1.727,1.727,0,0,1-1.97,1.81h-.887V81H190.6V76.113Z" transform="translate(-61.993 -24.755)" fill="#ec6e7a" fill-rule="evenodd"/>
      <rect id="Rectangle_52" data-name="Rectangle 52" width="1.244" height="4.891" transform="translate(133.784 51.358)" fill="#ec6e7a"/>
      <path id="Path_54" data-name="Path 54" d="M204.234,77.109V81h-1.244V77.109h-1.46V76.1h4.178v1.005Z" transform="translate(-65.546 -24.752)" fill="#ec6e7a" fill-rule="evenodd"/>
      <path id="Path_55" data-name="Path 55" d="M210.289,77.351l-.713,1.809h1.412ZM209.213,80.1l-.356.9h-1.279l2.11-4.891h1.279L213.027,81H211.7l-.35-.9Z" transform="translate(-67.513 -24.756)" fill="#ec6e7a" fill-rule="evenodd"/>
      <path id="Path_56" data-name="Path 56" d="M220.268,79.963V81h-3.318V76.114h1.244v3.849Z" transform="translate(-70.561 -24.756)" fill="#ec6e7a" fill-rule="evenodd"/>
    </g>
  </g>
</svg>
