<svg xmlns="http://www.w3.org/2000/svg" xmlns:xlink="http://www.w3.org/1999/xlink" width="739.086" height="62.153" viewBox="0 0 739.086 62.153">
  <defs>
    <filter id="Ellipse_48" x="0" y="0" width="62.153" height="62.153" filterUnits="userSpaceOnUse">
      <feOffset dy="3" input="SourceAlpha"/>
      <feGaussianBlur stdDeviation="2" result="blur"/>
      <feFlood flood-opacity="0.161"/>
      <feComposite operator="in" in2="blur"/>
      <feComposite in="SourceGraphic"/>
    </filter>
    <clipPath id="clip-path">
      <circle id="Ellipse_47" data-name="Ellipse 47" cx="25.076" cy="25.076" r="25.076" fill="#fff" stroke="#707070" stroke-width="1"/>
    </clipPath>
    <clipPath id="clip-path-2">
      <rect id="Rectangle_375" data-name="Rectangle 375" width="38.373" height="79.071" fill="none"/>
    </clipPath>
    <clipPath id="clip-path-4">
      <rect id="Rectangle_371" data-name="Rectangle 371" width="27.098" height="5.228" fill="none"/>
    </clipPath>
    <clipPath id="clip-path-5">
      <rect id="Rectangle_372" data-name="Rectangle 372" width="20.424" height="5.403" fill="none"/>
    </clipPath>
    <clipPath id="clip-path-6">
      <rect id="Rectangle_373" data-name="Rectangle 373" width="1.196" height="10.394" fill="none"/>
    </clipPath>
    <filter id="Ellipse_48-2" x="216.215" y="0" width="62.153" height="62.153" filterUnits="userSpaceOnUse">
      <feOffset dy="3" input="SourceAlpha"/>
      <feGaussianBlur stdDeviation="2" result="blur-2"/>
      <feFlood flood-opacity="0.161"/>
      <feComposite operator="in" in2="blur-2"/>
      <feComposite in="SourceGraphic"/>
    </filter>
    <clipPath id="clip-path-8">
      <rect id="Rectangle_369" data-name="Rectangle 369" width="33.458" height="76.334" fill="none"/>
    </clipPath>
    <clipPath id="clip-path-10">
      <rect id="Rectangle_365" data-name="Rectangle 365" width="8.255" height="5.838" fill="none"/>
    </clipPath>
    <clipPath id="clip-path-11">
      <rect id="Rectangle_366" data-name="Rectangle 366" width="4.59" height="9.066" fill="none"/>
    </clipPath>
    <clipPath id="clip-path-12">
      <rect id="Rectangle_367" data-name="Rectangle 367" width="7.67" height="3.699" fill="none"/>
    </clipPath>
    <filter id="Ellipse_48-3" x="484.727" y="0" width="62.153" height="62.153" filterUnits="userSpaceOnUse">
      <feOffset dy="3" input="SourceAlpha"/>
      <feGaussianBlur stdDeviation="2" result="blur-3"/>
      <feFlood flood-opacity="0.161"/>
      <feComposite operator="in" in2="blur-3"/>
      <feComposite in="SourceGraphic"/>
    </filter>
    <clipPath id="clip-path-14">
      <rect id="Rectangle_381" data-name="Rectangle 381" width="51.93" height="77.853" fill="none"/>
    </clipPath>
    <clipPath id="clip-path-16">
      <rect id="Rectangle_376" data-name="Rectangle 376" width="7.485" height="16.8" fill="none"/>
    </clipPath>
    <clipPath id="clip-path-17">
      <rect id="Rectangle_377" data-name="Rectangle 377" width="5.273" height="3.707" fill="none"/>
    </clipPath>
    <clipPath id="clip-path-18">
      <rect id="Rectangle_378" data-name="Rectangle 378" width="6.78" height="3.524" fill="none"/>
    </clipPath>
    <clipPath id="clip-path-19">
      <rect id="Rectangle_379" data-name="Rectangle 379" width="17.998" height="6.298" fill="none"/>
    </clipPath>
  </defs>
  <g id="Group_687" data-name="Group 687" transform="translate(-368 -1782.115)">
    <g id="Group_686" data-name="Group 686" transform="translate(374 1784)">
      <rect id="Rectangle_355" data-name="Rectangle 355" width="197.268" height="46.809" rx="23.405" transform="translate(6.687 4.458)" fill="#29407c"/>
      <g id="Group_651" data-name="Group 651" transform="translate(0 0)">
        <g transform="matrix(1, 0, 0, 1, -6, -1.89)" filter="url(#Ellipse_48)">
          <g id="Ellipse_48-4" data-name="Ellipse 48" transform="translate(6 3)" fill="#fff" stroke="#1a2942" stroke-width="1">
            <circle cx="25.076" cy="25.076" r="25.076" stroke="none"/>
            <circle cx="25.076" cy="25.076" r="24.576" fill="none"/>
          </g>
        </g>
        <g id="Mask_Group_21" data-name="Mask Group 21" clip-path="url(#clip-path)">
          <g id="Group_664" data-name="Group 664" transform="translate(8.119 5.935)">
            <g id="Group_663" data-name="Group 663" clip-path="url(#clip-path-2)">
              <g id="Group_662" data-name="Group 662">
                <g id="Group_661" data-name="Group 661" clip-path="url(#clip-path-2)">
                  <path id="Path_1737" data-name="Path 1737" d="M48.565,16.8l.2,15.958c.035,2.713-.47,6.706-4.764,6.565-3.72-.4-4.7-3.922-4.729-6.454-.016-1.2-.029-2.205-.037-2.328,0,0-4.068-.332-4.411-4.349-.167-1.942-.183-5.968-.157-9.61a7.511,7.511,0,0,1,6.967-7.44l.388-.029c4.209-.05,6.6,3.483,6.544,7.687" transform="translate(-25.448 -6.694)" fill="#ffbe9d"/>
                  <path id="Path_1738" data-name="Path 1738" d="M51.885,84.437A9.741,9.741,0,0,0,57,82.508s-1.063,3.029-5.1,2.96Z" transform="translate(-38.099 -60.586)" fill="#eb996e"/>
                  <path id="Path_1739" data-name="Path 1739" d="M60.518,41.458c.08.08.545-.292,1.217-.311s1.177.311,1.249.226c.035-.04-.05-.189-.266-.343a1.714,1.714,0,0,0-1-.284,1.625,1.625,0,0,0-.964.353c-.2.167-.271.321-.234.359" transform="translate(-44.431 -29.919)" fill="#263238"/>
                  <path id="Path_1740" data-name="Path 1740" d="M63.135,47.127a.542.542,0,1,0,.533-.543h-.012a.531.531,0,0,0-.521.542h0" transform="translate(-46.36 -34.207)" fill="#263238"/>
                  <path id="Path_1741" data-name="Path 1741" d="M49.783,46.757a3.977,3.977,0,0,0-1.018-.109c-.159,0-.311-.024-.345-.13a.8.8,0,0,1,.072-.476q.178-.59.38-1.235a19.565,19.565,0,0,0,.818-3.22,20.537,20.537,0,0,0-1.076,3.146l-.359,1.243a.9.9,0,0,0-.037.624.4.4,0,0,0,.266.213,1.086,1.086,0,0,0,.266.016,4.027,4.027,0,0,0,1.034-.072" transform="translate(-35.378 -30.537)" fill="#263238"/>
                  <path id="Path_1742" data-name="Path 1742" d="M61.614,32.5c.066.149.6.037,1.249.072s1.177.175,1.251.032c.032-.069-.066-.207-.287-.34A2.039,2.039,0,0,0,62.884,32a2,2,0,0,0-.962.189c-.226.114-.335.242-.308.314" transform="translate(-45.241 -23.495)" fill="#263238"/>
                  <path id="Path_1743" data-name="Path 1743" d="M37.551,37.157c.072.12.6-.013,1.233-.035s1.166.061,1.233-.064c.029-.061-.077-.17-.3-.266a2.226,2.226,0,0,0-.941-.154,2.308,2.308,0,0,0-.938.231c-.218.112-.319.229-.29.287" transform="translate(-27.57 -26.902)" fill="#263238"/>
                  <path id="Path_1744" data-name="Path 1744" d="M86.6,48.79c.066-.035,2.7-1.018,2.814,1.738a2.072,2.072,0,0,1-2.684,2.221c-.008-.08-.13-3.959-.13-3.959" transform="translate(-63.587 -35.681)" fill="#ffbe9d"/>
                  <path id="Path_1745" data-name="Path 1745" d="M90.088,54.115a.847.847,0,0,0,.13.066.5.5,0,0,0,.361,0,1.192,1.192,0,0,0,.5-1.089,1.594,1.594,0,0,0-.162-.68.55.55,0,0,0-.377-.353.239.239,0,0,0-.266.143c-.035.077-.016.133-.029.138s-.061-.045-.043-.159a.3.3,0,0,1,.1-.178.359.359,0,0,1,.266-.08.675.675,0,0,1,.518.407,1.63,1.63,0,0,1,.2.76,1.267,1.267,0,0,1-.651,1.22.5.5,0,0,1-.441-.056c-.1-.072-.12-.133-.109-.138" transform="translate(-66.15 -38.125)" fill="#eb996e"/>
                  <path id="Path_1746" data-name="Path 1746" d="M56.651,63.322c-.032-.069.507-.231.887-.739a3.045,3.045,0,0,0,.383-.72c.08-.2.141-.324.17-.316s.021.146-.024.361a2.022,2.022,0,0,1-.353.8,1.663,1.663,0,0,1-.7.531c-.21.1-.353.109-.359.085" transform="translate(-41.598 -45.194)" fill="#263238"/>
                  <path id="Path_1747" data-name="Path 1747" d="M46.061,8.638a13.277,13.277,0,0,1-1.023-3.215,3.635,3.635,0,0,0-1.982-2.588h-.024A2.94,2.94,0,0,0,40.11,3.1,3.747,3.747,0,0,0,37.261.178a9.41,9.41,0,0,0-4.979.393A10.278,10.278,0,0,0,29.025,3.1a13.458,13.458,0,0,0-1.406,1.7L26.4,8.555l1.042,1.969a3.783,3.783,0,0,0,.2.4l.938,4.148c.061-1.132-.021-5.064.037-6.2a6.308,6.308,0,0,0,4.5-2.078,7.444,7.444,0,0,1,1.929-1.95,4.534,4.534,0,0,1,3.454.247l-.048-.043a5.007,5.007,0,0,1,1.557,1.124,15.679,15.679,0,0,0,.678,6.642c.106.321.393.983.709,1.105.616.239.784-.391,1.156-.725a1.631,1.631,0,0,1,1.127-.266,24.635,24.635,0,0,0,.757-2.859,2.5,2.5,0,0,0,1.156.077L45.24,9.3a1.328,1.328,0,0,0,.494.223.449.449,0,0,0,.47-.2c.117-.223-.024-.465-.143-.68" transform="translate(-19.389 0)" fill="#263238"/>
                  <path id="Path_1748" data-name="Path 1748" d="M73.215,13.508a3.615,3.615,0,0,1,.4.369,2.875,2.875,0,0,1,.616,1.328,5.042,5.042,0,0,1,.1,1.02c0,.372-.029.768-.058,1.185a10.71,10.71,0,0,0-.029,1.328,4.546,4.546,0,0,0,.09.7,1.442,1.442,0,0,0,.284.672.6.6,0,0,0,.566.191.9.9,0,0,0,.51-.287,2.069,2.069,0,0,0,.388-1.023H76a3.379,3.379,0,0,0,.489.842,1.209,1.209,0,0,0,.784.425.8.8,0,0,0,.414-.072.694.694,0,0,0,.282-.266.711.711,0,0,0,.085-.356.5.5,0,0,0-.13-.311l-.043.037a2.621,2.621,0,0,0,.864.648c.114.05.2.082.266.1a.4.4,0,0,0,.1.024l-.09-.04c-.061-.024-.149-.061-.266-.117a2.66,2.66,0,0,1-.834-.656l-.043.037a.515.515,0,0,1,.027.6.606.606,0,0,1-.266.244.693.693,0,0,1-.377.061,1.127,1.127,0,0,1-.725-.4,3.35,3.35,0,0,1-.47-.824l-.058-.13-.027.141a1.991,1.991,0,0,1-.369.975.8.8,0,0,1-.457.266.513.513,0,0,1-.481-.159,1.4,1.4,0,0,1-.266-.632,4.58,4.58,0,0,1-.088-.68,10.624,10.624,0,0,1,.024-1.307c.027-.417.053-.816.048-1.19a4.936,4.936,0,0,0-.117-1.034,2.865,2.865,0,0,0-.654-1.347,1.642,1.642,0,0,0-.407-.359" transform="translate(-53.762 -9.919)" fill="#455a64"/>
                  <path id="Path_1749" data-name="Path 1749" d="M26.465,11.209l.032.027.1.074a1.5,1.5,0,0,0,.17.109,2.072,2.072,0,0,0,.244.128,3.542,3.542,0,0,0,1.719.308,4.518,4.518,0,0,0,2.426-.9A7.858,7.858,0,0,0,33.24,8.567c.292-.489.531-.986.8-1.448a5.314,5.314,0,0,1,.9-1.222,2.716,2.716,0,0,1,1.158-.7,1.944,1.944,0,0,1,.611-.069,2.207,2.207,0,0,1,.558.106,2.321,2.321,0,0,1,.837.5,2.376,2.376,0,0,1,.454.587,2.676,2.676,0,0,1,.207.6V6.883a.331.331,0,0,0-.019-.122,2.111,2.111,0,0,0-.154-.454A2.221,2.221,0,0,0,38.14,5.7a2.324,2.324,0,0,0-.853-.531,2.117,2.117,0,0,0-.577-.117,2.015,2.015,0,0,0-.635.066,2.829,2.829,0,0,0-1.2.715,5.388,5.388,0,0,0-.917,1.241c-.266.465-.5.962-.8,1.443a7.848,7.848,0,0,1-2.054,2.391,4.516,4.516,0,0,1-2.391.9,3.593,3.593,0,0,1-1.7-.266c-.353-.2-.545-.345-.553-.332" transform="translate(-19.433 -3.706)" fill="#455a64"/>
                  <path id="Path_1750" data-name="Path 1750" d="M37.425,42.414c.08.082.545-.292,1.217-.311s1.174.314,1.246.226c.035-.037-.048-.186-.266-.34a1.684,1.684,0,0,0-1-.284,1.642,1.642,0,0,0-.967.351c-.2.17-.271.322-.231.359" transform="translate(-27.473 -30.623)" fill="#263238"/>
                  <path id="Path_1751" data-name="Path 1751" d="M40.935,47.157a.531.531,0,0,0,.551.511H41.5a.522.522,0,1,0-.02-1.042h-.012a.531.531,0,0,0-.531.531" transform="translate(-30.059 -34.237)" fill="#263238"/>
                  <path id="Path_1752" data-name="Path 1752" d="M22.428,16.4a1.722,1.722,0,0,1-1.421.821,4.2,4.2,0,0,1-.6-.167c-.2.12-.141.8,0,.978a3.616,3.616,0,0,0,.428.43,2.234,2.234,0,0,1-1.969-.05,3.454,3.454,0,0,0,2.086,2.742,1.214,1.214,0,0,0,1.111,0,1.4,1.4,0,0,0,.476-.871,15.112,15.112,0,0,0,.449-3.7Z" transform="translate(-13.853 -12.041)" fill="#263238"/>
                  <path id="Path_1753" data-name="Path 1753" d="M44.755,98.011l1.86-.991s1.969,2.923,4.891,2.633a7.505,7.505,0,0,0,4.783-2.875l1.86.943-6.377,10.46Z" transform="translate(-32.864 -71.064)" fill="#455a64"/>
                  <path id="Path_1754" data-name="Path 1754" d="M32.847,129.8l-2.155-14.751L32.273,101.2l-7.357-2.572L18.9,108.459l-6.882-9.525L7.93,100.722c-3.558,1.56-6.77,4.929-7.506,8.741a.762.762,0,0,1-.029.151C-.549,114.721.5,122,.5,122l6.977-3.087-.563-2.463,1.328,5.622s-5.7,20.772-4.889,27.582c0,0,10.758,2.391,20.666.768s12.6-2.083,12.6-2.083Z" transform="translate(0 -72.423)" fill="#ff725e"/>
                  <path id="Path_1755" data-name="Path 1755" d="M114.234,108.308s4.28,3.72,4.753,8.888,1.347,9.786,1.347,9.786l-8.627.922a23.327,23.327,0,0,1,0-3.76c.2-.215,1.618-10.851,1.618-10.851Z" transform="translate(-81.961 -79.531)" fill="#ff725e"/>
                  <g id="Group_654" data-name="Group 654" transform="translate(6.123 56.933)" opacity="0.2">
                    <g id="Group_653" data-name="Group 653">
                      <g id="Group_652" data-name="Group 652" clip-path="url(#clip-path-4)">
                        <path id="Path_1756" data-name="Path 1756" d="M23.356,214.278l-.311,1.427,5.229,1.86a34.579,34.579,0,0,0,5.686,1.666c3.574.614,7.238.082,10.827-.449,2-.295,4.251-.744,5.356-2.444a98.073,98.073,0,0,1-26.788-2.059" transform="translate(-23.045 -214.278)"/>
                      </g>
                    </g>
                  </g>
                  <path id="Path_1757" data-name="Path 1757" d="M4.275,177.754c.066.072,2.391,6.815,3.741,8.019s9.167.781,12.469-.425a104.578,104.578,0,0,1,10.317-2.67l-1.063-5.439s-2.567.266-5.941.8c-1.222.2-12.4.072-12.4.072l-.773-3.159Z" transform="translate(-3.139 -128.465)" fill="#455a64"/>
                  <path id="Path_1758" data-name="Path 1758" d="M65.924,178.778c-.019,0-.213,8.885-1.156,10.022s-4.251,2.482-6.738,2.766-17.661-.407-19.885-2.261l8.768-6.111,8.933,2.205,2.5-1.076.228-4.761Z" transform="translate(-28.01 -131.277)" fill="#455a64"/>
                  <path id="Path_1759" data-name="Path 1759" d="M68.284,231.778a1.147,1.147,0,0,1-.12.149l-.361.412c-.157.181-.353.4-.592.635s-.5.531-.816.8-.651.614-1.036.933-.8.662-1.243,1.01a29.6,29.6,0,0,1-3.05,2.03,30.2,30.2,0,0,1-3.292,1.618c-.531.2-1.02.407-1.5.561-.236.08-.465.162-.686.231l-.643.189c-.407.125-.784.21-1.111.29s-.614.143-.85.186l-.531.1a1.369,1.369,0,0,1-.189.027.9.9,0,0,1,.183-.053l.531-.125c.234-.051.515-.117.842-.207s.7-.178,1.1-.311l.635-.194c.221-.072.446-.157.683-.239.476-.157.967-.364,1.488-.571a29.255,29.255,0,0,0,6.313-3.629c.444-.343.869-.667,1.246-1s.728-.63,1.042-.917.587-.558.829-.8.446-.441.608-.616l.38-.393a1.091,1.091,0,0,1,.136-.114" transform="translate(-38.378 -170.195)" fill="#263238"/>
                  <path id="Path_1760" data-name="Path 1760" d="M54.047,101.417l-.035.072-.109.218-.43.8-1.615,2.923-5.394,9.608-.053.1-.064-.088-.207-.284-6.642-9.1-2-2.769-.531-.755c-.056-.082-.1-.149-.138-.2a.541.541,0,0,1-.043-.072.472.472,0,0,1,.056.064c.037.048.085.112.149.189l.558.741,2.035,2.742,6.677,9.079.207.284H46.35c2.126-3.76,4.036-7.15,5.426-9.608l1.65-2.893.454-.781.122-.2c.027-.035.043-.061.045-.058" transform="translate(-27.011 -74.471)" fill="#263238"/>
                  <path id="Path_1761" data-name="Path 1761" d="M82.219,162.645a.624.624,0,0,1-.013-.165c0-.125,0-.282-.013-.473,0-.43-.013-1.02-.021-1.74s0-1.613-.016-2.58V154.9a.16.16,0,0,1,.032-.085.181.181,0,0,1,.143-.064h.213c2.245-.04,4.272,0,5.742.027l1.738.04.473.021a.662.662,0,0,1,.165.016,1,1,0,0,1-.165,0H88.282c-1.469,0-3.5-.027-5.736.013H82.3a.023.023,0,0,0,0,.013v2.787c0,.967,0,1.839-.016,2.58s-.016,1.31-.021,1.74v.473a.629.629,0,0,1-.04.183" transform="translate(-60.327 -113.622)" fill="#263238"/>
                  <path id="Path_1762" data-name="Path 1762" d="M58.566,181.738a.389.389,0,0,1,0,.082v.244c0,.223-.019.531-.029.93-.035.821-.082,1.982-.141,3.406v.035h-.035c-1.01.4-2.181.845-3.473,1.3s-2.715.879-4.209,1.286c-3.414.911-6.568,1.453-8.845,1.844l-2.7.452-.733.117-.194.027h-.064a.164.164,0,0,0,.061-.019l.191-.04.731-.143,2.692-.494c2.272-.414,5.418-.972,8.824-1.881,1.493-.406,2.923-.821,4.2-1.275s2.463-.89,3.478-1.278l-.035.048c.077-1.421.141-2.585.186-3.4.024-.393.045-.7.058-.93,0-.1.013-.178.019-.242a.27.27,0,0,1,.013-.066" transform="translate(-28.01 -133.451)" fill="#263238"/>
                  <path id="Path_1763" data-name="Path 1763" d="M100.455,184.711a21.837,21.837,0,0,1,2.54-.183,7.278,7.278,0,0,1,1.281.181l-.183,3.839-2.692,1.076Z" transform="translate(-73.764 -135.499)" fill="#ffbe9d"/>
                  <path id="Path_1764" data-name="Path 1764" d="M17.885,132.278a2.671,2.671,0,0,1,.128.454c.077.316.178.739.3,1.249.266,1.076.593,2.524.967,4.126s.736,3.066,1,4.118l.314,1.246a2.719,2.719,0,0,1,.1.46,3.108,3.108,0,0,1-.151-.446c-.093-.29-.213-.712-.359-1.235-.287-1.047-.656-2.5-1.039-4.11s-.7-3.074-.927-4.137c-.106-.515-.191-.941-.266-1.259a3.562,3.562,0,0,1-.066-.465" transform="translate(-13.133 -97.132)" fill="#263238"/>
                  <path id="Path_1765" data-name="Path 1765" d="M90.8,162.424a1.507,1.507,0,0,1-.335.035c-.215.016-.531.029-.909.045-.771.027-1.833.048-3.008.048s-2.237-.027-3.005-.056c-.385-.016-.7-.032-.911-.045a1.573,1.573,0,0,1-.332-.037,1.386,1.386,0,0,1,.335-.016h.911l3,.016H90.47a1.454,1.454,0,0,1,.335.011" transform="translate(-60.437 -119.246)" fill="#263238"/>
                  <path id="Path_1766" data-name="Path 1766" d="M44.174,171.379a2.342,2.342,0,0,1-.167-.223l-.412-.63c-.348-.531-.84-1.259-1.416-2.041s-1.124-1.464-1.53-1.956l-.478-.579a1.013,1.013,0,0,1-.165-.223.987.987,0,0,1,.2.186c.125.128.3.316.513.553.425.476.988,1.156,1.568,1.94s1.063,1.522,1.387,2.067c.165.266.292.5.377.656a1.13,1.13,0,0,1,.12.25" transform="translate(-29.376 -121.695)" fill="#263238"/>
                  <path id="Path_1767" data-name="Path 1767" d="M58.733,180.813a3.273,3.273,0,0,1-.656-1.1,3.326,3.326,0,0,1-.321-1.238c.04,0,.178.531.449,1.185s.563,1.129.529,1.15" transform="translate(-42.41 -131.057)" fill="#263238"/>
                  <path id="Path_1768" data-name="Path 1768" d="M53.778,111.663a.6.6,0,0,1-.1-.114l-.266-.337-.938-1.262-3.05-4.185L46.4,101.55l-.9-1.289-.239-.353a.669.669,0,0,1-.077-.13.6.6,0,0,1,.1.114l.266.337.938,1.262,3.056,4.19,3.021,4.214.9,1.289.239.353a.685.685,0,0,1,.072.125" transform="translate(-33.179 -73.267)" fill="#263238"/>
                  <path id="Path_1769" data-name="Path 1769" d="M59.553,98.628a.574.574,0,0,1-.043.138,3.39,3.39,0,0,1-.159.391,5.091,5.091,0,0,1-.864,1.281,6.01,6.01,0,0,1-1.847,1.355,7.56,7.56,0,0,1-1.278.462,7.71,7.71,0,0,1-1.445.2,6.189,6.189,0,0,1-2.747-.553,6.421,6.421,0,0,1-1.892-1.294,5.845,5.845,0,0,1-.951-1.214,3.5,3.5,0,0,1-.194-.372.7.7,0,0,1-.058-.135,7.571,7.571,0,0,0,1.273,1.653,6.487,6.487,0,0,0,1.876,1.246,6.179,6.179,0,0,0,2.689.531,6.961,6.961,0,0,0,2.676-.643,6.111,6.111,0,0,0,1.828-1.307,5.531,5.531,0,0,0,.887-1.238c.165-.321.234-.51.25-.5" transform="translate(-35.302 -72.423)" fill="#263238"/>
                  <g id="Group_657" data-name="Group 657" transform="translate(10.135 52.9)" opacity="0.2">
                    <g id="Group_656" data-name="Group 656">
                      <g id="Group_655" data-name="Group 655" clip-path="url(#clip-path-5)">
                        <path id="Path_1770" data-name="Path 1770" d="M38.145,204.226c7.091.592,14.558.749,20.424-5.128-6.172,2.532-13.83,4.145-20.424,5.128" transform="translate(-38.145 -199.098)"/>
                      </g>
                    </g>
                  </g>
                  <g id="Group_660" data-name="Group 660" transform="translate(29.458 38.818)" opacity="0.2">
                    <g id="Group_659" data-name="Group 659">
                      <g id="Group_658" data-name="Group 658" clip-path="url(#clip-path-6)">
                        <path id="Path_1771" data-name="Path 1771" d="M111.954,156.479a4.669,4.669,0,0,1-1.079-3.648,27.575,27.575,0,0,1,1.193-6.733,98.3,98.3,0,0,0-.157,10.394" transform="translate(-110.872 -146.098)"/>
                      </g>
                    </g>
                  </g>
                  <path id="Path_1772" data-name="Path 1772" d="M26.247,186.868a2.517,2.517,0,0,1-.34.266,3.069,3.069,0,0,0-.707.725,7.033,7.033,0,0,0-.478.909,1.394,1.394,0,0,1-.207.38,1.3,1.3,0,0,1,.117-.417,4.454,4.454,0,0,1,.454-.949,2.477,2.477,0,0,1,.765-.728,1.065,1.065,0,0,1,.4-.186" transform="translate(-18.001 -137.218)" fill="#263238"/>
                  <path id="Path_1773" data-name="Path 1773" d="M46.34,281.808,47,286H14.735l.38-3.154Z" transform="translate(-10.82 -206.932)" fill="#ff725e"/>
                  <path id="Path_1774" data-name="Path 1774" d="M45.6,285.508a.313.313,0,0,1-.082.029l-.242.069-.941.266c-.409.114-.911.244-1.5.375s-1.251.3-2,.444l-1.164.236c-.407.08-.832.146-1.27.223-.874.162-1.817.287-2.811.43-1.985.252-4.179.462-6.488.569s-4.517.077-6.515,0c-1-.056-1.95-.1-2.838-.186-.444-.037-.874-.066-1.283-.112l-1.182-.133c-.752-.077-1.429-.186-2.025-.266s-1.108-.165-1.525-.242l-.959-.173-.247-.048-.085-.021h.088l.25.035.964.149c.417.066.927.146,1.525.221s1.273.178,2.025.247l1.182.125c.409.042.84.066,1.281.1.887.082,1.836.12,2.835.173,2,.074,4.2.09,6.5,0s4.5-.311,6.478-.558c.991-.138,1.934-.266,2.808-.417.438-.074.864-.138,1.267-.215l1.166-.226c.744-.136,1.411-.295,2-.422s1.089-.247,1.5-.351l.946-.231.247-.056a.665.665,0,0,1,.085-.037" transform="translate(-9.138 -209.649)" fill="#263238"/>
                  <path id="Path_1775" data-name="Path 1775" d="M115.182,124.008a.7.7,0,0,1-.013.165c-.016.12-.037.266-.066.468-.061.4-.143.991-.242,1.719-.194,1.451-.42,3.454-.553,5.7s-.151,4.251-.133,5.723c0,.733.024,1.328.035,1.735v.473a.656.656,0,0,1,0,.165,1.186,1.186,0,0,1-.021-.165c0-.122-.021-.279-.035-.47-.029-.409-.056-1-.08-1.735-.045-1.467-.04-3.5.093-5.734s.375-4.251.6-5.7c.109-.725.207-1.31.284-1.714.037-.189.069-.343.093-.462a.615.615,0,0,1,.042-.159" transform="translate(-83.746 -91.059)" fill="#263238"/>
                </g>
              </g>
            </g>
          </g>
        </g>
      </g>
      <text id="Physician" transform="translate(63.527 34.031)" fill="#fff" font-size="25" font-family="SegoeUI-Bold, Segoe UI" font-weight="700"><tspan x="0" y="0">Physician</tspan></text>
    </g>
    <g id="Group_685" data-name="Group 685" transform="translate(590.215 1784)">
      <rect id="Rectangle_364" data-name="Rectangle 364" width="247.337" height="46.809" rx="23.405" transform="translate(8.916 4.458)" fill="#29407c"/>
      <g id="Group_637" data-name="Group 637" transform="translate(0 0)">
        <g transform="matrix(1, 0, 0, 1, -222.21, -1.89)" filter="url(#Ellipse_48-2)">
          <g id="Ellipse_48-5" data-name="Ellipse 48" transform="translate(222.21 3)" fill="#fff" stroke="#1a2942" stroke-width="1">
            <circle cx="25.076" cy="25.076" r="25.076" stroke="none"/>
            <circle cx="25.076" cy="25.076" r="24.576" fill="none"/>
          </g>
        </g>
        <g id="Mask_Group_21-2" data-name="Mask Group 21" clip-path="url(#clip-path)">
          <g id="Group_650" data-name="Group 650" transform="translate(11.128 5.302)">
            <g id="Group_649" data-name="Group 649" clip-path="url(#clip-path-8)">
              <g id="Group_648" data-name="Group 648">
                <g id="Group_647" data-name="Group 647" clip-path="url(#clip-path-8)">
                  <path id="Path_1689" data-name="Path 1689" d="M16.241,25.136a59.9,59.9,0,0,0-1.83,10.718l-.047,1.48s3.7,3.072,6.8,3.26l2.614-6.4Z" transform="translate(-10.609 -18.565)" fill="#263238"/>
                  <path id="Path_1690" data-name="Path 1690" d="M35.909,10.419C35.2,7.36,34.929,3.8,32.385,1.805A9.264,9.264,0,0,0,25.952.015a8.509,8.509,0,0,0-3.54,1.174C21,1.986,20.407,3.6,19.728,5.073c-1.362,2.943-1.189,6.93-.261,8.038l12.286,6.5c2.457-1.278,4-1.785,4.389-5.061a12.052,12.052,0,0,0-.233-4.128" transform="translate(-13.839 0)" fill="#263238"/>
                  <path id="Path_1691" data-name="Path 1691" d="M34.129,9.666,26.378,7.382c-2.494-.363-4.282,2.656-4.538,5.163a44.9,44.9,0,0,0-.277,8.292c.5,4.217,3.691,4.875,3.691,4.875s0,.063-.018,1.307l-.081,2.018a3.486,3.486,0,0,0,.682,2.282c1.14,1.48,3.223,1.678,5.675.771a3.535,3.535,0,0,0,2.52-3.027l1.346-17.854a1.475,1.475,0,0,0-1.25-1.542" transform="translate(-15.85 -5.43)" fill="#9f6b5b"/>
                  <path id="Path_1692" data-name="Path 1692" d="M28.422,40.53a.539.539,0,0,0,.5.562.514.514,0,1,0,.094-1.024H29a.523.523,0,0,0-.575.463" transform="translate(-20.992 -29.591)" fill="#263238"/>
                  <path id="Path_1693" data-name="Path 1693" d="M25.4,35.435c.063.073.481-.212,1.059-.188s.991.329,1.046.261-.029-.159-.209-.3a1.461,1.461,0,0,0-.842-.3,1.409,1.409,0,0,0-.847.235c-.175.12-.248.246-.207.288" transform="translate(-18.753 -25.784)" fill="#263238"/>
                  <path id="Path_1694" data-name="Path 1694" d="M49.042,40.357a.536.536,0,0,0,.5.562.51.51,0,1,0-.5-.562" transform="translate(-36.221 -29.47)" fill="#263238"/>
                  <path id="Path_1695" data-name="Path 1695" d="M47.16,35.654c.065.073.484-.212,1.061-.188s.991.329,1.046.261-.031-.159-.209-.3a1.487,1.487,0,0,0-.842-.3,1.4,1.4,0,0,0-.85.238c-.183.128-.238.254-.207.285" transform="translate(-34.826 -25.947)" fill="#263238"/>
                  <path id="Path_1696" data-name="Path 1696" d="M34.48,37.892a3.9,3.9,0,0,0-.933-.207c-.146-.021-.285-.055-.306-.157a.744.744,0,0,1,.115-.434l.481-1.108a18.719,18.719,0,0,0,1.1-2.9,19.361,19.361,0,0,0-1.325,2.808l-.463,1.114a.852.852,0,0,0-.1.578.36.36,0,0,0,.233.225.975.975,0,0,0,.261.044,3.7,3.7,0,0,0,.941.039" transform="translate(-24.396 -24.436)" fill="#263238"/>
                  <path id="Path_1697" data-name="Path 1697" d="M35.984,73.982a10.667,10.667,0,0,0,5.67-1.276s-1.5,2.876-5.68,2.321Z" transform="translate(-26.57 -53.7)" fill="#774f44"/>
                  <path id="Path_1698" data-name="Path 1698" d="M40.149,54.616a.931.931,0,0,0-.755-.452,1.207,1.207,0,0,0-1.121.5.747.747,0,0,0-.071.541c.037.094,0,.047.076.112a2.134,2.134,0,0,0,.842.57.915.915,0,0,0,.972-.314.928.928,0,0,0,.058-.959" transform="translate(-28.199 -39.999)" fill="#774f44"/>
                  <path id="Path_1699" data-name="Path 1699" d="M40.015,53.356c-.094,0-.123.62-.68,1.046s-1.221.322-1.231.408c0,.039.144.128.426.149a1.542,1.542,0,0,0,1.025-.306,1.369,1.369,0,0,0,.523-.873c.044-.277-.018-.423-.063-.423" transform="translate(-28.143 -39.408)" fill="#263238"/>
                  <path id="Path_1700" data-name="Path 1700" d="M46.348,28.13c.039.162.622.146,1.291.293s1.195.384,1.307.261c.047-.063-.034-.22-.24-.392a2.3,2.3,0,0,0-1.974-.413c-.267.065-.405.175-.384.251" transform="translate(-34.231 -20.539)" fill="#263238"/>
                  <path id="Path_1701" data-name="Path 1701" d="M25.542,28.732c.131.112.552-.086,1.082-.17s.991-.052,1.074-.2c.037-.073-.055-.193-.261-.288a1.736,1.736,0,0,0-1.736.3c-.175.162-.22.306-.159.361" transform="translate(-18.847 -20.65)" fill="#263238"/>
                  <path id="Path_1702" data-name="Path 1702" d="M40.672,5.736a.515.515,0,0,1-.018.091h.013c0-.026,0-.044.005-.091" transform="translate(-30.027 -4.237)" fill="#263238"/>
                  <path id="Path_1703" data-name="Path 1703" d="M30.257,24.827c.118-1.1-.324-2.2-.2-3.3.136-1.163.889-2.159,1.2-3.291.494-1.809-.186-3.733-.434-5.6A4.443,4.443,0,0,1,28.1,11.067a12.332,12.332,0,0,1-1.846-3.385,5.691,5.691,0,0,0,1.14,3.255,1.521,1.521,0,0,1-1.307-.426,3.4,3.4,0,0,1-.766-1.189,9.309,9.309,0,0,1-.74-3.351,12.087,12.087,0,0,0,.546,4.894,2.091,2.091,0,0,0-.91.034,1,1,0,0,1-.868-.183,1.09,1.09,0,0,1-.238-.559,12.627,12.627,0,0,1-.139-4.264,12.839,12.839,0,0,0-.959,2.353A4.563,4.563,0,0,0,22,10.763a.369.369,0,0,1-.521,0l0,0a.881.881,0,0,1-.23-.523,6.535,6.535,0,0,1,.139-2.123,10.592,10.592,0,0,0-.784,2.423,3.634,3.634,0,0,1-1.307,2.131,11.06,11.06,0,0,1,.1-3.215,9.74,9.74,0,0,1,.941-2.551,7.582,7.582,0,0,1,1.7-2.366c1.234-1.08,1.751-.614,2.538-.2l.094.039a.422.422,0,0,1,0-.058L24.7,4.15a11.837,11.837,0,0,1,6.229.29A8.373,8.373,0,0,1,35,7.82c.013.026.029.052.044.078,1.751,3.163,2.907,6.828,2.993,14.754Z" transform="translate(-14.197 -2.854)" fill="#263238"/>
                  <path id="Path_1704" data-name="Path 1704" d="M74.025,106.561a1.189,1.189,0,0,1,0-.314,5.389,5.389,0,0,1,.154-.85,5.947,5.947,0,0,1,3.694-4.068,5.264,5.264,0,0,1,.829-.235,1.336,1.336,0,0,1,.314-.039c0,.026-.439.094-1.106.363a6.185,6.185,0,0,0-3.636,4c-.191.69-.222,1.142-.248,1.137" transform="translate(-54.666 -74.639)" fill="#263238"/>
                  <path id="Path_1705" data-name="Path 1705" d="M3.662,209.916s-.484,8.14,1.657,11.324L6.9,215.876v-5.905Z" transform="translate(-2.67 -155.042)" fill="#e0e0e0"/>
                  <path id="Path_1706" data-name="Path 1706" d="M36.3,85.1s-4.507,3.4-6.7,3.022c-1.759-.308-1.456-2.983-1.456-2.983l-.855,1.848L25.444,94.36l.784,3.474,4.183-2.585Z" transform="translate(-18.793 -62.851)" fill="#ff725e"/>
                  <path id="Path_1707" data-name="Path 1707" d="M7.868,97.264c.473-4.87,6.329-13.3,6.329-13.3l.925-1.5L14.2,86.6s-.918,6.036-1.046,6.161l5.163-5,5.8-6.146,1.148,1.647,5.095,2.823-.523,15.993-1.83,4.687s5.38,14.728,6.078,19.948l1.163,9.9L7.784,136.57s.965-15.483,1.072-18.79.363-10.621.363-10.621a25.874,25.874,0,0,1-1.351-9.894" transform="translate(-5.749 -60.281)" fill="#e0e0e0"/>
                  <path id="Path_1708" data-name="Path 1708" d="M92.3,196.086a.4.4,0,0,1-.016-.089,2.373,2.373,0,0,0-.039-.261l-.133-1.02c-.11-.894-.261-2.172-.463-3.751-.1-.784-.2-1.66-.314-2.591l-.173-1.443c-.058-.5-.115-1.006-.212-1.521a67.458,67.458,0,0,0-1.741-6.627c-.387-1.265-.769-2.5-1.169-3.66s-.784-2.3-1.15-3.357c-.724-2.125-1.362-4-1.874-5.505v-.031l1.208-3.014.329-.805.086-.207a.424.424,0,0,1,.034-.068.312.312,0,0,1-.021.073c-.021.055-.044.123-.076.212l-.308.813L85.1,166.261v-.031c.523,1.5,1.171,3.375,1.908,5.49.366,1.061.753,2.185,1.158,3.357s.784,2.4,1.174,3.66a65.973,65.973,0,0,1,1.736,6.642c.094.523.149,1.046.207,1.532s.112.978.165,1.443l.3,2.593c.175,1.568.319,2.86.418,3.754.047.439.084.784.107,1.022l.026.261a.342.342,0,0,1,0,.1" transform="translate(-62.79 -119.752)" fill="#263238"/>
                  <g id="Group_640" data-name="Group 640" transform="translate(17.027 54.054)" opacity="0.2">
                    <g id="Group_639" data-name="Group 639">
                      <g id="Group_638" data-name="Group 638" clip-path="url(#clip-path-10)">
                        <path id="Path_1709" data-name="Path 1709" d="M73.389,207.968s-3.712,4.794-4.59,4.643-1.749-1.83-1.749-1.83l-.97-.45-.946-1.725,2.044-1.83Z" transform="translate(-65.134 -206.776)"/>
                      </g>
                    </g>
                  </g>
                  <path id="Path_1710" data-name="Path 1710" d="M17.618,95.3a7.808,7.808,0,0,0-2.876,2.034c-.7,1.111-1.179,5.929-1.179,5.929l3.448-5.809Z" transform="translate(-10.018 -70.385)" fill="#e0e0e0"/>
                  <path id="Path_1711" data-name="Path 1711" d="M34.243,203.853l3.4-1.265,2.6-1.751,2.214,3.545-1,.6s-.026.857-.031.962-.34.952-3.09.9-3.4-1.451-3.4-1.451a11.44,11.44,0,0,1-2.023,1.9c-.593.256-1.153-.523-1.153-.523Z" transform="translate(-23.453 -148.335)" fill="#9f6b5b"/>
                  <path id="Path_1712" data-name="Path 1712" d="M7.956,185.126a7.961,7.961,0,0,0-1.616,2.431,19.433,19.433,0,0,0-.131,4.07l.374.013s0,1.966.544,2.031,1.074.081,1.1-.808a15.778,15.778,0,0,0-.248-2.444Z" transform="translate(-4.549 -136.732)" fill="#9f6b5b"/>
                  <path id="Path_1713" data-name="Path 1713" d="M21.57,168.108a.621.621,0,0,1,0-.112v-.335c0-.3-.018-.732-.031-1.286-.024-1.121-.058-2.734-.1-4.726-.068-3.994-.162-9.5-.261-15.591a146.811,146.811,0,0,1,.1-15.6,18.567,18.567,0,0,1,.97-4.622c.094-.261.188-.494.261-.69a4.439,4.439,0,0,1,.225-.5c.068-.131.115-.225.152-.3a.781.781,0,0,1,.055-.1.752.752,0,0,1-.044.107c-.031.073-.078.173-.136.3s-.136.3-.214.5-.173.429-.261.693a18.9,18.9,0,0,0-.933,4.611,155.514,155.514,0,0,0-.063,15.585c.086,6.086.167,11.6.225,15.593.021,1.989.039,3.6.052,4.726v1.618a.6.6,0,0,1,0,.115" transform="translate(-15.533 -91.774)" fill="#263238"/>
                  <path id="Path_1714" data-name="Path 1714" d="M46.836,235.145a.562.562,0,0,1-.133-.047,3,3,0,0,1-.374-.165,5.616,5.616,0,0,1-1.239-.842,7.322,7.322,0,0,1-1.419-1.712,9.2,9.2,0,0,1-1.046-2.515,16.1,16.1,0,0,1-.308-4.917c.044-.63.1-1.137.141-1.487.021-.165.037-.3.05-.405a.613.613,0,0,1,.029-.139.491.491,0,0,1,0,.141c0,.11-.016.243-.026.405-.026.353-.065.863-.1,1.49a17,17,0,0,0,.345,4.881,9.352,9.352,0,0,0,1.014,2.483,7.524,7.524,0,0,0,1.375,1.7,7.4,7.4,0,0,0,1.689,1.124" transform="translate(-31.205 -164.643)" fill="#263238"/>
                  <path id="Path_1715" data-name="Path 1715" d="M26.585,89.845a1.122,1.122,0,0,1,0,.178c0,.125-.021.3-.037.51-.039.457-.091,1.106-.159,1.916v.021h-.018l-.586.337.024-.042c.1,1.344.222,3.051.366,4.988l-.084-.055,4.637-1.676,1.48-.523-.042.073c-.073-.523-.146-1.006-.217-1.5l-.016-.107.1.037,1.767.627-.073.024,3.424-4.868.988-1.385.261-.369a.793.793,0,0,1,.1-.12.925.925,0,0,1-.081.133c-.06.094-.144.217-.248.376l-.962,1.406-3.383,4.9-.029.039-.044-.016-1.767-.62.086-.073c.071.486.144.986.22,1.493v.055l-.052.018-1.482.536-4.643,1.668-.078.029v-.084c-.128-1.94-.243-3.66-.332-4.993v-.029l.024-.013.591-.329-.021.034c.084-.813.149-1.459.2-1.914.026-.214.044-.384.058-.51a1.372,1.372,0,0,1,.034-.175" transform="translate(-18.985 -64.934)" fill="#263238"/>
                  <path id="Path_1716" data-name="Path 1716" d="M8.8,127.329a.544.544,0,0,1,0-.12v-.358c0-.324-.013-.784-.021-1.359,0-1.182-.029-2.855-.047-4.865v.016c-.308-1.072-.583-2.261-.847-3.537-.131-.635-.261-1.307-.376-1.968a13.643,13.643,0,0,1-.238-2.091,14.044,14.044,0,0,1,.946-5.508,25.347,25.347,0,0,1,1.451-3.273c.491-.954.957-1.775,1.349-2.449s.719-1.2.946-1.568l.261-.405a.916.916,0,0,1,.1-.136,1.507,1.507,0,0,1-.081.146l-.267.431c-.217.363-.523.9-.912,1.568s-.839,1.506-1.323,2.463a26.083,26.083,0,0,0-1.425,3.265,14.057,14.057,0,0,0-.925,5.453,13.47,13.47,0,0,0,.235,2.076q.18,1.012.371,1.966c.261,1.273.523,2.462.829,3.529v6.6a.732.732,0,0,1-.024.125" transform="translate(-5.362 -73.642)" fill="#263238"/>
                  <g id="Group_643" data-name="Group 643" transform="translate(19.291 33.988)" opacity="0.2">
                    <g id="Group_642" data-name="Group 642">
                      <g id="Group_641" data-name="Group 641" clip-path="url(#clip-path-11)">
                        <path id="Path_1717" data-name="Path 1717" d="M78.384,139.082a11.507,11.507,0,0,1-4.59-9.066Z" transform="translate(-73.794 -130.016)"/>
                      </g>
                    </g>
                  </g>
                  <path id="Path_1718" data-name="Path 1718" d="M68.652,95.226a5.082,5.082,0,0,1,3.383,2.551c.957,2.078,7.3,17.8,7.419,18.911a5.118,5.118,0,0,1-1.7,3.882c-1.307,1.375-11.139,8.3-11.139,8.3l-4.266-6.833,8.687-6.237-5.662-11.685s.418-8.033,3.283-8.885" transform="translate(-46.047 -70.333)" fill="#e0e0e0"/>
                  <path id="Path_1719" data-name="Path 1719" d="M99.852,175.277a14.58,14.58,0,0,0-1.613-.975,15.318,15.318,0,0,0-1.775-.638,1.8,1.8,0,0,1,.554.071,6.186,6.186,0,0,1,2.428,1.155,1.675,1.675,0,0,1,.405.387" transform="translate(-71.247 -128.266)" fill="#263238"/>
                  <path id="Path_1720" data-name="Path 1720" d="M99.575,170.263a13.354,13.354,0,0,0-1.568.246,12.556,12.556,0,0,0-1.482.565,4.3,4.3,0,0,1,3.053-.81Z" transform="translate(-71.292 -125.733)" fill="#263238"/>
                  <path id="Path_1721" data-name="Path 1721" d="M83.584,110.532a.6.6,0,0,1,.058-.068l.173-.2a4.134,4.134,0,0,0,.293-.327,4.721,4.721,0,0,0,.342-.471,4.862,4.862,0,0,0,.669-1.43,3.833,3.833,0,0,0,.144-.975,2.493,2.493,0,0,0-.191-1.074c-1.137-2.933-2.7-6.969-4.444-11.426-.674-1.631-1.325-3.2-1.94-4.684-.3-.74-.6-1.456-.884-2.144a4.463,4.463,0,0,0-1.344-1.595L71.567,83.4,70.584,82.1l-.261-.34a.772.772,0,0,1-.078-.12s.034.037.094.11l.261.329,1.009,1.291,4.917,2.685a4.586,4.586,0,0,1,1.388,1.636c.285.688.583,1.4.891,2.141l1.945,4.69c1.738,4.462,3.278,8.514,4.4,11.445a2.541,2.541,0,0,1,.188,1.111,3.819,3.819,0,0,1-.157.993,4.8,4.8,0,0,1-.7,1.44,4.918,4.918,0,0,1-.356.463,3.167,3.167,0,0,1-.288.319l-.186.186a.406.406,0,0,1-.068.057" transform="translate(-51.881 -60.295)" fill="#263238"/>
                  <path id="Path_1722" data-name="Path 1722" d="M71.308,150.307a.721.721,0,0,1-.084.068l-.261.191-.98.716-3.6,2.614-.042.031-.029-.047-4.271-6.839L62,146.99l.05-.034,3.921-2.821,4.776-3.435-.021.081-4.154-8.425-1.189-2.439-.314-.651c-.031-.071-.058-.128-.078-.17l-.024-.06a.283.283,0,0,1,.034.055l.089.165.329.643c.29.57.7,1.391,1.223,2.421l4.2,8.4.024.05-.044.031-4.771,3.44-3.921,2.815.016-.086,4.256,6.841-.073-.013,3.628-2.567,1-.7.261-.178a.535.535,0,0,1,.089-.055" transform="translate(-45.795 -95.304)" fill="#263238"/>
                  <path id="Path_1723" data-name="Path 1723" d="M74.025,106.561a1.189,1.189,0,0,1,0-.314,5.389,5.389,0,0,1,.154-.85,5.947,5.947,0,0,1,3.694-4.068,5.264,5.264,0,0,1,.829-.235,1.336,1.336,0,0,1,.314-.039c0,.026-.439.094-1.106.363a6.185,6.185,0,0,0-3.636,4c-.191.69-.222,1.142-.248,1.137" transform="translate(-54.666 -74.639)" fill="#263238"/>
                  <path id="Path_1724" data-name="Path 1724" d="M71.308,150.307a.721.721,0,0,1-.084.068l-.261.191-.98.716-3.6,2.614-.042.031-.029-.047-4.271-6.839L62,146.99l.05-.034,3.921-2.821,4.776-3.435-.021.081-4.154-8.425-1.189-2.439-.314-.651c-.031-.071-.058-.128-.078-.17l-.024-.06a.283.283,0,0,1,.034.055l.089.165.329.643c.29.57.7,1.391,1.223,2.421l4.2,8.4.024.05-.044.031-4.771,3.44-3.921,2.815.016-.086,4.256,6.841-.073-.013,3.628-2.567,1-.7.261-.178a.535.535,0,0,1,.089-.055" transform="translate(-45.795 -95.304)" fill="#263238"/>
                  <g id="Group_646" data-name="Group 646" transform="translate(7.119 29.136)" opacity="0.2">
                    <g id="Group_645" data-name="Group 645">
                      <g id="Group_644" data-name="Group 644" clip-path="url(#clip-path-12)">
                        <path id="Path_1725" data-name="Path 1725" d="M34.9,112.078l-1.448-.047.3,1.467-6.525,1.657,6.12-2.206-.217-1.493Z" transform="translate(-27.234 -111.456)"/>
                      </g>
                    </g>
                  </g>
                  <path id="Path_1726" data-name="Path 1726" d="M4.637,231.235a1.079,1.079,0,0,1,0-.2c0-.144.016-.335.024-.578.026-.523.063-1.242.11-2.138.1-1.83.248-4.345.41-7.184l.016.047a4.8,4.8,0,0,1-.6-1.121,14.432,14.432,0,0,1-.763-3.226c-.139-1.046-.212-2.021-.261-2.915a40.21,40.21,0,0,1,0-4.1v-.029H3.6l.784.042.2.016h-.2l-.784-.016.029-.026c-.018.881-.029,2.316.068,4.1.05.891.128,1.869.261,2.9a14.477,14.477,0,0,0,.763,3.215A4.641,4.641,0,0,0,5.3,221.1l.016.021v.026c-.18,2.836-.34,5.354-.455,7.178-.065.9-.115,1.621-.152,2.136-.018.243-.034.434-.047.578a1.339,1.339,0,0,1-.026.193" transform="translate(-2.597 -154.946)" fill="#263238"/>
                  <path id="Path_1727" data-name="Path 1727" d="M68.857,90.226l-.353-.149c0-.018.784-1.914,1.568-3.921A3.875,3.875,0,0,0,70.4,84.18a.915.915,0,0,0-.928-.745l-.24-.345a1.378,1.378,0,0,1,1.548,1.025,4.29,4.29,0,0,1-.35,2.18c-.774,2.013-1.566,3.911-1.574,3.932" transform="translate(-50.596 -61.357)" fill="#455a64"/>
                  <path id="Path_1728" data-name="Path 1728" d="M59.311,113.733l-.489-.188c.4-1.03.946-2.855.711-3.367a1.5,1.5,0,0,0-1.046-.693,1.757,1.757,0,0,0-1.529.314,11.255,11.255,0,0,0-1.678,2.742l-.476-.22a11.431,11.431,0,0,1,1.83-2.923,2.277,2.277,0,0,1,1.982-.423,2,2,0,0,1,1.409.986c.392.863-.528,3.294-.714,3.772" transform="translate(-40.478 -80.435)" fill="#455a64"/>
                  <path id="Path_1729" data-name="Path 1729" d="M46.916,134.54a2.4,2.4,0,0,1-1.762-.962l.193-.175a1.966,1.966,0,0,0,1.911.837c2.614-.614,4.593-7.861,4.614-7.934l.261.068c-.081.306-2.047,7.471-4.8,8.119a1.773,1.773,0,0,1-.413.047" transform="translate(-33.35 -93.288)" fill="#263238"/>
                  <path id="Path_1730" data-name="Path 1730" d="M43.841,152.205h0a.314.314,0,0,1-.408.029l-.567-.421a.374.374,0,0,1-.108-.518l0-.005a.374.374,0,0,1,.518-.107.386.386,0,0,1,.06.049l.507.523a.314.314,0,0,1,0,.444l-.006.006" transform="translate(-31.535 -111.617)" fill="#263238"/>
                  <path id="Path_1731" data-name="Path 1731" d="M49.784,131.758a2.051,2.051,0,0,1-1.78-.784c-1.6-2.248,1.419-8.491,1.55-8.757l.235.115c-.031.063-3.085,6.368-1.568,8.491a2.013,2.013,0,0,0,2.06.651l.034.261a4.179,4.179,0,0,1-.531.024" transform="translate(-35.11 -90.267)" fill="#263238"/>
                  <path id="Path_1732" data-name="Path 1732" d="M55.951,157.051h0a.314.314,0,0,0,.285.29l.7.058a.374.374,0,0,0,.423-.317v0a.374.374,0,0,0-.395-.423l-.732.063a.311.311,0,0,0-.285.335" transform="translate(-41.324 -115.702)" fill="#263238"/>
                  <path id="Path_1733" data-name="Path 1733" d="M1.261,127.082a2.047,2.047,0,1,1-1.1,2.676,2.047,2.047,0,0,1,1.1-2.676" transform="translate(0 -93.745)" fill="#263238"/>
                  <path id="Path_1734" data-name="Path 1734" d="M1.261,127.082a2.047,2.047,0,1,1-1.1,2.676,2.047,2.047,0,0,1,1.1-2.676" transform="translate(0 -93.745)" fill="#263238"/>
                  <path id="Path_1735" data-name="Path 1735" d="M5.081,130.46a1.511,1.511,0,1,1,0-.005v.005" transform="translate(-1.517 -95.238)" fill="#e0e0e0"/>
                  <path id="Path_1736" data-name="Path 1736" d="M10.1,97.534l-.34-.175c.173-.335,4.219-8.206,4.462-8.561.042-.063.094-.152.152-.248a5.573,5.573,0,0,1,.405-.609,2.684,2.684,0,0,1,1.477-1.074l-.34.549c-.311.12-.476.316-.839.766a5.336,5.336,0,0,0-.374.567c-.063.1-.118.2-.165.261-.2.282-3.268,6.248-4.439,8.525" transform="translate(-7.212 -64.158)" fill="#455a64"/>
                </g>
              </g>
            </g>
          </g>
        </g>
      </g>
      <text id="Gynaecologist" transform="translate(61.298 34.031)" fill="#fff" font-size="25" font-family="SegoeUI-Bold, Segoe UI" font-weight="700"><tspan x="0" y="0">Gynaecologist</tspan></text>
    </g>
    <g id="Group_684" data-name="Group 684" transform="translate(858.727 1784)">
      <rect id="Rectangle_370" data-name="Rectangle 370" width="240.558" height="46.809" rx="23.405" transform="translate(7.802 2.229)" fill="#29407c"/>
      <g id="Group_681" data-name="Group 681" transform="translate(0 0)">
        <g transform="matrix(1, 0, 0, 1, -490.73, -1.89)" filter="url(#Ellipse_48-3)">
          <g id="Ellipse_48-6" data-name="Ellipse 48" transform="translate(490.73 3)" fill="#fff" stroke="#1a2942" stroke-width="1">
            <circle cx="25.076" cy="25.076" r="25.076" stroke="none"/>
            <circle cx="25.076" cy="25.076" r="24.576" fill="none"/>
          </g>
        </g>
        <g id="Mask_Group_21-3" data-name="Mask Group 21" clip-path="url(#clip-path)">
          <g id="Group_682" data-name="Group 682" transform="translate(-9.733 6.768)">
            <g id="Group_679" data-name="Group 679" clip-path="url(#clip-path-14)">
              <g id="Group_678" data-name="Group 678">
                <g id="Group_677" data-name="Group 677" clip-path="url(#clip-path-14)">
                  <path id="Path_1777" data-name="Path 1777" d="M113.8,1.468a1.8,1.8,0,0,0-1.87-.95,2.475,2.475,0,0,0-3.05.015,2.2,2.2,0,0,0-3.349,1.752,1.839,1.839,0,0,0-1.654,3.091,1.77,1.77,0,0,0,.7,3.452l8.864-5.3a1.8,1.8,0,0,0,.363-2.063" transform="translate(-76.193 0)" fill="#263238"/>
                  <path id="Path_1778" data-name="Path 1778" d="M107.166,15.583a7.511,7.511,0,0,1,7.581-6.8h.389c4.186.3,6.267,4.031,5.845,8.209l-.809,13.951-.046.677-9.7,1.8.064-3.557s-4.021-.685-4.011-4.714c.008-1.945.343-5.95.688-9.575" transform="translate(-79.051 -6.524)" fill="#ffbe9d"/>
                  <path id="Path_1779" data-name="Path 1779" d="M121.938,86.4a9.789,9.789,0,0,0,5.3-1.468s-1.288,2.88-5.3,2.46Z" transform="translate(-90.528 -63.053)" fill="#eb996e"/>
                  <path id="Path_1780" data-name="Path 1780" d="M115.3,48.159a.577.577,0,0,0,.546.59.554.554,0,0,0,.6-.5v-.014a.58.58,0,0,0-.546-.59.554.554,0,0,0-.6.5v.014" transform="translate(-85.598 -35.369)" fill="#263238"/>
                  <path id="Path_1781" data-name="Path 1781" d="M112.384,41.191c.07.077.515-.24,1.128-.229s1.069.327,1.136.258c.033-.033-.036-.17-.232-.317a1.567,1.567,0,0,0-.909-.294,1.51,1.51,0,0,0-.9.276c-.18.139-.26.273-.224.307" transform="translate(-83.429 -30.149)" fill="#263238"/>
                  <path id="Path_1782" data-name="Path 1782" d="M137.657,48.739a.574.574,0,0,0,.546.59.551.551,0,0,0,.6-.5c0-.005,0-.011,0-.016a.577.577,0,0,0-.546-.59.551.551,0,0,0-.6.5c0,.005,0,.011,0,.016" transform="translate(-102.198 -35.8)" fill="#263238"/>
                  <path id="Path_1783" data-name="Path 1783" d="M136,41.982c.07.077.515-.24,1.128-.229s1.069.327,1.139.258c.034-.033-.039-.17-.234-.317a1.6,1.6,0,0,0-.909-.294,1.527,1.527,0,0,0-.9.276c-.193.139-.26.273-.224.307" transform="translate(-100.962 -30.735)" fill="#263238"/>
                  <path id="Path_1784" data-name="Path 1784" d="M122.536,46.473a4.243,4.243,0,0,0-1-.2c-.157-.018-.307-.052-.332-.16a.8.8,0,0,1,.113-.466c.155-.381.314-.773.484-1.2a20.369,20.369,0,0,0,1.095-3.135,20.711,20.711,0,0,0-1.345,3.04q-.242.629-.466,1.2a.921.921,0,0,0-.09.621.394.394,0,0,0,.258.234.982.982,0,0,0,.258.041,3.249,3.249,0,0,0,1.028.015" transform="translate(-89.813 -30.675)" fill="#263238"/>
                  <path id="Path_1785" data-name="Path 1785" d="M128.334,63.13c-.1,0-.111.665-.693,1.133s-1.288.384-1.3.479c0,.041.157.131.461.144a1.675,1.675,0,0,0,1.087-.361,1.463,1.463,0,0,0,.538-.951c.036-.281-.044-.448-.09-.446" transform="translate(-93.795 -46.868)" fill="#263238"/>
                  <path id="Path_1786" data-name="Path 1786" d="M135.562,32.972c.059.167.677.1,1.4.2s1.309.3,1.409.155c.044-.072-.057-.232-.291-.4a2.465,2.465,0,0,0-2.143-.258c-.278.093-.415.222-.379.3" transform="translate(-100.638 -24.153)" fill="#e0e0e0"/>
                  <path id="Path_1787" data-name="Path 1787" d="M113.345,34.117c.108.142.536,0,1.048,0s.945.108,1.048-.036c.044-.072-.021-.214-.209-.35a1.468,1.468,0,0,0-.85-.242,1.438,1.438,0,0,0-.84.27c-.183.144-.245.288-.2.358" transform="translate(-84.138 -24.862)" fill="#e0e0e0"/>
                  <path id="Path_1788" data-name="Path 1788" d="M110.749,12.341s1.1-2.509,2.318-3.078c1.484-.693,2.094.935,3.5.562s2.833-1.03,4.242.072c1.546,1.208.806,2.032.876,3.82.288,7.254,1.582,9.322,2.009,5.925.046-.374,1.09-.654,1.265-2.233a17.827,17.827,0,0,0-.09-5.994,5.74,5.74,0,0,0-2.3-3.04c-1.955-1.5-4.673-1.574-6.522-1.414s-5.427,2.22-5.306,5.381" transform="translate(-82.22 -5.123)" fill="#263238"/>
                  <path id="Path_1789" data-name="Path 1789" d="M159.6,52.9a1.092,1.092,0,0,1,1.148-1.034l.048,0c.752.082,1.582.515,1.509,2.074a2.069,2.069,0,0,1-2.867,1.976c0-.085.1-1.873.162-3.019" transform="translate(-118.369 -38.502)" fill="#ffbe9d"/>
                  <path id="Path_1790" data-name="Path 1790" d="M161.939,57.482a.888.888,0,0,0,.126.077.489.489,0,0,0,.358.023,1.181,1.181,0,0,0,.6-1.03,1.589,1.589,0,0,0-.1-.693.557.557,0,0,0-.345-.386.257.257,0,0,0-.288.118c-.041.075-.026.131-.041.137s-.057-.049-.028-.162a.3.3,0,0,1,.116-.167.361.361,0,0,1,.258-.059.68.68,0,0,1,.482.451,1.654,1.654,0,0,1,.131.773,1.248,1.248,0,0,1-.755,1.157.515.515,0,0,1-.435-.093c-.072-.077-.085-.139-.075-.144" transform="translate(-120.223 -41.081)" fill="#eb996e"/>
                  <path id="Path_1791" data-name="Path 1791" d="M129.025,11.4a2.628,2.628,0,0,1-1.175.515.9.9,0,0,1-.987-.647c-.031-.193.021-.415-.1-.564s-.428-.129-.659-.108a1.756,1.756,0,0,1-1.8-1.288.74.74,0,0,1-.992.077,4.046,4.046,0,0,1-.739-.811,1.128,1.128,0,0,0-.938-.487,2.624,2.624,0,0,1-.6.121c-.361-.036-.533-.464-.582-.822s-.085-.773-.389-.979-.652-.088-.984-.041S118.3,6.329,118.23,6a.664.664,0,0,1,.131-.5,1.78,1.78,0,0,1,2.115-.644,2.419,2.419,0,0,1,4.451-.4,2.455,2.455,0,0,1,3.91.95A1.78,1.78,0,0,1,130.8,8.023a1.7,1.7,0,0,1,.909,1.357.969.969,0,0,1-1.11.974.987.987,0,0,1-1.718.958" transform="translate(-87.77 -2.346)" fill="#263238"/>
                  <path id="Path_1792" data-name="Path 1792" d="M155.4,31.12a.649.649,0,0,1-.178.515.9.9,0,0,1-.556.322.956.956,0,0,1-.773-.24l.116-.015a2.716,2.716,0,0,1-.559.677,1.588,1.588,0,0,1-.515.307,1.052,1.052,0,0,1-.554.041,1.076,1.076,0,0,1-.788-.466,1.545,1.545,0,0,1-.214-.577c-.028-.142-.028-.222-.018-.222a.766.766,0,0,1,.077.206,1.806,1.806,0,0,0,.258.515,1.123,1.123,0,0,0,1.654.064,2.826,2.826,0,0,0,.533-.636l.049-.082.067.064a.835.835,0,0,0,.662.222.8.8,0,0,0,.5-.258,1.33,1.33,0,0,0,.237-.438" transform="translate(-112.367 -23.104)" fill="#989898"/>
                  <path id="Path_1794" data-name="Path 1794" d="M135.432,62.139c-.046,0-.059-.291-.288-.533s-.515-.291-.515-.335.077-.041.2-.018a.772.772,0,0,1,.42.245.817.817,0,0,1,.209.44c.018.126-.01.2-.028.2" transform="translate(-99.95 -45.463)" fill="#eb996e"/>
                  <path id="Path_1795" data-name="Path 1795" d="M137.1,60.839c-.039.023-.137-.075-.283-.142s-.281-.088-.286-.134.162-.1.355,0,.252.258.214.276" transform="translate(-101.36 -44.92)" fill="#eb996e"/>
                  <path id="Path_1796" data-name="Path 1796" d="M150.176,80.043a.2.2,0,0,0,.072-.07.237.237,0,0,0,0-.258c-.041-.1-.165-.2-.258-.376a.355.355,0,0,1,0-.322,1.934,1.934,0,0,1,.18-.232c.214-.273-.407-.466-.325-.817a.419.419,0,0,1,.152-.294c.062-.046.106-.052.111-.044a.573.573,0,0,0-.152.343.44.44,0,0,0,.2.327.7.7,0,0,1,.183.229.34.34,0,0,1-.041.345c-.067.093-.139.152-.175.216a.211.211,0,0,0,0,.193c.051.134.173.258.219.389a.294.294,0,0,1-.07.327c-.049.07-.1.049-.1.041" transform="translate(-111.242 -57.632)" fill="#eb996e"/>
                  <path id="Path_1797" data-name="Path 1797" d="M153.46,79.649a.226.226,0,0,0-.034-.1.987.987,0,0,0-.152-.232,1.185,1.185,0,0,1-.116-.178.407.407,0,0,1-.039-.258c.049-.2.214-.319.291-.461s0-.258-.106-.381a.894.894,0,0,1-.147-.2.515.515,0,0,1-.041-.224c.028-.289.222-.371.222-.35a.719.719,0,0,0-.108.35.462.462,0,0,0,.18.327.719.719,0,0,1,.17.229.381.381,0,0,1-.031.33c-.111.18-.258.291-.286.42a.479.479,0,0,0,.1.348.715.715,0,0,1,.118.283c.005.064-.018.1-.026.1" transform="translate(-113.673 -57.358)" fill="#eb996e"/>
                  <path id="Path_1798" data-name="Path 1798" d="M10.558,131.171a19.616,19.616,0,0,0,1.03,3.171,3.323,3.323,0,0,1,.466,1.252l.258,3.985L9.051,142.8,2.725,138.08s-2.267-2.215-1.654-3.055c0,0,.3-.41.829,0,0,0-2.365-1.831-1.819-2.55s1.363.322,2.218,1.048,1.136.93,1.136.93l-2.46-2.378s-.693-.613-.077-1.11,1.525.75,1.955,1.01,2.851,2.576,2.851,2.576-1.677-2.135-1.8-2.251-1.638-1.254-1.072-1.911,2.014.94,2.493,1.3,2.28,2.517,2.681,2.736,1.128.847,1.576.647-.469-1.867-.325-2.468.4-1.744,1.3-1.435" transform="translate(0 -96.686)" fill="#ffbe9d"/>
                  <path id="Path_1799" data-name="Path 1799" d="M33.766,151.906a3.385,3.385,0,0,1-.229-.587,2.506,2.506,0,0,1,.175-1.481c.216-.562.515-1.03.677-1.4a1.181,1.181,0,0,0,.113-.474c0-.116-.028-.178-.036-.175a1.732,1.732,0,0,1-.185.6,11.327,11.327,0,0,0-.726,1.386,2.386,2.386,0,0,0-.134,1.571.945.945,0,0,0,.345.559" transform="translate(-24.756 -109.721)" fill="#eb996e"/>
                  <path id="Path_1800" data-name="Path 1800" d="M9.756,151.288c.018,0-.08-.232-.389-.438a5.132,5.132,0,0,1-1.136-.739,3.785,3.785,0,0,1-.4-.626,2.418,2.418,0,0,0-.374-.515c-.258-.258-.515-.289-.515-.258a1.9,1.9,0,0,1,.422.337,2.656,2.656,0,0,1,.325.515,3.392,3.392,0,0,0,.415.662,1.987,1.987,0,0,0,.652.44c.211.106.4.191.554.276a3.878,3.878,0,0,1,.451.345" transform="translate(-5.151 -110.398)" fill="#eb996e"/>
                  <path id="Path_1801" data-name="Path 1801" d="M87.908,274.5h20.228v-7.323L87.908,264.91Z" transform="translate(-65.264 -196.673)" fill="#263238"/>
                  <path id="Path_1802" data-name="Path 1802" d="M104.543,88.474l1.461.92,8.41-3.614.381,1.86-7.609,15.78-.453,30.091-8.235-.675,5.09-40.64Z" transform="translate(-73.126 -63.684)" fill="#ff725e"/>
                  <path id="Path_1803" data-name="Path 1803" d="M134.017,99.33a1.682,1.682,0,0,1-.294.18l-.822.459c-.693.384-1.646.922-2.694,1.527l-1.321.773-.057.031-.028-.054c-.412-.739-.652-1.414-.863-1.87-.1-.232-.185-.412-.258-.536a.743.743,0,0,1-.082-.2.942.942,0,0,1,.121.175c.07.118.167.3.278.515.232.451.489,1.121.9,1.839l-.088-.021c.4-.245.85-.515,1.319-.773,1.048-.605,2.012-1.131,2.718-1.5.353-.183.641-.325.842-.42a1.7,1.7,0,0,1,.327-.134" transform="translate(-94.73 -73.744)" fill="#263238"/>
                  <path id="Path_1804" data-name="Path 1804" d="M47.372,98.512l-4.3,1.646a3.549,3.549,0,0,0-1.417.992,17.936,17.936,0,0,0-3.606,7.212c-1.347,5.152-2.785,9.046-2.785,9.046l-4.783-3.555-6.669,6.584s11.226,9.773,14.791,9.729L36.182,149.3h6.885l5.7-50.791.325-2.272c-.113.046-1.383,1.826-1.716,2.272" transform="translate(-17.675 -71.45)" fill="#ebebeb"/>
                  <path id="Path_1805" data-name="Path 1805" d="M82.984,129.9a.2.2,0,0,1,0,.07.924.924,0,0,1-.018.206c-.021.191-.052.453-.088.788-.08.693-.191,1.679-.33,2.893-.278,2.444-.634,5.824-.987,9.562s-.644,7.122-.855,9.574c-.106,1.216-.193,2.2-.258,2.9-.031.335-.057.6-.075.788a1.277,1.277,0,0,1-.023.206.286.286,0,0,1,0,.07.3.3,0,0,1,0-.072v-.2c0-.193.028-.456.049-.791.052-.7.124-1.687.211-2.906.188-2.455.464-5.842.817-9.58s.724-7.117,1.03-9.559c.149-1.221.278-2.208.374-2.89.046-.332.085-.6.113-.773l.031-.2a.261.261,0,0,1,.008-.08" transform="translate(-59.653 -96.439)" fill="#263238"/>
                  <path id="Path_1806" data-name="Path 1806" d="M161.814,200.133a6.425,6.425,0,0,0-3.016-1.489,1.429,1.429,0,0,1,.515.036,4.512,4.512,0,0,1,2.174,1.074,1.388,1.388,0,0,1,.327.379" transform="translate(-117.894 -147.469)" fill="#263238"/>
                  <path id="Path_1807" data-name="Path 1807" d="M140.563,94.948s-1.71-1.334-3.434-2.723-4.59-3.452-4.59-3.452l-.515-1.734a17.629,17.629,0,0,0-2.833,4.487c-1.911,4.152-4.121,10.211-4.564,12.828l-2.658,38.092h19.711l-4.585-27.078Z" transform="translate(-90.551 -64.62)" fill="#ebebeb"/>
                  <path id="Path_1808" data-name="Path 1808" d="M131.758,111.816a1.634,1.634,0,0,1,.09-.188l.283-.515,1.056-1.909c.912-1.615,2.159-3.828,3.534-6.272l.188-.33v.052q-.219-.755-.433-1.473l-.013-.044.039-.028,1.056-.744-.023.031c.652-1.914,1.213-3.562,1.618-4.745.2-.572.361-1.03.477-1.365.054-.149.1-.258.134-.361a.823.823,0,0,1,.051-.124.694.694,0,0,1-.031.129c-.031.1-.067.219-.113.371-.108.332-.258.8-.443,1.376l-1.571,4.76v.018l-.015.013-1.056.75.026-.072c.142.477.288.969.435,1.471v.028l-.015.023-.188.33c-1.388,2.437-2.648,4.637-3.568,6.254l-1.095,1.888-.3.515a1.238,1.238,0,0,1-.118.162" transform="translate(-97.819 -69.638)" fill="#263238"/>
                  <path id="Path_1809" data-name="Path 1809" d="M109.481,121.13a.713.713,0,0,1-.039-.17c-.023-.129-.052-.294-.088-.5-.072-.448-.173-1.072-.294-1.834-.24-1.564-.564-3.7-.925-6.058q-.054-.368-.108-.726V111.8l.9-1.623.036.09-.894-.294-.059-.021.021-.059,1.314-3.465c.16-.412.288-.742.384-.984.041-.106.077-.191.106-.258a.415.415,0,0,1,.044-.088.361.361,0,0,1-.026.1l-.088.258c-.088.245-.2.58-.35,1l-1.257,3.48-.039-.08.894.288.075.023-.036.07-.894,1.625v-.041c.036.24.072.482.111.726.343,2.36.654,4.5.884,6.064.106.773.191,1.391.258,1.839.026.209.046.374.062.515a.819.819,0,0,1,.013.17" transform="translate(-80.187 -78.028)" fill="#263238"/>
                  <path id="Path_1810" data-name="Path 1810" d="M120.638,101.886a5.349,5.349,0,0,1,.461.9h-.108c.113-.219.258-.458.42-.708.273-.425.533-.8.719-1.072a2.9,2.9,0,0,1,.312-.438,1.66,1.66,0,0,1-.232.487c-.165.289-.412.672-.685,1.095-.162.258-.309.484-.428.693l-.062.108-.046-.113a5.672,5.672,0,0,1-.35-.953" transform="translate(-89.563 -74.664)" fill="#263238"/>
                  <path id="Path_1811" data-name="Path 1811" d="M111.81,144.461a.557.557,0,0,1,0-.113c0-.08.015-.188.026-.33.023-.3.059-.721.106-1.265.1-1.105.24-2.694.415-4.652.363-3.933.865-9.356,1.422-15.344s1.084-11.414,1.461-15.344c.191-1.958.348-3.544.456-4.649l.131-1.262c.015-.139.028-.258.039-.327a.513.513,0,0,1,.018-.113v.113a1.918,1.918,0,0,1-.023.33c-.026.3-.062.721-.108,1.265-.1,1.105-.24,2.694-.415,4.652-.363,3.933-.866,9.358-1.419,15.35s-1.087,11.409-1.461,15.339c-.193,1.958-.35,3.544-.458,4.649-.057.544-.1.969-.131,1.262-.015.142-.028.258-.039.33a.6.6,0,0,1-.018.111" transform="translate(-83.007 -75.028)" fill="#263238"/>
                  <g id="Group_667" data-name="Group 667" transform="translate(34.318 24.708)" opacity="0.2">
                    <g id="Group_666" data-name="Group 666">
                      <g id="Group_665" data-name="Group 665" clip-path="url(#clip-path-16)">
                        <path id="Path_1812" data-name="Path 1812" d="M140.713,95.92l-1.873,6.749-.783.3.538,1.69-5.368,8.062,4.83-8.518-.433-1.473,1.054-.747Z" transform="translate(-133.228 -95.92)"/>
                      </g>
                    </g>
                  </g>
                  <g id="Group_670" data-name="Group 670" transform="translate(33.097 26.117)" opacity="0.2">
                    <g id="Group_669" data-name="Group 669">
                      <g id="Group_668" data-name="Group 668" clip-path="url(#clip-path-17)">
                        <path id="Path_1813" data-name="Path 1813" d="M128.488,101.583l.492,3.513,4.781-3.707-4.245,2.354Z" transform="translate(-128.488 -101.39)"/>
                      </g>
                    </g>
                  </g>
                  <g id="Group_673" data-name="Group 673" transform="translate(20.493 59.607)" opacity="0.2">
                    <g id="Group_672" data-name="Group 672">
                      <g id="Group_671" data-name="Group 671" clip-path="url(#clip-path-18)">
                        <path id="Path_1814" data-name="Path 1814" d="M79.761,232.317l-.2,1.6s.966,1.242,1.906.981,4.874-1.978,4.874-1.978l-.059-.6s-2.3-.943-2.426-.909-4.09.909-4.09.909" transform="translate(-79.558 -231.407)"/>
                      </g>
                    </g>
                  </g>
                  <g id="Group_676" data-name="Group 676" transform="translate(28.272 59.248)" opacity="0.2">
                    <g id="Group_675" data-name="Group 675">
                      <g id="Group_674" data-name="Group 674" clip-path="url(#clip-path-19)">
                        <path id="Path_1815" data-name="Path 1815" d="M109.758,234.837l.118,1.471s7.122-.817,10.19-1.983c0,0,5.989-2.22,7.689-4.315a63.165,63.165,0,0,1-8.33,2.689Z" transform="translate(-109.758 -230.01)"/>
                      </g>
                    </g>
                  </g>
                  <path id="Path_1816" data-name="Path 1816" d="M62.567,174.386l-8.928-11.8a.731.731,0,0,0-.819-.258L39.15,167a.732.732,0,0,0-.327,1.159L49.94,181.539a.729.729,0,0,0,.811.219L63.53,177.1a.734.734,0,0,0,.322-1.149Z" transform="translate(-28.697 -120.489)" fill="#455a64"/>
                  <path id="Path_1817" data-name="Path 1817" d="M61.127,177.9a.373.373,0,1,0,0-.005v.005" transform="translate(-45.381 -131.786)" fill="#263238"/>
                  <path id="Path_1818" data-name="Path 1818" d="M71.847,174.274a.379.379,0,1,0,.366-.394.379.379,0,0,0-.366.394v0" transform="translate(-53.34 -129.09)" fill="#263238"/>
                  <path id="Path_1819" data-name="Path 1819" d="M69.97,204.25l-.716-.162s-.294-1.187-.618-1.427-3.524-1.566-4.23-1.919-3.454-1.491-3.771-.824c-.358.755.773,1.327,1.373,1.589s2.336.863,2,1.288-4.3.4-4.3.4l-.456-.531a1.93,1.93,0,0,0-.585,1.391,3.026,3.026,0,0,0,.417,1.12h.283a.791.791,0,0,0,0,.819,7.528,7.528,0,0,0,.788.917A2.805,2.805,0,0,0,62,208.155c.16.036,6.471.363,6.471.363l2.293.515Z" transform="translate(-43.547 -148.268)" fill="#ffbe9d"/>
                  <path id="Path_1820" data-name="Path 1820" d="M119.008,120.33c-.072.155-1.947,17.575-1.947,17.575l-14.7,4.456,1.4,8.637s19.86-3.557,21.91-7.282c1.744-3.168,2.161-16.64,2.246-20.607a10.425,10.425,0,0,0-.327-2.864A6.087,6.087,0,0,0,126,117.154c-1.491-1.169-7,3.176-7,3.176" transform="translate(-75.992 -86.828)" fill="#ebebeb"/>
                  <path id="Path_1821" data-name="Path 1821" d="M118.433,144.18a2.4,2.4,0,0,1-.021.258c-.021.17-.041.422-.072.744-.07.657-.17,1.612-.3,2.833-.258,2.439-.639,5.924-1.09,10.115v.039h-.036l-14.7,4.467.046-.075a1.107,1.107,0,0,0,.028.178c.482,2.962.945,5.821,1.37,8.459l-.075-.054a138.923,138.923,0,0,0,14.644-3.488c.446-.131.86-.283,1.257-.412l.574-.193.533-.2c.34-.131.659-.245.948-.361l.773-.34a5.232,5.232,0,0,0,.608-.286l.435-.229.258-.139.09-.044a.694.694,0,0,1-.085.054l-.258.147-.43.24a5.114,5.114,0,0,1-.605.3l-.773.35c-.289.121-.608.237-.948.371l-.531.2-.574.2c-.394.131-.809.288-1.257.42a131.87,131.87,0,0,1-14.644,3.539l-.064.013v-.064c-.428-2.638-.894-5.494-1.376-8.457a1.219,1.219,0,0,0-.028-.178v-.059l.057-.015,14.7-4.449-.039.046c.471-4.188.863-7.671,1.136-10.11.142-1.213.258-2.169.327-2.833.039-.322.07-.569.09-.744s.021-.24.021-.24" transform="translate(-75.829 -107.041)" fill="#263238"/>
                  <path id="Path_1822" data-name="Path 1822" d="M173.19,116.156c0,.028-.415,0-1.072.08a6.8,6.8,0,0,0-1.133.258,7.417,7.417,0,0,0-1.288.577,7.258,7.258,0,0,0-1.144.84,6.387,6.387,0,0,0-.773.855c-.4.515-.58.9-.6.891a1.1,1.1,0,0,1,.113-.258,2.689,2.689,0,0,1,.165-.3,3.736,3.736,0,0,1,.258-.379,5.916,5.916,0,0,1,.773-.889,7.092,7.092,0,0,1,1.162-.865,6.86,6.86,0,0,1,1.327-.577,5.769,5.769,0,0,1,1.157-.234,3.709,3.709,0,0,1,.453-.028,2.82,2.82,0,0,1,.343,0,1.1,1.1,0,0,1,.263.031" transform="translate(-124.115 -86.209)" fill="#263238"/>
                </g>
              </g>
            </g>
          </g>
        </g>
      </g>
      <text id="IVF_Specialist" data-name="IVF Specialist" transform="translate(63.527 34.031)" fill="#fff" font-size="25" font-family="SegoeUI-Bold, Segoe UI" font-weight="700"><tspan x="0" y="0">IVF Specialist</tspan></text>
    </g>
  </g>
</svg>
