<svg xmlns="http://www.w3.org/2000/svg" xmlns:xlink="http://www.w3.org/1999/xlink" width="341.428" height="459.988" viewBox="0 0 341.428 459.988">
  <defs>
    <filter id="Ellipse_39" x="0" y="118.56" width="341.428" height="341.428" filterUnits="userSpaceOnUse">
      <feOffset dy="9" input="SourceAlpha"/>
      <feGaussianBlur stdDeviation="12" result="blur"/>
      <feFlood flood-opacity="0.153"/>
      <feComposite operator="in" in2="blur"/>
      <feComposite in="SourceGraphic"/>
    </filter>
    <clipPath id="clip-path">
      <path id="Path_1000" data-name="Path 1000" d="M163.07,0C121.914,0,55.6,52.478,29.694,115.908,6.747,172.088,21.757,237.445,21.757,273.9a140.52,140.52,0,1,0,281.039,0c0-49.724,24.447-134.949-14.29-199.271C266.785,38.558,190.953,0,163.07,0Z" transform="translate(-16.936)" fill="none"/>
    </clipPath>
    <clipPath id="clip-path-2">
      <rect id="Rectangle_154" data-name="Rectangle 154" width="61.655" height="40.995" fill="none"/>
    </clipPath>
    <clipPath id="clip-path-3">
      <rect id="Rectangle_155" data-name="Rectangle 155" width="43.725" height="75.495" fill="none"/>
    </clipPath>
    <clipPath id="clip-path-4">
      <rect id="Rectangle_156" data-name="Rectangle 156" width="52.619" height="6.961" fill="none"/>
    </clipPath>
    <clipPath id="clip-path-5">
      <rect id="Rectangle_157" data-name="Rectangle 157" width="5.134" height="20.626" fill="none"/>
    </clipPath>
    <clipPath id="clip-path-6">
      <rect id="Rectangle_158" data-name="Rectangle 158" width="33.883" height="14.473" fill="none"/>
    </clipPath>
  </defs>
  <g id="Group_980" data-name="Group 980" transform="translate(-465.062 -2226.721)">
    <g transform="matrix(1, 0, 0, 1, 465.06, 2226.72)" filter="url(#Ellipse_39)">
      <circle id="Ellipse_39-2" data-name="Ellipse 39" cx="134.714" cy="134.714" r="134.714" transform="translate(36 145.56)" fill="#fff"/>
    </g>
    <g id="Group_806" data-name="Group 806" transform="translate(490.34 2226.721)">
      <g id="Group_337" data-name="Group 337" transform="translate(0)" clip-path="url(#clip-path)">
        <path id="Path_945" data-name="Path 945" d="M93.191,102.321c-22.1,16.1-14.814,43.283-18.911,50-1.588,2.683-3.668,5.4-3.652,8.415,0,3.3,2.493,6.256,2.747,9.527.333,4.589-3.588,8.511-6.05,12.7a21.544,21.544,0,0,0-1.874,18.355c.445,1.239,2.937,1.778,2.445,3.176-2.731,7.669,4.557,29.025,5.621,29.009,21.832-.191,43.2-21.673,64.957-23.436,4.97-.4,8.114-9.019,12.194-11.543,5.573-3.477,7.574-9.733,9.193-15.481q2.572-9.129,5.129-18.212a68.282,68.282,0,0,0,2.62-11.972c.524-5.6-.365-11.115-.6-16.815-.222-5.192.127-10.416-.619-15.576a22.532,22.532,0,0,0-6.907-14.02" transform="translate(10.854 60.144)" fill="#263238"/>
        <path id="Path_946" data-name="Path 946" d="M109.69,87.571c-14.449,3.176-29.66,14.814-34.6,28.755s-3.4,31.47-2.334,46.237c4.462-1.159,7.431.81,11.988.238,2.969-.365,5.287-2.715,7.066-5.113,4.176-5.668,6.7-12.369,9.146-18.958Q109.674,115.2,118.09,91.54" transform="translate(15.234 51.474)" fill="#263238"/>
        <path id="Path_947" data-name="Path 947" d="M152.579,127.1A36.644,36.644,0,0,0,114.5,91.943q-.672.026-1.343.078a37.726,37.726,0,0,0-34.82,37.917c.1,17.132.587,34.36,1.588,40.489,3.176,18.45,15.354,23.817,20.165,25.325a25.442,25.442,0,0,0,5.16.429.127.127,0,0,1,.127.127l-.794,21.88c.333,14.29,10.21,25.4,24.674,25.119s23.9-12.7,23.817-26.993Z" transform="translate(19.154 54.027)" fill="#ffbe9d"/>
        <path id="Path_948" data-name="Path 948" d="M84.113,125.518a2.985,2.985,0,0,0,2.953,2.953,2.908,2.908,0,0,0,3.168-2.618c0-.038.006-.075.008-.113a2.985,2.985,0,0,0-2.953-2.953,2.889,2.889,0,0,0-3.164,2.587c0,.048-.008.1-.011.144" transform="translate(22.551 72.165)" fill="#263238"/>
        <path id="Path_949" data-name="Path 949" d="M81.212,119.053c.3.381,2.826-.365,5.986.413s5.208,2.572,5.621,2.35,0-.73-.921-1.588a10.117,10.117,0,0,0-4.414-2.271,9.542,9.542,0,0,0-4.859,0c-1.1.445-1.556.905-1.413,1.1" transform="translate(20.832 69.151)" fill="#263238"/>
        <path id="Path_950" data-name="Path 950" d="M103.093,124.48a2.985,2.985,0,0,0,2.953,2.953,2.906,2.906,0,0,0,3.095-2.7l0-.027a3,3,0,0,0-2.953-2.969,2.923,2.923,0,0,0-3.1,2.736v.011" transform="translate(33.708 71.552)" fill="#263238"/>
        <path id="Path_951" data-name="Path 951" d="M101.532,121.859c.476.111,2.35-1.874,5.653-3.176s6.161-1.032,6.351-1.429-.46-.508-1.715-.635a12.576,12.576,0,0,0-5.271.826,11.362,11.362,0,0,0-4.366,2.795c-.746.969-.889,1.572-.651,1.62" transform="translate(32.728 68.536)" fill="#263238"/>
        <path id="Path_952" data-name="Path 952" d="M97.54,143.648a22.062,22.062,0,0,0-5.3-.841c-.842,0-1.588-.222-1.778-.778A4.188,4.188,0,0,1,91,139.6c.762-2,1.588-4.081,2.382-6.351,3.319-8.923,5.716-16.259,5.351-16.386s-3.35,7-6.669,15.878c-.794,2.207-1.588,4.3-2.286,6.351a4.589,4.589,0,0,0-.4,3.176,2.082,2.082,0,0,0,1.381,1.175,7.164,7.164,0,0,0,1.413.175,21.154,21.154,0,0,0,5.367.032" transform="translate(25.574 68.69)" fill="#263238"/>
        <path id="Path_953" data-name="Path 953" d="M95.479,160.84s12.591.81,28.231-8.749c0,0-4.763,16.434-28.438,14.64Z" transform="translate(29.111 89.399)" fill="#eb996e"/>
        <path id="Path_954" data-name="Path 954" d="M95.509,139.415a5.937,5.937,0,0,1,5.24-2.223,5.37,5.37,0,0,1,3.731,1.889,3.287,3.287,0,0,1,.3,3.811,4.032,4.032,0,0,1-4.271,1.143,12.415,12.415,0,0,1-4.192-2.382,3.5,3.5,0,0,1-.937-.937,1.047,1.047,0,0,1,0-1.191" transform="translate(29.066 80.625)" fill="#eb996e"/>
        <path id="Path_955" data-name="Path 955" d="M101.176,113.489c.429.826,3.6,0,7.447-.111s7.05.508,7.447-.333c.175-.4-.46-1.127-1.81-1.794a13.1,13.1,0,0,0-11.353.333c-1.318.746-1.921,1.508-1.731,1.905" transform="translate(32.561 64.727)" fill="#263238"/>
        <path id="Path_956" data-name="Path 956" d="M81.645,113.145c.587.715,2.826-.079,5.526-.143s4.986.4,5.51-.365c.222-.381-.143-1.1-1.143-1.778a7.707,7.707,0,0,0-4.509-1.111,7.8,7.8,0,0,0-4.382,1.588c-.953.715-1.254,1.461-1,1.81" transform="translate(21.05 64.5)" fill="#263238"/>
        <path id="Path_957" data-name="Path 957" d="M95.688,87.4c-3.906,9.654,1.1,20.641,10.543,24.928,4.081,1.89,9.193,2.763,11.385,6.685,1.715,3.033,1.08,7.1,3.176,9.86s5.7,3.176,8.463,4.922c3.779,2.461,5.494,7.129,6.129,11.591s.445,9.035,1.588,13.4,4.017,8.685,8.384,9.765c2.017-12.877,3.779-25.945,2.366-38.9s-6.351-25.929-15.878-34.789S107.612,82.161,95.7,87.4" transform="translate(28.57 49.978)" fill="#263238"/>
        <path id="Path_958" data-name="Path 958" d="M138.741,215.273a17.673,17.673,0,0,1-14.528-16.005c-.6-7.558,0-15.783-1.35-20.022-2.255-7.542-5.954-6.351-6.51-14.29s4.541-15.878,3.176-22.721-3.477-5.113-6.986-15.878-9.749-13.369-9.749-13.369l3.35-26.326-2.6-1.588c15.672-.27,33.693,9.4,39.838,23.817,3.1,7.272,4.192,15.751,9.7,21.419,3.477,3.557,8.415,5.621,11.321,9.67,6.208,8.654.286,21.324,4.414,31.137,1.858,4.4,5.97,7.4,8.431,11.48,12.512,20.88,2,36.758,2,36.758Z" transform="translate(33.532 50.003)" fill="#263238"/>
        <path id="Path_959" data-name="Path 959" d="M70.43,153.421c1.588-2.842,3.4-6.065,2.62-9.273-.54-2.239-2.223-4.033-3.017-6.208a10.826,10.826,0,0,1,.349-8.495c.905-2.763,2.223-5.367,2.937-8.177.556-2.239.73-4.589,1.508-6.764a7.067,7.067,0,0,1,4.636-4.763c2.144,10.194-1.27,20.641-1.238,31.089a17.838,17.838,0,0,1-.667,6.764c-.857,2.128-3.176,3.922-5.3,3.35" transform="translate(13.862 64.506)" fill="#263238"/>
        <path id="Path_960" data-name="Path 960" d="M165.46,215.579a10.5,10.5,0,0,0,.556-1.508,11.494,11.494,0,0,0,.46-4.509,19.328,19.328,0,0,0-2.08-6.875,67.458,67.458,0,0,0-5.3-8.05,26.231,26.231,0,0,1-5.033-10.622c-.826-4.224-.429-8.8-.46-13.5a29.606,29.606,0,0,0-.794-7.129,13.6,13.6,0,0,0-3.573-6.351c-1.762-1.81-3.97-3.287-5.97-5.1a14.867,14.867,0,0,1-4.43-6.923c-1.588-5.43-.842-10.892-1.493-15.878a29.867,29.867,0,0,0-15.116-22.324c-3.668-2-7.367-3.334-10.67-4.763a41.234,41.234,0,0,1-8.574-4.589,21.158,21.158,0,0,1-5.16-5.208,13.373,13.373,0,0,1-1.985-4.176,7.52,7.52,0,0,1-.3-1.588s.127.54.46,1.588a14.632,14.632,0,0,0,2.08,4.065,21.75,21.75,0,0,0,5.176,5,40.23,40.23,0,0,0,8.526,4.43,106.35,106.35,0,0,1,10.781,4.763,30.035,30.035,0,0,1,10.114,8.939,30.478,30.478,0,0,1,5.478,13.877c.667,5.176,0,10.622,1.477,15.8a13.768,13.768,0,0,0,4.192,6.542c1.937,1.778,4.144,3.255,5.986,5.145a14.275,14.275,0,0,1,3.763,6.732,30.639,30.639,0,0,1,.794,7.3c0,4.763-.4,9.273.365,13.385a25.907,25.907,0,0,0,4.843,10.416,64.455,64.455,0,0,1,5.24,8.177,19.245,19.245,0,0,1,2.017,7.05,10.978,10.978,0,0,1-.619,4.589,6.119,6.119,0,0,1-.746,1.286" transform="translate(29.264 50.84)" fill="#455a64"/>
        <path id="Path_961" data-name="Path 961" d="M107.9,136.813c.159.445-2.858,1.874-6.351,3.922s-6.351,3.938-6.589,3.588,2.064-2.89,5.748-5.017,7.066-2.922,7.193-2.493" transform="translate(28.917 80.353)" fill="#263238"/>
        <path id="Path_962" data-name="Path 962" d="M146.067,296.655s-93.823-40.7-111.289-40.394c-9.749.175-26.469,4.557-29.946,14.973s-5.208,23.055-4.763,30.8S48.655,434.381,48.655,434.381l41.934-14.5L73.822,341.526l73.468-.429Z" transform="translate(-26.89 150.63)" fill="#ffbe9d"/>
        <path id="Path_963" data-name="Path 963" d="M86.831,173.331,105.885,168l36.043-2.795,32.995,5.049L137.085,215.3H106.726s-21.578-8.272-22.42-9.035,2.255-31.5,2.255-31.5" transform="translate(22.58 97.105)" fill="#ffbe9d"/>
        <path id="Path_964" data-name="Path 964" d="M103.25,170.593s-34.36,6.351-40,18.45c0,0,26.31,92.251,30.994,99.3s10.956,18.768,9,23.468-7.431,7.034-5.081,13.687c0,0,3.906,18.387,41.076,17.99s64.544-10.94,75.5-6.637,8.209-8.606,3.509-14.084-7.431-15.259-8.606-22.309-7.59-129.295-7.59-129.295l-32.979-4.414s-.159,33.582-34.455,35.535-31.375-31.693-31.375-31.693" transform="translate(10.29 98.017)" fill="#e17296"/>
        <g id="Group_324" data-name="Group 324" transform="translate(84.498 334.347)" opacity="0.3">
          <g id="Group_323" data-name="Group 323">
            <g id="Group_322" data-name="Group 322" clip-path="url(#clip-path-2)">
              <path id="Path_965" data-name="Path 965" d="M107.864,210.745a55.972,55.972,0,0,0-21.229,4.875,29.772,29.772,0,0,0-15,15.306c-2.652,6.812-1.794,15.148,3.049,20.641l10.337-1.588c.921-4.668,4.954-8.034,8.908-10.686s8.3-5.271,10.464-9.527c1.111-2.207,1.588-4.763,3.064-6.716,2.731-3.668,7.939-4.255,12.417-4.684s9.733-1.461,11.94-5.446a76.392,76.392,0,0,0-23.944-2.175" transform="translate(-70.153 -210.572)"/>
            </g>
          </g>
        </g>
        <path id="Path_966" data-name="Path 966" d="M157.574,169.481s6.351.6,13.48,11.607,13.973,62.083,13.973,62.083l-43.966,1.778s-3.874-17.228-2.382-22.229,18.895-53.239,18.895-53.239" transform="translate(54.425 99.621)" fill="#e17296"/>
        <path id="Path_967" data-name="Path 967" d="M69.85,179.3A41.275,41.275,0,0,0,62.53,197c-1.493,10.178-3.906,18.831-5,24.532s-2.906,16.831-2.906,16.831l34.169,1.1Z" transform="translate(5.217 105.393)" fill="#e17296"/>
        <path id="Path_968" data-name="Path 968" d="M76.62,227.316c-.222,0-2.271-7.748-4.557-17.466s-3.985-17.561-3.763-17.609,2.255,7.749,4.557,17.466,3.985,17.561,3.763,17.609" transform="translate(13.245 112.999)" fill="#263238"/>
        <g id="Group_327" data-name="Group 327" transform="translate(174.608 357.829)" opacity="0.3">
          <g id="Group_326" data-name="Group 326">
            <g id="Group_325" data-name="Group 325" clip-path="url(#clip-path-3)">
              <path id="Path_969" data-name="Path 969" d="M168.344,282.776q-8.7-20.642-17.466-41.2c-2.048-4.843-4.239-9.892-8.3-13.226s-10.591-4.3-14.4-.683l-.683.984a12.7,12.7,0,0,0,.7,9.384c1.254,2.953,3.176,5.621,4.621,8.463,6.351,11.988,5.811,26.405,10.479,39.123a28.076,28.076,0,0,0,6.462,10.7,15.039,15.039,0,0,0,11.353,4.525,10.353,10.353,0,0,0,9.241-7.336c.921-3.6-.572-7.32-2-10.734" transform="translate(-126.904 -225.361)"/>
            </g>
          </g>
        </g>
        <path id="Path_970" data-name="Path 970" d="M139.636,189.961c.1,0,0,1.477.175,3.858.111,2.683.238,5.827.381,9.3s.3,6.939.349,9.32a18.592,18.592,0,0,1,0,3.874,18.226,18.226,0,0,1-.508-3.842c-.222-2.382-.445-5.668-.6-9.32s-.222-6.939-.143-9.336a11.328,11.328,0,0,1,.349-3.858" transform="translate(54.961 111.659)" fill="#263238"/>
        <path id="Path_971" data-name="Path 971" d="M151.963,253.891a11.117,11.117,0,0,1-2.239.588c-1.461.333-3.573.746-6.208,1.191a158.606,158.606,0,0,1-41.521,1.3c-2.652-.27-4.763-.556-6.351-.794a14.76,14.76,0,0,1-2.271-.445,11.117,11.117,0,0,1,2.318.127c1.477.143,3.62.333,6.351.524a198.6,198.6,0,0,0,20.737.476,202.835,202.835,0,0,0,20.641-1.762c2.636-.365,4.763-.7,6.224-.937a12.24,12.24,0,0,1,2.318-.27" transform="translate(27.995 149.238)" fill="#263238"/>
        <path id="Path_972" data-name="Path 972" d="M151.209,258.283a10.343,10.343,0,0,1-1.969.127l-5.367.1c-4.541.079-10.8.254-17.7.683s-13.147,1-17.656,1.461l-5.335.556a9.769,9.769,0,0,1-1.985.111,8.789,8.789,0,0,1,1.937-.429c1.254-.238,3.064-.508,5.319-.826,4.493-.6,10.749-1.286,17.672-1.7s13.195-.508,17.736-.445c2.271,0,4.112.1,5.383.175a8.211,8.211,0,0,1,1.969.191" transform="translate(32.591 151.594)" fill="#263238"/>
        <path id="Path_973" data-name="Path 973" d="M134.4,240.89a4.924,4.924,0,0,1-1.493.159,35.536,35.536,0,0,1-4.112-.1,50.443,50.443,0,0,1-13.29-2.747,51.93,51.93,0,0,1-12.1-6.129,34.58,34.58,0,0,1-3.255-2.509c-.73-.635-1.127-1-1.08-1.048s1.762,1.223,4.668,3.064a60.159,60.159,0,0,0,12.051,5.843,59.513,59.513,0,0,0,13.052,2.953c3.414.365,5.557.365,5.557.508" transform="translate(31.344 134.325)" fill="#263238"/>
        <g id="Group_330" data-name="Group 330" transform="translate(127.671 403.129)" opacity="0.3">
          <g id="Group_329" data-name="Group 329">
            <g id="Group_328" data-name="Group 328" clip-path="url(#clip-path-4)">
              <path id="Path_974" data-name="Path 974" d="M97.343,256.463h0c16.751,6.526,36.742,5.859,52.62-2.572a168.658,168.658,0,0,1-52.62,2.572" transform="translate(-97.343 -253.891)"/>
            </g>
          </g>
        </g>
        <g id="Group_333" data-name="Group 333" transform="translate(81.937 307.908)" opacity="0.3">
          <g id="Group_332" data-name="Group 332">
            <g id="Group_331" data-name="Group 331" clip-path="url(#clip-path-5)">
              <path id="Path_975" data-name="Path 975" d="M68.752,193.921l-.1.111a33.184,33.184,0,0,0,5.017,20.514c-1.493-6.573-2.969-13.75-4.922-20.626" transform="translate(-68.54 -193.921)"/>
            </g>
          </g>
        </g>
        <path id="Path_976" data-name="Path 976" d="M162.449,166.981a5.515,5.515,0,0,1-.159,1.238c-.127.794-.333,1.969-.635,3.493a67.3,67.3,0,0,1-3.62,12.544,33.373,33.373,0,0,1-4.557,7.828,30.876,30.876,0,0,1-7.844,6.843,63.853,63.853,0,0,1-10.289,5.081,58.524,58.524,0,0,1-11.861,3.35,36.041,36.041,0,0,1-23.245-3.43,29.225,29.225,0,0,1-12.528-14.576,27.842,27.842,0,0,1-1.921-7.224,28.231,28.231,0,0,1-.206-5.637,21.47,21.47,0,0,1,.842-4.763c.111,0-.365,1.683-.524,4.763a30,30,0,0,0,.349,5.557,27.761,27.761,0,0,0,2,7.066A28.877,28.877,0,0,0,100.62,203.2a35.57,35.57,0,0,0,22.753,3.271,57.791,57.791,0,0,0,11.7-3.287,63.852,63.852,0,0,0,10.178-4.97,30.064,30.064,0,0,0,7.7-6.621,33.017,33.017,0,0,0,4.557-7.621,71.49,71.49,0,0,0,3.842-12.4c.333-1.429.587-2.588.794-3.446a8.129,8.129,0,0,1,.3-1.143" transform="translate(23.383 98.152)" fill="#263238"/>
        <path id="Path_977" data-name="Path 977" d="M107.535,243.1a5.609,5.609,0,0,1-.127.984,26.6,26.6,0,0,0-.318,2.826,31.443,31.443,0,0,0,.905,10.7,27.133,27.133,0,0,0,8.86,13.893A30.8,30.8,0,0,0,136.91,278.8h2.032l-1.921.7c-8.669,3.176-19.689,1.778-28.739-4.033a34.208,34.208,0,0,1-11.242-12A32.218,32.218,0,0,1,93.1,246.707a31.5,31.5,0,0,1,1.858-9.273c.572-1.461,1.27-2.842,1.889-4.255l.953-2.1c.365-.667.794-1.3,1.175-1.953l1.191-1.953a12.433,12.433,0,0,1,1.27-1.858l2.81-3.493,3.176-3.049c1.08-.984,2.318-1.762,3.461-2.636a39.708,39.708,0,0,1,15.259-6.129c1.286-.254,2.6-.349,3.874-.54a23.813,23.813,0,0,1,3.827-.159,40.01,40.01,0,0,1,7.352.572l1.238.222-1.191.429a83.526,83.526,0,0,0-18.18,8.828,45.244,45.244,0,0,0-11.4,10.368,32.26,32.26,0,0,0-4.763,8.622c-.4,1.08-.572,1.937-.762,2.493s-.286.841-.286.841a3.228,3.228,0,0,1,.191-.873c.191-.588.3-1.429.667-2.525a31.259,31.259,0,0,1,4.636-8.8,45.435,45.435,0,0,1,11.416-10.575,82.8,82.8,0,0,1,18.244-9.019v.651a39.5,39.5,0,0,0-33.106,8.828l-3.176,3-2.747,3.414a12.092,12.092,0,0,0-1.238,1.842l-1.159,1.905c-.4.635-.794,1.27-1.175,1.921l-.921,2.064c-.619,1.4-1.3,2.763-1.858,4.192a30.258,30.258,0,0,0-1.81,9.019,31.552,31.552,0,0,0,3.938,16.18,33.338,33.338,0,0,0,10.956,11.734c8.844,5.7,19.625,7.1,28.088,4.049l.111.667a31.2,31.2,0,0,1-20.419-7.463,27.338,27.338,0,0,1-8.876-14.29,30.97,30.97,0,0,1-.746-10.829,24.585,24.585,0,0,1,.667-3.684" transform="translate(27.821 123.03)" fill="#fff"/>
        <g id="Group_336" data-name="Group 336" transform="translate(131.355 363.592)" opacity="0.3">
          <g id="Group_335" data-name="Group 335">
            <g id="Group_334" data-name="Group 334" clip-path="url(#clip-path-6)">
              <path id="Path_978" data-name="Path 978" d="M99.663,228.991l.54.54a25.167,25.167,0,0,0,33.344,11.48,54.721,54.721,0,0,1-33.884-12.02" transform="translate(-99.663 -228.991)"/>
            </g>
          </g>
        </g>
        <path id="Path_979" data-name="Path 979" d="M61.756,216.711c0,.826-2.493,56.351-2.493,56.351,1.286,10.21,7.415,15.783,18.831,16.243l7.288-20.2L84.1,217.473Z" transform="translate(7.945 127.383)" fill="#ffbe9d"/>
        <path id="Path_980" data-name="Path 980" d="M83.193,210.386l20.959-.9a77.273,77.273,0,0,1,12.544-.81,37.8,37.8,0,0,0,8.987-.524s11.734-1.191,14.052,0c3.652,1.89,2.652,5.51-3.731,5.78s-9.32-.143-13.052.715a50.846,50.846,0,0,1-11.258,1.016c-3.588,0-28.136.27-28.136.27-2.35-2-.365-5.541-.365-5.541" transform="translate(21.55 122.038)" fill="#e0e0e0"/>
        <path id="Path_981" data-name="Path 981" d="M105.613,208.691l-22.42,1.064s-1.985,3.541.365,5.541c0,0,18.927-.222,22.5-.222Z" transform="translate(21.55 122.669)" fill="#455a64"/>
        <path id="Path_982" data-name="Path 982" d="M99.347,211.163v.143a1.477,1.477,0,0,0,1.493,1.318l8.717-.27a1.46,1.46,0,0,0,1.418-1.5.776.776,0,0,0,0-.086,1.462,1.462,0,0,0-1.477-1.366l-8.733.127a1.46,1.46,0,0,0-1.423,1.5,1.339,1.339,0,0,0,.01.138" transform="translate(31.5 123.086)" fill="#fff"/>
        <path id="Path_983" data-name="Path 983" d="M64.16,218.375a8.869,8.869,0,0,1,.762-5.621c1.413-2.144,14.5-6.24,21.181-6.478s12.7-1.794,13.512,2.461c.445,2.62-3.446,4.017-6.478,4.652-2.763.572-18.561,4.621-18.561,4.621s30.184-5.43,32.28-2.255,0,5.129,0,5.129,3.731,1.35.953,5.176l-2.286,1.159a2.826,2.826,0,0,1,.149,3.995c-.048.051-.1.1-.149.149-1.985,2.493-12.941,8.3-12.941,8.3s1.318,3.985-2.493,8.3a125.141,125.141,0,0,0,0,20.641c1,9.289-3.176,25.722-13.115,27.215S62.032,282.4,61.206,276.584,64.525,263.469,68,255.5s4.652-8.638,4.652-8.638a9.138,9.138,0,0,1-3.477-4.144l-.842-2.493s-4.176-1.318-4.239-4.636.762-4.16.762-4.16-4.208-2.318-3.763-5.811a19.194,19.194,0,0,1,3.064-7.24" transform="translate(9.002 120.972)" fill="#ffbe9d"/>
        <path id="Path_984" data-name="Path 984" d="M103.723,214.731a38.435,38.435,0,0,1-5.256,1.35l-12.7,2.906-12.7,2.937a36.974,36.974,0,0,1-5.319,1.064,33.134,33.134,0,0,1,5.176-1.588c3.176-.889,7.717-2.032,12.7-3.176s9.527-2.064,12.814-2.667a32.347,32.347,0,0,1,5.287-.826" transform="translate(12.929 126.219)" fill="#eb996e"/>
        <path id="Path_985" data-name="Path 985" d="M100.6,218.991a20.492,20.492,0,0,1-4.049,2.112c-2.572,1.159-6.177,2.652-10.241,4.081s-7.812,2.509-10.543,3.176a22.173,22.173,0,0,1-4.478.889,29.527,29.527,0,0,1,4.319-1.445c2.683-.826,6.351-2,10.432-3.414s7.669-2.81,10.273-3.842a31.858,31.858,0,0,1,4.287-1.556" transform="translate(15.016 128.723)" fill="#eb996e"/>
        <path id="Path_986" data-name="Path 986" d="M87.723,226.691a12.039,12.039,0,0,1-2.318,1.588c-1.477.857-3.461,2.144-5.843,3.319a18.868,18.868,0,0,0-3.176,1.683c-.857.651-1.588,1.445-2.239,1.985-1.445,1.159-2.747.953-2.683.842a5.9,5.9,0,0,0,2.3-1.286c.619-.556,1.223-1.366,2.144-2.144a16.463,16.463,0,0,1,3.287-1.826c2.3-1.143,4.351-2.35,5.907-3.1a7.809,7.809,0,0,1,2.62-1.064" transform="translate(15.115 133.249)" fill="#eb996e"/>
        <path id="Path_987" data-name="Path 987" d="M83.973,233.089a5.135,5.135,0,0,1-2.064,1.445,11.75,11.75,0,0,1-11.686-1c-1.27-.905-1.842-1.7-1.778-1.762a15.632,15.632,0,0,1,2.1,1.27,12.906,12.906,0,0,0,11.115.953,15.35,15.35,0,0,1,2.318-.905" transform="translate(13.339 136.235)" fill="#eb996e"/>
        <path id="Path_988" data-name="Path 988" d="M74.68,242.69h-.746a5.681,5.681,0,0,1-1.921-.873,8.655,8.655,0,0,1-2.318-2.318,7.949,7.949,0,0,1-1.381-4.017l.333.349a5,5,0,0,1-4.557-4.065,10.241,10.241,0,0,1-.3-2.239,4.619,4.619,0,0,1,.905-3.176l.127.635a9.733,9.733,0,0,1-2.636-1.953,5.337,5.337,0,0,1-1.27-2.795,9.341,9.341,0,0,1,.937-4.859,9.236,9.236,0,0,1,2.4-3.7,31.833,31.833,0,0,0-1.905,3.89,9.529,9.529,0,0,0-.715,4.557,4.771,4.771,0,0,0,1.143,2.4,9.426,9.426,0,0,0,2.429,1.747l.445.238-.333.381a3.867,3.867,0,0,0-.7,2.572,7.054,7.054,0,0,0,1.064,3.89,4.587,4.587,0,0,0,3.049,1.7h.318v.318a7.3,7.3,0,0,0,1.159,3.7,8.474,8.474,0,0,0,2.048,2.3,11.1,11.1,0,0,0,2.429,1.318" transform="translate(8.898 125.602)" fill="#eb996e"/>
        <path id="Path_989" data-name="Path 989" d="M71.994,231.591c.206.127-2.191,4.652-4.843,10.4s-4.636,10.464-4.859,10.384a12.351,12.351,0,0,1,.969-3.176c.715-1.953,1.794-4.621,3.176-7.494s2.683-5.43,3.715-7.224a13.051,13.051,0,0,1,1.842-2.89" transform="translate(9.726 136.13)" fill="#eb996e"/>
        <path id="Path_990" data-name="Path 990" d="M133.1,241.142c.206.778,8.368,50.54,18.482,57.939s15.545,5.637,18.657,2.525,8.368-7.193,9.146-17.879,2.62-67.656,2.62-67.656l-27.548,1.048-3.938,12.147Z" transform="translate(51.348 127.007)" fill="#ffbe9d"/>
        <path id="Path_991" data-name="Path 991" d="M170.96,274.365a19.155,19.155,0,0,0-1.381-8.05,34.466,34.466,0,0,0-4.525-7.669c-2.032-2.7-4.366-5.637-6.637-8.828a190.759,190.759,0,0,1-10.829-16.942c-1.27-2.239-2.223-4.081-2.874-5.367a12.1,12.1,0,0,1-.921-2.048A13.059,13.059,0,0,1,145,227.35l3.176,5.224c2.636,4.4,6.351,10.4,10.988,16.751,2.271,3.176,4.557,6.129,6.574,8.876a33.392,33.392,0,0,1,4.478,7.939,16.817,16.817,0,0,1,1.111,6.034,10.036,10.036,0,0,1-.127,1.588,1.433,1.433,0,0,0-.238.6" transform="translate(57.631 132.526)" fill="#eb996e"/>
        <path id="Path_992" data-name="Path 992" d="M118.658,212.87a4.319,4.319,0,0,1-3.588-2.922,2.335,2.335,0,0,1,.191-2.1c1.334-1.953,4.414-2.207,8.828-2.922s15.465.1,16.529,0,20.308,3.176,21.991,5.3.794,7.59.794,7.59a10.056,10.056,0,0,1,2.461,4.16c1.239,3.176-1.842,5.653-2.032,7.764s0,5.033-.873,6.542-4.763,3.271-4.763,3.271,1.064,2.286-1.588,5.462-4.414,6.812-7.764,6.446-6.955-.794-8.288-3.255a28.786,28.786,0,0,1-2.048-7.24,80.953,80.953,0,0,1-9.527-4.033c-1.937-1.27-6.1-4.017-4.144-6.748a4.349,4.349,0,0,1-4.017-2.985c-.413-1.445-.143-1.588.826-2.4a14.053,14.053,0,0,1,2.922-1.778s-10.241-5.1-9.8-7.256c0,0,6.351.286,7.733-2.366Z" transform="translate(40.562 120.284)" fill="#ffbe9d"/>
        <path id="Path_993" data-name="Path 993" d="M154.982,214.48a6.5,6.5,0,0,1-1.461-.81,30.852,30.852,0,0,0-3.954-2.112,17.619,17.619,0,0,0-6.446-1.27c-1.254,0-2.572-.143-3.922-.111a37.685,37.685,0,0,0-4.176.524c-5.748.826-11.115,1.461-14.513,2.858a3.174,3.174,0,0,0-2.016,3.35,2.841,2.841,0,0,0,.826,1.334s-.73-.127-1.127-1.238a2.758,2.758,0,0,1,.143-2.048,4.4,4.4,0,0,1,1.905-1.905c3.62-1.588,8.892-2.334,14.671-3.176a38.61,38.61,0,0,1,4.271-.524c1.4,0,2.731.079,4,.175a17.169,17.169,0,0,1,6.621,1.493,23.967,23.967,0,0,1,3.89,2.382,6.651,6.651,0,0,1,1.286,1.08" transform="translate(42.505 123.057)" fill="#eb996e"/>
        <path id="Path_994" data-name="Path 994" d="M152.425,220.677a33.6,33.6,0,0,0-4.319-2.271,31,31,0,0,0-11.527-1.794c-4.62,0-8.828.254-11.893,0a19.442,19.442,0,0,1-3.588-.572,3.685,3.685,0,0,1-1.254-.46c0-.143,1.858.381,4.875.445s7.209-.3,11.861-.3a28.166,28.166,0,0,1,11.75,2.08,15.034,15.034,0,0,1,3.176,1.874c.635.587.953.953.921,1" transform="translate(43.554 126.704)" fill="#eb996e"/>
        <path id="Path_995" data-name="Path 995" d="M129.389,210.559a22.214,22.214,0,0,1-9.956-.238,19.06,19.06,0,0,1,4.986-.143,19.851,19.851,0,0,1,4.97.381" transform="translate(43.313 123.484)" fill="#eb996e"/>
        <path id="Path_996" data-name="Path 996" d="M147.588,226.792a24.721,24.721,0,0,1-3.906-.715c-2.413-.476-5.732-1.048-9.447-1.492a46.963,46.963,0,0,1-9.352-2.414,19.578,19.578,0,0,1-3.7-1.461,17.181,17.181,0,0,1,3.874.905,62.5,62.5,0,0,0,9.273,2.144,70.48,70.48,0,0,1,9.527,1.747,14.92,14.92,0,0,1,3.731,1.286" transform="translate(44.341 129.734)" fill="#eb996e"/>
        <path id="Path_997" data-name="Path 997" d="M150.379,221.114a22.431,22.431,0,0,1-4.319-.778c-2.652-.572-6.351-1.413-10.321-2.175a103.656,103.656,0,0,0-10.416-1.429,29.845,29.845,0,0,1-4.351-.429,18.573,18.573,0,0,1,4.382-.159,71.283,71.283,0,0,1,10.543,1.207c4.065.762,7.685,1.7,10.3,2.413a23.508,23.508,0,0,1,4.176,1.35" transform="translate(44.218 127.013)" fill="#eb996e"/>
        <path id="Path_998" data-name="Path 998" d="M140.408,232.65c0,.1-.651.445-1.826.318a8.7,8.7,0,0,1-4.065-1.842c-1.366-1.048-2.493-2.032-3.414-2.6s-1.588-.81-1.508-.921.746-.079,1.794.413a20.434,20.434,0,0,1,3.62,2.445,10.485,10.485,0,0,0,3.668,1.921c1.016.27,1.7.143,1.731.27" transform="translate(49.282 133.753)" fill="#eb996e"/>
        <path id="Path_999" data-name="Path 999" d="M156.674,245.184a12.522,12.522,0,0,0,.81-1.27,6.586,6.586,0,0,0,.7-1.7,4.247,4.247,0,0,0,0-2.429v-.143h.127a19.775,19.775,0,0,0,3.922-2.413,3.445,3.445,0,0,0,1.207-2.286,20.638,20.638,0,0,0,.238-3.064,10.324,10.324,0,0,1,.079-1.588,4.6,4.6,0,0,1,.46-1.762,27.668,27.668,0,0,0,1.588-3.176,4.517,4.517,0,0,0,.254-1.778,5.681,5.681,0,0,0-.54-1.794,10.535,10.535,0,0,0-2.112-3.334l-.143-.143v-.175a19.044,19.044,0,0,0,.1-4.938,5.3,5.3,0,0,0-.794-2.3,5.593,5.593,0,0,0-2.191-1.143,87.862,87.862,0,0,0-11.115-2.7q-2.922-.572-6-1.048l-1.588-.222a9.306,9.306,0,0,0-1.588-.079l-3.176-.127c-2.128-.079-4.287-.143-6.462-.159a41.163,41.163,0,0,0-6.558.349c-1.731.27-3.446.492-5.081.905a7.474,7.474,0,0,0-2.223.905,2.35,2.35,0,0,0-1.159,1.731,3.747,3.747,0,0,0,2.556,3.334,14.734,14.734,0,0,0,2.35.4l2.4.333.572.079-.27.508a3.9,3.9,0,0,1-1.762,1.588,8.668,8.668,0,0,1-2.1.667,17.763,17.763,0,0,1-4.192.318l.4-.3a2.1,2.1,0,0,0,.587,1.08,9.155,9.155,0,0,0,1.143,1.048,30.409,30.409,0,0,0,2.54,1.794c1.747,1.1,3.509,2.08,5.24,2.985l.635.318-.651.318a14.461,14.461,0,0,0-2.525,1.445c-.746.572-1.318,1.286-1.1,2.1a4.368,4.368,0,0,0,3.779,2.985h.508l-.3.413a2.3,2.3,0,0,0-.143,2.477,6.7,6.7,0,0,0,1.715,2.048,17.756,17.756,0,0,0,4.239,2.763c2.906,1.35,5.494,2.334,7.606,3.176h.1v.1a36.937,36.937,0,0,0,1.207,5.462c.381,1.207.7,1.778.667,1.81a8.208,8.208,0,0,1-.842-1.762,31.9,31.9,0,0,1-1.381-5.462l.111.143c-2.128-.778-4.763-1.715-7.685-3.033a18.155,18.155,0,0,1-4.4-2.779,7.509,7.509,0,0,1-1.826-2.366,2.889,2.889,0,0,1,.175-3.1l.206.476a6.04,6.04,0,0,1-2.636-1,4.218,4.218,0,0,1-1.715-2.445,2.241,2.241,0,0,1,.238-1.588,4.466,4.466,0,0,1,1.08-1.159,14.879,14.879,0,0,1,2.668-1.588v.635c-1.762-.889-3.541-1.874-5.319-2.985a30.169,30.169,0,0,1-2.62-1.826,11.415,11.415,0,0,1-1.238-1.111,2.366,2.366,0,0,1-.778-1.762v-.318h.413a17.9,17.9,0,0,0,4-.318,4.877,4.877,0,0,0,3.3-1.826l.3.588-2.4-.318a14.752,14.752,0,0,1-2.493-.445,4.542,4.542,0,0,1-3.176-4.144,2.407,2.407,0,0,1,.508-1.381,3.994,3.994,0,0,1,1.016-.984,8.361,8.361,0,0,1,2.477-1.032c1.715-.429,3.43-.635,5.16-.921a41.453,41.453,0,0,1,6.685-.349c2.191,0,4.366.1,6.494.175l3.176.127a9.484,9.484,0,0,1,1.588.1L143.3,205c2.048.318,4.065.683,6.034,1.064a88.963,88.963,0,0,1,11.21,2.795,10.046,10.046,0,0,1,1.3.524,4.262,4.262,0,0,1,.635.349,2.64,2.64,0,0,1,.588.524,5.941,5.941,0,0,1,.905,2.636,19.051,19.051,0,0,1-.127,5.145l-.127-.318a10.6,10.6,0,0,1,2.286,3.62,5.942,5.942,0,0,1,.572,1.985,4.773,4.773,0,0,1-.3,2.016,26.3,26.3,0,0,1-1.588,3.287,7.534,7.534,0,0,0-.524,3.176,21.728,21.728,0,0,1-.286,3.176,5.6,5.6,0,0,1-.476,1.429,3.894,3.894,0,0,1-.921,1.1,19.64,19.64,0,0,1-4.049,2.382v-.222a4.248,4.248,0,0,1,0,2.636,6.741,6.741,0,0,1-.778,1.715,6.339,6.339,0,0,1-.984,1.175" transform="translate(40.479 120.123)" fill="#eb996e"/>
      </g>
    </g>
  </g>
</svg>
