<svg xmlns="http://www.w3.org/2000/svg" xmlns:xlink="http://www.w3.org/1999/xlink" width="197.424" height="235.053" viewBox="0 0 197.424 235.053">
  <defs>
    <filter id="Ellipse_39" x="0" y="37.629" width="197.424" height="197.424" filterUnits="userSpaceOnUse">
      <feOffset dy="9" input="SourceAlpha"/>
      <feGaussianBlur stdDeviation="12" result="blur"/>
      <feFlood flood-opacity="0.153"/>
      <feComposite operator="in" in2="blur"/>
      <feComposite in="SourceGraphic"/>
    </filter>
    <clipPath id="clip-path">
      <path id="Path_911" data-name="Path 911" d="M250.842,0c-18.874,0-49.284,24.067-61.166,53.157-10.524,25.763-3.641,55.736-3.641,72.452a64.443,64.443,0,1,0,128.886,0c0-22.8,11.211-61.887-6.554-91.385C298.405,17.683,263.629,0,250.842,0Z" transform="translate(-183.824)" fill="none"/>
    </clipPath>
  </defs>
  <g id="Group_500" data-name="Group 500" transform="translate(-459.331 -2229.853)">
    <g transform="matrix(1, 0, 0, 1, 459.33, 2229.85)" filter="url(#Ellipse_39)">
      <circle id="Ellipse_39-2" data-name="Ellipse 39" cx="62.712" cy="62.712" r="62.712" transform="translate(36 64.63)" fill="#fff"/>
    </g>
    <g id="Group_804" data-name="Group 804" transform="translate(308.182 2229.853)">
      <g id="Group_318" data-name="Group 318" transform="translate(183.824)" clip-path="url(#clip-path)">
        <path id="Path_826" data-name="Path 826" d="M302.719,189.915s2.635,7.737,16.875,23.326c5.251,5.747,9.69,6.123,13.17,3.5,5.833-4.4-.525-13.811-.525-13.811l-19.007-25.775a9.146,9.146,0,0,0-6.112-3.869Z" transform="translate(-216.143 -47.105)" fill="#ffbf9d"/>
        <path id="Path_827" data-name="Path 827" d="M234.858,191.369l-5.817-13.152s-8.4,2.635-10.216,13.395c-1.405,8.33.425,36.709.425,36.709l10.208,8.9c4.081-9.69,4.587-28.182,4.587-28.182Z" transform="translate(-193.194 -48.444)" fill="#ffbf9d"/>
        <path id="Path_828" data-name="Path 828" d="M293.02,250.889l-7.957-23.908,4.558-29.029-.5-26.08L271.7,168.544l-20.732.716-17.919,6.123,3.63,20.74,1.879,31.321L234.2,250.889Z" transform="translate(-197.205 -45.815)" fill="#5d51a3"/>
        <path id="Path_829" data-name="Path 829" d="M217.758,194.637l16.235,8.2-1.416-26.625s-9.843,3.146-12.276,9.623-2.542,8.8-2.542,8.8" transform="translate(-193.048 -47.899)" fill="#5d51a3"/>
        <path id="Path_830" data-name="Path 830" d="M309,198.531l2.747,4.219,5.635-7.853-4.555-19.645a6.737,6.737,0,0,0-5.367-2.173Z" transform="translate(-217.431 -47.041)" fill="#5d51a3"/>
        <path id="Path_831" data-name="Path 831" d="M311.211,182.834a1.4,1.4,0,0,1,.023.276c0,.2,0,.462.022.794,0,.686.03,1.681.023,2.911,0,2.46-.111,5.859-.373,9.6s-.685,7.119-1.036,9.552c-.175,1.219-.331,2.2-.451,2.877-.06.325-.1.585-.141.779a1.343,1.343,0,0,1-.063.272,1.973,1.973,0,0,1,.026-.261c.025-.2.059-.458.1-.786.093-.7.227-1.681.373-2.885.32-2.434.7-5.81.98-9.549s.4-7.13.443-9.585c0-1.215.03-2.2.041-2.911v-.794a1.627,1.627,0,0,1,.03-.291" transform="translate(-217.909 -49.7)" fill="#263238"/>
        <path id="Path_832" data-name="Path 832" d="M234.156,198.833c.052-.019.913,2.236,1.923,5.076s1.793,5.12,1.74,5.139-.913-2.255-1.923-5.076-1.793-5.121-1.74-5.139" transform="translate(-197.505 -54.048)" fill="#263238"/>
        <path id="Path_833" data-name="Path 833" d="M281.486,252.873c0,.052-5.337.5-11.926.987s-11.926.85-11.926.8,5.333-.5,11.926-.992,11.922-.85,11.926-.794" transform="translate(-203.888 -68.736)" fill="#263238"/>
        <path id="Path_834" data-name="Path 834" d="M279.787,233.652a3.923,3.923,0,0,1-.526.4c-.343.249-.85.592-1.491,1.014-1.26.838-3.03,1.957-5.031,3.111s-3.854,2.128-5.218,2.8c-.678.336-1.23.6-1.614.775a5.229,5.229,0,0,1-.607.257,3.713,3.713,0,0,1,.574-.325l1.587-.831c1.338-.7,3.179-1.692,5.177-2.844s3.776-2.236,5.054-3.06l1.513-.958a4.149,4.149,0,0,1,.581-.336" transform="translate(-205.972 -63.513)" fill="#263238"/>
        <path id="Path_835" data-name="Path 835" d="M287.036,205.921s-.034-.071-.09-.209l-.238-.625c-.205-.556-.507-1.365-.895-2.4l-1.408-3.808c-.276-.746-.566-1.536-.88-2.378a17.9,17.9,0,0,0-1.1-2.608,5.452,5.452,0,0,0-.887-1.215,2.919,2.919,0,0,0-1.319-.8,2.562,2.562,0,0,0-.79-.093,2.773,2.773,0,0,0-.794.171,3.665,3.665,0,0,0-1.379.95,4.569,4.569,0,0,0-.913,1.491,6.368,6.368,0,0,0-.331,1.781,24.927,24.927,0,0,0,.268,3.82,9.161,9.161,0,0,1-.306,4.04,4.125,4.125,0,0,1-1.177,1.752,4.227,4.227,0,0,1-1.946.924,5.106,5.106,0,0,1-4.188-1.017,4.524,4.524,0,0,1-1.293-1.863,9.617,9.617,0,0,1-.548-2.218,18.173,18.173,0,0,0-.816-4.39,5.138,5.138,0,0,0-1.148-1.815A3.074,3.074,0,0,0,264,194.8a3.266,3.266,0,0,0-.489-.191,4.837,4.837,0,0,0-.51-.092,3.248,3.248,0,0,0-1.971.5,5.164,5.164,0,0,0-1.461,1.424,6.14,6.14,0,0,0-.864,1.808,7.931,7.931,0,0,0-.269,1.953c-.037,1.311.127,2.586.209,3.835a18.091,18.091,0,0,1,.044,1.863,6.591,6.591,0,0,1-.264,1.782,4.808,4.808,0,0,1-1.946,2.754,2.462,2.462,0,0,1-1.576.339,2.751,2.751,0,0,1-1.416-.623,7.812,7.812,0,0,1-1.729-2.266c-.447-.779-.832-1.536-1.167-2.236a28.5,28.5,0,0,1-1.439-3.8c-.324-1.07-.51-1.916-.626-2.493-.06-.287-.093-.507-.119-.656s-.034-.224-.034-.224.023.074.052.22.071.373.138.652c.127.574.328,1.416.66,2.478a29.329,29.329,0,0,0,1.469,3.776c.336.711.723,1.464,1.174,2.236a7.771,7.771,0,0,0,1.707,2.217,2.609,2.609,0,0,0,1.349.589,2.341,2.341,0,0,0,1.491-.325,4.654,4.654,0,0,0,1.863-2.675,6.348,6.348,0,0,0,.257-1.741,17.71,17.71,0,0,0-.052-1.834c-.086-1.241-.25-2.523-.216-3.85a8.15,8.15,0,0,1,.272-2,6.269,6.269,0,0,1,.887-1.863,5.431,5.431,0,0,1,1.513-1.491,3.462,3.462,0,0,1,2.091-.526,4.583,4.583,0,0,1,.544.1,3.44,3.44,0,0,1,.522.2,3.216,3.216,0,0,1,.909.641,5.314,5.314,0,0,1,1.192,1.882,18.3,18.3,0,0,1,.832,4.435,9.666,9.666,0,0,0,.533,2.173,4.394,4.394,0,0,0,1.237,1.777,4.919,4.919,0,0,0,4.028.988,4.11,4.11,0,0,0,1.864-.88,4.014,4.014,0,0,0,1.118-1.673,9.048,9.048,0,0,0,.3-3.958,24.592,24.592,0,0,1-.265-3.85,6.568,6.568,0,0,1,.35-1.83,4.7,4.7,0,0,1,.947-1.535,3.791,3.791,0,0,1,1.443-.988,2.607,2.607,0,0,1,1.681-.078,3.037,3.037,0,0,1,1.379.842,5.684,5.684,0,0,1,.906,1.249,18.174,18.174,0,0,1,1.1,2.631c.306.842.6,1.636.865,2.382l1.379,3.82c.372,1.043.663,1.863.861,2.419.1.272.167.481.22.63s.071.2.071.2" transform="translate(-201.369 -52.094)" fill="#fff"/>
        <path id="Path_836" data-name="Path 836" d="M241.121,88.611a11.843,11.843,0,0,0-10.435,5.311,8.945,8.945,0,0,0,1.2,10.476,3.413,3.413,0,0,0-1.558,5.155,4.6,4.6,0,0,0,6.086.492c-1,1.863.1,4.223,2.11,5.27a7.935,7.935,0,0,0,6.708-.037,11.963,11.963,0,0,0,4.89-4.3L251,94.652c-1.61-3.432-5.635-5.892-9.883-6.041" transform="translate(-196.245 -24.085)" fill="#263238"/>
        <path id="Path_837" data-name="Path 837" d="M242.894,113.014a5.706,5.706,0,0,1,.261-7.454c-1.137-1.3-.82-3.355.239-4.722a11.518,11.518,0,0,1,4.23-2.94,8.013,8.013,0,0,1,9.127-6.026c1.968-3.045,6.362-3.663,9.936-2.777a9.652,9.652,0,0,0,2.646.466,14.594,14.594,0,0,0,1.949-.332c3.581-.593,7.241,1.756,8.761,4.976a6.436,6.436,0,0,0,.82,1.491,8.975,8.975,0,0,0,1.826,1.323,5.59,5.59,0,0,1,2.352,4.07c.108,1.36-.287,2.825.347,4.044a19.518,19.518,0,0,1,1.118,1.729c.746,1.863-1.327,3.839-.861,5.769.093.395.291.745.417,1.144a3.384,3.384,0,0,1-.13,2.426,4.877,4.877,0,0,0-.716,1.763,5.433,5.433,0,0,0,.343,1.409c.283,1.155-2.124,5.717-3.127,6.384l-30.695,1.334a5.669,5.669,0,0,1-4.614-4.67,1.991,1.991,0,0,0-.328-1.092,2.436,2.436,0,0,0-.858-.5c-2.016-.969-2.348-3.612-2.217-5.8a2.713,2.713,0,0,0-.052-.917,3.357,3.357,0,0,0-.775-1.1" transform="translate(-199.539 -24.118)" fill="#263238"/>
        <path id="Path_838" data-name="Path 838" d="M255.442,115.558a15.989,15.989,0,0,1,8.217-14.293,20.621,20.621,0,0,1,7.782-2.12,12.719,12.719,0,0,1,7.3,1.248c1.707.332,8.114,5.662,8.651,11.665.6,6.672,1.062,14.84.372,19.846-1.382,10.063-10.122,11.553-10.122,11.553l-.052,6.526c-4.886,7.327-14.762,7.74-20.516,1.073v-.023Z" transform="translate(-203.287 -26.923)" fill="#ffbf9d"/>
        <path id="Path_839" data-name="Path 839" d="M279.754,142.085a1.947,1.947,0,0,1,.6-1.263,2.094,2.094,0,0,1,2.478-.332,2.2,2.2,0,0,1,.9,2.285c-.373.6-.644,1.189-1.357,1.3-.112,0-.224.03-.336.037a2.3,2.3,0,0,1-1.561-.469,1.944,1.944,0,0,1-.723-1.562" transform="translate(-209.9 -38.118)" fill="#ff9a6c"/>
        <path id="Path_840" data-name="Path 840" d="M293.473,128.382a1.3,1.3,0,0,1-1.237,1.327,1.249,1.249,0,0,1-1.384-1.1l0-.021a1.3,1.3,0,0,1,1.237-1.327,1.248,1.248,0,0,1,1.384,1.1l0,.022" transform="translate(-212.917 -34.592)" fill="#263238"/>
        <path id="Path_841" data-name="Path 841" d="M294.266,121.779c-.157.171-1.174-.526-2.59-.488s-2.441.745-2.609.588c-.078-.074.082-.373.526-.711a3.632,3.632,0,0,1,2.072-.679,3.543,3.543,0,0,1,2.072.6c.455.317.607.615.529.693" transform="translate(-212.427 -32.752)" fill="#263238"/>
        <path id="Path_842" data-name="Path 842" d="M284.836,133.234a9.837,9.837,0,0,1,2.292-.459c.372-.044.7-.122.745-.372a2.116,2.116,0,0,0-.268-1.043l-1.137-2.665c-1.58-3.794-2.736-6.917-2.579-6.977s1.566,2.981,3.149,6.757c.373.939.745,1.83,1.092,2.683a1.993,1.993,0,0,1,.224,1.383.9.9,0,0,1-.582.529,2.551,2.551,0,0,1-.615.1,9.118,9.118,0,0,1-2.322.067" transform="translate(-211.021 -33.086)" fill="#263238"/>
        <path id="Path_843" data-name="Path 843" d="M280.8,158.768a26.832,26.832,0,0,1-13.893-3.25s3.507,7.111,13.763,5.929Z" transform="translate(-206.407 -42.274)" fill="#ff9a6c"/>
        <path id="Path_844" data-name="Path 844" d="M292.787,114.291c-.231.343-1.319.142-2.586.276s-2.307.484-2.609.186c-.13-.146,0-.481.433-.828a4.1,4.1,0,0,1,4.174-.372c.5.25.69.555.589.738" transform="translate(-212.018 -30.757)" fill="#263238"/>
        <path id="Path_845" data-name="Path 845" d="M273.75,129.188A1.3,1.3,0,0,0,275.1,130.4a1.245,1.245,0,0,0,1.282-1.207v-.031a1.307,1.307,0,0,0-1.349-1.218,1.244,1.244,0,0,0-1.285,1.2c0,.012,0,.025,0,.038" transform="translate(-208.269 -34.779)" fill="#263238"/>
        <path id="Path_846" data-name="Path 846" d="M269.591,123.081c.171.157,1.118-.623,2.538-.7s2.5.544,2.639.372c.071-.078-.116-.372-.585-.663a3.688,3.688,0,0,0-2.128-.5,3.54,3.54,0,0,0-2.009.771c-.414.343-.54.656-.454.727" transform="translate(-207.131 -33.047)" fill="#263238"/>
        <path id="Path_847" data-name="Path 847" d="M269.31,115.595c.3.3,1.367-.093,2.68-.19s2.441.063,2.676-.28c.1-.164-.093-.47-.6-.746a4.155,4.155,0,0,0-2.214-.372,4.039,4.039,0,0,0-2.1.745c-.443.366-.577.7-.443.842" transform="translate(-207.048 -30.984)" fill="#263238"/>
        <path id="Path_848" data-name="Path 848" d="M255.354,133.728c-.019-.746-.947-2.486-1.707-2.583-2.024-.261-5.657,0-5.564,4.987.122,6.835,7.129,5.3,7.14,5.106s.186-4.93.13-7.51" transform="translate(-201.291 -35.631)" fill="#ffbf9d"/>
        <path id="Path_849" data-name="Path 849" d="M253.977,139.641c-.03-.023-.119.086-.324.183a1.259,1.259,0,0,1-.913.033,2.926,2.926,0,0,1-1.446-2.609,3.851,3.851,0,0,1,.309-1.71,1.385,1.385,0,0,1,.9-.928.618.618,0,0,1,.746.312c.1.186.056.325.093.336s.149-.116.086-.4a.746.746,0,0,0-.283-.421.952.952,0,0,0-.679-.164,1.708,1.708,0,0,0-1.256,1.084,3.929,3.929,0,0,0-.372,1.912,3.091,3.091,0,0,0,1.834,2.921,1.343,1.343,0,0,0,1.118-.2c.175-.183.209-.339.186-.35" transform="translate(-202.039 -36.497)" fill="#ff9a6c"/>
        <path id="Path_850" data-name="Path 850" d="M287.615,110.9a3.971,3.971,0,0,1-2.326-3.607c-.931.294-1.911-.861-2.482-1.64s-1.249-1.163-1.23-2.117a1.039,1.039,0,0,0-.086-.556,1.207,1.207,0,0,0-.776-.417,4.64,4.64,0,0,1-3.171-3.1,10.123,10.123,0,0,1-4.778.891,3.845,3.845,0,0,1-6.428-.116,3.4,3.4,0,0,1-2.236,1.692,10.347,10.347,0,0,1-2.9.227,3.906,3.906,0,0,1-2.527,4.491c-.25.082-.533.164-.645.4s.026.514.13.745a3.078,3.078,0,0,1-2.016,3.98,2.272,2.272,0,0,1-.119,3.612c-.253.157-.582.343-.533.63a.632.632,0,0,0,.16.287,4.435,4.435,0,0,1,1.163,2.236,1.655,1.655,0,0,1-1.342,1.863,2.157,2.157,0,0,1,.932,1.491c.026.611-.577,1.211-1.148,1.014-.245-.085-3.749-.671-3.909-.868-2.05-2.579.372-5.538.481-8.8a20.833,20.833,0,0,1,2.791-9.317,15.356,15.356,0,0,1,2.4-3.355A21.083,21.083,0,0,1,260.8,97.7a19.467,19.467,0,0,1,5.553-2.751c3.757-.965,7.719.28,11.282,1.782a16.521,16.521,0,0,1,3.861,2.094,14.633,14.633,0,0,1,3.313,4.006,17.921,17.921,0,0,1,2.713,6.936" transform="translate(-201.956 -25.717)" fill="#263238"/>
        <path id="Path_851" data-name="Path 851" d="M286.485,106.836a2.62,2.62,0,0,0-.4-.723c-.152-.224-.372-.484-.577-.816a3.135,3.135,0,0,1-.424-1.267,9.379,9.379,0,0,1,0-1.692,7.34,7.34,0,0,0-.112-2.027,5.634,5.634,0,0,0-1.863-3.074,8.667,8.667,0,0,0-1.118-.775,4.3,4.3,0,0,1-1.089-.868,5.554,5.554,0,0,1-.7-1.268,8.906,8.906,0,0,0-1.77-2.608,9.186,9.186,0,0,0-2.769-1.968,8.666,8.666,0,0,0-1.7-.574,8.047,8.047,0,0,0-1.845-.157,9.106,9.106,0,0,0-.942.1c-.313.052-.619.127-.928.186a4.578,4.578,0,0,1-1.863.052c-.63-.1-1.252-.309-1.9-.451a12.5,12.5,0,0,0-4.047-.253,10.758,10.758,0,0,0-2.046.421,6.9,6.9,0,0,0-3.462,2.363l-.253.343.112-.049a7.988,7.988,0,0,0-6.031,1.349,7.6,7.6,0,0,0-3.253,4.763l.056-.071a22.939,22.939,0,0,0-2.423,1.33,7.364,7.364,0,0,0-1.957,1.8,4.662,4.662,0,0,0-.846,2.385,3.183,3.183,0,0,0,.746,2.292v-.115a5.587,5.587,0,0,0-1.517,3.551,5.7,5.7,0,0,0,.82,3.377,5.833,5.833,0,0,0,.484.663,5.487,5.487,0,0,1,.5.6,1.451,1.451,0,0,1,.269.663,4.112,4.112,0,0,1,0,.709,10.87,10.87,0,0,0,.145,2.608,5.393,5.393,0,0,0,.746,1.957,3.455,3.455,0,0,0,1.118,1.081c.373.22.69.3.869.425a1.251,1.251,0,0,1,.261.2.812.812,0,0,0-.246-.224c-.178-.13-.5-.224-.857-.447a3.4,3.4,0,0,1-1.081-1.077,5.326,5.326,0,0,1-.712-1.934,11.151,11.151,0,0,1-.123-2.568,3.86,3.86,0,0,0,0-.745,1.538,1.538,0,0,0-.287-.723,7.766,7.766,0,0,0-.5-.612,5.03,5.03,0,0,1-.465-.648,5.527,5.527,0,0,1-.783-3.295,5.419,5.419,0,0,1,1.491-3.444l.052-.055-.049-.06a2.985,2.985,0,0,1-.686-2.173,4.476,4.476,0,0,1,.82-2.285,7.116,7.116,0,0,1,1.912-1.748,22.5,22.5,0,0,1,2.4-1.316h.045V97.9a7.406,7.406,0,0,1,3.171-4.636,7.8,7.8,0,0,1,5.84-1.3h.067l.042-.06c.082-.109.164-.22.242-.332a6.705,6.705,0,0,1,3.355-2.288,10.538,10.538,0,0,1,2-.414,12.21,12.21,0,0,1,3.977.249c.641.135,1.267.339,1.916.448a4.837,4.837,0,0,0,.984.074,5.855,5.855,0,0,0,.961-.13c.313-.063.619-.134.925-.19a5.793,5.793,0,0,1,.913-.1,7.4,7.4,0,0,1,1.8.149,8.37,8.37,0,0,1,1.681.548,9.1,9.1,0,0,1,2.72,1.923,8.677,8.677,0,0,1,1.748,2.545,5.689,5.689,0,0,0,.727,1.3,4.41,4.41,0,0,0,1.118.894,8.829,8.829,0,0,1,1.118.746,5.568,5.568,0,0,1,.869.917,5.5,5.5,0,0,1,.973,2.08,7.267,7.267,0,0,1,.127,2,9.413,9.413,0,0,0,.034,1.707,3.14,3.14,0,0,0,.454,1.286c.216.339.436.593.6.808a4.416,4.416,0,0,1,.336.515,2.014,2.014,0,0,0,.1.2" transform="translate(-199.514 -24.081)" fill="#455a64"/>
        <path id="Path_852" data-name="Path 852" d="M266.851,90.5s.183-.108.518-.28a4.772,4.772,0,0,1,1.517-.473,4.472,4.472,0,0,1,4.472,2.061,3.679,3.679,0,0,1,.373.746.842.842,0,0,1-.03.719l-.164.238.28-.085a2.978,2.978,0,0,1,2.173.194,2.769,2.769,0,0,1,1.222,1.234,2.926,2.926,0,0,1,.306,1.118V96.4a.342.342,0,0,1,.03-.108,2.554,2.554,0,0,0,.026-.317,2.759,2.759,0,0,0-.257-1.174,2.829,2.829,0,0,0-1.26-1.33,3.111,3.111,0,0,0-2.319-.231l.119.149a1.017,1.017,0,0,0,.06-.891,4.015,4.015,0,0,0-.391-.813,4.658,4.658,0,0,0-2.255-1.863,4.578,4.578,0,0,0-2.4-.234,4.482,4.482,0,0,0-1.532.548,3.258,3.258,0,0,0-.372.246.6.6,0,0,0-.112.123" transform="translate(-206.393 -24.335)" fill="#455a64"/>
        <path id="Path_853" data-name="Path 853" d="M251.548,102.064a1.078,1.078,0,0,0,.253.234,4.352,4.352,0,0,0,.805.518,3.488,3.488,0,0,0,1.408.373,2.567,2.567,0,0,0,1.726-.559l-.157-.023.213.276c.078.09.164.175.25.264a4.255,4.255,0,0,0,1.777,1.014,4.376,4.376,0,0,0,1.673.16,3.952,3.952,0,0,0,1.1-.272,1.489,1.489,0,0,0,.373-.2,6.381,6.381,0,0,1-1.469.328,4.544,4.544,0,0,1-1.606-.194,4.241,4.241,0,0,1-1.684-.98c-.079-.086-.16-.164-.235-.25l-.2-.257-.074-.093-.082.071a2.4,2.4,0,0,1-1.584.533,3.457,3.457,0,0,1-1.349-.313c-.741-.336-1.114-.663-1.137-.63" transform="translate(-202.233 -27.743)" fill="#455a64"/>
        <path id="Path_854" data-name="Path 854" d="M246.712,110.62a.609.609,0,0,0,.018.123,1.125,1.125,0,0,0,.167.328,1.864,1.864,0,0,0,1.148.7,3.655,3.655,0,0,0,1.994-.265,11.354,11.354,0,0,0,1.092-.454,1.868,1.868,0,0,0,.943-.887c0-.038.03-.075.041-.108l-.163.052a8.2,8.2,0,0,0,2.112,1.163,3.709,3.709,0,0,0,1.972.145,2.608,2.608,0,0,0,1.2-.57,1.44,1.44,0,0,0,.246-.261c.049-.067.071-.1.067-.1s-.122.119-.372.3a2.766,2.766,0,0,1-1.175.492,3.635,3.635,0,0,1-1.863-.183,8.377,8.377,0,0,1-2.05-1.151l-.114-.082-.049.138-.034.093a1.716,1.716,0,0,1-.846.783,11.078,11.078,0,0,1-1.066.454,3.548,3.548,0,0,1-1.893.3,1.865,1.865,0,0,1-1.118-.607,2.685,2.685,0,0,1-.253-.4" transform="translate(-200.919 -29.863)" fill="#455a64"/>
        <path id="Path_855" data-name="Path 855" d="M279.382,141.016c.167-.108.864,1.021,2.348,1.244s2.639-.615,2.747-.462c.06.06-.141.373-.655.7a3.438,3.438,0,0,1-2.255.451,2.935,2.935,0,0,1-1.89-1.084c-.335-.451-.376-.805-.294-.846" transform="translate(-209.79 -38.33)" fill="#263238"/>
        <path id="Path_856" data-name="Path 856" d="M295.749,139.161a.746.746,0,1,1-.764-.727H295a.746.746,0,0,1,.746.727" transform="translate(-213.843 -37.63)" fill="#ff9a6c"/>
        <path id="Path_857" data-name="Path 857" d="M295.6,139.264a.462.462,0,1,1-.473-.451h.011a.458.458,0,0,1,.462.451" transform="translate(-213.956 -37.733)" fill="#ff725e"/>
        <path id="Path_858" data-name="Path 858" d="M268.435,135.5a.745.745,0,1,1-.767-.722h.022a.746.746,0,0,1,.746.723" transform="translate(-206.419 -36.637)" fill="#ff9a6c"/>
        <path id="Path_859" data-name="Path 859" d="M268.257,135.606a.462.462,0,1,1-.477-.447h.015A.455.455,0,0,1,268.257,135.606Z" transform="translate(-206.524 -36.74)" fill="#ff725e"/>
        <path id="Path_860" data-name="Path 860" d="M293.164,142.006a.451.451,0,1,1-.462-.44h.011a.447.447,0,0,1,.451.44" transform="translate(-213.301 -38.482)" fill="#ff9a6c"/>
        <path id="Path_861" data-name="Path 861" d="M293.057,142.068a.279.279,0,1,1-.287-.272h.007a.273.273,0,0,1,.28.265v.007" transform="translate(-213.365 -38.544)" fill="#ff725e"/>
        <path id="Path_862" data-name="Path 862" d="M284.858,116.8a.451.451,0,1,1-.462-.44h.011a.443.443,0,0,1,.451.436v0" transform="translate(-211.043 -31.63)" fill="#ff9a6c"/>
        <path id="Path_863" data-name="Path 863" d="M284.766,116.862a.279.279,0,1,1-.287-.272h.007A.277.277,0,0,1,284.766,116.862Z" transform="translate(-211.111 -31.692)" fill="#ff725e"/>
        <path id="Path_864" data-name="Path 864" d="M234.384,176.014l.464-23.508a2.042,2.042,0,0,1,2.082-2l11.555.228a2.042,2.042,0,0,1,2,2.083l-.463,23.508a2.042,2.042,0,0,1-2.083,2l-11.555-.228a2.041,2.041,0,0,1-2-2.082" transform="translate(-197.568 -40.911)" fill="#fff"/>
        <path id="Path_865" data-name="Path 865" d="M247.907,178.286a2.536,2.536,0,0,0,.816-.175,2.084,2.084,0,0,0,.794-.607,2.042,2.042,0,0,0,.436-1.274c.034-2.106.082-5.143.145-8.889s.149-8.225.239-13.186v-.936a3.577,3.577,0,0,0-.041-.92,1.96,1.96,0,0,0-1.14-1.36,2.239,2.239,0,0,0-.921-.157l-.991-.022-2.005-.038-8.359-.16a1.948,1.948,0,0,0-1.7.936,1.908,1.908,0,0,0-.283.954l-.023,1.047q-.045,2.092-.082,4.119c-.055,2.7-.108,5.307-.16,7.789s-.1,4.845-.149,7.044q-.034,1.655-.068,3.194a3.867,3.867,0,0,0,.026.746,1.972,1.972,0,0,0,.261.663,2.013,2.013,0,0,0,1.073.842,2.13,2.13,0,0,0,.663.1h.678l1.3.03,2.389.055,3.824.09,2.415.067.63.023a1.728,1.728,0,0,1,.213,0h-.842l-2.419-.03-3.824-.056-2.389-.041-1.3-.023h-.678a2.309,2.309,0,0,1-.709-.1,2.152,2.152,0,0,1-1.151-.9,2.033,2.033,0,0,1-.28-.712,3.583,3.583,0,0,1-.033-.775c.018-1.022.037-2.088.055-3.191.042-2.21.086-4.565.131-7.047s.1-5.087.149-7.789c.026-1.349.052-2.724.079-4.1l.023-1.051a2.128,2.128,0,0,1,.309-1.047,2.151,2.151,0,0,1,1.863-1.033l8.359.167,2.005.042h.991a2.458,2.458,0,0,1,.992.175,2.142,2.142,0,0,1,1.244,1.491,4.045,4.045,0,0,1,.045.966c0,.313,0,.626-.019.936-.108,4.96-.2,9.429-.283,13.181s-.157,6.783-.2,8.889a2.113,2.113,0,0,1-.466,1.312,2.009,2.009,0,0,1-1.439.745Z" transform="translate(-197.534 -40.873)" fill="#263238"/>
        <path id="Path_866" data-name="Path 866" d="M238.159,155.22a2.154,2.154,0,1,0,0-.031c0,.01,0,.02,0,.031" transform="translate(-198.594 -41.617)" fill="#fafafa"/>
        <path id="Path_867" data-name="Path 867" d="M238.157,155.2v-.138a1.691,1.691,0,0,1,.052-.392,2.1,2.1,0,0,1,.8-1.211,2.236,2.236,0,0,1,3.126.479l.012.017a2.234,2.234,0,0,1-1.118,3.4,2.213,2.213,0,0,1-2.094-.372,2.141,2.141,0,0,1-.746-1.242,1.525,1.525,0,0,1-.033-.4v-.138a2.091,2.091,0,0,0,.093.518,2.128,2.128,0,0,0,.764,1.151,2.061,2.061,0,1,0,.063-3.3,2.165,2.165,0,0,0-.809,1.118c-.089.317-.089.51-.108.507" transform="translate(-198.592 -41.596)" fill="#263238"/>
        <path id="Path_868" data-name="Path 868" d="M241.992,155.568a1.42,1.42,0,1,1-1.4-1.443h.007a1.42,1.42,0,0,1,1.39,1.443" transform="translate(-198.864 -41.896)" fill="#e0e0e0"/>
        <path id="Path_869" data-name="Path 869" d="M237.98,164.187a2.147,2.147,0,1,0,2.19-2.1h0a2.147,2.147,0,0,0-2.187,2.1" transform="translate(-198.545 -44.059)" fill="#fafafa"/>
        <path id="Path_870" data-name="Path 870" d="M237.977,164.165a.544.544,0,0,1,0-.138,1.607,1.607,0,0,1,.049-.373,2.145,2.145,0,0,1,.8-1.212,2.217,2.217,0,0,1,3.1.453l.031.043a2.218,2.218,0,0,1-.052,2.65,2.192,2.192,0,0,1-1.059.746,2.215,2.215,0,0,1-2.094-.373,2.111,2.111,0,0,1-.746-1.241,1.747,1.747,0,0,1-.037-.4.484.484,0,0,1,0-.138c.023,0,0,.194.093.518a2.153,2.153,0,0,0,.764,1.152,2.061,2.061,0,1,0,.067-3.3,2.122,2.122,0,0,0-.808,1.118c-.093.306-.09.5-.112.5" transform="translate(-198.542 -44.037)" fill="#263238"/>
        <path id="Path_871" data-name="Path 871" d="M241.816,164.53a1.416,1.416,0,1,1-1.39-1.443,1.416,1.416,0,0,1,1.39,1.443" transform="translate(-198.818 -44.332)" fill="#e0e0e0"/>
        <path id="Path_872" data-name="Path 872" d="M247.182,164.371a2.147,2.147,0,1,0,2.19-2.1h0a2.143,2.143,0,0,0-2.187,2.1v0" transform="translate(-201.046 -44.109)" fill="#fafafa"/>
        <path id="Path_873" data-name="Path 873" d="M247.182,164.34V164.2a1.646,1.646,0,0,1,.052-.4,2.133,2.133,0,0,1,.8-1.211,2.2,2.2,0,0,1,2.106-.3,2.225,2.225,0,1,1-2.163,3.827l-.014-.011a2.139,2.139,0,0,1-.746-1.241,1.949,1.949,0,0,1-.034-.4v-.138a2.072,2.072,0,0,0,.093.514,2.119,2.119,0,0,0,.749,1.145,2.061,2.061,0,1,0,.063-3.3,2.126,2.126,0,0,0-.805,1.118c-.085.317-.085.522-.1.522" transform="translate(-201.047 -44.078)" fill="#263238"/>
        <path id="Path_874" data-name="Path 874" d="M251.018,164.713a1.441,1.441,0,1,1,0-.012v.012" transform="translate(-201.319 -44.381)" fill="#e0e0e0"/>
        <path id="Path_875" data-name="Path 875" d="M237.806,173.148a2.147,2.147,0,1,0,2.19-2.1h0a2.143,2.143,0,0,0-2.187,2.1v0" transform="translate(-198.498 -46.495)" fill="#fafafa"/>
        <path id="Path_876" data-name="Path 876" d="M237.8,173.126a.384.384,0,0,1,0-.141,1.692,1.692,0,0,1,.052-.392,2.115,2.115,0,0,1,.8-1.211,2.236,2.236,0,0,1,3.126.478l.012.017a2.235,2.235,0,0,1-1.118,3.4,2.211,2.211,0,0,1-2.094-.373,2.137,2.137,0,0,1-.746-1.241,1.531,1.531,0,0,1-.034-.4v-.134a2.053,2.053,0,0,0,.093.515,2.128,2.128,0,0,0,.764,1.151,2.061,2.061,0,1,0,.063-3.3,2.167,2.167,0,0,0-.809,1.118c-.089.317-.089.51-.108.51" transform="translate(-198.496 -46.469)" fill="#263238"/>
        <path id="Path_877" data-name="Path 877" d="M241.654,173.492a1.42,1.42,0,1,1-1.4-1.443h.007a1.42,1.42,0,0,1,1.39,1.443" transform="translate(-198.772 -46.768)" fill="#e0e0e0"/>
        <path id="Path_878" data-name="Path 878" d="M247.008,173.333a2.147,2.147,0,1,0,2.19-2.1h0a2.143,2.143,0,0,0-2.187,2.1v0" transform="translate(-200.999 -46.545)" fill="#fafafa"/>
        <path id="Path_879" data-name="Path 879" d="M247.008,173.3v-.138a1.646,1.646,0,0,1,.052-.4,2.126,2.126,0,0,1,.8-1.211,2.213,2.213,0,0,1,3.1.446l.036.049a2.222,2.222,0,0,1-3.156,3.058l-.045-.036a2.139,2.139,0,0,1-.746-1.241,1.537,1.537,0,0,1-.034-.4V173.3a2.071,2.071,0,0,0,.093.514,2.126,2.126,0,0,0,.746,1.152,2.061,2.061,0,1,0,.067-3.3,2.16,2.16,0,0,0-.809,1.118c-.086.324-.082.514-.1.514" transform="translate(-200.999 -46.514)" fill="#263238"/>
        <path id="Path_880" data-name="Path 880" d="M250.867,173.675a1.42,1.42,0,1,1-1.393-1.446h0a1.416,1.416,0,0,1,1.39,1.442v0" transform="translate(-201.277 -46.817)" fill="#e0e0e0"/>
        <path id="Path_881" data-name="Path 881" d="M237.627,182.114a2.147,2.147,0,1,0,2.187-2.106,2.147,2.147,0,0,0-2.187,2.106" transform="translate(-198.449 -48.931)" fill="#fafafa"/>
        <path id="Path_882" data-name="Path 882" d="M237.624,182.092a.655.655,0,0,1,0-.141,1.607,1.607,0,0,1,.049-.373,2.145,2.145,0,0,1,.8-1.212,2.217,2.217,0,0,1,3.1.453l.031.043a2.218,2.218,0,0,1-.052,2.65,2.192,2.192,0,0,1-1.059.746,2.215,2.215,0,0,1-2.094-.373,2.11,2.11,0,0,1-.746-1.242,1.741,1.741,0,0,1-.037-.4.413.413,0,0,1,0-.134c.023,0,0,.19.093.514a2.174,2.174,0,0,0,.764,1.151,2.061,2.061,0,1,0,.067-3.3,2.122,2.122,0,0,0-.808,1.118c-.093.306-.09.5-.112.5" transform="translate(-198.446 -48.909)" fill="#263238"/>
        <path id="Path_883" data-name="Path 883" d="M241.463,182.454a1.416,1.416,0,1,1-1.389-1.443h0a1.417,1.417,0,0,1,1.386,1.443" transform="translate(-198.722 -49.204)" fill="#e0e0e0"/>
        <path id="Path_884" data-name="Path 884" d="M246.809,182.3a2.147,2.147,0,1,0,2.19-2.1h0a2.147,2.147,0,0,0-2.187,2.1" transform="translate(-200.945 -48.981)" fill="#fafafa"/>
        <path id="Path_885" data-name="Path 885" d="M246.807,182.265v-.138a1.477,1.477,0,0,1,.049-.4,2.133,2.133,0,0,1,.8-1.211,2.217,2.217,0,0,1,3.1.453l.031.042a2.223,2.223,0,0,1-3.191,3.034l-.014-.011a2.108,2.108,0,0,1-.746-1.241,1.713,1.713,0,0,1-.037-.4v-.138a2.11,2.11,0,0,0,.093.518,2.14,2.14,0,0,0,.764,1.152,2.061,2.061,0,1,0,.063-3.3,2.124,2.124,0,0,0-.8,1.118c-.079.324-.075.514-.112.514" transform="translate(-200.944 -48.951)" fill="#263238"/>
        <path id="Path_886" data-name="Path 886" d="M250.665,182.637a1.441,1.441,0,1,1,0-.012v.012" transform="translate(-201.223 -49.253)" fill="#e0e0e0"/>
        <path id="Path_887" data-name="Path 887" d="M236.417,175.449l-2.009-4.1-3.391-3.082a8.563,8.563,0,0,0-1.942-1.491c-.674-.234-7.181,1.815-7.181,1.815a2.756,2.756,0,0,0-2.456,1.606,3.2,3.2,0,0,0-1.118,4.1l.157,3.134,1.043,10.807-.82,5.136s4.238-2.444,6.276-3.556,3.373-4.644,3.373-4.644c2.113-1.621,2.855-5.795,2.855-5.795a2.415,2.415,0,0,0,1.062-2.523c.746-.481.593-1.968.593-1.968a3.228,3.228,0,0,0,3.246,1.2.44.44,0,0,0,.359-.508.432.432,0,0,0-.046-.133" transform="translate(-193.11 -45.329)" fill="#ffbf9d"/>
        <path id="Path_888" data-name="Path 888" d="M223.1,177.87a1.609,1.609,0,0,1,.313-.019l.894-.041c.775-.037,1.893-.138,3.276-.3l.529-.063a2.4,2.4,0,0,1,.574-.023,1.717,1.717,0,0,1,1.1.548l1.67,2.013c.145.179.294.373.436.552a1.692,1.692,0,0,1,.108.152.533.533,0,0,1,.052.1l.025.093a2.012,2.012,0,0,1,.06.372,3.009,3.009,0,0,1-.343,1.491,11.758,11.758,0,0,1-.786,1.323,2.262,2.262,0,0,1-.541.615.864.864,0,0,1-.864.093.958.958,0,0,1-.473-.518,1.392,1.392,0,0,1-.074-.675,3.2,3.2,0,0,1,.481-1.17l.03.149a7,7,0,0,1-1.685-1.748l.157.03a2.559,2.559,0,0,1-2.367.261l.112-.165a1.047,1.047,0,0,1-.674,1.767l.022-.178A4.125,4.125,0,0,1,227.129,184a3.975,3.975,0,0,1,.723,1.752,3.9,3.9,0,0,1,0,1.207c-.026.138-.049.239-.067.309s-.03.1-.038.1a4.792,4.792,0,0,0,0-1.6A3.941,3.941,0,0,0,227,184.09a3.99,3.99,0,0,0-1.946-1.383l-.425-.138.447-.041a.888.888,0,0,0,.716-.526.872.872,0,0,0-.175-.917l-.328-.339.439.172a2.357,2.357,0,0,0,2.166-.253l.093-.06.06.089a6.867,6.867,0,0,0,1.636,1.689l.086.06-.052.09a2.969,2.969,0,0,0-.451,1.084.882.882,0,0,0,.417.95.618.618,0,0,0,.634-.071,2.017,2.017,0,0,0,.481-.552,11.425,11.425,0,0,0,.775-1.3,2.776,2.776,0,0,0,.328-1.36,1.652,1.652,0,0,0-.056-.331v-.082a.27.27,0,0,0-.03-.052,1.032,1.032,0,0,0-.1-.141c-.134-.183-.283-.373-.425-.544-.582-.709-1.118-1.383-1.647-2.016a1.568,1.568,0,0,0-.973-.5,2.593,2.593,0,0,0-.537.019l-.533.052c-1.383.142-2.509.22-3.287.232h-.9a1.528,1.528,0,0,1-.324-.052" transform="translate(-194.499 -48.227)" fill="#ff9a6c"/>
        <path id="Path_889" data-name="Path 889" d="M234.179,179.031a8.048,8.048,0,0,1-.644-1.636,9.732,9.732,0,0,0-.746-1.726,3.588,3.588,0,0,0-1.61-1.531,4.946,4.946,0,0,0-2.236-.209l-1.9.123c-.54.03-.98.052-1.282.063a1.718,1.718,0,0,1-.473,0,2.066,2.066,0,0,1,.466-.078c.3-.037.746-.086,1.278-.138l1.9-.171a5,5,0,0,1,2.355.209,3.723,3.723,0,0,1,1.7,1.635,8.624,8.624,0,0,1,.716,1.785c.141.481.264.891.373,1.23a2.633,2.633,0,0,1,.1.443" transform="translate(-195.095 -47.209)" fill="#ff9a6c"/>
        <path id="Path_890" data-name="Path 890" d="M234.548,176.288c-.041,0-.142-.79-.574-2a12.121,12.121,0,0,0-.954-2.028,8.933,8.933,0,0,0-.746-1.088,1.76,1.76,0,0,0-1.118-.682,8.167,8.167,0,0,0-1.412-.03c-.459,0-.906.03-1.33.056-.846.052-1.61.123-2.236.194s-1.156.142-1.513.186a2.4,2.4,0,0,1-.559.052,2.6,2.6,0,0,1,.544-.142c.354-.071.869-.167,1.491-.261s1.4-.179,2.254-.242c.429-.033.876-.055,1.342-.071a8.355,8.355,0,0,1,1.453.026,1.835,1.835,0,0,1,.719.268,2.451,2.451,0,0,1,.548.5,8.964,8.964,0,0,1,.745,1.118,11.168,11.168,0,0,1,.925,2.083,10.094,10.094,0,0,1,.372,1.491,2.178,2.178,0,0,1,.049.567" transform="translate(-194.774 -46.269)" fill="#ff9a6c"/>
        <path id="Path_891" data-name="Path 891" d="M218.283,195.87s-3.253,20.013-3.783,25.715c-.686,7.4-1.964,12.444.112,17.486,1.792,4.357,6.53,7.357,10.867,5.523s5.855-14.061,5.855-14.061L226.091,194.9Z" transform="translate(-191.885 -52.979)" fill="#ffbf9d"/>
        <path id="Path_892" data-name="Path 892" d="M234.107,229.632v-.09a1.732,1.732,0,0,1,.052-.261c.044-.227.145-.559.212-1a20.326,20.326,0,0,0,.373-3.727,37.087,37.087,0,0,0-.443-5.542c-.294-2.075-.7-4.345-1.054-6.745-.719-4.793-1.428-9.12-1.863-12.269-.22-1.573-.373-2.847-.473-3.727-.045-.429-.079-.768-.1-1.018a.94.94,0,0,0-.022-.264.286.286,0,0,1,0-.093.465.465,0,0,1,.018.09,2.525,2.525,0,0,0,.042.264c.034.246.082.585.141,1.01.119.88.3,2.155.533,3.727.466,3.138,1.2,7.454,1.916,12.258.35,2.4.745,4.67,1.043,6.753a35.445,35.445,0,0,1,.4,5.568,19.155,19.155,0,0,1-.428,3.728c-.079.44-.194.767-.25.995l-.071.257c-.008.06-.019.09-.023.086" transform="translate(-196.588 -52.979)" fill="#ff9a6c"/>
        <path id="Path_893" data-name="Path 893" d="M321.6,165.965s12.209,24.429,15.213,32.238,1.983,12.447.224,14.8-10.181-.641-10.547-.839c-1.6-.875-4.92-7.853-4.92-7.853l-8.2-36.184Z" transform="translate(-219.038 -45.114)" fill="#ffbf9d"/>
        <path id="Path_894" data-name="Path 894" d="M322.488,205.522a.549.549,0,0,1-.041-.09l-.1-.264c-.09-.253-.216-.6-.373-1.036-.332-.9-.746-2.217-1.249-3.85-.995-3.269-2.206-7.826-3.417-12.9s-2.21-9.69-2.9-13.044c-.347-1.673-.615-3.026-.794-3.966l-.2-1.081c-.018-.116-.033-.209-.044-.283a.307.307,0,0,1,0-.1.281.281,0,0,1,.03.093,1.629,1.629,0,0,0,.063.279c.06.261.138.619.238,1.074l.854,3.954c.722,3.336,1.74,7.942,2.955,13.01s2.4,9.63,3.354,12.906c.489,1.636.88,2.959,1.189,3.862.146.443.257.794.339,1.047l.082.272a.345.345,0,0,1,.015.112" transform="translate(-219.037 -45.915)" fill="#ff9a6c"/>
        <path id="Path_895" data-name="Path 895" d="M303.5,142.35s-.556.268-.4,1.189,1.864,4.23,2,4.93.507,5.538,1.144,6.835.947-1.4.947-1.4l2.482-4.338.5-1.279s-1.118.853-2-.973a24.82,24.82,0,0,0-1.923-4.14c-.9-1.26-1.874-1.443-2.758-.827" transform="translate(-216.241 -38.602)" fill="#ffbf9d"/>
        <path id="Path_896" data-name="Path 896" d="M308.076,143.562a3.777,3.777,0,0,1-.82-.074,10.642,10.642,0,0,1-1.953-.414,6.675,6.675,0,0,1-1.8-.869,1.648,1.648,0,0,1-.421-.443.41.41,0,0,1-.079-.216,2.231,2.231,0,0,0,.585.548,8.618,8.618,0,0,0,1.785.8,16.943,16.943,0,0,0,1.916.462,3.2,3.2,0,0,1,.79.209" transform="translate(-216.22 -38.476)" fill="#ff9a6c"/>
        <path id="Path_897" data-name="Path 897" d="M301.061,138.781a1.923,1.923,0,1,0,1.923-1.923,1.923,1.923,0,0,0-1.923,1.923" transform="translate(-215.692 -37.202)" fill="#fafafa"/>
        <path id="Path_898" data-name="Path 898" d="M301.061,138.739v-.123a1.4,1.4,0,0,1,.037-.373,1.909,1.909,0,0,1,.693-1.118,1.991,1.991,0,0,1,1.893-.306,1.97,1.97,0,0,1,.939.7,2,2,0,0,1,0,2.385,1.97,1.97,0,0,1-.939.7,1.991,1.991,0,0,1-1.893-.306,1.909,1.909,0,0,1-.693-1.118,1.379,1.379,0,0,1-.037-.354V138.7a1.6,1.6,0,0,0,.1.458,1.861,1.861,0,0,0,.7,1.014,1.837,1.837,0,1,0,0-2.944,1.885,1.885,0,0,0-.7,1.01,2.152,2.152,0,0,0-.1.5" transform="translate(-215.692 -37.16)" fill="#263238"/>
        <path id="Path_899" data-name="Path 899" d="M304.473,139.025a1.271,1.271,0,1,1-1.271-1.271,1.271,1.271,0,0,1,1.271,1.271" transform="translate(-215.929 -37.445)" fill="#e0e0e0"/>
        <path id="Path_900" data-name="Path 900" d="M302.036,140.936a1.12,1.12,0,0,1,.813-.9c.7-.145,7.29.522,8.046.642s2.527.261,2.527.261a2.967,2.967,0,0,1,3.194,1.976l.746,1.714a2.293,2.293,0,0,1,2.206,2.12c.085,2.005.261,3.164.261,3.164s2.512.772,2.393,2.076a15.292,15.292,0,0,1-1.145,3.559l-1.96,3.589a5.769,5.769,0,0,1-5.4,3.231h-2.236s-5.307-5.907-5.68-8.527,2.982-4.212,2.982-4.212l2.981-3.044.067-2.609s-6.354-.727-7.692-1.282-2.173-.895-2.1-1.756" transform="translate(-215.956 -38.06)" fill="#ffbf9d"/>
        <path id="Path_901" data-name="Path 901" d="M324.159,157.822a4.1,4.1,0,0,0,.216,2.456" transform="translate(-221.945 -42.901)" fill="#ffbf9d"/>
        <path id="Path_902" data-name="Path 902" d="M324.335,160.277a2.121,2.121,0,0,1-.4-1.2,2.156,2.156,0,0,1,.179-1.252c.056,0-.048.563,0,1.237s.269,1.2.216,1.219" transform="translate(-221.904 -42.9)" fill="#ff9a6c"/>
        <path id="Path_903" data-name="Path 903" d="M314.663,141.27a26.307,26.307,0,0,0-5,1c-.108.056-2.694,3.044-2.694,3.044a1.61,1.61,0,0,0,2.1.878l.005,0a3.028,3.028,0,0,0,1.96-1.543l3.63-.13.846,1.673" transform="translate(-217.298 -38.401)" fill="#ffbf9d"/>
        <path id="Path_904" data-name="Path 904" d="M315.472,146.191a2.667,2.667,0,0,1-.25-.425l-.644-1.223.052.034-3.634.157.079-.056a3.047,3.047,0,0,1-1.558,1.427,2.931,2.931,0,0,1-1.118.295,1.588,1.588,0,0,1-1.118-.436,1.806,1.806,0,0,1-.428-.612l-.023-.052.037-.049c.842-.968,1.643-1.886,2.385-2.7.093-.1.183-.2.283-.306s.134-.071.2-.108.125-.05.19-.071a6.618,6.618,0,0,1,.746-.208c.481-.112.928-.2,1.334-.265.816-.138,1.491-.22,1.938-.272.228-.026.406-.041.526-.049a.514.514,0,0,1,.183,0,.886.886,0,0,1-.179.041l-.521.086c-.451.071-1.118.175-1.923.328-.4.075-.846.168-1.316.288a5.9,5.9,0,0,0-.719.212,1.78,1.78,0,0,0-.178.071c-.049.025-.138.048-.149.078-.086.09-.179.194-.269.294-.745.824-1.528,1.745-2.367,2.713v-.1a1.693,1.693,0,0,0,.373.54,1.364,1.364,0,0,0,.992.373,2.77,2.77,0,0,0,1.043-.272,2.943,2.943,0,0,0,1.491-1.316l.026-.056H311l3.634-.1h.037v.034c.25.514.447.932.6,1.244a3.751,3.751,0,0,1,.2.459" transform="translate(-217.26 -38.4)" fill="#ff9a6c"/>
        <path id="Path_905" data-name="Path 905" d="M320,146.448l-4.685-.261a2.032,2.032,0,0,0-1.491.551l-2.53,2.385a1.3,1.3,0,0,0,1.451,1.121,1.283,1.283,0,0,0,.2-.041,7.64,7.64,0,0,0,2.713-1.312s2.509.515,2.586.515a12.979,12.979,0,0,1,.54,1.621" transform="translate(-218.475 -39.737)" fill="#ffbf9d"/>
        <path id="Path_906" data-name="Path 906" d="M318.728,151a1.809,1.809,0,0,1-.112-.291c-.071-.216-.164-.492-.28-.834-.03-.09-.067-.183-.1-.28a1.046,1.046,0,0,0-.06-.141c-.018-.045-.018-.03,0-.023m.023,0h-.1l-.746-.138-1.763-.336h.067a7.926,7.926,0,0,1-2.191,1.185,4.311,4.311,0,0,1-.667.171,1.463,1.463,0,0,1-.727-.034,1.236,1.236,0,0,1-.619-.436,1.767,1.767,0,0,1-.306-.7v-.049l.038-.037.074-.1,1.427-1.342.679-.637a5.033,5.033,0,0,1,.693-.593,2.1,2.1,0,0,1,.827-.294,4.246,4.246,0,0,1,.816,0l1.438.09,2.076.149.567.048a.831.831,0,0,1,.194.03.6.6,0,0,1-.2,0h-.567l-2.08-.086-1.438-.067a4.258,4.258,0,0,0-.783,0,2.031,2.031,0,0,0-.746.28,5.124,5.124,0,0,0-.656.574l-.678.642-1.424,1.345-.071.068.03-.086a1.231,1.231,0,0,0,.786.987,2.162,2.162,0,0,0,1.279-.13,7.928,7.928,0,0,0,2.15-1.118l.03-.022h.037l1.74.373.723.152.082.019h.022a.13.13,0,0,1,.052.03c.026.03.019.033.03.052s.044.1.063.152l.093.288c.112.372.19.652.239.85a1.618,1.618,0,0,1,.037.291Z" transform="translate(-218.433 -39.706)" fill="#ff9a6c"/>
        <path id="Path_907" data-name="Path 907" d="M325.543,153.981a16.7,16.7,0,0,0-2.72-1.144c-.384.026-4.472,1.513-4.472,1.513s.813,1.651,1.994,1.491a11.277,11.277,0,0,0,2.158-.514l1.677,1.643" transform="translate(-220.392 -41.545)" fill="#ffbf9d"/>
        <path id="Path_908" data-name="Path 908" d="M324.138,156.949a3.283,3.283,0,0,1-.477-.41l-1.249-1.185h.075a10.833,10.833,0,0,1-2.15.537,1.4,1.4,0,0,1-.664-.074,2.1,2.1,0,0,1-.588-.35,3.822,3.822,0,0,1-.861-1.118l-.052-.093.1-.042.216-.078c.969-.35,1.893-.675,2.736-.958.425-.141.827-.275,1.211-.372a2.3,2.3,0,0,1,.294-.071.717.717,0,0,1,.306.049,4.76,4.76,0,0,1,.5.19c.623.264,1.118.514,1.443.686a3.465,3.465,0,0,1,.51.291,2.927,2.927,0,0,1-.544-.224c-.343-.149-.839-.373-1.461-.626-.156-.06-.32-.123-.492-.175a.675.675,0,0,0-.246-.037,1.173,1.173,0,0,0-.268.071c-.373.116-.775.254-1.2.4l-2.728.973-.216.078.056-.134a3.765,3.765,0,0,0,.809,1.059,1.956,1.956,0,0,0,.529.324,1.275,1.275,0,0,0,.577.067,11.321,11.321,0,0,0,2.12-.488h.044l.03.03,1.208,1.23a4.435,4.435,0,0,1,.421.454" transform="translate(-220.343 -41.517)" fill="#ff9a6c"/>
        <path id="Path_909" data-name="Path 909" d="M311.9,152.766a.449.449,0,0,0-.239.041,1.019,1.019,0,0,0-.432.489,22.01,22.01,0,0,0-.839,2.139,22.4,22.4,0,0,0-.6,2.217,6.68,6.68,0,0,1-.22.931,3.652,3.652,0,0,1,.086-.958,14.5,14.5,0,0,1,.555-2.236,14.183,14.183,0,0,1,.9-2.143,1.02,1.02,0,0,1,.526-.5c.178-.06.272.011.264.015" transform="translate(-218.005 -41.516)" fill="#ff9a6c"/>
        <path id="Path_910" data-name="Path 910" d="M307.05,143.861a4.175,4.175,0,0,1-.8-.1c-.492-.082-1.175-.186-1.919-.373a4.623,4.623,0,0,1-1.8-.8,1.494,1.494,0,0,1-.526-.622c.026-.023.205.234.607.514a5.225,5.225,0,0,0,1.763.719c.746.175,1.413.3,1.9.421a2.737,2.737,0,0,1,.776.246" transform="translate(-215.95 -38.589)" fill="#ff9a6c"/>
      </g>
    </g>
  </g>
</svg>
