<svg xmlns="http://www.w3.org/2000/svg" xmlns:xlink="http://www.w3.org/1999/xlink" width="44.781" height="51.229" viewBox="0 0 44.781 51.229">
  <defs>
    <clipPath id="clip-path">
      <rect id="Rectangle_520" data-name="Rectangle 520" width="28.899" height="42.903" fill="#1a2942"/>
    </clipPath>
  </defs>
  <g id="Group_961" data-name="Group 961" transform="matrix(0.899, 0.438, -0.438, 0.899, 18.807, 0)">
    <g id="Group_960" data-name="Group 960" transform="translate(0 0)" clip-path="url(#clip-path)">
      <path id="Path_2895" data-name="Path 2895" d="M16.963,0a1.02,1.02,0,0,1,.625,1.072c-.018,1.34,0,2.681-.007,4.021,0,.782-.278,1.055-1.058,1.061-.318,0-.637,0-.978,0v7.452a8.686,8.686,0,0,1,7.545-.842,8.435,8.435,0,0,1,4.372,3.421,8.668,8.668,0,0,1-.714,10.491A8.761,8.761,0,0,1,15.52,28.31v.465c0,2.471.011,4.943,0,7.414a6.724,6.724,0,0,1-13.449.036c-.022-2.6,0-5.194,0-7.791V6.153c-.406,0-.766.007-1.126,0A.828.828,0,0,1,.007,5.22C0,3.8.012,2.372,0,.947A.967.967,0,0,1,.619,0ZM3.689,33.7a25.2,25.2,0,0,0,.19,3.545,4.963,4.963,0,0,0,5.373,3.971,5.03,5.03,0,0,0,4.589-5.046q.02-4.482-.006-8.964a.934.934,0,0,0-.207-.555,8.663,8.663,0,0,1-.885-10.143,2.936,2.936,0,0,0,.127-.28H3.778v2.459c1.461,0,2.885,0,4.309,0,.766,0,1.057.295,1.06,1.071,0,1.005,0,2.011,0,3.016,0,.78-.306,1.2-.863,1.186s-.812-.4-.813-1.181,0-1.584,0-2.383H3.762v11.6H7.472c0-.406,0-.78,0-1.155.008-.591.316-.961.807-.976s.856.371.865.971,0,1.2,0,1.8c0,.784-.284,1.065-1.059,1.066-1.424,0-2.847,0-4.4,0m23.526-12.73a7.013,7.013,0,1,0-7.053,7.011,7.02,7.02,0,0,0,7.053-7.011M13.813,6.195H3.764v4.7H13.813ZM1.7,4.439H15.874V1.7H1.7Zm12.118,8.2H3.74v1.851H13.823Z" transform="translate(0 0)" fill="#1a2942"/>
      <path id="Path_2896" data-name="Path 2896" d="M8.228,6.419a4.214,4.214,0,0,1-4.055,4.066A4.1,4.1,0,0,1,.007,6.628,5.414,5.414,0,0,1,.8,3.721,14.394,14.394,0,0,1,3.423.324.809.809,0,0,1,4.682.281,12.414,12.414,0,0,1,7.805,4.729a15.1,15.1,0,0,1,.423,1.69M4.076,2.053A10.036,10.036,0,0,0,1.794,5.666a2.3,2.3,0,0,0,.682,2.513,2.274,2.274,0,0,0,2.49.455,2.435,2.435,0,0,0,1.288-3.31A10.856,10.856,0,0,0,4.076,2.053" transform="translate(16.139 15.567)" fill="#1a2942"/>
    </g>
  </g>
</svg>
