<svg id="Group_706" data-name="Group 706" xmlns="http://www.w3.org/2000/svg" xmlns:xlink="http://www.w3.org/1999/xlink" width="88.318" height="101.349" viewBox="0 0 88.318 101.349">
  <defs>
    <clipPath id="clip-path">
      <rect id="Rectangle_402" data-name="Rectangle 402" width="88.318" height="101.349" fill="#29407c"/>
    </clipPath>
  </defs>
  <g id="Group_705" data-name="Group 705" clip-path="url(#clip-path)">
    <path id="Path_1836" data-name="Path 1836" d="M88.3,94.059a2.593,2.593,0,0,0-2.906-2.9l-5.147.008c-.129,0-.256-.011-.441-.021v-.6q0-19.521-.013-39.04a2.927,2.927,0,0,0-.325-1.309,1.328,1.328,0,0,0-1.57-.626A1.4,1.4,0,0,0,76.834,50.9c-.029.56-.018,1.122-.018,1.684q0,19,.018,38c0,.443-.116.591-.578.589-4.537-.011-9.071,0-13.608.013-.267,0-.43-.034-.428-.37.016-1.549.008-3.1.011-4.65a3.629,3.629,0,0,1,.048-.375h.507l4.5.008c.116,0,.23,0,.346-.008,1.016-.05,1.708-.681,1.671-1.518a1.594,1.594,0,0,0-1.76-1.423c-1.6,0-3.2,0-4.8.024-.409.008-.531-.1-.52-.525.032-1.335.011-2.671.013-4.006V77.5c.2-.008.375-.021.549-.024.657-.018,1.322.008,1.974-.066a1.391,1.391,0,0,0,1.3-1.518,1.493,1.493,0,0,0-1.51-1.349c-.644-.013-1.285-.005-1.929.011-.293.008-.406-.082-.4-.393.016-1.518.021-3.035,0-4.553-.005-.391.137-.462.491-.457,1.483.021,2.967.016,4.452.013A5.52,5.52,0,0,0,68,69.118a1.485,1.485,0,0,0,1.3-1.5,1.527,1.527,0,0,0-1.473-1.4c-1.665-.021-3.331-.026-5,0-.457.008-.591-.116-.583-.575.026-1.565.011-3.133.011-4.785.438,0,.858,0,1.277,0a10.423,10.423,0,0,0,1.185-.029,1.527,1.527,0,0,0,1.357-1.562,1.5,1.5,0,0,0-1.5-1.365c-.644-.018-1.288.013-1.929-.016-.135-.008-.372-.185-.375-.29-.029-1.467-.024-2.935-.026-4.4v-.649h.525q2.4,0,4.8,0a1.617,1.617,0,0,0,1.51-.771,1.451,1.451,0,0,0-1.267-2.185q-2.5-.036-5,.005c-.472.008-.578-.145-.573-.589.026-1.565.011-3.13.011-4.774.248,0,.47,0,.694,0,.607-.013,1.225.018,1.826-.055a1.459,1.459,0,0,0-.045-2.906c-.623-.063-1.251-.045-1.877-.061-.177-.005-.354,0-.57,0V35.9h.48c1.533,0,3.067.011,4.6-.005a2.96,2.96,0,0,0,1.011-.174,1.441,1.441,0,0,0,.916-1.444,1.486,1.486,0,0,0-1.269-1.328,17.105,17.105,0,0,0-1.877-.071c-1.267-.011-2.536-.005-3.832-.005a2.418,2.418,0,0,1-.055-.348c0-1.5.013-3-.013-4.5-.008-.417.145-.5.517-.483.591.024,1.188.024,1.779-.005a1.474,1.474,0,1,0,.024-2.945c-.736-.04-1.478-.008-2.238-.008a1.723,1.723,0,0,1-.066-.314c-.005-1.536.008-3.069-.013-4.6-.005-.364.129-.443.459-.438,1.552.016,3.1.016,4.653.008a2.94,2.94,0,0,0,.876-.1,1.487,1.487,0,0,0,1.058-1.5,1.515,1.515,0,0,0-1.51-1.365c-1.5-.034-3-.021-4.5-.026-.311,0-.626,0-.958,0a1.459,1.459,0,0,1-.063-.3c-.005-1.533.008-3.069-.013-4.6-.005-.364.127-.441.459-.438q6.778.016,13.558,0c.43,0,.56.116.557.554q-.016,10.068-.005,20.138V43.487c0,.214,0,.428.011.641a1.494,1.494,0,0,0,1.412,1.5,1.576,1.576,0,0,0,1.56-1.43,4.4,4.4,0,0,0,.008-.494V11.037a9.911,9.911,0,0,0,1.412-.686,2.245,2.245,0,0,0,.958-1.913c.013-1.9.018-3.8,0-5.69A2.518,2.518,0,0,0,80.308.15a1.581,1.581,0,0,1-.3-.15H33.986L33.6.209a1.473,1.473,0,0,0-.868,1.386A1.531,1.531,0,0,0,33.97,2.9a5.294,5.294,0,0,0,.982.066q6.235,0,12.471-.016h1.462C48.932,4,48.953,5,49.032,6a5.42,5.42,0,0,0,5.015,4.877c1.565.066,3.133.055,4.7.034.443-.005.528.14.507.533-.034.575-.026,1.153-.026,1.731q0,38.049,0,76.1c0,.443.018.889.026,1.335,0,.158,0,.319,0,.5a2.681,2.681,0,0,1-.325.042q-7.89.016-15.783.013H5.587c-.127,0-.251,0-.375,0A4.91,4.91,0,0,0,.406,94.537,10.5,10.5,0,0,0,.2,99.527a2,2,0,0,0,1.386,1.555,1.369,1.369,0,0,1,.333.267H86.045c.074-.034.145-.077.222-.106a2.7,2.7,0,0,0,2.051-3.027c-.018-1.386-.011-2.771-.013-4.157M54.567,7.918A2.465,2.465,0,0,1,51.9,5.371c-.029-.771-.005-1.544-.005-2.4h.655l24.635,0c.56,0,1.122-.024,1.681,0,.127.005.356.158.359.248.021,1.544.016,3.091.016,4.7ZM85.312,98.379H3.014c0-.85-.037-1.657.011-2.46a1.887,1.887,0,0,1,1.565-1.692,7.094,7.094,0,0,1,1.23-.1q17.463-.012,34.931-.013H85.312Z" transform="translate(0)" fill="#29407c"/>
    <path id="Path_1837" data-name="Path 1837" d="M37.866,166.218h.381c1.747,0,3.495-.012,5.242,0a1.28,1.28,0,0,1,1.422,1.457q-.014,7.492-.024,14.983c0,2.035-.016,4.071,0,6.106a3.245,3.245,0,0,0,.193,1.094,1.616,1.616,0,0,0,1.746,1.07,1.678,1.678,0,0,0,1.5-1.544c.053-.921.032-1.846.034-2.769,0-1.647,0-3.293,0-4.94a6.379,6.379,0,0,1,.03-.681,1.182,1.182,0,0,1,1.187-1.087,1.208,1.208,0,0,1,1.179,1.056,5.089,5.089,0,0,1,.029.641q0,3.6,0,7.191a4.176,4.176,0,0,1-1.231,3.32,4.135,4.135,0,0,1-7.025-2.78c-.064-.879-.03-1.766-.031-2.65q0-8.8.006-17.594c0-.4-.127-.459-.481-.456-1.68.016-3.361.006-5.041,0-.175,0-.35,0-.524-.01a1.221,1.221,0,0,1-1.247-1.655c.276-1.157.556-2.313.853-3.464q1.686-6.541,3.385-13.078,1.244-4.812,2.482-9.626c.023-.091.03-.185.055-.275a.359.359,0,0,0-.25-.506.376.376,0,0,0-.526.285c-.342,1.181-.69,2.36-1.021,3.544q-2.111,7.548-4.211,15.1a4.309,4.309,0,0,1-3.036,3.29,4.187,4.187,0,0,1-5.109-3.229,3.773,3.773,0,0,1,.1-1.9q.993-3.615,2-7.225.717-2.567,1.454-5.127a1.2,1.2,0,1,1,2.305.624q-1.09,3.879-2.182,7.758c-.433,1.544-.873,3.087-1.283,4.637a1.7,1.7,0,0,0,1.189,2.143,1.654,1.654,0,0,0,2.143-1.227c.763-2.687,1.5-5.38,2.256-8.07q1.494-5.347,2.99-10.693a2.931,2.931,0,0,1,1.849-2.17,2.605,2.605,0,0,1,2.747.507,2.68,2.68,0,0,1,.921,2.786c-.6,2.4-1.226,4.791-1.844,7.184q-2.271,8.793-4.543,17.586c-.029.113-.043.23-.073.4" transform="translate(-20.429 -101.265)" fill="#29407c"/>
    <path id="Path_1838" data-name="Path 1838" d="M65.582,105.57c-2.339,0-4.678-.009-7.018,0a10.049,10.049,0,0,0-3.761.565,8.02,8.02,0,0,0-4.854,5.429c-.371,1.228-.691,2.471-1.047,3.7a1.157,1.157,0,0,1-1.017.857,1.064,1.064,0,0,1-1.044-.483,1.351,1.351,0,0,1-.16-1.192c.236-.864.434-1.741.721-2.587a17.745,17.745,0,0,1,1.265-3.28,10.025,10.025,0,0,1,9.064-5.357c4.625-.028,9.249-.011,13.874.014a19.728,19.728,0,0,1,3.852.206,9.889,9.889,0,0,1,7.957,7.426c1.919,6.693,3.767,13.407,5.654,20.109a5.44,5.44,0,0,1,.27,2.912,4.083,4.083,0,0,1-7.839.437c-.435-1.277-.76-2.59-1.128-3.888q-1.733-6.113-3.459-12.229c-.29-1.029-.543-2.068-.832-3.1-.127-.454-.342-.534-.7-.342-.266.141-.2.347-.144.554q.477,1.864.958,3.728,1.154,4.485,2.309,8.97c.113.44.233.878.348,1.318a1.2,1.2,0,0,1-.768,1.579,1.227,1.227,0,0,1-1.533-.992q-1.085-4.193-2.158-8.388c-.5-1.968-1.027-3.932-1.479-5.911a2.759,2.759,0,0,1,2.129-3.245,2.813,2.813,0,0,1,3.281,1.978q2.512,8.976,5.015,17.956c.122.437.242.878.4,1.3a1.706,1.706,0,0,0,2.142,1.013,1.624,1.624,0,0,0,1.172-1.863c-.253-1.174-.6-2.329-.921-3.487q-2.179-7.8-4.369-15.6c-.253-.9-.481-1.809-.774-2.7a7.832,7.832,0,0,0-7.065-5.345c-2.78-.082-5.564-.017-8.347-.017v-.057" transform="translate(-34.312 -75.973)" fill="#29407c"/>
    <path id="Path_1839" data-name="Path 1839" d="M110.05,227.185h-1.794c-.01.122-.026.237-.026.352,0,2.29.012,4.58,0,6.87a2.475,2.475,0,0,1-.178.971,1.111,1.111,0,0,1-1.222.577,1.283,1.283,0,0,1-.974-.965,4.346,4.346,0,0,1-.05-.72q-.006-3.957,0-7.913c0-1.161.436-1.613,1.6-1.62s2.339-.008,3.509,0c1.125.012,1.548.461,1.547,1.58q-.009,10.506-.01,21.011a3.663,3.663,0,0,0,.06.8,1.682,1.682,0,0,0,1.92,1.33,1.636,1.636,0,0,0,1.431-1.712q0-10.707.006-21.413a2.21,2.21,0,0,1,.108-.787,1.3,1.3,0,0,1,1.353-.81q2.581,0,5.162-.007h.464c-.154-.621-.294-1.2-.439-1.771-.368-1.451-.718-2.907-1.117-4.349a1.175,1.175,0,1,1,2.276-.559c.42,1.562.814,3.131,1.22,4.7.249.957.5,1.912.749,2.87a1.159,1.159,0,0,1-1.16,1.528q-2.843.033-5.686,0c-.4,0-.49.118-.489.493q.015,9.662.009,19.324a5.543,5.543,0,0,1-.451,2.66,4.227,4.227,0,0,1-4.649,2.086,4.178,4.178,0,0,1-3.159-3.935q0-10.024,0-20.047Z" transform="translate(-77.879 -159.787)" fill="#29407c"/>
    <path id="Path_1840" data-name="Path 1840" d="M95.989,37.7c4.477-.342,8.036,3.685,8.018,7.8A8.028,8.028,0,0,1,96,53.582a8.115,8.115,0,0,1-8.036-8.169c.1-4.5,3.908-8.053,8.027-7.709m-5.644,7.883a5.683,5.683,0,0,0,5.77,5.576,5.6,5.6,0,1,0-5.77-5.576" transform="translate(-64.745 -27.736)" fill="#29407c"/>
  </g>
</svg>
