<svg xmlns="http://www.w3.org/2000/svg" width="206.783" height="235.25" viewBox="0 0 206.783 235.25">
  <g id="Layer_1" data-name="Layer 1" transform="translate(2.091 36.673) rotate(-13)">
    <g id="Group_86" data-name="Group 86" transform="translate(0 0)">
      <g id="Group_84" data-name="Group 84" transform="translate(0 0)">
        <path id="Path_246" data-name="Path 246" d="M41.089,2.933A23.8,23.8,0,0,0,32.58,2.3c-1.023.117-2.186.453-2.365,1.468A2.508,2.508,0,0,0,32.073,6.2a4.741,4.741,0,0,0,2.982-.289A33.071,33.071,0,0,0,41.089,2.933Z" transform="translate(-8.035 -2.163)" fill="#152639" stroke="#152639" stroke-miterlimit="10" stroke-width="4.32"/>
        <path id="Path_247" data-name="Path 247" d="M14.96,9.011A19.183,19.183,0,0,1,18.169,5.9a6.9,6.9,0,0,1,4.278-1.366,2.371,2.371,0,0,1,2.178,1.249,1.613,1.613,0,0,1-.289,1.507,3.638,3.638,0,0,1-1.265.945,11.932,11.932,0,0,1-8.111.773Z" transform="translate(-4.694 -2.682)" fill="#152639" stroke="#152639" stroke-miterlimit="10" stroke-width="3.61"/>
        <path id="Path_248" data-name="Path 248" d="M12.529,8.5c-18.666,12.592-9.352,35.568.859,49.823,5.426,11.164,17.487,16.2,30.9,11.695C56.356,65.4,65.513,53.053,61.781,40.21,56.879,26.049,56.02-.822,34.856,3.035" transform="translate(-1.81 -2.272)" fill="none" stroke="#263238" stroke-miterlimit="10" stroke-width="3.61"/>
        <path id="Path_249" data-name="Path 249" d="M49.245,89.9c3.552,11.726,7.057,24.646,2.17,35.88-3.271,7.518-9.907,13.162-13.217,20.657a26.336,26.336,0,0,0,32.164,35.692,26.955,26.955,0,0,0,18.112-22.156,13.209,13.209,0,0,0-1.163-7.916c-1.312-2.373-4.013-4.114-6.69-3.661-2.92.5-4.981,3.591-4.793,6.55a8.887,8.887,0,0,0,4.871,6.971,15.414,15.414,0,0,0,8.65,1.4c6.792-.632,12.983-4,18.924-7.354s12.054-6.823,18.814-7.682,14.435,1.561,17.721,7.541" transform="translate(-9.321 -21.406)" fill="none" stroke="#152639" stroke-miterlimit="10" stroke-width="3.61"/>
        <path id="Path_250" data-name="Path 250" d="M170.819,172.883c20.914-15.871,42.313,18.822,20.641,30.735C175.136,212.588,153.613,189.581,170.819,172.883Z" transform="translate(-37.488 -38.71)" fill="#152639"/>
        <path id="Path_251" data-name="Path 251" d="M175.763,178.67c14.763-11.2,29.869,13.287,14.567,21.695-11.523,6.331-26.715-9.907-14.567-21.695Z" transform="translate(-38.98 -40.243)" fill="#fff"/>
        <path id="Path_252" data-name="Path 252" d="M179.422,182.95c10.211-7.744,20.657,9.189,10.079,15C181.529,202.334,171.029,191.1,179.422,182.95Z" transform="translate(-40.086 -41.377)" fill="#29407c"/>
        <path id="Path_253" data-name="Path 253" d="M37.482,83.6a31.941,31.941,0,0,0,10.141-1.717l.078-.031A32.507,32.507,0,0,0,63.338,69.248a23.857,23.857,0,0,0,3.052-19.587,1.968,1.968,0,1,0-3.778,1.1c3.591,12.366-5.7,23.342-16.269,27.4C34.188,82.23,23.016,78.03,17.88,67.46a1.969,1.969,0,1,0-3.544,1.717A25.108,25.108,0,0,0,37.49,83.6Z" transform="translate(-4.514 -12.268)" fill="#29407c"/>
      </g>
      <g id="Group_85" data-name="Group 85" transform="translate(21.953 69.338)">
        <path id="Path_254" data-name="Path 254" d="M138.125,98.53,140,108.164l-4.216.71s-2.178-6.722,2.35-10.336Z" transform="translate(-53.031 -92.636)" fill="#597790"/>
        <path id="Path_255" data-name="Path 255" d="M135.017,110.337a37.382,37.382,0,0,1,4.091,7.073q-16.851,52.251-29.947,105.836l-6.831,4.1S35.067,213.2,34.981,213.1q-2.529-2.436-5.051-4.879s32.546-104.08,32.882-104.525c1.249-1.351,2.506-2.693,3.755-4.044l68.442,10.7Z" transform="translate(-29.93 -92.882)" fill="#1a2942"/>
        <path id="Path_256" data-name="Path 256" d="M133.938,117.1,68.556,105.92,39.07,207.158l65.819,14.3Z" transform="translate(-31.935 -94.257)" fill="#f9f5e3"/>
        <path id="Path_257" data-name="Path 257" d="M130.632,97.4a16.413,16.413,0,0,0-2.35,10.336s-26.559-3.568-26.933-3.927A10.852,10.852,0,0,1,104.76,93.4l25.864,4Z" transform="translate(-45.538 -91.511)" fill="#29407c"/>
        <path id="Path_258" data-name="Path 258" d="M124.32,96.32a8.39,8.39,0,0,0-5.394-5.152,5.746,5.746,0,0,0-6.565,2.779Z" transform="translate(-48.009 -90.98)" fill="#29407c"/>
        <path id="Path_259" data-name="Path 259" d="M127.645,131.228a5.663,5.663,0,0,1-8.556-3.154c.429.656-.531,1.468-1.3,1.319a8.234,8.234,0,0,1-2.053-1.148,3.361,3.361,0,0,0-4.169.968,4.294,4.294,0,0,0-6.074-2.241.818.818,0,0,0,.788.788,7.027,7.027,0,0,0-8.033-3.123c-1.358-1.639-3.7-1.991-5.824-2.225l-7.331-.8" transform="translate(-42.028 -97.698)" fill="none" stroke="#7397ba" stroke-miterlimit="10" stroke-width="3.49"/>
        <path id="Path_260" data-name="Path 260" d="M122.492,142.391c-1.647.546-3.529,1.077-5.035.219a6.684,6.684,0,0,0-1.374-.781c-.952-.265-1.881.375-2.8.718a5.063,5.063,0,0,1-5.847-1.944,6.908,6.908,0,0,0-1.124-1.647,2.122,2.122,0,0,0-3.091.523.718.718,0,0,0-.07.734c.141.219.57.187.586-.07a6.249,6.249,0,0,0-7.049-1.062c-1.515-1.39-3.38-2.888-5.394-2.444-1.124.25-2.147,1.1-3.294.96s-2.545-1.155-3.224-.226" transform="translate(-41.958 -100.977)" fill="none" stroke="#7397ba" stroke-miterlimit="10" stroke-width="3.49"/>
        <path id="Path_261" data-name="Path 261" d="M72.511,219.249a28.4,28.4,0,0,1-3.755-2.084,1.371,1.371,0,0,1-.695-.788c-.07-.351.32-.773.625-.586a3.217,3.217,0,0,1-3.755,1.327,9.416,9.416,0,0,1-3.583-2.35c-.312.507-.039,1.2-.3,1.749-.406.874-1.757.671-2.506.062s-1.351-1.5-2.3-1.7a5.368,5.368,0,0,0-1.538.047,5.266,5.266,0,0,1-4.3-1.764" transform="translate(-34.422 -117.777)" fill="none" stroke="#7397ba" stroke-miterlimit="10" stroke-width="3.49"/>
        <path id="Path_262" data-name="Path 262" d="M71.63,225.042c-1.811-.336-3.732-.71-5.1-1.944a2.024,2.024,0,0,0-.687-.492c-1.116-.375-1.772,1.53-2.943,1.647-1.343.141-2.038-2.084-3.38-1.92-.461.055-.828.4-1.273.523a1.47,1.47,0,0,1-1.78-1.163,7.727,7.727,0,0,1-3.1-.383" transform="translate(-35.071 -119.565)" fill="none" stroke="#7397ba" stroke-miterlimit="10" stroke-width="3.49"/>
        <path id="Path_263" data-name="Path 263" d="M66.907,229.924c-1.132-.39-2.256-.788-3.388-1.179a2.154,2.154,0,0,0-1.054-.18c-.687.117-1.171.874-1.866.874-1.1,0-1.546-1.788-2.646-1.78a2.377,2.377,0,0,0-.921.3,3.7,3.7,0,0,1-2.842.016" transform="translate(-35.251 -120.958)" fill="none" stroke="#7397ba" stroke-miterlimit="10" stroke-width="3.49"/>
        <path id="Path_264" data-name="Path 264" d="M117.343,155.475l-11.382,44.233L58.73,190.972,71.861,147.2Z" transform="translate(-36.247 -103.311)" fill="#f9c650"/>
      </g>
    </g>
  </g>
</svg>
