<svg xmlns="http://www.w3.org/2000/svg" width="540.945" height="171.252" viewBox="0 0 540.945 171.252">
  <g id="Layer_1" data-name="Layer 1" transform="translate(0)" style="mix-blend-mode: multiply;isolation: isolate">
    <g id="Group_162" data-name="Group 162" transform="translate(0 0)">
      <g id="Group_146" data-name="Group 146" transform="translate(224.055)">
        <g id="Group_144" data-name="Group 144">
          <path id="Path_341" data-name="Path 341" d="M231.21,6.45H181.29a13.268,13.268,0,0,0-13.27,13.27V49.889a13.268,13.268,0,0,0,13.27,13.27H199.6l6.655,9.579,6.655-9.579h18.31a13.268,13.268,0,0,0,13.27-13.27V19.72A13.268,13.268,0,0,0,231.22,6.45Z" transform="translate(-167.759 -6.244)" fill="#fff"/>
          <path id="Path_342" data-name="Path 342" d="M231.216,6.455a10.965,10.965,0,0,1,1.728.082A12.734,12.734,0,0,1,237.7,8.049a14.862,14.862,0,0,1,2.934,2.178,13.647,13.647,0,0,1,2.566,3.537,13.233,13.233,0,0,1,1.38,4.866c.112,1.81.041,3.691.072,5.694,0,4,.02,8.4.031,13.178,0,2.382,0,4.866.01,7.422V48.83a17.106,17.106,0,0,1-.337,4.048,13.5,13.5,0,0,1-4.314,7.218,13.359,13.359,0,0,1-8.209,3.282c-6.062.072-12.37.031-18.923.051l.2-.112c-2.1,3.026-4.355,6.277-6.645,9.589l-.215.307-.215-.307c-2.106-3.036-4.365-6.287-6.655-9.579l.215.112H183.033c-1.084,0-2.178.01-3.282-.092a13.794,13.794,0,0,1-6.093-2.27,14.192,14.192,0,0,1-4.294-4.764,13.8,13.8,0,0,1-1.595-6.1V20.788a15.126,15.126,0,0,1,.757-5.459A13.491,13.491,0,0,1,180.263,6.3c1.656-.1,3.231-.02,4.8-.041q4.693,0,9.007.02c11.46.031,20.733.061,27.174.082,3.19.02,5.674.041,7.391.051.828.01,1.472.02,1.922.031a5.4,5.4,0,0,1,.654.031s-.225.02-.654.031c-.45,0-1.094.01-1.922.031-1.707.01-4.192.031-7.391.051-6.43.02-15.713.051-27.174.082-2.873,0-5.868.01-9.007.02-1.554.02-3.179-.041-4.774.061A13.051,13.051,0,0,0,168.956,15.5a14.565,14.565,0,0,0-.716,5.306v5.613c0,7.586.02,15.539.031,23.79a13.331,13.331,0,0,0,1.533,5.868,13.5,13.5,0,0,0,4.12,4.58,13.281,13.281,0,0,0,5.858,2.178c1.043.1,2.126.092,3.22.092h16.7l.082.112c2.29,3.292,4.539,6.543,6.655,9.589h-.429c2.3-3.3,4.56-6.553,6.655-9.579l.072-.112h.133c6.543,0,12.881.041,18.9-.01A13.026,13.026,0,0,0,243.9,52.817a17.207,17.207,0,0,0,.337-3.956V44.955q0-3.849.01-7.422c.01-4.774.02-9.181.031-13.178-.02-1.994.061-3.905-.041-5.674a12.831,12.831,0,0,0-1.319-4.774,13.646,13.646,0,0,0-2.495-3.5,14.015,14.015,0,0,0-2.873-2.178,12.89,12.89,0,0,0-4.682-1.574,11.692,11.692,0,0,0-1.278-.123c-.286-.02-.44-.041-.44-.041Z" transform="translate(-167.764 -6.248)" fill="#e0e0e0"/>
        </g>
        <g id="Group_145" data-name="Group 145" transform="translate(19.614 25.038)">
          <path id="Path_343" data-name="Path 343" d="M195.538,35.034a4.294,4.294,0,1,1-4.294-4.294A4.293,4.293,0,0,1,195.538,35.034Z" transform="translate(-186.95 -30.74)" fill="#e0e0e0"/>
          <path id="Path_344" data-name="Path 344" d="M209.358,35.034a4.294,4.294,0,1,1-4.294-4.294A4.293,4.293,0,0,1,209.358,35.034Z" transform="translate(-186.641 -30.74)" fill="#e0e0e0"/>
          <path id="Path_345" data-name="Path 345" d="M223.178,35.034a4.294,4.294,0,1,1-4.294-4.294A4.293,4.293,0,0,1,223.178,35.034Z" transform="translate(-186.333 -30.74)" fill="#e0e0e0"/>
        </g>
      </g>
      <g id="Group_149" data-name="Group 149" transform="translate(197.076 124.23)">
        <g id="Group_147" data-name="Group 147">
          <path id="Path_346" data-name="Path 346" d="M318.615,149.6H283.7a9.282,9.282,0,0,0-9.283,9.283v21.1a9.282,9.282,0,0,0,9.283,9.283h12.8l4.652,6.706,4.652-6.706h12.8a9.282,9.282,0,0,0,9.283-9.283v-21.1a9.282,9.282,0,0,0-9.283-9.283Z" transform="translate(-274.14 -149.39)" fill="#fff"/>
          <path id="Path_347" data-name="Path 347" d="M318.621,149.6a8.237,8.237,0,0,1,1.206.041,8.7,8.7,0,0,1,3.333,1.053,9.361,9.361,0,0,1,4.846,7.412c.082,1.268.031,2.587.051,3.987,0,2.8.02,5.878.031,9.211,0,1.666,0,3.4.01,5.193v2.73a11.859,11.859,0,0,1-.235,2.852,9.486,9.486,0,0,1-3.036,5.081,9.39,9.39,0,0,1-5.786,2.31c-4.253.051-8.649.02-13.239.041l.2-.112c-1.472,2.116-3.047,4.4-4.652,6.706l-.215.307-.215-.307c-1.472-2.126-3.057-4.4-4.652-6.7l.215.112H284.905c-.756,0-1.523,0-2.3-.061a9.775,9.775,0,0,1-4.3-1.595,9.933,9.933,0,0,1-3.026-3.363,9.7,9.7,0,0,1-1.125-4.3v-20.58a10.613,10.613,0,0,1,.532-3.844,9.491,9.491,0,0,1,8.271-6.349c1.165-.072,2.259-.01,3.363-.031,2.188,0,4.294.01,6.3.02,8,.031,14.486.061,19.005.082,2.218.02,3.956.041,5.163.051.572.01,1.012.02,1.339.031a1.753,1.753,0,0,1,.46.031,2.626,2.626,0,0,1-.46.031c-.327,0-.777.01-1.339.031-1.206.01-2.944.031-5.163.051-4.508.02-11,.051-19.005.082-2,0-4.11.01-6.3.02-1.084.02-2.229-.031-3.333.041a9.055,9.055,0,0,0-7.862,6.073,10.278,10.278,0,0,0-.5,3.691v3.926c0,5.306.02,10.867.031,16.644a9.235,9.235,0,0,0,1.063,4.069,9.438,9.438,0,0,0,2.863,3.169,9.143,9.143,0,0,0,4.059,1.5,20.185,20.185,0,0,0,2.239.061H296.6l.082.112c1.595,2.31,3.179,4.58,4.652,6.706H300.9c1.605-2.31,3.19-4.58,4.662-6.7l.072-.112h13.352a8.919,8.919,0,0,0,5.5-2.178A9.059,9.059,0,0,0,327.4,182a11.335,11.335,0,0,0,.235-2.75v-2.73c0-1.789,0-3.527.01-5.193.01-3.333.02-6.42.031-9.211-.01-1.39.051-2.74-.02-3.967a8.964,8.964,0,0,0-.91-3.323,9.35,9.35,0,0,0-3.731-3.967,9.181,9.181,0,0,0-3.261-1.114c-.777-.1-1.2-.1-1.2-.133Z" transform="translate(-274.146 -149.395)" fill="#e0e0e0"/>
        </g>
        <g id="Group_148" data-name="Group 148" transform="translate(13.816 17.579)">
          <ellipse id="Ellipse_29" data-name="Ellipse 29" cx="3.006" cy="3.006" rx="3.006" ry="3.006" fill="#e0e0e0"/>
          <ellipse id="Ellipse_30" data-name="Ellipse 30" cx="3.006" cy="3.006" rx="3.006" ry="3.006" transform="translate(9.886)" fill="#e0e0e0"/>
          <ellipse id="Ellipse_31" data-name="Ellipse 31" cx="3.006" cy="3.006" rx="3.006" ry="3.006" transform="translate(19.762)" fill="#e0e0e0"/>
        </g>
      </g>
      <g id="Group_152" data-name="Group 152" transform="translate(475.495 33.116)">
        <g id="Group_150" data-name="Group 150">
          <path id="Path_348" data-name="Path 348" d="M549.043.21H506.616A11.279,11.279,0,0,0,495.34,11.486v25.63a11.279,11.279,0,0,0,11.276,11.276h15.56l5.654,8.148,5.654-8.148h15.56a11.279,11.279,0,0,0,11.276-11.276V11.486A11.279,11.279,0,0,0,549.043.21Z" transform="translate(-495.07 0.007)" fill="#fff"/>
          <path id="Path_349" data-name="Path 349" d="M549.049.215a10.461,10.461,0,0,1,1.462.061,10.922,10.922,0,0,1,4.048,1.278,11.89,11.89,0,0,1,2.495,1.85,11.747,11.747,0,0,1,2.188,3.006,11.428,11.428,0,0,1,1.176,4.14c.1,1.544.041,3.139.061,4.836,0,3.394.021,7.146.031,11.195q0,3.036.01,6.308v3.323a14.272,14.272,0,0,1-.286,3.455,11.519,11.519,0,0,1-3.68,6.154,11.377,11.377,0,0,1-6.993,2.8c-5.163.061-10.51.031-16.081.041l.2-.112c-1.789,2.576-3.7,5.337-5.654,8.148l-.215.307L527.6,56.7c-1.789-2.576-3.711-5.337-5.654-8.138l.215.112H508.084c-.92,0-1.85.01-2.791-.082a11.741,11.741,0,0,1-5.193-1.932,12.026,12.026,0,0,1-3.66-4.069,11.7,11.7,0,0,1-1.36-5.2V12.38a12.978,12.978,0,0,1,.644-4.652A11.5,11.5,0,0,1,505.733.041c1.411-.082,2.75-.02,4.089-.031,2.658,0,5.214.01,7.647.02,9.733.031,17.615.061,23.084.082,2.709.02,4.815.041,6.277.051.705.01,1.247.02,1.636.031a3.759,3.759,0,0,1,.552.031s-.184.02-.552.031c-.389,0-.93.01-1.636.031-1.462.01-3.568.031-6.277.051-5.469.02-13.352.051-23.084.082-2.433,0-4.989.01-7.647.02-1.319.02-2.7-.041-4.048.051a10.974,10.974,0,0,0-3.967,1.073A11.126,11.126,0,0,0,496.184,7.9a12.2,12.2,0,0,0-.6,4.5v4.774c0,6.441.02,13.209.031,20.222a10.987,10.987,0,0,0,9.753,10.683,26.724,26.724,0,0,0,2.73.072h14.221l.082.112c1.943,2.8,3.864,5.561,5.654,8.148h-.429c1.952-2.811,3.875-5.572,5.664-8.138l.072-.112h.133c5.561,0,10.949.031,16.061-.01a10.911,10.911,0,0,0,6.717-2.668,11.055,11.055,0,0,0,3.558-5.9,14.222,14.222,0,0,0,.286-3.353V32.909q0-3.266.01-6.308c.01-4.048.021-7.8.031-11.195-.01-1.7.061-3.323-.031-4.815a11.02,11.02,0,0,0-1.114-4.048,11.336,11.336,0,0,0-2.116-2.965,11.98,11.98,0,0,0-2.433-1.85A10.788,10.788,0,0,0,550.49.389c-.951-.123-1.452-.123-1.452-.153Z" transform="translate(-495.076 0.002)" fill="#e0e0e0"/>
        </g>
        <g id="Group_151" data-name="Group 151" transform="translate(16.719 21.318)">
          <path id="Path_350" data-name="Path 350" d="M518.729,24.5a3.65,3.65,0,1,1-3.65-3.65A3.652,3.652,0,0,1,518.729,24.5Z" transform="translate(-511.43 -20.85)" fill="#e0e0e0"/>
          <path id="Path_351" data-name="Path 351" d="M530.469,24.5a3.65,3.65,0,1,1-3.65-3.65A3.652,3.652,0,0,1,530.469,24.5Z" transform="translate(-511.168 -20.85)" fill="#e0e0e0"/>
          <path id="Path_352" data-name="Path 352" d="M542.219,24.5a3.65,3.65,0,1,1-3.65-3.65A3.652,3.652,0,0,1,542.219,24.5Z" transform="translate(-510.905 -20.85)" fill="#e0e0e0"/>
        </g>
      </g>
      <g id="Group_155" data-name="Group 155" transform="translate(364.232 43.083)">
        <g id="Group_153" data-name="Group 153">
          <path id="Path_353" data-name="Path 353" d="M411.97,48.809a27.5,27.5,0,1,1,10.6,21.765h0L413.34,71.78l2.648-8.557a27.414,27.414,0,0,1-4.028-14.415Z" transform="translate(-411.947 -21.18)" fill="#fff"/>
          <path id="Path_354" data-name="Path 354" d="M411.971,48.813a20.942,20.942,0,0,0,.194,3.956,27.122,27.122,0,0,0,3.711,10.53v-.123c-.808,2.515-1.707,5.4-2.689,8.547a.179.179,0,0,0,.112.225h.072c2.811-.358,5.919-.746,9.232-1.165a.192.192,0,0,0,.174-.225.181.181,0,0,0-.041-.1v-.01l-.286.286A27.863,27.863,0,0,0,433.6,75.987a26.264,26.264,0,0,0,6.747.593c.583-.031,1.166-.051,1.748-.082.583-.061,1.166-.164,1.758-.245a26.735,26.735,0,0,0,3.517-.777,27.791,27.791,0,0,0,6.758-3.057l.808-.491.767-.573c.5-.388,1.043-.746,1.523-1.165a29.97,29.97,0,0,0,5.245-5.786,30.467,30.467,0,0,0,1.973-3.476,29.956,29.956,0,0,0,1.513-3.752,30.989,30.989,0,0,0,.9-4,27.252,27.252,0,0,0-.1-9.293,28.5,28.5,0,0,0-3.057-8.5,27.322,27.322,0,0,0-5.408-6.839,32.388,32.388,0,0,0-3.3-2.658,30.8,30.8,0,0,0-3.609-2.024l-.92-.45c-.307-.143-.634-.235-.951-.358-.634-.225-1.257-.48-1.891-.675a28.429,28.429,0,0,0-3.844-.849,26.807,26.807,0,0,0-3.8-.337c-.624-.051-1.247.041-1.861.051a17.922,17.922,0,0,0-1.83.133,27.744,27.744,0,0,0-12.493,4.723,28.042,28.042,0,0,0-7.627,7.984,30.806,30.806,0,0,0-2.116,4.028,29.909,29.909,0,0,0-1.2,3.629c-.133.562-.286,1.084-.389,1.574-.072.5-.143.971-.2,1.411s-.123.838-.174,1.206c-.02.368-.031.705-.041,1.012-.02.583-.031,1.043-.051,1.37v.47a4.013,4.013,0,0,0,.051-.47c.02-.327.061-.787.1-1.37.02-.307.041-.634.072-1,.061-.368.123-.767.2-1.2s.143-.9.235-1.4c.112-.491.266-1.012.409-1.564a29.385,29.385,0,0,1,1.227-3.588,31.827,31.827,0,0,1,2.137-3.967,27.909,27.909,0,0,1,7.586-7.841,27.485,27.485,0,0,1,12.34-4.6,14.909,14.909,0,0,1,1.8-.123,18.156,18.156,0,0,1,1.83-.041,25.99,25.99,0,0,1,3.742.348,27.79,27.79,0,0,1,3.772.849c.624.194,1.237.45,1.861.665.307.123.624.225.93.358l.9.44a29.088,29.088,0,0,1,3.548,2,30.244,30.244,0,0,1,3.241,2.617,26.891,26.891,0,0,1,5.3,6.717,28.111,28.111,0,0,1,2.985,8.342,26.759,26.759,0,0,1,.1,9.119A29.724,29.724,0,0,1,465.479,57,30.4,30.4,0,0,1,464,60.683a27.948,27.948,0,0,1-1.932,3.415,30.3,30.3,0,0,1-2.4,3.026,29.085,29.085,0,0,1-2.73,2.658c-.48.409-1,.757-1.493,1.145l-.746.562-.8.48a25.962,25.962,0,0,1-10.08,3.783c-.583.082-1.155.184-1.728.245-.573.031-1.155.051-1.718.082a25.4,25.4,0,0,1-6.635-.562,27.56,27.56,0,0,1-11-5.122.208.208,0,0,0-.286.031.2.2,0,0,0,0,.245v.01l.133-.327c-3.312.44-6.42.849-9.221,1.217l.194.225c.961-3.159,1.84-6.042,2.617-8.567a.252.252,0,0,0-.01-.123,27.533,27.533,0,0,1-3.8-10.4c-.194-1.278-.245-2.259-.3-2.924-.01-.317-.02-.562-.031-.757a1.181,1.181,0,0,0-.02-.256Z" transform="translate(-411.947 -21.185)" fill="#1a2942"/>
        </g>
        <g id="Group_154" data-name="Group 154" transform="translate(13.927 24.848)">
          <path id="Path_355" data-name="Path 355" d="M431.97,48.7a3.2,3.2,0,1,1-3.19-3.21A3.2,3.2,0,0,1,431.97,48.7Z" transform="translate(-425.57 -45.49)" fill="#1a2942"/>
          <path id="Path_356" data-name="Path 356" d="M442.12,48.78a3.2,3.2,0,1,1-3.19-3.21A3.2,3.2,0,0,1,442.12,48.78Z" transform="translate(-425.343 -45.488)" fill="#1a2942"/>
          <path id="Path_357" data-name="Path 357" d="M452.081,47.185A3.2,3.2,0,1,1,447.715,46,3.2,3.2,0,0,1,452.081,47.185Z" transform="translate(-425.111 -45.488)" fill="#1a2942"/>
        </g>
      </g>
      <g id="Group_158" data-name="Group 158" transform="translate(143.61 54.926)">
        <g id="Group_156" data-name="Group 156">
          <path id="Path_358" data-name="Path 358" d="M221.87,109.229a27.5,27.5,0,1,1,10.6,21.765h0L223.24,132.2l2.648-8.557a27.415,27.415,0,0,1-4.028-14.415Z" transform="translate(-221.847 -81.6)" fill="#fff"/>
          <path id="Path_359" data-name="Path 359" d="M221.87,109.233a20.947,20.947,0,0,0,.194,3.956,27.12,27.12,0,0,0,3.711,10.53V123.6c-.808,2.515-1.707,5.4-2.689,8.547a.179.179,0,0,0,.112.225h.072c2.811-.358,5.919-.746,9.232-1.165a.192.192,0,0,0,.174-.225.182.182,0,0,0-.041-.1v-.01l-.286.286a27.864,27.864,0,0,0,11.154,5.255,26.264,26.264,0,0,0,6.747.593c.583-.031,1.165-.051,1.748-.082.583-.061,1.165-.164,1.758-.245a26.735,26.735,0,0,0,3.517-.777,27.793,27.793,0,0,0,6.758-3.057l.808-.491.767-.573c.5-.388,1.043-.746,1.523-1.165A28.49,28.49,0,0,0,275.86,117.6a30.994,30.994,0,0,0,.9-4,27.254,27.254,0,0,0-.1-9.293,28.5,28.5,0,0,0-3.057-8.5,27.323,27.323,0,0,0-5.408-6.839,32.4,32.4,0,0,0-3.3-2.658,30.806,30.806,0,0,0-3.609-2.024l-.92-.45c-.307-.143-.634-.245-.951-.358-.634-.225-1.257-.48-1.891-.675a28.43,28.43,0,0,0-3.844-.849,26.8,26.8,0,0,0-3.8-.337c-.624-.051-1.247.041-1.861.051a17.923,17.923,0,0,0-1.83.133,27.745,27.745,0,0,0-12.493,4.723,28.043,28.043,0,0,0-7.627,7.984,30.8,30.8,0,0,0-2.116,4.028,29.908,29.908,0,0,0-1.2,3.629c-.133.562-.286,1.084-.388,1.574-.072.5-.143.971-.2,1.411s-.123.838-.174,1.206c-.02.368-.031.705-.041,1.012-.02.583-.031,1.043-.051,1.37v.47a4.005,4.005,0,0,0,.051-.47c.02-.327.061-.787.1-1.37.02-.307.041-.634.072-1,.061-.368.123-.767.2-1.2s.143-.9.235-1.4c.112-.491.266-1.012.409-1.564a29.368,29.368,0,0,1,1.227-3.588,31.833,31.833,0,0,1,2.137-3.967,27.91,27.91,0,0,1,7.586-7.841,27.486,27.486,0,0,1,12.34-4.6,15.049,15.049,0,0,1,1.8-.123,18.153,18.153,0,0,1,1.83-.041,25.987,25.987,0,0,1,3.742.348,27.794,27.794,0,0,1,3.772.849c.624.194,1.237.45,1.861.675.307.123.624.215.93.358l.9.44a24.971,24.971,0,0,1,6.788,4.621,26.889,26.889,0,0,1,5.3,6.717,28.108,28.108,0,0,1,2.985,8.342,26.76,26.76,0,0,1,.1,9.119,29.729,29.729,0,0,1-.879,3.916,30.4,30.4,0,0,1-1.482,3.68,27.952,27.952,0,0,1-1.932,3.415,30.319,30.319,0,0,1-2.4,3.026,29.087,29.087,0,0,1-2.73,2.658c-.48.409-1,.757-1.493,1.145l-.746.562-.8.481a25.964,25.964,0,0,1-10.08,3.783c-.583.082-1.155.184-1.728.245-.573.031-1.155.051-1.717.082a25.4,25.4,0,0,1-6.635-.562,27.559,27.559,0,0,1-11-5.122.208.208,0,0,0-.286.031.2.2,0,0,0,0,.245v.01l.133-.327c-3.312.44-6.42.849-9.221,1.217l.194.225c.961-3.159,1.84-6.042,2.617-8.567a.252.252,0,0,0-.01-.123,27.532,27.532,0,0,1-3.8-10.4c-.194-1.278-.245-2.259-.3-2.924-.01-.317-.02-.562-.031-.757a1.179,1.179,0,0,0-.02-.256Z" transform="translate(-221.847 -81.605)" fill="#1a2942"/>
        </g>
        <g id="Group_157" data-name="Group 157" transform="translate(13.927 24.848)">
          <path id="Path_360" data-name="Path 360" d="M241.87,109.12a3.2,3.2,0,1,1-3.19-3.21A3.2,3.2,0,0,1,241.87,109.12Z" transform="translate(-235.47 -105.91)" fill="#1a2942"/>
          <path id="Path_361" data-name="Path 361" d="M252.01,109.2a3.2,3.2,0,1,1-3.19-3.21A3.2,3.2,0,0,1,252.01,109.2Z" transform="translate(-235.244 -105.908)" fill="#1a2942"/>
          <path id="Path_362" data-name="Path 362" d="M261.98,107.6a3.2,3.2,0,1,1-4.365-1.186A3.2,3.2,0,0,1,261.98,107.6Z" transform="translate(-235.011 -105.908)" fill="#1a2942"/>
        </g>
      </g>
      <g id="Group_161" data-name="Group 161" transform="translate(0 16.509)">
        <g id="Group_159" data-name="Group 159">
          <path id="Path_363" data-name="Path 363" d="M93.558,62.25H15.268A15,15,0,0,0,.26,77.258v45.167a15,15,0,0,0,15.008,15.008H47.614L57.582,151.8l9.968-14.364h26a15,15,0,0,0,15.008-15.008V77.258A15,15,0,0,0,93.548,62.25Z" transform="translate(0.026 -62.015)" fill="#fff"/>
          <path id="Path_364" data-name="Path 364" d="M93.564,62.255h.572a10.965,10.965,0,0,1,1.677.133,14.871,14.871,0,0,1,6.062,2.27,15.178,15.178,0,0,1,6.175,8.23c.123.5.286,1,.378,1.533.072.532.194,1.063.215,1.615.082,1.1.061,2.239.072,3.4q0,3.512.02,7.432c0,5.234.02,11,.031,17.257q0,4.692.01,9.743V119c-.02,1.738.072,3.5-.123,5.316A15.228,15.228,0,0,1,98.41,136.855a17.068,17.068,0,0,1-5.889.808c-7.964,0-16.306.01-24.965.02l.2-.112c-3.149,4.539-6.522,9.405-9.968,14.364l-.215.307-.215-.307c-3.159-4.549-6.543-9.416-9.978-14.364l.215.112H18.177c-1.523,0-3.047.041-4.59-.092A16.256,16.256,0,0,1,9.14,136.4a15.54,15.54,0,0,1-3.864-2.443A15.192,15.192,0,0,1,.522,126.4a15.872,15.872,0,0,1-.542-4.427V117.6c0-11.593.01-22.778.02-33.44.02-2.668-.051-5.285.051-7.9a15.2,15.2,0,0,1,2.423-7.32,15.687,15.687,0,0,1,5.5-5.091,15.793,15.793,0,0,1,7.034-1.83c9.477,0,18.3.01,26.366.02,16.112.031,29.147.061,38.174.082,4.5.02,7.995.041,10.377.051q1.764.015,2.7.031c.6,0,.92.031.92.031s-.307.02-.92.031-1.523.01-2.7.031c-2.382.01-5.878.031-10.377.051-9.027.02-22.062.051-38.174.082-8.056.01-16.879.031-26.356.041A15.12,15.12,0,0,0,8.2,64.249,15.125,15.125,0,0,0,2.873,69.2,14.632,14.632,0,0,0,.532,76.292C.44,78.858.512,81.506.491,84.164c0,10.653,0,21.837.02,33.44v4.365a15.477,15.477,0,0,0,.532,4.284,14.708,14.708,0,0,0,4.59,7.3,15.075,15.075,0,0,0,3.732,2.362,15.5,15.5,0,0,0,4.294,1.145c1.472.133,3.016.082,4.539.092H47.764l.082.112c3.435,4.948,6.809,9.814,9.968,14.364h-.429c3.445-4.958,6.829-9.825,9.978-14.353l.072-.112h.133q12.989,0,24.965.02a16.56,16.56,0,0,0,5.745-.777,14.791,14.791,0,0,0,9.968-12.156c.194-1.748.112-3.527.133-5.265v-5.132q0-5.045.01-9.743c.01-6.257.02-12.023.031-17.257q0-3.926.02-7.432c0-1.165.02-2.31-.051-3.384-.02-.542-.143-1.063-.2-1.595-.092-.521-.245-1.012-.358-1.5a15.057,15.057,0,0,0-6.042-8.158,15.3,15.3,0,0,0-5.991-2.331,12.08,12.08,0,0,0-1.656-.174c-.378-.031-.562-.051-.562-.051Z" transform="translate(0.02 -62.02)" fill="#1a2942"/>
        </g>
        <g id="Group_160" data-name="Group 160" transform="translate(28.053 29.832)">
          <ellipse id="Ellipse_32" data-name="Ellipse 32" cx="6.39" cy="6.39" rx="6.39" ry="6.39" fill="#1a2942"/>
          <ellipse id="Ellipse_33" data-name="Ellipse 33" cx="6.39" cy="6.39" rx="6.39" ry="6.39" transform="translate(20.273)" fill="#1a2942"/>
          <ellipse id="Ellipse_34" data-name="Ellipse 34" cx="6.39" cy="6.39" rx="6.39" ry="6.39" transform="translate(39.994)" fill="#1a2942"/>
        </g>
      </g>
    </g>
  </g>
</svg>
