<svg id="Group_934" data-name="Group 934" xmlns="http://www.w3.org/2000/svg" xmlns:xlink="http://www.w3.org/1999/xlink" width="128.431" height="131.545" viewBox="0 0 128.431 131.545">
  <defs>
    <clipPath id="clip-path">
      <rect id="Rectangle_567" data-name="Rectangle 567" width="128.431" height="131.545" fill="none"/>
    </clipPath>
  </defs>
  <g id="Group_933" data-name="Group 933" clip-path="url(#clip-path)">
    <path id="Path_2560" data-name="Path 2560" d="M74.979,135.191h-57.1A10.382,10.382,0,0,1,7.5,124.81V17.881A10.382,10.382,0,0,1,17.881,7.5h57.1A10.381,10.381,0,0,1,85.36,17.881V124.81a10.381,10.381,0,0,1-10.381,10.381" transform="translate(-5.573 -5.573)" fill="#ec6e7a"/>
    <path id="Path_2561" data-name="Path 2561" d="M240.118,7.5H229.737a10.381,10.381,0,0,1,10.381,10.381V124.81a10.381,10.381,0,0,1-10.381,10.381h10.381A10.381,10.381,0,0,0,250.5,124.81V17.881A10.381,10.381,0,0,0,240.118,7.5" transform="translate(-170.712 -5.573)" fill="#e85f6c"/>
    <path id="Path_2562" data-name="Path 2562" d="M161.823,86.8H65.8a7.786,7.786,0,0,0-7.786,7.786v51.907a7.786,7.786,0,0,0,7.786,7.786h6.488v12.037a3.535,3.535,0,0,0,6.251,2.263l11.917-14.3h71.372a7.786,7.786,0,0,0,7.786-7.786V94.584a7.786,7.786,0,0,0-7.786-7.786" transform="translate(-43.105 -64.498)" fill="#eaf3d8"/>
    <path id="Path_2563" data-name="Path 2563" d="M438.054,86.8h-8.305a7.786,7.786,0,0,1,7.786,7.786v51.907a7.786,7.786,0,0,1-7.786,7.786h8.305a7.786,7.786,0,0,0,7.786-7.786V94.584a7.786,7.786,0,0,0-7.786-7.786" transform="translate(-319.336 -64.498)" fill="#eaf3d8"/>
    <path id="Path_2564" data-name="Path 2564" d="M122.053,226.534H90.908a2.6,2.6,0,0,1-2.6-2.6V197.985a2.6,2.6,0,0,1,2.6-2.6h31.144a2.6,2.6,0,0,1,2.6,2.6v25.953a2.6,2.6,0,0,1-2.6,2.6" transform="translate(-65.623 -145.19)" fill="#f9c650"/>
    <path id="Path_2565" data-name="Path 2565" d="M195.615,195.39H187.31a2.6,2.6,0,0,1,2.6,2.6v25.953a2.6,2.6,0,0,1-2.6,2.6h8.305a2.6,2.6,0,0,0,2.6-2.6V197.985a2.6,2.6,0,0,0-2.6-2.6" transform="translate(-139.186 -145.19)" fill="#efb93d"/>
    <path id="Path_2566" data-name="Path 2566" d="M125.247,119.628h0a11.679,11.679,0,0,0-11.679,11.679v7.786h7.786v-7.786a3.893,3.893,0,1,1,7.786,0v7.786h7.786v-7.786a11.679,11.679,0,0,0-11.679-11.679" transform="translate(-84.39 -88.893)" fill="#f2fbff"/>
    <path id="Path_2567" data-name="Path 2567" d="M144.013,235.8a5.191,5.191,0,1,1-5.191,5.191,5.191,5.191,0,0,1,5.191-5.191" transform="translate(-103.155 -175.215)" fill="#263238"/>
    <path id="Path_2569" data-name="Path 2569" d="M7.5,103.963V17.882A10.382,10.382,0,0,1,17.882,7.5h57.1A10.382,10.382,0,0,1,85.361,17.882v9.992" transform="translate(-5.573 -5.573)" fill="none" stroke="#000" stroke-linecap="round" stroke-linejoin="round" stroke-width="1"/>
    <path id="Path_2570" data-name="Path 2570" d="M85.361,349.44V378.9a10.382,10.382,0,0,1-10.382,10.382h-57.1A10.382,10.382,0,0,1,7.5,378.9V367.043" transform="translate(-5.573 -259.661)" fill="none" stroke="#000" stroke-linecap="round" stroke-linejoin="round" stroke-width="1"/>
    <line id="Line_53" data-name="Line 53" x2="10.381" transform="translate(35.667 9.713)" fill="none" stroke="#000" stroke-linecap="round" stroke-linejoin="round" stroke-width="1"/>
    <path id="Path_2571" data-name="Path 2571" d="M143.873,161.612v-7.786a3.893,3.893,0,0,1,7.786,0v7.786" transform="translate(-106.909 -111.412)" fill="none" stroke="#000" stroke-linecap="round" stroke-linejoin="round" stroke-width="1"/>
    <path id="Path_2572" data-name="Path 2572" d="M136.927,139.093v-7.786a11.679,11.679,0,1,0-23.358,0v7.786" transform="translate(-84.39 -88.893)" fill="none" stroke="#000" stroke-linecap="round" stroke-linejoin="round" stroke-width="1"/>
    <rect id="Rectangle_565" data-name="Rectangle 565" width="36.335" height="31.144" rx="3" transform="translate(22.69 50.2)" fill="none" stroke="#000" stroke-linecap="round" stroke-linejoin="round" stroke-width="1"/>
    <circle id="Ellipse_64" data-name="Ellipse 64" cx="5.191" cy="5.191" r="5.191" transform="matrix(0.16, -0.987, 0.987, 0.16, 34.902, 70.064)" fill="none" stroke="#000" stroke-linecap="round" stroke-linejoin="round" stroke-width="1"/>
    <rect id="Rectangle_566" data-name="Rectangle 566" width="51.907" height="14.015" rx="7.008" transform="translate(66.811 58.765)" fill="none" stroke="#000" stroke-linecap="round" stroke-linejoin="round" stroke-width="1"/>
    <line id="Line_54" data-name="Line 54" transform="translate(74.597 65.772)" fill="none" stroke="#000" stroke-linecap="round" stroke-linejoin="round" stroke-width="5"/>
    <path id="Path_2575" data-name="Path 2575" d="M0,0H0" transform="translate(81.864 65.772)" fill="none" stroke="#000" stroke-linecap="round" stroke-width="5"/>
    <line id="Line_56" data-name="Line 56" transform="translate(89.131 65.772)" fill="none" stroke="#000" stroke-linecap="round" stroke-linejoin="round" stroke-width="5"/>
    <line id="Line_57" data-name="Line 57" transform="translate(96.398 65.772)" fill="none" stroke="#000" stroke-linecap="round" stroke-linejoin="round" stroke-width="5"/>
    <line id="Line_58" data-name="Line 58" transform="translate(103.665 65.772)" fill="none" stroke="#000" stroke-linecap="round" stroke-linejoin="round" stroke-width="5"/>
    <line id="Line_59" data-name="Line 59" transform="translate(110.931 65.772)" fill="none" stroke="#000" stroke-linecap="round" stroke-linejoin="round" stroke-width="5"/>
    <line id="Line_60" data-name="Line 60" x2="20.763" transform="translate(66.811 50.979)" fill="none" stroke="#000" stroke-linecap="round" stroke-linejoin="round" stroke-width="1"/>
    <line id="Line_61" data-name="Line 61" x2="5.191" transform="translate(95.36 50.979)" fill="none" stroke="#000" stroke-linecap="round" stroke-linejoin="round" stroke-width="1"/>
    <line id="Line_62" data-name="Line 62" x2="5.191" transform="translate(66.811 43.193)" fill="none" stroke="#000" stroke-linecap="round" stroke-linejoin="round" stroke-width="1"/>
    <line id="Line_63" data-name="Line 63" x2="20.763" transform="translate(79.788 43.193)" fill="none" stroke="#000" stroke-linecap="round" stroke-linejoin="round" stroke-width="1"/>
    <path id="Path_2573" data-name="Path 2573" d="M135.007,154.278H90.452l-11.916,14.3a3.535,3.535,0,0,1-6.251-2.264V154.278h-6.49a7.786,7.786,0,0,1-7.785-7.785V94.585A7.786,7.786,0,0,1,65.795,86.8h35.121" transform="translate(-43.106 -64.499)" fill="none" stroke="#000" stroke-linecap="round" stroke-linejoin="round" stroke-width="1"/>
    <path id="Path_2574" data-name="Path 2574" d="M260.008,86.8h51.914a7.787,7.787,0,0,1,7.787,7.785v51.909a7.787,7.787,0,0,1-7.787,7.785H294.1" transform="translate(-193.206 -64.499)" fill="none" stroke="#000" stroke-linecap="round" stroke-linejoin="round" stroke-width="1"/>
  </g>
</svg>
