<svg xmlns="http://www.w3.org/2000/svg" xmlns:xlink="http://www.w3.org/1999/xlink" width="925" height="768" viewBox="0 0 925 768">
  <defs>
    <clipPath id="clip-path">
      <rect id="Rectangle_653" data-name="Rectangle 653" width="925" height="768" transform="translate(-112.502 2121.222)" fill="#fff" stroke="#707070" stroke-width="1"/>
    </clipPath>
    <clipPath id="clip-path-2">
      <rect id="Rectangle_652" data-name="Rectangle 652" width="796.046" height="1129.557" fill="none"/>
    </clipPath>
    <clipPath id="clip-path-4">
      <rect id="Rectangle_643" data-name="Rectangle 643" width="65.637" height="19.774" fill="none"/>
    </clipPath>
    <clipPath id="clip-path-5">
      <rect id="Rectangle_644" data-name="Rectangle 644" width="7.327" height="7.448" fill="none"/>
    </clipPath>
    <clipPath id="clip-path-6">
      <rect id="Rectangle_645" data-name="Rectangle 645" width="20.2" height="128.733" fill="none"/>
    </clipPath>
    <clipPath id="clip-path-7">
      <rect id="Rectangle_646" data-name="Rectangle 646" width="43.113" height="128.428" fill="none"/>
    </clipPath>
    <clipPath id="clip-path-8">
      <rect id="Rectangle_647" data-name="Rectangle 647" width="69.002" height="95.501" fill="none"/>
    </clipPath>
    <clipPath id="clip-path-9">
      <rect id="Rectangle_648" data-name="Rectangle 648" width="7.514" height="7.466" fill="none"/>
    </clipPath>
    <clipPath id="clip-path-10">
      <rect id="Rectangle_649" data-name="Rectangle 649" width="48.348" height="119.447" fill="none"/>
    </clipPath>
    <clipPath id="clip-path-11">
      <rect id="Rectangle_650" data-name="Rectangle 650" width="82.062" height="21.29" fill="none"/>
    </clipPath>
  </defs>
  <g id="Mask_Group_32" data-name="Mask Group 32" transform="translate(112.502 -2121.222)" clip-path="url(#clip-path)">
    <g id="Group_1302" data-name="Group 1302" transform="translate(-77.053 2117.334)">
      <g id="Group_1301" data-name="Group 1301" clip-path="url(#clip-path-2)">
        <g id="Group_1300" data-name="Group 1300">
          <g id="Group_1299" data-name="Group 1299" clip-path="url(#clip-path-2)">
            <path id="Path_4121" data-name="Path 4121" d="M275.656,156.993c3.859.965,23.955,12.195,29.773,31,4.827,15.65,12.474,106.706,13.16,105.08,0,0,0,19.741-24.136,21.621-11.534.889-25.736-16.336-28.15-22.586s0-91.157,0-91.157Z" transform="translate(408.618 241.865)" fill="#ec9681"/>
            <path id="Path_4122" data-name="Path 4122" d="M220.874,161.7l10.162-3.811,45.985-13.643L321,156.514,277.25,245.435s-18.7-2.541-18.953-3.15S220.874,161.7,220.874,161.7" transform="translate(340.28 222.222)" fill="#ec9681"/>
            <path id="Path_4123" data-name="Path 4123" d="M368.19,200.59c.407,2.058-14.482,77.692-14.482,77.692l3.735,40.065s4.954,11.992,3.506,19.436c-4.319,12.144-36.661,25.406-82.011,29.319-39.252,1.245-57.443-18.6-57.443-18.6-1.829-25.406-5.081-159.88-13.211-182.619l33.892-8.892c5.894,19.842,37.271,73.17,37.271,73.17,3-2.261,39.329-84.12,39.329-84.12l20.858,2.541Z" transform="translate(320.884 224.995)" fill="#ec6e7a"/>
            <path id="Path_4124" data-name="Path 4124" d="M275.685,217.168c-3.966-.279-8.564-.33-10.978-3.481a20.664,20.664,0,0,1-2.312-6.072c-.711-2.058-2.233-4.192-4.418-4.294-4.55-.229-5.793,7.851-10.343,7.977s-5.869-7.85-10.465-8.054-5.465,6.224-9.276,8.206c-2.541,1.321-5.666.3-8.562.254s-6.451,2.16-5.564,4.9l2.312,6.021c.737,3.76,5.818,4.675,9.527,3.735s7.622-2.871,11.179-1.728c4.957,1.55,8.005,8.333,13.135,7.469,3-.483,4.88-3.531,7.622-5.081a13.3,13.3,0,0,1,10.34.254,26.07,26.07,0,0,0,10.315,2.337c3.559-.28,7.215-3.2,6.758-6.707-.534-3.811-5.183-5.462-9.271-5.742" transform="translate(329.119 313.115)" fill="#fff"/>
            <path id="Path_4125" data-name="Path 4125" d="M300.661,234.192c-3.913-.584-8.511-.965-10.671-4.294a20.542,20.542,0,0,1-1.88-6.224c-.559-2.109-1.905-4.345-4.09-4.624-4.5-.559-6.351,7.419-10.9,7.19s-5.259-8.257-9.832-8.816-5.92,5.818-9.858,7.622c-2.668,1.143-5.666,0-8.562-.356s-6.58,1.651-5.894,4.471l1.829,6.148c.483,3.811,5.462,5.081,9.248,4.446s7.622-2.312,11.255-.889c4.827,1.905,7.368,8.892,12.551,8.435,3.049-.279,5.081-3.176,7.927-4.37a13.289,13.289,0,0,1,10.315,1.016,26.557,26.557,0,0,0,10.162,3.1c3.557,0,7.419-2.541,7.215-6.2-.254-4.09-4.9-6.047-8.816-6.656" transform="translate(368.038 334.912)" fill="#fff"/>
            <path id="Path_4126" data-name="Path 4126" d="M303.058,198.086a22.133,22.133,0,0,0-6.987-.483,9.042,9.042,0,0,1-6.555-1.982c-2.541-2.541-2.289-7.622-5.592-9.349a6.781,6.781,0,0,0-6.25.838,22.4,22.4,0,0,1-5.793,3,4.348,4.348,0,0,1-5.335-2.541l-.356,2.083c-1.22,2.769-5.208,2.541-8.1,1.728s-6.351-2.083-8.661,0c-2.8,2.337-2.06,7.9-5.516,9.07a11.232,11.232,0,0,1-3.453,0,7.165,7.165,0,0,0-1.5,14.126c5.335,1.245,10.975-3.709,16.031-1.6,2.34.991,4.192,3.379,6.707,3.3,4.04,0,5.691-6.275,9.705-6.656s6.608,4.7,10.289,3.862,3.913-5.564,6.761-7.622,6.527-.508,9.8.381,7.876.356,8.537-2.972a5.082,5.082,0,0,0-3.732-5.183" transform="translate(359.698 286.339)" fill="#fff"/>
            <path id="Path_4127" data-name="Path 4127" d="M272.434,182.716a21.336,21.336,0,0,0-6.987-.457,9.174,9.174,0,0,1-6.557-2.007c-2.541-2.541-2.259-7.622-5.564-9.349a6.781,6.781,0,0,0-6.25.838,22.765,22.765,0,0,1-5.793,3.023,4.367,4.367,0,0,1-5.333-2.541l-.384,2.058c-1.22,2.769-5.208,2.541-8.079,1.728s-6.377-2.083-8.686,0c-2.8,2.337-2.035,7.9-5.516,9.07a11.876,11.876,0,0,1-3.328.025,7.139,7.139,0,0,0-1.524,14.1c5.335,1.245,11-3.684,16.057-1.575,2.337.965,4.167,3.379,6.707,3.3,4.04-.127,5.668-6.3,9.68-6.656s6.631,4.675,10.289,3.862,3.912-5.589,6.758-7.622,6.529-.483,9.807.406,7.878.33,8.562-3a5.079,5.079,0,0,0-3.859-5.208" transform="translate(312.554 262.66)" fill="#fff"/>
            <path id="Path_4128" data-name="Path 4128" d="M255.934,146.533c27.439,3.658,59.526,11,69.486,83.459.178,1.3-45.528,18.546-45.528,18.546s-7.851-40.015-8.257-41.26-15.7-60.746-15.7-60.746" transform="translate(394.294 225.75)" fill="#ec6e7a"/>
            <path id="Path_4129" data-name="Path 4129" d="M317.554,170.376a21.335,21.335,0,0,0-6.987-.457,9.178,9.178,0,0,1-6.557-2.007c-2.541-2.541-2.259-7.622-5.589-9.349a6.725,6.725,0,0,0-6.222.838,23.06,23.06,0,0,1-5.82,3.023,4.4,4.4,0,0,1-5.335-2.541l-.353,2.058c-1.222,2.769-5.211,2.541-8.079,1.728s-6.377-2.083-8.689-.127c-2.795,2.337-2.033,7.9-5.513,9.07a12.029,12.029,0,0,1-3.455.127,7.139,7.139,0,0,0-1.5,14.1c5.335,1.245,11-3.684,16.031-1.575,2.337.965,4.189,3.379,6.73,3.3,4.017,0,5.668-6.3,9.68-6.656s6.633,4.675,10.292,3.862,3.91-5.589,6.758-7.622,6.527-.483,9.8.381,7.878.356,8.536-2.973a5.082,5.082,0,0,0-3.732-5.183" transform="translate(381.913 243.649)" fill="#fff"/>
            <path id="Path_4130" data-name="Path 4130" d="M272.9,156.393c.356,0-1.067,20.325-3.2,45.07s-4.167,44.994-4.522,44.969,1.067-20.325,3.2-45.07,4.167-44.994,4.522-44.969" transform="translate(408.45 240.94)" fill="#263238"/>
            <g id="Group_1277" data-name="Group 1277" transform="translate(574.106 494.573)" opacity="0.3">
              <g id="Group_1276" data-name="Group 1276">
                <g id="Group_1275" data-name="Group 1275" clip-path="url(#clip-path-4)">
                  <path id="Path_4131" data-name="Path 4131" d="M291.4,205.76a7.647,7.647,0,0,0-3.509-3.608,52.923,52.923,0,0,0-58.129,2.541c-3.3,2.972-5.742,7.342-1.626,9.019s8.816.2,12.7-1.778a41.83,41.83,0,0,1,12.172-5.234c5.765-.838,11.4,1.753,16.793,3.989s11.456,4.217,16.892,2.159c3-1.118,5.693-4.014,4.7-7.088" transform="translate(-225.972 -194.667)"/>
                </g>
              </g>
            </g>
            <path id="Path_4132" data-name="Path 4132" d="M238.977,402.043l8.892,48.932s-52.768,20.706-53.175,30.487l102.742-1.956-7.774-75.3Z" transform="translate(299.947 619.391)" fill="#455a64"/>
            <path id="Path_4133" data-name="Path 4133" d="M231.078,419.076a4.191,4.191,0,0,1,2.973,4.725,4.015,4.015,0,0,1-4.649,3.023,4.448,4.448,0,0,1-3.153-5.081,4.2,4.2,0,0,1,5.081-2.541" transform="translate(348.447 645.573)" fill="#e0e0e0"/>
            <path id="Path_4134" data-name="Path 4134" d="M297.9,439.215l-1.374-10.163-97.864,4.929s-4.522,2.083-3.935,5.284Z" transform="translate(299.917 661.003)" fill="#263238"/>
            <path id="Path_4135" data-name="Path 4135" d="M214.966,421.138c0,.508,2.541.686,5.081,2.261s3.836,3.659,4.294,3.43-.33-3.074-3.379-4.929-6.1-1.22-6-.762" transform="translate(331.174 648.059)" fill="#fff"/>
            <path id="Path_4136" data-name="Path 4136" d="M210.767,422.815c-.127.483,2.083,1.3,3.811,3.379s2.287,4.319,2.795,4.294.762-2.871-1.474-5.437-5.132-2.718-5.132-2.236" transform="translate(324.702 651.057)" fill="#fff"/>
            <path id="Path_4137" data-name="Path 4137" d="M210.969,432.958c.455,0,1.115-2.413-.231-5.081s-3.707-3.76-3.913-3.328,1.27,1.855,2.337,4.116,1.324,4.243,1.806,4.294" transform="translate(318.608 653.922)" fill="#fff"/>
            <path id="Path_4138" data-name="Path 4138" d="M215.245,417.216c.229.457,2.541-.279,5.361-.152s5.081.991,5.31.559-1.905-2.185-5.259-2.287-5.666,1.5-5.412,1.88" transform="translate(331.58 639.862)" fill="#fff"/>
            <path id="Path_4139" data-name="Path 4139" d="M262.346,396.053l1.626,64.049-13.338,51.041a6.577,6.577,0,0,0,4.715,8.021q.179.046.366.084a6.493,6.493,0,0,0,5.765-1.7c9.759-9.4,45.477-44.181,45.1-48.856-.432-5.411,2.772-67.682,2.772-67.682Z" transform="translate(385.801 610.162)" fill="#455a64"/>
            <path id="Path_4140" data-name="Path 4140" d="M252.556,477.82l50.812-54.877v2.718a9.831,9.831,0,0,1-2.34,6.4c-4.04,4.8-15.549,17.784-42.555,44.054a6.6,6.6,0,0,1-5.968,1.7Z" transform="translate(389.011 651.589)" fill="#263238"/>
            <g id="Group_1280" data-name="Group 1280" transform="translate(677.608 1053.279)" opacity="0.6">
              <g id="Group_1279" data-name="Group 1279">
                <g id="Group_1278" data-name="Group 1278" clip-path="url(#clip-path-5)">
                  <path id="Path_4141" data-name="Path 4141" d="M268.322,415.176a3.988,3.988,0,0,0-1.07,5.208,3.786,3.786,0,0,0,5.081,1.092,4.167,4.167,0,0,0,1.12-5.488,3.965,3.965,0,0,0-5.49-.559" transform="translate(-266.711 -414.578)" fill="#fff"/>
                </g>
              </g>
            </g>
            <path id="Path_4142" data-name="Path 4142" d="M266.152,438.009a19.778,19.778,0,0,0-5.64-5.081,20.313,20.313,0,0,0-7.368-1.4c0-.152.762-.661,2.261-.864a10.168,10.168,0,0,1,5.742.991,10.458,10.458,0,0,1,4.319,3.913c.737,1.423.838,2.363.686,2.439" transform="translate(389.996 663.377)" fill="#fff"/>
            <path id="Path_4143" data-name="Path 4143" d="M263.715,439.713a53.874,53.874,0,0,0-5.666-2.744,49.23,49.23,0,0,0-6.275-.788,7.239,7.239,0,0,1,6.656-.559c3.785,1.092,5.615,3.912,5.284,4.09" transform="translate(387.885 670.261)" fill="#fff"/>
            <path id="Path_4144" data-name="Path 4144" d="M272.5,433.645a61.343,61.343,0,0,0-8.463-4.827,63.385,63.385,0,0,0-9.525-2.185A17.788,17.788,0,0,1,272.5,433.645Z" transform="translate(392.108 656.715)" fill="#fff"/>
            <path id="Path_4145" data-name="Path 4145" d="M272.181,423.152c-.178.381-3.709-1.093-8.308-1.245s-8.257.965-8.409.559a16.355,16.355,0,0,1,16.717.686" transform="translate(393.57 647.697)" fill="#fff"/>
            <path id="Path_4146" data-name="Path 4146" d="M272.428,415.863a32.764,32.764,0,0,0-8.613-1.524,32.217,32.217,0,0,0-8.511,2.16,6.517,6.517,0,0,1,2.083-1.8,14.242,14.242,0,0,1,6.377-1.753,13.8,13.8,0,0,1,6.478,1.3c1.524.737,2.287,1.5,2.185,1.626" transform="translate(393.323 636.16)" fill="#fff"/>
            <path id="Path_4147" data-name="Path 4147" d="M264.758,419.664a5.685,5.685,0,0,1,0-2.414,17.22,17.22,0,0,1,1.906-6.352,7.633,7.633,0,0,1,3.176-3.506,2.541,2.541,0,0,1,2.973.584,4.266,4.266,0,0,1,1.016,2.9,9.3,9.3,0,0,1-8.1,8.613,10.8,10.8,0,0,1-10.594-5.615,3.865,3.865,0,0,1-.178-3.1,2.543,2.543,0,0,1,2.718-1.372,9.438,9.438,0,0,1,4.217,2.159,18.416,18.416,0,0,1,4.37,5.081,5.6,5.6,0,0,1,.991,2.21,29.163,29.163,0,0,0-5.97-6.377,8.444,8.444,0,0,0-3.735-1.829,1.4,1.4,0,0,0-1.474.737,2.544,2.544,0,0,0,.254,2.058,9.652,9.652,0,0,0,9.222,4.751,8.079,8.079,0,0,0,6.987-7.215,3.16,3.16,0,0,0-.61-2.058,1.448,1.448,0,0,0-1.651-.33,6.626,6.626,0,0,0-2.744,2.972,24.731,24.731,0,0,0-2.769,8.1" transform="translate(392.406 627.252)" fill="#fff"/>
            <path id="Path_4148" data-name="Path 4148" d="M412.774,470.5c4.548-97.051,32.494-148.092-35.924-243.9,0,0-98.88,25.787-134.652-4.548,0,0-10.645,53.353-10.162,69.155A146,146,0,0,1,228.91,321.7s-25.228,146.746-32.825,195.627a53.689,53.689,0,0,0,.991,21.29l40.878,179.977,59.831-1.626L278.5,533.608,321.389,368.7l3.811.356,10.569,340.441,59.3-2.185Z" transform="translate(301.121 342.097)" fill="#29407c"/>
            <path id="Path_4149" data-name="Path 4149" d="M289.113,260.343c.127.178-2.693,2.007-6.987,5.31a123.084,123.084,0,0,0-28.582,30.741c-2.947,4.522-4.573,7.469-4.751,7.368a7.875,7.875,0,0,1,.889-2.185,61.576,61.576,0,0,1,3.074-5.666,103.564,103.564,0,0,1,12.7-17.022,101.613,101.613,0,0,1,16.006-14,63.465,63.465,0,0,1,5.412-3.506,8.661,8.661,0,0,1,2.236-1.042" transform="translate(383.294 401.086)" fill="#455a64"/>
            <path id="Path_4150" data-name="Path 4150" d="M263.113,290.778a55.12,55.12,0,0,1-5.259-4.751,129.907,129.907,0,0,0-13.211-10.671,126.318,126.318,0,0,0-14.583-8.765,50.59,50.59,0,0,1-6.275-3.328,31.439,31.439,0,0,1,6.682,2.541,93.373,93.373,0,0,1,14.913,8.511,94.81,94.81,0,0,1,13.135,11.1,28.406,28.406,0,0,1,4.6,5.361" transform="translate(344.763 405.585)" fill="#455a64"/>
            <path id="Path_4151" data-name="Path 4151" d="M254.068,333.232a20.839,20.839,0,0,1-1.451-3.76c-.861-2.541-1.982-6.021-3.275-10.467a311.231,311.231,0,0,1-7.9-35.238,308.023,308.023,0,0,1-3.811-35.95c-.2-4.624-.307-8.359-.279-10.95a21.848,21.848,0,0,1,.175-4.014,27.285,27.285,0,0,1,.356,4.014c.127,2.541.356,6.3.663,10.9.658,9.2,1.905,21.9,4.189,35.772a332.735,332.735,0,0,0,7.622,35.238c1.171,4.446,2.162,8.054,2.845,10.543a24.242,24.242,0,0,1,.866,3.913" transform="translate(365.624 358.735)" fill="#455a64"/>
            <path id="Path_4152" data-name="Path 4152" d="M247.174,232.006a2.241,2.241,0,0,1,1.3.127,5.411,5.411,0,0,1,2.795,2.286,5.283,5.283,0,0,1,.178,5.412,5.692,5.692,0,0,1-10.645-1.524,5.471,5.471,0,0,1,5-6.5c.864,0,1.3.178,1.3.254a6.965,6.965,0,0,0-3.963,1.829,4.393,4.393,0,0,0-1.169,4.192,4.522,4.522,0,0,0,8.435,1.194,4.416,4.416,0,0,0,0-4.319,7.153,7.153,0,0,0-3.227-2.947" transform="translate(370.788 357.117)" fill="#455a64"/>
            <path id="Path_4153" data-name="Path 4153" d="M261.274,239.765a31.391,31.391,0,0,1-4.7-12.042,17.145,17.145,0,0,1,2.972,5.793,16.518,16.518,0,0,1,1.728,6.25" transform="translate(395.28 350.832)" fill="#455a64"/>
            <path id="Path_4154" data-name="Path 4154" d="M263.233,239.066a30.476,30.476,0,0,1-3.659-12.093,15.67,15.67,0,0,1,2.541,5.843,16.575,16.575,0,0,1,1.118,6.25" transform="translate(399.902 349.676)" fill="#455a64"/>
            <path id="Path_4155" data-name="Path 4155" d="M221.333,240.494a10.433,10.433,0,0,1-.816-6.428,10.316,10.316,0,0,1,2.007-6.174,37.5,37.5,0,0,1-.686,6.3,38.769,38.769,0,0,1-.506,6.3" transform="translate(339.443 351.094)" fill="#455a64"/>
            <path id="Path_4156" data-name="Path 4156" d="M223.921,240.829a13.422,13.422,0,0,1-.18-5.869,13.241,13.241,0,0,1,1.12-5.767,26.571,26.571,0,0,1-.94,11.636" transform="translate(344.325 353.097)" fill="#455a64"/>
            <path id="Path_4157" data-name="Path 4157" d="M342.549,143.906a4.522,4.522,0,0,0-6.656-5.894,8.993,8.993,0,0,0-1.321,1.423c-3.912,5.081-28.81,25.406-33.942,30.487s-17.454,17.784-18.292,30.487c-.686,10.162-.762,12.7-.762,12.7l26.372,4.4s33.943-24.669,36.864-30.284,8.079-13.414,5.615-16.362-10.01-3.658-10.01-3.658,23.45-22.2,21.748-24.9-5.615-3.176-9.045,0-21.722,21.976-24.161,20.757c-1.778-.838,8.74-11.23,13.592-19.156" transform="translate(433.795 211.152)" fill="#ec9681"/>
            <path id="Path_4158" data-name="Path 4158" d="M290.751,184.7s.813-.762,2.134-2.21A21.925,21.925,0,0,0,297.1,175.4a21.035,21.035,0,0,0,1.118-5.539,14.41,14.41,0,0,1,.407-3.328,5.442,5.442,0,0,1,2.134-3.1,45.083,45.083,0,0,1,6.885-2.922A20.672,20.672,0,0,0,314.1,156.4a14.276,14.276,0,0,0,2.337-3.049,17.406,17.406,0,0,0,.864-1.677,1.893,1.893,0,0,0,.254-1.423,1.551,1.551,0,0,0-.864-.965,2.147,2.147,0,0,0-1.448,0l-3.531.788-12.22,2.541-8.282,1.651a13.487,13.487,0,0,1-3.074.432,17.193,17.193,0,0,1,2.972-.94l8.181-2.058,12.17-2.922,3.506-.813a3.223,3.223,0,0,1,2.236,0,2.793,2.793,0,0,1,1.6,1.778,3.173,3.173,0,0,1-.3,2.312c-.279.61-.584,1.22-.915,1.8a16.107,16.107,0,0,1-2.541,3.328,21.473,21.473,0,0,1-6.885,4.37,49.962,49.962,0,0,0-6.682,2.718,6.4,6.4,0,0,0-2.16,5.513,20.635,20.635,0,0,1-1.346,5.793,20.172,20.172,0,0,1-4.726,7.114,8.967,8.967,0,0,1-2.49,2.007" transform="translate(443.902 227.647)" fill="#b76455"/>
            <path id="Path_4159" data-name="Path 4159" d="M317.414,149.637a26.178,26.178,0,0,1-6.123.991l-6.58.661a4.017,4.017,0,0,0-3.023,1.372,3.911,3.911,0,0,0-.381,3.455,6.175,6.175,0,0,0,4.954,3.455,23.025,23.025,0,0,0,5.793,0h1.321l-.864.965a40.589,40.589,0,0,1-5.539,5.92,41.293,41.293,0,0,1,4.751-6.58l.457.838a21.161,21.161,0,0,1-6.1.3,7.363,7.363,0,0,1-6.021-4.243,4.676,4.676,0,0,1,4.5-6.5l6.707-.432a30.152,30.152,0,0,1,6.148-.2" transform="translate(461.699 230.42)" fill="#b76455"/>
            <path id="Path_4160" data-name="Path 4160" d="M325.631,170.384s-6.964,103.3-19.489,117.935c-9.677,11.306-34.578-33.765-34.578-33.765l26.041-88.312Z" transform="translate(418.374 256.115)" fill="#ec9681"/>
            <path id="Path_4161" data-name="Path 4161" d="M272.544,260.453a28.981,28.981,0,0,1,.991-4.116c.788-2.845,1.855-6.58,3.125-11.077,2.693-9.349,6.5-22.23,10.8-36.432l8.1-26.422v.152c0-3.887,0-7.469.178-10.7a28.937,28.937,0,0,1,1.346-8.206,35.446,35.446,0,0,1,1.855-5.081,5.265,5.265,0,0,1,.915-1.651,12.89,12.89,0,0,1-.61,1.778c-.381,1.143-.991,2.846-1.524,5.081a29.975,29.975,0,0,0-1.067,8.028v10.874c-2.287,7.622-5.081,16.768-7.9,26.473-4.294,14.2-8.257,27.032-11.179,36.305-1.423,4.472-2.541,8.155-3.531,10.975a24.294,24.294,0,0,1-1.5,4.014" transform="translate(419.883 241.757)" fill="#b76455"/>
            <path id="Path_4162" data-name="Path 4162" d="M189.586,81.066c-5.592-10.01-24.443-13.084-30.109-8.663a14.529,14.529,0,0,0-19.967,1.855l-20.734-.279A21.077,21.077,0,0,0,108.411,75.6a7.266,7.266,0,0,0-3.887,8.841c-7.368.178-12.5,9.908-8.511,16.107a7.62,7.62,0,0,0-1.735,10.638c.107.15.219.3.338.44a76.892,76.892,0,0,0-17.784,19.029,15.707,15.707,0,0,0-3.4,10.162c.457,3.633,4.319,6.961,7.622,5.539a8.969,8.969,0,0,0-2.541,9.349c-3.354-.686-5.564,4.243-3.836,7.215s5.414,4.065,8.768,4.776a16.53,16.53,0,0,1,9.324,3.913,3.131,3.131,0,0,1-1.6,1.855,14.1,14.1,0,0,0-7.393,17.988c.254.661.508,1.27.739,1.8,1.3,3.2,5.485,6.809,8.1,9.07,6.654,5.691,11.3,6,19.459,9.172-3.557,4.878,7.342,20.122,25.762,11.915A309.9,309.9,0,0,0,221.392,255.1c4.624,1.092,10.315,1.753,13.338-1.905a11.761,11.761,0,0,0,11.357-1.016,34.988,34.988,0,0,0,8.46-8.308,20.653,20.653,0,0,0,18.673-14.786,25.4,25.4,0,0,0,13.491-15.5,14.993,14.993,0,0,0,13.14-16.636c-.048-.386-.109-.767-.18-1.148a90.96,90.96,0,0,0-3.28-29.471c5.564,0,9.2-6.606,8.181-12.068s-5.081-9.781-8.991-13.745c3.707,1.982,8.305-2.185,8.305-6.4s-2.973-7.774-6-10.721a76.712,76.712,0,0,0-14.71-11.128c-.254-7.393-7.317-17.4-13.135-22C246.62,71.691,228.912,64.247,189.66,81.04" transform="translate(113.115 106.718)" fill="#263238"/>
            <path id="Path_4163" data-name="Path 4163" d="M120.205,96.289a10.924,10.924,0,0,1,11.585-9.222l59.831-4.294c18.674,1.321,26.854,26.067,24.746,44.664-2.337,20.681-6.021,45.731-11.153,60.67a40.24,40.24,0,0,1-38.465,28.455l-4.141,22.2-4.573,25.889c-8.46-3.023-61.991-26.727-61.991-26.727Z" transform="translate(147.966 127.521)" fill="#a2675f"/>
            <path id="Path_4164" data-name="Path 4164" d="M127.774,137.548a28.25,28.25,0,0,1,7.114,0c1.092,0,2.16,0,2.541-.661a5.422,5.422,0,0,0-.152-3.328c-.559-2.795-1.118-5.716-1.728-8.79-2.363-12.525-3.862-22.865-3.354-22.865s2.82,9.985,5.081,22.484c.559,3.074,1.092,6.021,1.575,8.816a6.3,6.3,0,0,1-.178,4.344,2.791,2.791,0,0,1-2.058,1.27,7.277,7.277,0,0,1-1.88,0,29.486,29.486,0,0,1-6.961-1.27" transform="translate(196.85 156.993)" fill="#263238"/>
            <path id="Path_4165" data-name="Path 4165" d="M145.211,145.863s-16.946-1.27-35.187-17.2c0,0,.864,23.729,33.206,27.769Z" transform="translate(169.504 198.219)" fill="#7a4a45"/>
            <path id="Path_4166" data-name="Path 4166" d="M136.78,98.928c-.612,1.092-4.753-.2-9.807-.508s-9.349.356-9.807-.788c-.231-.534.658-1.5,2.541-2.337a17.227,17.227,0,0,1,14.964.991c1.6,1.067,2.386,2.134,2.109,2.642" transform="translate(180.453 144.877)" fill="#263238"/>
            <path id="Path_4167" data-name="Path 4167" d="M149.459,102.812c-.915.813-3.658-.686-7.165-1.372s-6.58-.508-7.088-1.626c-.2-.534.432-1.423,1.88-2.109a10.552,10.552,0,0,1,11.484,2.414c1.067,1.27,1.3,2.337.889,2.693" transform="translate(208.243 149.326)" fill="#263238"/>
            <path id="Path_4168" data-name="Path 4168" d="M190.4,155.077a21.566,21.566,0,0,0-2.109-14.2,76.189,76.189,0,0,1-4.423-6.707c-2.411-5.259-.533-11.382-.762-17.149A23.442,23.442,0,0,0,172.363,98.4c-5.234-3.328-11.766-4.5-16.463-8.536-3.483-2.973-5.693-7.292-9.324-10.162-7.114-5.412-17.225-3.4-25.711-.61-2.82,5.615-.2,11.585,2.312,17.352A21.825,21.825,0,0,0,136.9,108.457c4.675,1.347,10.467,1.524,13.031,5.64s0,10.315,1.905,15.066c2.82,6.758,12.7,6.631,18.064,11.636,4.144,3.836,4.855,9.985,6.148,15.5s4.271,11.636,9.832,12.7a64.5,64.5,0,0,0,4.525-13.923" transform="translate(184.326 117.538)" fill="#263238"/>
            <path id="Path_4169" data-name="Path 4169" d="M160.05,84.568A111.1,111.1,0,0,0,117.7,82.789a19.973,19.973,0,0,0-11.557,4.675,19.564,19.564,0,0,0-4.5,10.162C99.1,109.034,100.7,124,102.655,135.482l12.322,11.687c11.509-.127,10.721-20.147,12.322-29.751A22.866,22.866,0,0,0,144.781,100.6,25.411,25.411,0,0,0,160.05,84.568" transform="translate(154.566 125.624)" fill="#263238"/>
            <path id="Path_4170" data-name="Path 4170" d="M119.177,110.718c1.042-6.606-6.682-9.68-13.033-7.622-3.481,1.143-6.606,4.268-7.749,11.28-3.074,18.648,16.285,17.784,16.412,17.352s3.176-13.287,4.37-21.011" transform="translate(151.078 157.857)" fill="#a2675f"/>
            <path id="Path_4171" data-name="Path 4171" d="M107.452,120.174a6.225,6.225,0,0,1-.965.33,3.259,3.259,0,0,1-2.541-.33,8.205,8.205,0,0,1-2.541-7.85,10.986,10.986,0,0,1,1.677-4.5,3.81,3.81,0,0,1,2.871-2.083,1.623,1.623,0,0,1,1.753,1.194,1.52,1.52,0,0,1,0,.965c0,.051.432-.254.407-1.042a2,2,0,0,0-.534-1.3,2.538,2.538,0,0,0-1.728-.762,4.648,4.648,0,0,0-3.862,2.337,10.994,10.994,0,0,0-1.982,5.081c-.508,3.785.838,7.622,3.4,8.841a3.562,3.562,0,0,0,3.074,0c.838-.432,1.016-.838.965-.889" transform="translate(153.91 161.46)" fill="#7a4a45"/>
            <path id="Path_4172" data-name="Path 4172" d="M123.9,163.384l-.127.229a1.994,1.994,0,0,1-.407.661,4.31,4.31,0,0,1-2.541,1.423,11.3,11.3,0,0,1-4.776,0,17.687,17.687,0,0,1-2.922-.838,11.154,11.154,0,0,1-3-1.7h.229A9.376,9.376,0,0,1,94.483,165.7h.3a3.865,3.865,0,0,1-2.769,1.092,5.3,5.3,0,0,1-2.922-.94,5.083,5.083,0,0,1-1.982-2.541,6.7,6.7,0,0,1-.254-3.252,9.657,9.657,0,0,1,3.4-5.691,27.956,27.956,0,0,1,5.894-3.658v.432a6.7,6.7,0,0,1-1.956-5.081,9.953,9.953,0,0,1,1.753-5.335,15.423,15.423,0,0,1,4.243-3.862,48.269,48.269,0,0,1,5.081-2.718v.407a6.984,6.984,0,0,1-.61-5.742,10.164,10.164,0,0,1,3.3-5.081,25.228,25.228,0,0,1,10.391-4.268l-.229.279A12.527,12.527,0,0,1,134.8,107.618l-.356.254a10.852,10.852,0,0,1,4.522-8.409,10.666,10.666,0,0,1,8.638-2.083l-.279.178a10.494,10.494,0,0,1,5.97-7.088,10.156,10.156,0,0,1,8.181-.406h-.254a10.183,10.183,0,0,1,2.541-4.4,12.73,12.73,0,0,1,3.557-2.744,10.646,10.646,0,0,1,6.885-1.321h.711l.635.2a10.191,10.191,0,0,1,1.143.407,11.609,11.609,0,0,1,1.651.889l.915.661c.229.152.33.229.3.254l-.33-.2-.94-.635a14.183,14.183,0,0,0-1.651-.838,9.925,9.925,0,0,0-1.143-.356l-.61-.178h-.711a10.607,10.607,0,0,0-6.733,1.372,13.134,13.134,0,0,0-3.455,2.718,10.158,10.158,0,0,0-2.541,4.243v.2h-.2A10.541,10.541,0,0,0,147.9,96.98c-.071.206-.135.417-.191.628v.229h-.229a10.164,10.164,0,0,0-8.232,2.033,10.338,10.338,0,0,0-4.294,8v.356H134.6a11.964,11.964,0,0,0-15.9,11.611v.229h-.229a24.62,24.62,0,0,0-10.162,4.141,9.7,9.7,0,0,0-3.125,4.726,6.448,6.448,0,0,0,.559,5.284l.178.279-.3.127a22.119,22.119,0,0,0-9.222,6.4,9,9,0,0,0-1.651,5.081,6.066,6.066,0,0,0,1.753,4.624l.279.254-.33.178a27.894,27.894,0,0,0-5.818,3.557,9.018,9.018,0,0,0-3.227,5.386,5.079,5.079,0,0,0,1.982,5.259,4.113,4.113,0,0,0,5.081,0l.178-.178.152.2a9.144,9.144,0,0,0,9.1,2.947A9.273,9.273,0,0,0,110.057,163v-.2h.178a10.1,10.1,0,0,0,2.9,1.677,15.521,15.521,0,0,0,2.871.889,11.825,11.825,0,0,0,4.675.152,4.472,4.472,0,0,0,2.541-1.347,10.121,10.121,0,0,0,.686-.788" transform="translate(133.674 125.542)" fill="#455a64"/>
            <path id="Path_4173" data-name="Path 4173" d="M75.948,137.114a5.28,5.28,0,0,1-.432-1.245,9.679,9.679,0,0,1,2.541-9.324,10.169,10.169,0,0,1,7.622-2.744l-.2.178a12.927,12.927,0,0,1,3.709-8.714,12.346,12.346,0,0,1,4.471-3.023A31.13,31.13,0,0,1,99.22,111a9.643,9.643,0,0,0,2.744-.889,6.678,6.678,0,0,0,2.185-1.88c1.219-1.6,1.931-3.608,3.4-5.284a11.485,11.485,0,0,1,12.474-3.049l-.381.229a15.244,15.244,0,0,1,20.1-13.059l-.381.229a13.287,13.287,0,0,1,22.865-7.622h-.3a18.307,18.307,0,0,1,7.319-2.541,27.735,27.735,0,0,1,6.959,0,31.073,31.073,0,0,1,10.747,3.2,23.205,23.205,0,0,1,5.894,4.141,14.388,14.388,0,0,1,1.245,1.423l.406.508s-.584-.661-1.75-1.829a23.442,23.442,0,0,0-5.922-4.014,32.207,32.207,0,0,0-10.671-3.049,28.424,28.424,0,0,0-6.86,0,18.2,18.2,0,0,0-7.114,2.541h-.3A12.7,12.7,0,0,0,139.9,87.369v.356h-.328a14.611,14.611,0,0,0-19.362,12.7v.381l-.356-.127a10.951,10.951,0,0,0-11.865,2.871c-1.372,1.55-2.109,3.557-3.4,5.234a6.925,6.925,0,0,1-2.363,2.033,9.919,9.919,0,0,1-2.871.915,30.3,30.3,0,0,0-5.513,1.194,12.414,12.414,0,0,0-4.319,2.9,12.693,12.693,0,0,0-3.633,8.409v.2h-.2a9.628,9.628,0,0,0-7.393,2.541,9.318,9.318,0,0,0-2.82,5.259,10.118,10.118,0,0,0,0,3.811,5.777,5.777,0,0,1,.483,1.067" transform="translate(115.852 116.319)" fill="#455a64"/>
            <path id="Path_4174" data-name="Path 4174" d="M176.444,175.384a1.841,1.841,0,0,1,.252-1.524,3.772,3.772,0,0,1,1.423-1.3,6.808,6.808,0,0,1,2.541-.635,10.389,10.389,0,0,0,3.15-.559,6,6,0,0,0,2.746-2.541,11.272,11.272,0,0,0,1.4-4.116c.279-1.524.4-3.176.788-4.9a49.993,49.993,0,0,1,4.8-10.366,15.925,15.925,0,0,0,1.6-6.021,7.432,7.432,0,0,0-2.182-5.92,27.572,27.572,0,0,0-5.948-3.633,11.726,11.726,0,0,1-2.973-2.287,7.781,7.781,0,0,1-1.677-3.43,37.308,37.308,0,0,1-.3-7.622,12.709,12.709,0,0,0-.483-3.785,5.882,5.882,0,0,0-2.185-3,22.111,22.111,0,0,0-4.954-1.829,8.441,8.441,0,0,1-2.541-1.219,5.791,5.791,0,0,1-1.649-2.185,19.294,19.294,0,0,1-.866-5.081,11.167,11.167,0,0,0-1.372-4.675,11.38,11.38,0,0,0-7.164-5.64,11.641,11.641,0,0,0-8.458,1.067l-.279.152v-.33a17.967,17.967,0,0,0-8.816-11.89,16.73,16.73,0,0,0-6.049-1.931,15.536,15.536,0,0,0-5.384.279,13.316,13.316,0,0,0-6.481,3.735,15.715,15.715,0,0,0-1.319,1.524l-.307.406a.51.51,0,0,1-.125,0V85.98l.279-.432a10.945,10.945,0,0,1,1.245-1.575A13.285,13.285,0,0,1,131.7,80.06a15.333,15.333,0,0,1,5.485-.33,16.491,16.491,0,0,1,6.176,1.905,18.392,18.392,0,0,1,9.118,12.144l-.356-.152a12.074,12.074,0,0,1,8.816-1.169,12.052,12.052,0,0,1,9.07,10.772,18.935,18.935,0,0,0,.838,5.081,5.617,5.617,0,0,0,3.763,3.1,21.14,21.14,0,0,1,5.081,1.905,6.216,6.216,0,0,1,2.414,3.277,13.065,13.065,0,0,1,.531,3.963,35.581,35.581,0,0,0,.279,7.622,7.127,7.127,0,0,0,1.55,3.2,11,11,0,0,0,2.795,2.159,27.931,27.931,0,0,1,6.072,3.557,7.677,7.677,0,0,1,1.883,2.973,9.547,9.547,0,0,1,.432,3.354,16.234,16.234,0,0,1-1.679,6.2,49.922,49.922,0,0,0-4.825,10.162c-.407,1.677-.536,3.354-.838,4.9a11.735,11.735,0,0,1-1.5,4.217,5.948,5.948,0,0,1-2.9,2.541,10.308,10.308,0,0,1-3.224.534,6.387,6.387,0,0,0-2.541.559,3.693,3.693,0,0,0-1.4,1.194,2.311,2.311,0,0,0-.3,1.651" transform="translate(190.458 122.663)" fill="#455a64"/>
            <path id="Path_4175" data-name="Path 4175" d="M219.881,162.667a.983.983,0,0,0-.127-.381,6.547,6.547,0,0,1-.254-1.143c-.254-1.067-.584-2.541-1.016-4.446s-.889-4.268-1.7-6.936a16.9,16.9,0,0,0-4.675-8c-1.321-1.143-2.922-2.058-4.471-3.227a12.645,12.645,0,0,1-2.185-2.032,6.59,6.59,0,0,1-1.347-2.82c-.432-2.109,0-4.294-.229-6.428a5.075,5.075,0,0,0-1.22-2.922,9.683,9.683,0,0,0-2.541-2.032,18.45,18.45,0,0,1-2.973-1.982,6.009,6.009,0,0,1-1.931-3.176,27.351,27.351,0,0,1,0-7.622,9.263,9.263,0,0,0-.457-3.658,4.731,4.731,0,0,0-2.541-2.541c-2.312-1.067-5.081-.813-7.622-1.829a6.678,6.678,0,0,1-3.125-2.541,17.663,17.663,0,0,1-1.575-3.684,38.363,38.363,0,0,0-1.3-3.633,7.344,7.344,0,0,0-2.21-2.947,11.15,11.15,0,0,0-6.961-1.5,16.5,16.5,0,0,1-7.139-.965,18.927,18.927,0,0,1-5.462-4.141,31.754,31.754,0,0,0-4.751-4.217,19.315,19.315,0,0,0-10.848-2.82,20.731,20.731,0,0,0-9.045,2.363,23.642,23.642,0,0,0-5.64,4.268,28.793,28.793,0,0,0-2.82,3.557l-.661.965c-.152.2-.229.33-.254.3l.2-.33.635-1.016a24.126,24.126,0,0,1,2.718-3.633,23.4,23.4,0,0,1,5.666-4.4,21.2,21.2,0,0,1,9.2-2.541,20,20,0,0,1,11.128,2.82,32.942,32.942,0,0,1,4.827,4.268,18.555,18.555,0,0,0,5.335,4.014,16.271,16.271,0,0,0,6.91.915,20.631,20.631,0,0,1,3.735.178,7.637,7.637,0,0,1,3.582,1.423,7.748,7.748,0,0,1,2.363,3.125c.533,1.194.915,2.541,1.321,3.684a18.863,18.863,0,0,0,1.524,3.582,6.1,6.1,0,0,0,2.871,2.541c2.414.991,5.208.711,7.622,1.829a5.089,5.089,0,0,1,2.769,2.9,9.362,9.362,0,0,1,.508,3.887,27.326,27.326,0,0,0,0,7.342,5.356,5.356,0,0,0,1.753,2.9,19.21,19.21,0,0,0,2.9,1.931,10.83,10.83,0,0,1,2.769,2.16,6.035,6.035,0,0,1,1.321,3.2c.229,2.236-.229,4.4.2,6.377a7.625,7.625,0,0,0,3.328,4.6c1.5,1.143,3.125,2.083,4.446,3.277a16.98,16.98,0,0,1,4.725,8.206c.788,2.693,1.219,5.081,1.626,7.012s.686,3.379.889,4.446q.152.736.229,1.143a2.412,2.412,0,0,1-.025.33" transform="translate(189.193 114.877)" fill="#455a64"/>
            <path id="Path_4176" data-name="Path 4176" d="M191.184,99.929h.356a2.319,2.319,0,0,1,.94.432,4.084,4.084,0,0,1,1.09,3.684,9.443,9.443,0,0,1-1.014,2.541,12.555,12.555,0,0,0-1.2,3.1,7.374,7.374,0,0,0,.536,3.684c.48,1.27,1.143,2.541,1.575,4.04a5.389,5.389,0,0,1-.584,4.751c-.942,1.448-2.365,2.541-3.28,3.963a6.977,6.977,0,0,0-.635,5.081c.333,1.855.991,3.709,1.27,5.742a8.611,8.611,0,0,1,0,3.125,7.4,7.4,0,0,1-1.4,2.9,35.527,35.527,0,0,1-4.675,4.471,8.731,8.731,0,0,0-3.252,5.386,27.46,27.46,0,0,0,.841,6.733,10.3,10.3,0,0,1,0,3.531,7.624,7.624,0,0,1-1.626,3.125,30.314,30.314,0,0,1-5.081,4.319,15.166,15.166,0,0,0-4.4,4.5,46.216,46.216,0,0,1-3.2,5.284,6.714,6.714,0,0,1-2.388,1.931,9.121,9.121,0,0,1-2.9.661,13.72,13.72,0,0,0-2.741.33,9.111,9.111,0,0,0-2.541.991,20.345,20.345,0,0,0-3.915,3.252c-1.141,1.194-2.236,2.363-3.379,3.379a13.035,13.035,0,0,1-7.495,3.277,13.682,13.682,0,0,1-6.146-.788,11.728,11.728,0,0,1-3.432-1.905,11.159,11.159,0,0,1-1.014-.915,14.555,14.555,0,0,0,4.522,2.541,13.832,13.832,0,0,0,6.047.661,12.7,12.7,0,0,0,7.238-3.252c1.118-1.016,2.185-2.185,3.356-3.379a19.769,19.769,0,0,1,3.963-3.379,10.368,10.368,0,0,1,2.541-1.042,26.9,26.9,0,0,1,2.82-.356,8.166,8.166,0,0,0,2.716-.635,5.963,5.963,0,0,0,2.213-1.778,47.413,47.413,0,0,0,3.148-5.259A15.476,15.476,0,0,1,174.591,170a29.555,29.555,0,0,0,5.081-4.243,7.236,7.236,0,0,0,1.5-2.871,9.16,9.16,0,0,0,0-3.328,29.3,29.3,0,0,1-.816-6.86,7.136,7.136,0,0,1,1.194-3.252,14.2,14.2,0,0,1,2.238-2.541,36.319,36.319,0,0,0,4.621-4.37,6.908,6.908,0,0,0,1.3-2.693,7.738,7.738,0,0,0,0-2.922c-.257-1.956-.892-3.836-1.247-5.716a7.482,7.482,0,0,1,.737-5.539c.991-1.55,2.541-2.541,3.331-3.963a5.1,5.1,0,0,0,.559-4.37c-.406-1.448-1.07-2.744-1.524-4.04a7.563,7.563,0,0,1-.508-3.887,11.773,11.773,0,0,1,1.27-3.15,10.547,10.547,0,0,0,1.039-2.541,3.988,3.988,0,0,0-.963-3.557,2.231,2.231,0,0,0-1.219-.229" transform="translate(202.598 153.936)" fill="#455a64"/>
            <path id="Path_4177" data-name="Path 4177" d="M80.364,148.736a6.066,6.066,0,0,1-1.448-.483,10.4,10.4,0,0,1-3.506-2.541,10.165,10.165,0,0,1-2.668-6.3,10.642,10.642,0,0,1,3.455-8.384,24.82,24.82,0,0,1,4.522-2.947,12.893,12.893,0,0,0,4.421-3.608,8.275,8.275,0,0,0,1.042-5.92c-.279-2.134-.915-4.319-1.118-6.656a18.572,18.572,0,0,1,17.121-19.918c.549-.041,1.1-.058,1.654-.051l-.279.381a9.1,9.1,0,0,1-.686-4.37,11.741,11.741,0,0,1,1.245-4.319,13.443,13.443,0,0,1,2.769-3.658,15.016,15.016,0,0,1,3.836-2.541,29.148,29.148,0,0,1,13.211-2.185,43.8,43.8,0,0,1,12.525,2.236l-.356.178a13.463,13.463,0,0,1,9.934-9.68,13.8,13.8,0,0,1,6.758.2,21.985,21.985,0,0,1,5.691,2.947,13.08,13.08,0,0,0,2.693,1.3,7.816,7.816,0,0,0,2.846.33,23.738,23.738,0,0,0,5.411-1.3,19.434,19.434,0,0,1,5.081-1.092,16.592,16.592,0,0,1,4.8.407,15.84,15.84,0,0,1,7.19,3.811,16.424,16.424,0,0,1,3.608,4.878,15.178,15.178,0,0,1,1.22,3.608,10.061,10.061,0,0,1,.2,1.321,4.6,4.6,0,0,0-.279-1.3,15.366,15.366,0,0,0-1.321-3.531,16.358,16.358,0,0,0-3.608-4.776,15.646,15.646,0,0,0-7.088-3.658,15.808,15.808,0,0,0-4.7-.381,19.371,19.371,0,0,0-5.081,1.118,23.643,23.643,0,0,1-5.513,1.321,7.633,7.633,0,0,1-3-.33,13.59,13.59,0,0,1-2.82-1.321,21.411,21.411,0,0,0-5.564-2.871,13.058,13.058,0,0,0-6.5-.178,12.908,12.908,0,0,0-9.527,9.324v.279h-.279A44.388,44.388,0,0,0,123.91,75.9a28.9,28.9,0,0,0-12.957,2.16,14.662,14.662,0,0,0-3.709,2.541,12.7,12.7,0,0,0-2.541,3.481,11.283,11.283,0,0,0-1.194,4.116,8.647,8.647,0,0,0,.661,4.09l.152.406h-.432A18.013,18.013,0,0,0,85.6,110.418c-.008.554.008,1.105.051,1.656.178,2.261.813,4.421,1.067,6.606A8.9,8.9,0,0,1,85.6,124.9a12.705,12.705,0,0,1-4.6,3.709,27.969,27.969,0,0,0-4.5,2.9,10.494,10.494,0,0,0-3.4,8.079,9.885,9.885,0,0,0,2.541,6.174,10.528,10.528,0,0,0,3.4,2.541c.813.279,1.321.406,1.321.432" transform="translate(112.047 104.215)" fill="#263238"/>
            <path id="Path_4178" data-name="Path 4178" d="M216.809,136.114v-1.423c.125-.965.3-2.312.508-4.065s.432-3.913.506-6.453a35.091,35.091,0,0,0-.658-8.486,23.649,23.649,0,0,0-4.068-9.375,17.254,17.254,0,0,0-3.91-3.887,49.065,49.065,0,0,0-5.361-2.922,17.2,17.2,0,0,1-5.236-3.887,26.746,26.746,0,0,1-3.633-5.894c-1.042-2.058-2.007-4.167-3.2-6.174a20.136,20.136,0,0,0-4.626-5.335,34.077,34.077,0,0,0-12.7-5.793A86.872,86.872,0,0,0,161.5,70.059a67.7,67.7,0,0,0-22.131,1.169A47.132,47.132,0,0,0,125.5,76.791c-.765.483-1.448.864-2.007,1.245l-1.4,1.016-.864.635-.307.178.282-.229.81-.661,1.374-1.067c.559-.407,1.245-.813,1.979-1.321a46.909,46.909,0,0,1,13.9-5.767,67.1,67.1,0,0,1,22.3-1.27,88.783,88.783,0,0,1,13.008,2.312,34.56,34.56,0,0,1,12.906,5.92,19.842,19.842,0,0,1,4.751,5.462c1.245,2.058,2.185,4.192,3.227,6.224a26.228,26.228,0,0,0,3.559,5.615,16.305,16.305,0,0,0,5.081,3.76,52.367,52.367,0,0,1,5.386,3,18.231,18.231,0,0,1,4.164,4.09,24.623,24.623,0,0,1,4.093,9.6,35.776,35.776,0,0,1,.582,8.587,61.05,61.05,0,0,1-.61,6.453c-.254,1.778-.457,3.15-.635,4.065a4.461,4.461,0,0,1-.178,1.042Z" transform="translate(186.296 106.521)" fill="#263238"/>
            <path id="Path_4179" data-name="Path 4179" d="M103.719,111.573a9.9,9.9,0,0,0-3.127.965,12.858,12.858,0,0,0-6.123,6.377,13.276,13.276,0,0,0-1.22,6.072,14.993,14.993,0,0,0,2.01,6.809,15.492,15.492,0,0,0,5.462,5.666,14.11,14.11,0,0,0,8.178,2.007,15.257,15.257,0,0,0,7.978-2.693,13.642,13.642,0,0,0,4.9-6.148,14.657,14.657,0,0,0-.889-12.932,13.923,13.923,0,0,0-7.01-5.411,8.086,8.086,0,0,0-2.391-.457,4.092,4.092,0,0,0-.864,0,11.346,11.346,0,0,1,3.153.635,14.552,14.552,0,0,1,3.277,1.829,13.105,13.105,0,0,1,3.376,3.582,14.189,14.189,0,0,1,.737,12.424,13.287,13.287,0,0,1-4.7,5.818,14.778,14.778,0,0,1-7.622,2.541,13.632,13.632,0,0,1-7.772-1.905,14.923,14.923,0,0,1-5.236-5.386,14.746,14.746,0,0,1-1.982-6.5,13.069,13.069,0,0,1,1.067-5.843,12.829,12.829,0,0,1,5.8-6.326,29.084,29.084,0,0,1,3-1.118" transform="translate(143.647 171.89)" fill="#e0e0e0"/>
            <path id="Path_4180" data-name="Path 4180" d="M127.234,108.934a4.068,4.068,0,0,1-4.626,3.354,3.911,3.911,0,0,1-3.516-4.271c0-.033.005-.066.01-.1a4.089,4.089,0,0,1,4.624-3.379,3.913,3.913,0,0,1,3.521,4.268l-.013.127" transform="translate(183.444 160.987)" fill="#263238"/>
            <path id="Path_4181" data-name="Path 4181" d="M142.746,112.072a4.09,4.09,0,0,1-4.624,3.379,3.886,3.886,0,0,1-3.526-4.217c.005-.058.013-.119.02-.178a4.091,4.091,0,0,1,4.6-3.379,3.938,3.938,0,0,1,3.542,4.3c0,.03-.005.064-.01.1" transform="translate(207.335 165.827)" fill="#263238"/>
            <path id="Path_4182" data-name="Path 4182" d="M151.049,109.143c-.61.61-3.684-2.541-8.46-3.2S134,107.8,133.57,107.059c-.229-.33.457-1.5,2.109-2.541a10.9,10.9,0,0,1,13.973,1.651c1.321,1.448,1.7,2.718,1.4,2.972" transform="translate(205.713 158.239)" fill="#263238"/>
            <path id="Path_4183" data-name="Path 4183" d="M135.4,107.359c-.711.534-3.658-3.023-8.663-4.116s-9.273.813-9.654,0c-.229-.33.61-1.4,2.541-2.287a12.347,12.347,0,0,1,14.634,3.252c1.22,1.778,1.5,2.922,1.143,3.15" transform="translate(180.327 153.772)" fill="#263238"/>
            <path id="Path_4184" data-name="Path 4184" d="M132.383,121.2a7.118,7.118,0,0,0-6-3.455,6.524,6.524,0,0,0-4.779,1.829,4.089,4.089,0,0,0-.915,4.649,4.751,4.751,0,0,0,5.081,1.956,15.027,15.027,0,0,0,5.411-2.337,4.518,4.518,0,0,0,1.27-1.016,1.32,1.32,0,0,0,.178-1.474" transform="translate(185.384 181.393)" fill="#7a4a45"/>
            <path id="Path_4185" data-name="Path 4185" d="M122.11,115.945c.635,0,0,4.319,3.354,7.8s7.876,3.633,7.825,4.217-1.118.711-3.049.508a10.723,10.723,0,0,1-6.555-3.277,9.25,9.25,0,0,1-2.541-6.5c.051-1.8.661-2.82.965-2.744" transform="translate(186.635 178.62)" fill="#263238"/>
            <path id="Path_4186" data-name="Path 4186" d="M228.027,360.981c1.855-6.656-1.575-17.784-1.575-17.784a432.86,432.86,0,0,0,22.865-48.272c10.162-25.736,10.162-80,10.162-82.748s-33.028-40.472-33.028-40.472-5.513,2.744-33.028-2.769S141.189,134,141.189,134L92.638,157.91S65.149,282.984,62.4,301.378,82.069,327.42,82.069,327.42c-.686,1.524,5.742,39.989,7.622,41.844s35.568,11.1,36.077,12.576,64.074,31.046,64.074,29.928,32.6-36.966,32.6-36.966Z" transform="translate(95.783 206.446)" fill="#e0e0e0"/>
            <path id="Path_4187" data-name="Path 4187" d="M150.957,177.913a10.819,10.819,0,0,1,0,2.922,43.314,43.314,0,0,1-1.372,7.876A48.115,48.115,0,0,1,113.1,223.517a46,46,0,0,1-7.927.991,11.049,11.049,0,0,1-2.922-.152c0-.254,4.192-.152,10.645-1.753a49.617,49.617,0,0,0,35.8-34.146c1.905-6.377,2.007-10.569,2.261-10.544" transform="translate(157.533 274.094)" fill="#263238"/>
            <path id="Path_4188" data-name="Path 4188" d="M87.093,83.163s-2.34-19-4.195-27.947C80.358,43.148,86.4,6.512,86.252,3.388a4.37,4.37,0,0,0-8.409-.381c-.813,1.855-7.444,33.46-7.774,32.418S68.9,1.1,65.419,1.126,59.5,6.208,59.5,9.968s1.524,21.29,1.524,21.29l-17.35-3.481a23.923,23.923,0,0,0,0,5.081l-5.566,4.167L36.024,50.567S49.235,78.361,50.963,81.054,61.557,95.637,61.557,95.637Z" transform="translate(55.499 -0.001)" fill="#a2675f"/>
            <path id="Path_4189" data-name="Path 4189" d="M61.026,56.563a5.407,5.407,0,0,1-2.058-.762,13.227,13.227,0,0,1-4.522-3.913A14.174,14.174,0,0,1,51.6,43.378c0-3.43.915-6.987,1.194-10.671A11,11,0,0,0,49.9,23.383a77.129,77.129,0,0,0-7.37-4.5,8.428,8.428,0,0,1-3.554-4.853c-.279-1.474.127-2.236.178-2.21a17.543,17.543,0,0,0,.3,2.058A8.5,8.5,0,0,0,43.062,18.1a63.222,63.222,0,0,1,7.622,4.37,9.375,9.375,0,0,1,2.9,4.649,16.553,16.553,0,0,1,.506,5.716c-.3,3.913-1.319,7.393-1.3,10.594a13.408,13.408,0,0,0,2.388,7.9,19.5,19.5,0,0,0,5.846,5.234" transform="translate(59.894 18.214)" fill="#7a4a45"/>
            <path id="Path_4190" data-name="Path 4190" d="M62.745,29.349a86.223,86.223,0,0,1-8.59-8.206,87.876,87.876,0,0,1-8.331-8.46A39.236,39.236,0,0,1,55.1,20.3a40.205,40.205,0,0,1,7.65,9.045" transform="translate(70.598 19.54)" fill="#7a4a45"/>
            <path id="Path_4191" data-name="Path 4191" d="M149.16,218.584a127.618,127.618,0,0,0-15.447,34.247c-25.406,89.252-70.426,263.207-78.759,289.426-11.026,34.959-35.772,114.023-42.2,153.58l57.6,12.322s73.853-159.931,94.561-205.18c21.443-46.925,55.461-129.571,55.461-129.571l-1.8,352.865,50.812,3.481s21.186-99.77,30.487-159.55,19.08-198.65,21.849-229.925S308.53,230.855,308.53,230.855s-24.845,14-61.788,6.885c-29.42-5.666-89.884-30.767-89.884-30.767Z" transform="translate(19.65 318.864)" fill="#29407c"/>
            <path id="Path_4192" data-name="Path 4192" d="M120.16,223.993a22.771,22.771,0,0,1-.457,4.065c-.356,2.541-.965,6.4-1.778,11.052-1.6,9.3-4.04,22.129-7.114,36.2s-6.2,26.753-8.638,35.873c-1.194,4.573-2.236,8.257-2.973,10.772a27.9,27.9,0,0,1-1.3,3.912,23.756,23.756,0,0,1,.788-4.04c.661-2.795,1.524-6.453,2.541-10.874,2.185-9.171,5.081-21.849,8.257-35.924s5.64-26.829,7.469-36.1l2.185-10.95a25.15,25.15,0,0,1,1.016-3.989" transform="translate(150.832 345.085)" fill="#455a64"/>
            <path id="Path_4193" data-name="Path 4193" d="M103.315,214.095a7.449,7.449,0,0,1-.838,2.032,54.916,54.916,0,0,1-2.947,5.081,72.141,72.141,0,0,1-12.7,14.812A71.38,71.38,0,0,1,70.49,246.843,48,48,0,0,1,65,249.1a7.154,7.154,0,0,1-2.109.584c0-.2,2.795-1.347,7.19-3.684A82.393,82.393,0,0,0,98.844,220.6c2.769-3.887,4.268-6.606,4.471-6.5" transform="translate(96.895 329.832)" fill="#455a64"/>
            <path id="Path_4194" data-name="Path 4194" d="M101.479,224.205s0-.635,1.016-.991a6.463,6.463,0,0,1,3.887,0,7.612,7.612,0,0,1,2.541,1.118,4.251,4.251,0,0,1,1.626,2.9,6.5,6.5,0,0,1-3.15,6.326,6.681,6.681,0,0,1-7.088,0,4.569,4.569,0,0,1-1.855-2.718,6.327,6.327,0,0,1,0-2.744,5.637,5.637,0,0,1,1.829-3.43c.762-.559,1.321-.584,1.321-.533s-.406.3-.965.915a5.614,5.614,0,0,0-1.27,3.176,4.446,4.446,0,0,0,1.677,4.319,5.615,5.615,0,0,0,5.742-.152,5.407,5.407,0,0,0,2.541-5.081,3.169,3.169,0,0,0-1.067-2.185,7.637,7.637,0,0,0-2.109-1.092,6.916,6.916,0,0,0-3.455-.432c-.94.152-1.118.686-1.219.61" transform="translate(151.449 343.425)" fill="#455a64"/>
            <path id="Path_4195" data-name="Path 4195" d="M136.5,259.593a53.422,53.422,0,0,1-6.3,3.963c-3.963,2.363-9.349,5.716-15.244,9.654s-10.874,7.622-14.507,10.518a49.064,49.064,0,0,1-6.021,4.4,34.564,34.564,0,0,1,5.437-5.081,177.776,177.776,0,0,1,29.75-20.325,36.221,36.221,0,0,1,6.885-3.125" transform="translate(145.47 399.931)" fill="#455a64"/>
            <path id="Path_4196" data-name="Path 4196" d="M112.2,300.183a76.057,76.057,0,0,1-4.525-8.13c-2.718-5.081-6.529-11.966-11.077-19.461s-8.915-14.05-12.144-18.8a77.293,77.293,0,0,1-5.081-7.749,10.209,10.209,0,0,1,1.7,1.829c1.014,1.245,2.541,3.074,4.167,5.386,3.455,4.6,7.95,11.153,12.525,18.648s8.257,14.558,10.744,19.715c1.27,2.541,2.236,4.726,2.848,6.2a9.161,9.161,0,0,1,.838,2.363" transform="translate(122.284 379.056)" fill="#455a64"/>
            <path id="Path_4197" data-name="Path 4197" d="M88.911,344.748a7.178,7.178,0,0,1-2.213,0,47.676,47.676,0,0,1-5.945-.711,104.463,104.463,0,0,1-19.1-4.853,106.414,106.414,0,0,1-17.784-8.308c-2.162-1.27-3.89-2.388-5.081-3.2s-1.778-1.3-1.728-1.372a72,72,0,0,1,7.215,3.76,133.762,133.762,0,0,0,36.709,13.059c4.853.991,7.952,1.423,7.929,1.626" transform="translate(57.085 502.705)" fill="#455a64"/>
            <path id="Path_4198" data-name="Path 4198" d="M73.966,341.174a20.148,20.148,0,0,1-5.081-1.6c-3.1-1.169-7.342-2.973-11.865-5.208s-8.536-4.548-11.357-6.326a21.987,21.987,0,0,1-4.37-3.125c.2-.33,7.266,3.785,16.311,8.257s16.489,7.647,16.362,8" transform="translate(63.618 500.537)" fill="#455a64"/>
            <path id="Path_4199" data-name="Path 4199" d="M121.435,166.762l5.335-29.649L139.8,169.836l31.808,19.334-8.054,138.819,5.081,71.137-36.89,10.645s-1.878-52.032-2.185-54.953c-1.3-12.7,24.723-60.7,18.851-96.543-4.4-26.778-14.481-46.925-13.463-51.346Z" transform="translate(187.084 211.237)" fill="#5d51a3"/>
            <path id="Path_4200" data-name="Path 4200" d="M121.435,148.783a3.413,3.413,0,0,1,.254.584c.15.483.353,1.042.607,1.753.533,1.677,1.3,3.938,2.236,6.809,2.06,5.97,4.954,14.456,8.536,24.9s7.85,23.069,11.458,37.347a177.208,177.208,0,0,1,6.047,47.433c-.33,17.022-2.541,33.028-3.938,47.687s-2.792,27.82-4.827,38.77a175.971,175.971,0,0,1-6.428,25.559c-1.042,2.922-1.878,5.081-2.541,6.682l-.737,1.728-.279.559a2.008,2.008,0,0,1,.152-.61l.612-1.753c.582-1.55,1.344-3.836,2.309-6.783a192.413,192.413,0,0,0,6-25.533c1.88-10.95,3.252-24.085,4.522-38.744s3.509-30.665,3.836-47.586a180.09,180.09,0,0,0-5.92-47.128c-3.506-14.227-7.622-26.778-11.153-37.347s-6.326-19.08-8.127-25.025c-.917-2.973-1.578-5.284-2.035-6.885l-.457-1.778a2.271,2.271,0,0,1-.125-.635" transform="translate(187.084 229.216)" fill="#263238"/>
            <path id="Path_4201" data-name="Path 4201" d="M124.975,140.753a12.669,12.669,0,0,1,1.347,2.947c.887,2.185,1.982,5.081,3.3,8.206,2.7,6.936,6.555,16.539,9.934,27.439,1.019,3.3,1.906,6.555,2.541,9.68l.584,2.363-1.651-1.778-13.923-14.837.765-.381c.4,3.176.76,5.818,1.014,7.927a10.734,10.734,0,0,1,.381,2.871,14.184,14.184,0,0,1-.683-2.82c-.384-2.083-.841-4.726-1.4-7.85l-.279-1.423,1.044,1.042,14.177,14.558-1.095.61c-.762-3.074-1.677-6.3-2.693-9.6-3.354-10.823-7.063-20.325-9.55-27.489-1.247-3.506-2.238-6.377-2.9-8.359a16.257,16.257,0,0,1-.912-3.1" transform="translate(192.537 216.845)" fill="#263238"/>
            <g id="Group_1283" data-name="Group 1283" transform="translate(316.771 489.075)" opacity="0.3">
              <g id="Group_1282" data-name="Group 1282">
                <g id="Group_1281" data-name="Group 1281" clip-path="url(#clip-path-6)">
                  <path id="Path_4202" data-name="Path 4202" d="M126.922,256.806s-2.541,3.582-2.21,15.7c.381,17.632,2.109,48.729,2.109,48.729s8.994-24.06,10.493-40.4c.889-9.68,5.437-50.228,5.437-50.228l2.134-38.109-8.257,35.264Z" transform="translate(-124.684 -192.503)"/>
                </g>
              </g>
            </g>
            <path id="Path_4203" data-name="Path 4203" d="M53.187,163.393,90.458,313.8l13.465,53.734c-13.9,36.966-47.611,74.541-58.078,91.055,0,0,49.034,58.434,51.193,58.586s83.052-106.578,95.809-128.936,16.257-43.394,12.015-55.563S182,283.233,182,283.233L171.834,293.4l-23.094-21.341L113.5,134.1,79.737,30.443,43.914,48Z" transform="translate(67.654 46.901)" fill="#5d51a3"/>
            <path id="Path_4204" data-name="Path 4204" d="M65.4,357.673a4.1,4.1,0,0,1,.328-.661l1.067-1.829c.94-1.6,2.312-3.989,4.167-6.987,3.686-6.021,9.172-14.634,16.082-25.2L111.377,285.9c9.045-14.024,18.9-29.5,27.947-46.417,1.524-2.795,2.973-5.564,4.372-8.359.683-1.372,1.5-2.795,2.055-4.116a26.074,26.074,0,0,0,1.067-4.344c1.042-6,1.651-11.966,2.668-17.784a60.215,60.215,0,0,1,1.956-8.511,17.286,17.286,0,0,1,.838-2.032l.534-.991c.231-.3.534-.61.79-.915,1.115-.965,2.233-1.7,3.354-2.541a57.506,57.506,0,0,0,11.788-10.162l.178.838a14.18,14.18,0,0,0-10.594-.534l-5.081,1.4a11.285,11.285,0,0,1-5.284.356h-.307v-.3L140.874,146.8c-.762-4.014-1.344-7.19-1.778-9.451-.178-1.042-.3-1.855-.432-2.541a3.557,3.557,0,0,1,0-.838,2.835,2.835,0,0,1,.231.813c.15.635.328,1.448.556,2.541.508,2.261,1.171,5.412,2.058,9.426,1.7,8.282,4.167,20.071,7.192,34.578l-.356-.381a10.779,10.779,0,0,0,4.774-.407l5.081-1.423a15.24,15.24,0,0,1,11.407.584l.559.33-.381.508a58.623,58.623,0,0,1-11.992,10.569,40.257,40.257,0,0,0-3.252,2.541,9.286,9.286,0,0,0-1.8,3.4,61.182,61.182,0,0,0-1.878,8.308c-.968,5.742-1.578,11.687-2.541,17.784a28.106,28.106,0,0,1-1.146,4.6c-.635,1.524-1.395,2.82-2.083,4.243-1.395,2.795-2.871,5.589-4.393,8.359-9.174,17-19.083,32.469-28.178,46.493S94.94,313.264,87.928,323.756s-12.7,19.029-16.438,24.974c-1.855,2.9-3.328,5.081-4.4,6.834l-1.143,1.778a4.393,4.393,0,0,1-.556.33" transform="translate(100.748 206.4)" fill="#263238"/>
            <path id="Path_4205" data-name="Path 4205" d="M75.6,220.559c0-.152,1.7.2,4.7,0a29.676,29.676,0,0,0,12.144-3.4,36.1,36.1,0,0,0,13.567-12.7,45.735,45.735,0,0,0,6.4-21.875,78.938,78.938,0,0,0-2.541-22.865c-1.728-6.936-3.836-13.059-5.615-18.191s-3.252-9.273-4.167-12.169c-.457-1.448-.813-2.541-1.016-3.354A4.921,4.921,0,0,1,98.8,124.8a36.558,36.558,0,0,1,1.778,4.4l4.573,12.017a186.259,186.259,0,0,1,5.894,18.191,77.561,77.561,0,0,1,2.541,23.323,46.727,46.727,0,0,1-6.682,22.484,36.373,36.373,0,0,1-14.2,12.7,28.13,28.13,0,0,1-12.525,3.1,21.635,21.635,0,0,1-3.531-.3,3.7,3.7,0,0,1-1.042-.152" transform="translate(116.476 192.272)" fill="#263238"/>
            <g id="Group_1286" data-name="Group 1286" transform="translate(226.939 341.643)" opacity="0.3">
              <g id="Group_1285" data-name="Group 1285">
                <g id="Group_1284" data-name="Group 1284" clip-path="url(#clip-path-7)">
                  <path id="Path_4206" data-name="Path 4206" d="M102.281,134.473a368.739,368.739,0,0,0-2.16,54.521l12.83-3.633c-5.767,3.455-8.613,10.315-9.527,16.971s-.3,13.44-1.016,20.122C101.087,234.7,94.99,251.925,89.324,262.9c21.57-37.982,20.325-33.409,22.434-52.286.584-5.081,1.448-13.389,4.446-17.378,3.989-5.31,12.7-9.578,16.234-13.973-6.25-1.347-13.922-.229-20.325.94-5.081-15.015-7.317-30.487-9.934-45.731" transform="translate(-89.325 -134.473)"/>
                </g>
              </g>
            </g>
            <g id="Group_1289" data-name="Group 1289" transform="translate(190.786 437.272)" opacity="0.3">
              <g id="Group_1288" data-name="Group 1288">
                <g id="Group_1287" data-name="Group 1287" clip-path="url(#clip-path-8)">
                  <path id="Path_4207" data-name="Path 4207" d="M75.094,266.446l3.4,1.169c34.781-18.826,59.908-56.376,65.6-95.5-22.51,30.259-45.756,63.439-69,94.333" transform="translate(-75.095 -172.113)"/>
                </g>
              </g>
            </g>
            <path id="Path_4208" data-name="Path 4208" d="M233.854,153.4s-13.541,4.8-22.334,29.065c-4.675,12.855-15.676,56.173-15.676,56.173l50.812,15.6-4.776-82.367Z" transform="translate(301.719 236.334)" fill="#455a64"/>
            <path id="Path_4209" data-name="Path 4209" d="M346.591,325.226a6.426,6.426,0,0,0-3.43-4.776c-28.277-15.7-51.625-53.581-56.274-86.813-.2-1.905-.432-3.811-.635-5.767-5.284-47.636-16.844-105-24.364-119.942-13.9-27.591-53.581-27.185-53.581-27.185-52.718.33-58.942,41.361-61.381,78.454-1.5,23.069,17.784,98.194,17.784,98.194l13.745,26.067c14,32.748,12.119,42.25,46.341,52.159,9.934,2.9,18.242,3.709,21.824.279a132.465,132.465,0,0,0,57.8,29.192,68.592,68.592,0,0,0,26.422,1.423c5.691-.991,11.56-3.328,14.608-8.232a13.186,13.186,0,0,0-12.906-20.045c1.6-6.631,14.837-5.767,14.05-13.008" transform="translate(226.225 124.393)" fill="#574e4c"/>
            <path id="Path_4210" data-name="Path 4210" d="M145.254,400.623,143.5,453.544s53.2,19.563,53.835,29.395l-102.768.279-.635-82.6Z" transform="translate(144.715 617.203)" fill="#263238"/>
            <path id="Path_4211" data-name="Path 4211" d="M102.74,419.827a4.144,4.144,0,0,0-2.9,4.776,4.037,4.037,0,0,0,4.726,2.922,4.417,4.417,0,0,0,3.023-5.081,4.164,4.164,0,0,0-5.231-2.541" transform="translate(153.696 646.576)" fill="#e0e0e0"/>
            <path id="Path_4212" data-name="Path 4212" d="M94.185,438.186l.277-8.333,98.426,2.846s4.573,1.982,4.062,5.081Z" transform="translate(145.102 662.235)" fill="#455a64"/>
            <path id="Path_4213" data-name="Path 4213" d="M119.824,421.551c0,.483-2.541.737-5.081,2.337s-3.785,3.735-4.243,3.557.279-3.1,3.3-5.081,6.123-1.27,6.021-.813" transform="translate(170.045 648.662)" fill="#fff"/>
            <path id="Path_4214" data-name="Path 4214" d="M122.353,423.114c0,.483-2.058,1.347-3.76,3.481s-2.185,4.37-2.541,4.345-.838-2.871,1.321-5.462,4.954-2.845,4.98-2.363" transform="translate(178.313 651.546)" fill="#fff"/>
            <path id="Path_4215" data-name="Path 4215" d="M121.13,433.272c-.457,0-1.146-2.388.124-5.081s3.633-3.836,3.839-3.43-1.222,1.905-2.238,4.166-1.217,4.294-1.725,4.344" transform="translate(185.687 654.268)" fill="#fff"/>
            <path id="Path_4216" data-name="Path 4216" d="M120.191,417.557c-.2.457-2.541-.229-5.338,0s-5.081,1.092-5.307.661,1.852-2.21,5.081-2.414,5.818,1.347,5.564,1.753" transform="translate(168.74 640.563)" fill="#fff"/>
            <path id="Path_4217" data-name="Path 4217" d="M54.356,388.993,32.38,449.205,1.257,491.786a6.579,6.579,0,0,0,1.458,9.192c.112.081.229.16.346.234a6.533,6.533,0,0,0,6,.533c12.525-5.081,58.434-24.415,59.857-28.912,1.573-5.208,27.413-61.965,27.413-61.965Z" transform="translate(0 599.286)" fill="#263238"/>
            <path id="Path_4218" data-name="Path 4218" d="M1.2,452.821,68.632,420.4l-.991,2.541a9.756,9.756,0,0,1-4.522,5.081C57.605,431,42.133,438.873,7.38,453.431a6.582,6.582,0,0,1-6.176-.61" transform="translate(1.855 647.676)" fill="#455a64"/>
            <g id="Group_1292" data-name="Group 1292" transform="translate(62.825 1043.978)" opacity="0.6">
              <g id="Group_1291" data-name="Group 1291">
                <g id="Group_1290" data-name="Group 1290" clip-path="url(#clip-path-9)">
                  <path id="Path_4219" data-name="Path 4219" d="M27.693,410.984a3.99,3.99,0,0,0-2.924,4.421,3.814,3.814,0,0,0,4.372,2.922,4.167,4.167,0,0,0,3.046-4.7,3.937,3.937,0,0,0-4.878-2.541" transform="translate(-24.729 -410.917)" fill="#fff"/>
                </g>
              </g>
            </g>
            <path id="Path_4220" data-name="Path 4220" d="M16.525,431.6a20.14,20.14,0,0,0-3.43-6.682,20.522,20.522,0,0,0-6.352-4.014c0-.153.94-.33,2.541,0a10.464,10.464,0,0,1,7.622,8.257c.025,1.524-.2,2.439-.381,2.439" transform="translate(10.39 648.164)" fill="#fff"/>
            <path id="Path_4221" data-name="Path 4221" d="M13.612,432.216c-.381.152-1.527-2.541-4.271-4.624s-5.587-2.541-5.536-3.049a7.37,7.37,0,0,1,6.4,1.931c3.148,2.414,3.834,5.716,3.4,5.742" transform="translate(5.862 653.876)" fill="#fff"/>
            <path id="Path_4222" data-name="Path 4222" d="M23.882,430.223a68.2,68.2,0,0,0-6.125-7.622A66.524,66.524,0,0,0,9.7,417.063,18,18,0,0,1,23.882,430.2Z" transform="translate(14.952 642.531)" fill="#fff"/>
            <path id="Path_4223" data-name="Path 4223" d="M27.789,419.478c-.3.3-3.049-2.363-7.292-4.192s-8.028-2.134-8-2.541a12.835,12.835,0,0,1,8.587,1.27,12.712,12.712,0,0,1,6.707,5.462" transform="translate(19.248 635.492)" fill="#fff"/>
            <path id="Path_4224" data-name="Path 4224" d="M31.033,412.377a33.678,33.678,0,0,0-7.469-4.573,32.259,32.259,0,0,0-8.689-1.092c0-.178.889-.661,2.541-.915a14.244,14.244,0,0,1,12.142,4.268c1.171,1.245,1.6,2.134,1.476,2.312" transform="translate(22.917 624.987)" fill="#fff"/>
            <path id="Path_4225" data-name="Path 4225" d="M22.959,412.894a5.3,5.3,0,0,1,.813-2.287,16.584,16.584,0,0,1,4.09-5.234,7.614,7.614,0,0,1,4.294-2.134,2.539,2.539,0,0,1,2.541,1.626,4.182,4.182,0,0,1,0,3.049A9.271,9.271,0,0,1,24,413a10.8,10.8,0,0,1-7.8-9.1,3.686,3.686,0,0,1,.965-2.973,2.542,2.542,0,0,1,3.023-.279,8.9,8.9,0,0,1,3.125,3.582,18.179,18.179,0,0,1,2.261,6.224,6.032,6.032,0,0,1,0,2.414,31.256,31.256,0,0,0-3.227-8.13,8.565,8.565,0,0,0-2.82-3.049,1.374,1.374,0,0,0-1.651.153,2.539,2.539,0,0,0-.508,1.982,9.605,9.605,0,0,0,6.834,7.8,8.079,8.079,0,0,0,9.172-4.141,3.15,3.15,0,0,0,.152-2.134,1.4,1.4,0,0,0-1.4-.915,6.506,6.506,0,0,0-3.658,1.753,24.915,24.915,0,0,0-5.513,6.707" transform="translate(24.916 616.669)" fill="#fff"/>
            <path id="Path_4226" data-name="Path 4226" d="M148.369,157.6l38.643,104.165s108.814,32.723,107.163,33.155-14.253,41.895-14.253,41.895S178.831,309.176,167.855,303.79,136.5,272.362,136.5,272.362Z" transform="translate(210.299 242.804)" fill="#5d51a3"/>
            <path id="Path_4227" data-name="Path 4227" d="M187.471,89.112l3.046-3.379,36.458,11.458a9.959,9.959,0,0,1,10.162,8.841l8.74,115.648a32.428,32.428,0,0,1-4.621,21.341l-4.474,6.961a26.219,26.219,0,0,1-43.9.661,13.12,13.12,0,0,1-1.474-2.9,22.541,22.541,0,0,1-.737-2.541c-1.778-9.2-2.541-17.251-2.541-17.251-1.448-10.162-1.982-14.329-1.956-14.227s-21.925-.813-29.954-28.2c-4.014-13.643-5.081-32.748-5.587-51.574-.816-26.143,15.955-43.241,36.839-44.842" transform="translate(232.021 132.081)" fill="#ffbf9d"/>
            <path id="Path_4228" data-name="Path 4228" d="M169.74,111.613a3.608,3.608,0,0,0,3.938,3.176,3.455,3.455,0,0,0,3.282-3.62c0-.028,0-.058-.005-.089a3.608,3.608,0,0,0-3.938-3.176,3.455,3.455,0,0,0-3.282,3.62c0,.028,0,.058.005.089" transform="translate(261.488 166.21)" fill="#263238"/>
            <path id="Path_4229" data-name="Path 4229" d="M155.35,113.122a3.608,3.608,0,0,0,3.913,3.176,3.457,3.457,0,0,0,3.31-3.595l-.008-.114a3.632,3.632,0,0,0-3.938-3.176,3.455,3.455,0,0,0-3.283,3.62c0,.028,0,.058.005.089" transform="translate(239.319 168.538)" fill="#263238"/>
            <path id="Path_4230" data-name="Path 4230" d="M152.389,110.423c.48.432,2.945-1.931,6.806-2.541s6.964,1.092,7.32.559-.409-1.016-1.756-1.753a9.835,9.835,0,0,0-5.92-1.016,9.456,9.456,0,0,0-5.335,2.541c-1.092,1.143-1.372,2.032-1.115,2.21" transform="translate(234.635 162.65)" fill="#263238"/>
            <path id="Path_4231" data-name="Path 4231" d="M167.885,109.819c.559.356,2.769-2.236,6.555-3.125s7.012.356,7.317-.2-.483-.965-1.905-1.575a10.159,10.159,0,0,0-6-.406,9.645,9.645,0,0,0-5.081,3.074c-.94,1.169-1.143,2.083-.889,2.236" transform="translate(258.49 160.586)" fill="#263238"/>
            <path id="Path_4232" data-name="Path 4232" d="M169.553,137.623a25.493,25.493,0,0,0-6.43-.33c-.991,0-1.956,0-2.21-.711a5.11,5.11,0,0,1,.279-3c.635-2.541,1.27-5.081,1.956-7.876,2.67-11.23,4.471-20.325,4.014-20.5s-2.97,8.918-5.64,20.122c-.635,2.769-1.245,5.386-1.829,7.9a5.793,5.793,0,0,0,0,3.938,2.544,2.544,0,0,0,1.829,1.245,7.628,7.628,0,0,0,1.7,0,27.119,27.119,0,0,0,6.329-.788" transform="translate(245.493 162.075)" fill="#263238"/>
            <path id="Path_4233" data-name="Path 4233" d="M164.665,145.08a71.773,71.773,0,0,0,36.1-14.837s-6.933,20.6-35.264,21.57Z" transform="translate(253.684 200.653)" fill="#ff9a6c"/>
            <path id="Path_4234" data-name="Path 4234" d="M164.642,123.61a7.008,7.008,0,0,1,5.917-3.4,6.391,6.391,0,0,1,4.677,1.8,4.041,4.041,0,0,1,.915,4.548,4.7,4.7,0,0,1-4.906,1.931,14.95,14.95,0,0,1-5.31-2.287,4.447,4.447,0,0,1-1.245-1.016,1.247,1.247,0,0,1-.178-1.423" transform="translate(253.225 185.183)" fill="#ff9a6c"/>
            <path id="Path_4235" data-name="Path 4235" d="M174.6,118.434c-.635,0,0,4.243-3.305,7.622s-7.622,3.557-7.622,4.141,1.12.686,3,.508a10.606,10.606,0,0,0,6.456-3.227,9.142,9.142,0,0,0,2.541-6.4c-.18-1.728-.79-2.693-1.067-2.642" transform="translate(252.157 182.458)" fill="#263238"/>
            <path id="Path_4236" data-name="Path 4236" d="M165.943,103.613c.61.94,4.268-.432,8.841-.94s8.46-.127,8.841-1.194c.152-.508-.686-1.321-2.388-1.982a15.517,15.517,0,0,0-13.465,1.626c-1.473,1.042-2.109,2.032-1.829,2.49" transform="translate(255.554 151.98)" fill="#263238"/>
            <path id="Path_4237" data-name="Path 4237" d="M152.128,103.911c.785.788,3.351-.457,6.527-.915s6-.178,6.5-1.169c.2-.483-.328-1.3-1.626-1.982a9.527,9.527,0,0,0-10.493,1.677c-1.016,1.042-1.27,2.007-.912,2.388" transform="translate(234.133 152.469)" fill="#263238"/>
            <path id="Path_4238" data-name="Path 4238" d="M219.995,156.587s-19.385,7.622-34.453-40.4c-5.081-16.463-21.748-28.811-21.748-28.811l6.148-2.388s40.015,7.952,40.65,8.409,11.461,19.461,11.461,19.461Z" transform="translate(252.342 130.941)" fill="#574e4c"/>
            <path id="Path_4239" data-name="Path 4239" d="M183.939,117.9c-.254-2.083,1.524-7.317,3.531-7.9,5.386-1.55,15.244-2.388,17.251,11.56,2.541,19.055-17.1,17.784-17.2,17.175s-2.668-13.643-3.582-20.833" transform="translate(283.34 168.185)" fill="#ffbf9d"/>
            <path id="Path_4240" data-name="Path 4240" d="M187.541,127.087a5.016,5.016,0,0,0,.94.381,3.332,3.332,0,0,0,2.541-.279c1.928-1.016,3.176-4.446,2.82-7.9a11.579,11.579,0,0,0-1.578-4.624,3.909,3.909,0,0,0-2.845-2.21,1.678,1.678,0,0,0-1.829,1.169c-.2.584,0,.94-.127.991s-.455-.279-.4-1.067a2.117,2.117,0,0,1,.584-1.3,2.535,2.535,0,0,1,1.776-.737,4.631,4.631,0,0,1,3.864,2.541,11.271,11.271,0,0,1,1.88,5.081c.4,3.836-1.07,7.622-3.735,8.867a3.636,3.636,0,0,1-3.1,0c-.711-.457-.866-.864-.788-.915" transform="translate(288.175 171.798)" fill="#ff9a6c"/>
            <path id="Path_4241" data-name="Path 4241" d="M205.051,145.744a21.334,21.334,0,0,1-2.922-.356,17.394,17.394,0,0,1-7.139-3.43,23.294,23.294,0,0,1-3.862-3.887,30.6,30.6,0,0,1-3.328-5.361,121.55,121.55,0,0,1-5.234-13.592,142.467,142.467,0,0,0-5.488-13.567,81.281,81.281,0,0,0-5.818-10.442,60.428,60.428,0,0,0-4.929-6.377c-.61-.711-1.143-1.219-1.5-1.575s-.534-.559-.559-.534l.483.584c.33.381.838.915,1.448,1.651a69.362,69.362,0,0,1,4.751,6.453,86.848,86.848,0,0,1,5.716,10.442c1.88,4.065,3.684,8.638,5.437,13.516a115.333,115.333,0,0,0,5.259,13.643,30.011,30.011,0,0,0,3.43,5.437,24.115,24.115,0,0,0,3.989,3.913,17.138,17.138,0,0,0,7.317,3.328,10.815,10.815,0,0,0,2.947.152" transform="translate(253.082 133.451)" fill="#263238"/>
            <path id="Path_4242" data-name="Path 4242" d="M232.515,229.967a7.264,7.264,0,0,0,0-.94c0-.686.152-1.6.277-2.769.2-2.541.511-6.021.915-10.518h-.48a14.582,14.582,0,0,1-.127,2.287l-.333.889h.508a186.859,186.859,0,0,0,3.735-31.3,185.336,185.336,0,0,0-.406-20.02,91.977,91.977,0,0,0-3.58-21.7,35.392,35.392,0,0,0-4.167-8.435,48.933,48.933,0,0,0-5.869-6.961c-4.245-4.192-8.74-7.622-12.883-11.28L188.13,100.65l-14.964-12.5L169.048,84.8l-1.067-.864a1.779,1.779,0,0,0-.406-.279l.33.33,1.044.94,3.986,3.481,14.789,12.7,22.025,18.775c4.116,3.557,8.59,7.114,12.7,11.255A38.12,38.12,0,0,1,232.26,146.2a91.765,91.765,0,0,1,3.582,21.494,190.813,190.813,0,0,1,.455,19.918,193.256,193.256,0,0,1-3.455,31.224l.483.152.333-.889v-2.287h-.483c-.279,4.5-.508,8.054-.689,10.544a14.143,14.143,0,0,1-.152,2.769,4.326,4.326,0,0,0,.18.838" transform="translate(258.166 128.876)" fill="#455a64"/>
            <path id="Path_4243" data-name="Path 4243" d="M233.781,141.593a2.732,2.732,0,0,0-.407-.788c-.33-.584-.762-1.3-1.3-2.16-1.118-1.88-2.871-4.522-5.081-7.622s-5.081-6.885-8.46-10.823-7.266-8.079-11.585-12.22-8.689-7.774-12.7-10.95A135.969,135.969,0,0,0,183.019,89.1c-3.3-2.109-6.021-3.709-7.952-4.751l-2.21-1.169a2.9,2.9,0,0,0-.813-.381,4.407,4.407,0,0,0,.711.534l2.134,1.321c1.88,1.118,4.548,2.795,7.774,5.081s7.012,4.853,11.077,8.028,8.359,6.885,12.7,10.95,8.155,8.257,11.56,12.119,6.25,7.622,8.562,10.645,4.167,5.716,5.361,7.622l1.423,2.083c.137.142.282.277.432.406" transform="translate(265.052 127.567)" fill="#455a64"/>
            <path id="Path_4244" data-name="Path 4244" d="M188.105,401.316l2.818,52.9s-52.794,20.706-53.2,30.487l102.742-1.956-1.146-82.57Z" transform="translate(212.18 616.51)" fill="#455a64"/>
            <path id="Path_4245" data-name="Path 4245" d="M174.126,419.479a4.19,4.19,0,0,1,3,4.726,4.066,4.066,0,0,1-4.672,3.023,4.422,4.422,0,0,1-3.127-5.081,4.168,4.168,0,0,1,5.081-2.541" transform="translate(260.737 646.186)" fill="#e0e0e0"/>
            <path id="Path_4246" data-name="Path 4246" d="M240.529,437.731l-.434-8.308L141.747,434.5s-4.545,2.058-3.961,5.284Z" transform="translate(212.195 661.573)" fill="#263238"/>
            <path id="Path_4247" data-name="Path 4247" d="M158.037,421.54c0,.483,2.541.661,5.081,2.236s3.859,3.659,4.316,3.455-.356-3.1-3.4-4.954-6.123-1.169-5.993-.737" transform="translate(243.468 648.674)" fill="#fff"/>
            <path id="Path_4248" data-name="Path 4248" d="M153.824,423.209c0,.483,2.083,1.3,3.836,3.379s2.261,4.344,2.769,4.294.762-2.871-1.448-5.412-5.157-2.744-5.157-2.261" transform="translate(236.982 651.679)" fill="#fff"/>
            <path id="Path_4249" data-name="Path 4249" d="M154.037,433.413c.457,0,1.092-2.414-.229-5.081s-3.709-3.786-3.913-3.354,1.27,1.855,2.337,4.116,1.3,4.319,1.8,4.319" transform="translate(230.901 654.585)" fill="#fff"/>
            <path id="Path_4250" data-name="Path 4250" d="M158.317,417.617c.2.457,2.541-.279,5.333-.127s5.081.991,5.338.559-1.905-2.185-5.262-2.312-5.666,1.5-5.409,1.88" transform="translate(243.874 640.477)" fill="#fff"/>
            <path id="Path_4251" data-name="Path 4251" d="M142.8,235.123s-11.331,64.989-11,103.657S192.925,702.9,192.925,702.9l61.915-2.541c2.947,1.855-7.444-276.926-7.444-276.926l-28.2-177.36Z" transform="translate(203.039 362.232)" fill="#29407c"/>
            <path id="Path_4252" data-name="Path 4252" d="M173.335,409.967l32.06,42.174s-32.088,46.747-26.93,55.106l84-59.222L215.2,380.293Z" transform="translate(267.041 585.882)" fill="#455a64"/>
            <path id="Path_4253" data-name="Path 4253" d="M196.775,400.054a4.194,4.194,0,0,1,5.081,2.236,4.042,4.042,0,0,1-2.185,5.081,4.423,4.423,0,0,1-5.414-2.414,4.194,4.194,0,0,1,2.846-5.081" transform="translate(299.062 616.019)" fill="#e0e0e0"/>
            <path id="Path_4254" data-name="Path 4254" d="M259.927,410.974l-5.081-6.631L176.212,463.59s-2.541,4.268-.328,6.606Z" transform="translate(269.574 622.934)" fill="#263238"/>
            <path id="Path_4255" data-name="Path 4255" d="M185.948,410.181c.3.381,2.541-.864,5.437-.966s5.234.864,5.488.432-2.007-2.388-5.589-2.185-5.691,2.388-5.335,2.719" transform="translate(286.412 627.716)" fill="#fff"/>
            <path id="Path_4256" data-name="Path 4256" d="M183.368,413.591c.175.457,2.541,0,5.081.661s4.319,2.286,4.7,1.982-.965-2.795-4.24-3.684-5.818.635-5.539,1.042" transform="translate(282.465 635.154)" fill="#fff"/>
            <path id="Path_4257" data-name="Path 4257" d="M189.365,421.588c.432-.152-.457-2.541-3.1-4.116s-5.081-1.042-5.081-.584,2.109.838,4.243,2.109,3.481,2.845,3.938,2.591" transform="translate(279.134 641.537)" fill="#fff"/>
            <path id="Path_4258" data-name="Path 4258" d="M182.906,408.345c.432.229,1.931-1.651,4.344-3.125s4.751-2.033,4.726-2.541-2.82-.762-5.64,1.042-3.887,4.421-3.43,4.624" transform="translate(281.629 619.796)" fill="#fff"/>
            <path id="Path_4259" data-name="Path 4259" d="M135.065,381.642a5.7,5.7,0,0,1-.231-1.474c0-1.118-.229-2.541-.381-4.268-.3-3.684-.635-9.045-.937-15.7-.612-13.262-.915-31.631-.18-51.879s2.541-38.566,4.04-51.752c.788-6.606,1.5-11.941,2.109-15.6l.686-4.217a5.682,5.682,0,0,1,.333-1.448,5.5,5.5,0,0,1,0,1.474c0,1.118-.257,2.541-.434,4.268-.432,3.862-.991,9.146-1.7,15.625-1.347,13.186-2.871,31.453-3.633,51.7s-.582,38.541-.2,51.8c.2,6.5.381,11.814.508,15.7v4.268a8.679,8.679,0,0,1,.028,1.5" transform="translate(204.754 362.51)" fill="#455a64"/>
            <path id="Path_4260" data-name="Path 4260" d="M189.74,315.447c-1.956,4.624-63.312,165.673-57.164,192.858,5.361,23.7,121.949,147.025,121.949,147.025l45.375-30.69s-40.9-75.685-58.434-103.2a187.852,187.852,0,0,0-26.7-32.393s54.9-114.48,60.8-126.5,31.173-62.3,29.347-107.874L186.082,237.6s-11.052,55.233-13.008,54.09,16.666,23.755,16.666,23.755" transform="translate(203.581 366.053)" fill="#29407c"/>
            <path id="Path_4261" data-name="Path 4261" d="M261.958,344.885s-.229.61-.762,1.779l-2.388,5.081-9.273,19.868L215.058,444.6V444.1c27.947,33.739,58.027,80.385,85.288,135.668l.229.508-.457.3-45.4,30.741-.483.33-.381-.432-24.11-26.981c-16.616-18.648-32.774-36.89-48.272-54.6L158.606,503.47c-7.317-8.638-14.634-16.946-21.214-25.635a27.489,27.489,0,0,1-5.081-15.244,74.749,74.749,0,0,1,.737-15.676,109.927,109.927,0,0,1,3.2-14.888l4.5-13.973c5.92-18.318,11.433-35.365,16.438-50.939l23.882-73.678,6.58-20.045c.737-2.261,1.321-3.989,1.728-5.081s.635-1.779.635-1.779-.152.635-.508,1.8-.915,2.972-1.626,5.234c-1.448,4.649-3.582,11.407-6.3,20.122-5.564,17.479-13.592,42.682-23.5,73.855l-16.26,50.99c-1.474,4.573-2.973,9.248-4.471,13.973a106.442,106.442,0,0,0-3.125,14.71,72.525,72.525,0,0,0-.711,15.421,26.277,26.277,0,0,0,4.9,14.659c6.5,8.562,13.872,16.921,21.189,25.533l22.865,26.117,48.271,54.6,24.085,26.956h-.838l45.375-30.665-.229.813c-27.134-55.207-57.113-101.878-84.856-135.618l-.178-.229.127-.28,34.832-72.814c4.116-8.562,7.317-15.244,9.527-19.741,1.067-2.236,1.905-3.938,2.541-5.081a8.707,8.707,0,0,0,.838-2.007" transform="translate(203.644 410.623)" fill="#455a64"/>
            <path id="Path_4262" data-name="Path 4262" d="M158.258,240.523a57.751,57.751,0,0,1,0,8.333c-.152,5.513-.381,12.4-.61,20.02s-.356,14.532-.508,20.045a57.1,57.1,0,0,1-.432,8.308,48.868,48.868,0,0,1-.483-8.308V268.851c0-7.825.61-14.939,1.016-20.045a48.325,48.325,0,0,1,1.016-8.282" transform="translate(240.653 370.552)" fill="#455a64"/>
            <path id="Path_4263" data-name="Path 4263" d="M189.258,401.373a41.478,41.478,0,0,1,3.913,4.827c2.388,3.125,5.716,7.622,9.68,13.008l.2.3-.178.33c-2.718,4.929-5.945,10.594-9.426,16.59-2.9,4.954-5.691,9.629-8.333,13.846l-3.836,5.894a56.622,56.622,0,0,0-2.9,5.335,33.749,33.749,0,0,0-2.846,8.308c-.381,2.033-.3,3.2-.406,3.2a7.006,7.006,0,0,1,0-3.277,30.452,30.452,0,0,1,2.541-8.613,54.126,54.126,0,0,1,2.82-5.513c1.194-1.88,2.541-3.887,3.735-5.97,2.541-4.243,5.335-8.943,8.232-13.872l9.553-16.514v.635c-3.862-5.437-7.063-10.035-9.273-13.287a39.315,39.315,0,0,1-3.481-5.234" transform="translate(269.51 618.358)" fill="#263238"/>
            <path id="Path_4264" data-name="Path 4264" d="M111.24,369.293a8.515,8.515,0,0,1-.561,1.5l-1.7,4.217c-1.677,3.76-3.989,8.968-6.834,15.244-5.945,13.033-14.05,30.767-23.018,50.355-2.845,6.123-5.587,12.093-8.181,17.784l-.2.483-.506-.127L29.076,449.7,17.11,446.959l-3.2-.788a5.721,5.721,0,0,1-1.092-.356,3.543,3.543,0,0,1,1.143.127l3.229.584,12.068,2.388L70.486,457.5l-.709.356c2.541-5.589,5.31-11.534,8.153-17.784l23.374-50.2,7.215-15.244,2.035-4.09a6.007,6.007,0,0,1,.686-1.245" transform="translate(19.741 568.936)" fill="#455a64"/>
            <path id="Path_4265" data-name="Path 4265" d="M203.24,144.243s-20.759,8.257-30.871,13.77S141.275,179,141.275,179L158.3,236.086Z" transform="translate(217.649 222.222)" fill="#e17296"/>
            <path id="Path_4266" data-name="Path 4266" d="M298.468,289.117l21.24-79.8L304.82,148.774l-34.451-8.841c-29.878,29.9-57.824,11.966-57.824,11.966s-51.752,51.8-58.993,76.676c-10.366,35.569,7.927,58.434,7.927,58.434.61,4.624-4.167,16.463-5.284,23.958-.991,6.606-20.96,71.62-20.96,71.62L299.992,405.96s5.462-8.486,0-28.633c-4.573-17.174-11.077-35.568-11.077-35.568Z" transform="translate(208.343 215.582)" fill="#e17296"/>
            <path id="Path_4267" data-name="Path 4267" d="M207.468,143.173s26.8-8.054,41.613,36c10.162,30.487,11.257,41.285,11.257,41.285l-55.893,10.162s-17.937-27.947-9-53.353,12.02-34.095,12.02-34.095" transform="translate(297.262 219.684)" fill="#e17296"/>
            <path id="Path_4268" data-name="Path 4268" d="M225.031,255.087s6.961-4.522,5.742-7.9l-1.219-3.379s4.344-5.081,3.1-8.028a17.517,17.517,0,0,0-4.725-5.818,9.927,9.927,0,0,0,1.016-7.037,32.326,32.326,0,0,0-4.065-8.079l-10.848-13.16a6.018,6.018,0,0,0-2.312,6.377,21.193,21.193,0,0,0,2.185,6.1,38.442,38.442,0,0,0,4.217,5.691s-26.8-1.3-28.684,1.626,1.423,6.047,1.931,6.58,23.272,4.116,23.272,4.116-26.8,1.321-28.887,4.649,1.55,5.31,1.8,6.25,6.148,1.3,6.148,1.3-5.716,7.927,2.541,9.553a46.487,46.487,0,0,0,7.622.737l12.017-.762,1.448,1.372s-13.16,1.677-13.135,4.065,1.169,4.192,7.622,4.065a40.943,40.943,0,0,0,9.4-.737,5.085,5.085,0,0,0,3.633-4.573Z" transform="translate(285.184 310.714)" fill="#a2675f"/>
            <path id="Path_4269" data-name="Path 4269" d="M172.233,156.173a17.085,17.085,0,0,1-1.7,2.9l-5.081,7.622a194.469,194.469,0,0,0-15.4,25.813,82.521,82.521,0,0,0-7.927,28.734,77.6,77.6,0,0,0-.178,9.1,15.743,15.743,0,0,1,0,3.354,15.519,15.519,0,0,1-.48-3.328,65,65,0,0,1-.231-9.2,77.6,77.6,0,0,1,7.622-29.217,164.379,164.379,0,0,1,15.8-25.787c2.236-3.15,4.118-5.666,5.412-7.393a15.182,15.182,0,0,1,2.162-2.591" transform="translate(217.484 240.601)" fill="#263238"/>
            <path id="Path_4270" data-name="Path 4270" d="M207.806,205.74a10.9,10.9,0,0,1-1.8.762,26.166,26.166,0,0,1-5.081,1.143,37.96,37.96,0,0,1-7.876.127,42.786,42.786,0,0,1-9.426-2.109,41.135,41.135,0,0,1-8.587-4.4,34.775,34.775,0,0,1-5.97-5.081,26.734,26.734,0,0,1-3.252-4.167c-.661-1.067-.965-1.677-.889-1.728s1.677,2.185,4.8,5.234a39.212,39.212,0,0,0,6,4.776,44.323,44.323,0,0,0,8.359,4.167,46.358,46.358,0,0,0,9.1,2.134,39.378,39.378,0,0,0,7.622.152c4.319-.406,6.936-1.347,7.012-1.016" transform="translate(254.061 293.166)" fill="#263238"/>
            <g id="Group_1295" data-name="Group 1295" transform="translate(464.357 439.736)" opacity="0.3">
              <g id="Group_1294" data-name="Group 1294">
                <g id="Group_1293" data-name="Group 1293" clip-path="url(#clip-path-10)">
                  <path id="Path_4271" data-name="Path 4271" d="M228.048,265.637q-16.414-45.274-32.825-90.547l-12.449-2.007c.279,33.612.762,68.164,13.516,99.262,2.719,6.631,6.225,13.338,12.195,17.3s14.99,4.141,19.613-1.347c5.208-6.072,2.668-15.193-.051-22.662" transform="translate(-182.774 -173.083)"/>
                </g>
              </g>
            </g>
            <g id="Group_1298" data-name="Group 1298" transform="translate(379.806 483.137)" opacity="0.3">
              <g id="Group_1297" data-name="Group 1297">
                <g id="Group_1296" data-name="Group 1296" clip-path="url(#clip-path-11)">
                  <path id="Path_4272" data-name="Path 4272" d="M149.495,205.122c6.2-5.767,25-12.017,33.483-14.634a6.992,6.992,0,0,1,7.116,1.8c3.681,3.76,10.162,9.908,15.574,12.169,7.927,3.328,17.4,2.871,25.886,1.474-11.176,5.081-25.406,8.1-36.483,2.541-6.352-3.176-12.093-8.079-19.131-9.121a37.435,37.435,0,0,0-16.41,2.541l-10.035,3.15" transform="translate(-149.492 -190.165)"/>
                </g>
              </g>
            </g>
            <path id="Path_4273" data-name="Path 4273" d="M241.669,155.334s-1.245-8.181-4.827-8.486l-3.582-.279s-2.769-6-6.047-6.148a17.778,17.778,0,0,0-7.241,1.931,9.9,9.9,0,0,0-6-3.811,31.673,31.673,0,0,0-9.019.381l-16.463,4.471a5.969,5.969,0,0,0,4.853,4.726,21.293,21.293,0,0,0,6.453.534,36.533,36.533,0,0,0,6.91-1.524s-12.195,23.907-10.315,26.8,6.1,1.194,6.783.965,13.338-19.512,13.338-19.512-9.807,24.974-7.622,28.226,5.488.788,6.453.94,3.684-5.081,3.684-5.081,4.878,8.486,9.781,1.626a49.291,49.291,0,0,0,3.786-6.606l4.243-11.28,1.88-.762s-3.913,12.7-1.728,13.643,4.294.686,6.834-5.234a40.644,40.644,0,0,0,3.2-8.867,5.258,5.258,0,0,0-2.693-5.208Z" transform="translate(290.395 213.189)" fill="#ec9681"/>
            <path id="Path_4274" data-name="Path 4274" d="M211.631,145.614a43.715,43.715,0,0,1-4.347,12.7,44.8,44.8,0,0,1-6.933,11.509c-.333-.2,2.541-5.386,5.739-12.068s5.262-12.246,5.541-12.144" transform="translate(308.622 224.332)" fill="#b76455"/>
            <path id="Path_4275" data-name="Path 4275" d="M204.205,141.4c.15,0,.2.737-.13,1.829a17.763,17.763,0,0,1-1.855,3.836,50.243,50.243,0,0,1-3.125,5.081c-.152,0-.2-.762.127-1.829a18.627,18.627,0,0,1,1.855-3.862,47.228,47.228,0,0,1,3.127-5.056" transform="translate(306.546 217.847)" fill="#b76455"/>
            <path id="Path_4276" data-name="Path 4276" d="M197.712,139.663c.356,0,.531,1.8,0,3.862s-1.781,3.455-2.086,3.252.254-1.728.816-3.633.912-3.506,1.27-3.481" transform="translate(301.251 215.166)" fill="#b76455"/>
            <path id="Path_4277" data-name="Path 4277" d="M182.665,174.908c4.189,7.622,16.41,140.419,64.023,105.156,21.618-16.006,15.244-105.791,15.244-105.791l-41.618,7.546,5.77,21.646L214.6,177.322Z" transform="translate(281.415 268.486)" fill="#ffbf9d"/>
            <path id="Path_4278" data-name="Path 4278" d="M223.44,258.4s.33-1.194.686-3.379a28.334,28.334,0,0,0-.229-9.273c-1.321-7.8-6.072-17.784-10.7-29.065s-9.349-21.214-12.7-28.429c-1.6-3.43-2.922-6.326-3.963-8.562a16.5,16.5,0,0,1-1.321-3.227,18.1,18.1,0,0,1,1.778,3c1.067,1.956,2.541,4.8,4.344,8.384,3.582,7.139,8.308,17.1,13.084,28.328,2.388,5.589,4.573,10.95,6.479,15.879a62.5,62.5,0,0,1,3.913,13.541,26,26,0,0,1-.178,9.527,14.781,14.781,0,0,1-.788,2.541c-.229.483-.356.762-.406.737" transform="translate(300.748 271.86)" fill="#ff9a6c"/>
            <path id="Path_4279" data-name="Path 4279" d="M227.3,154.653c-.663,14.126-11.461,28.3-5.389,41.539a27.947,27.947,0,0,1,20.325-21.9c3.531,6.936-6.783,11.941-8.664,21.9-7.927,37.6-11.2,31.275-42.53,28.252-4.37-10.62-11.458-44.893-12.983-56.529l4.319-12.474c5.437-2.541,3.735,12.4,3.836,12.474l3.051,11.2c.506-.356,18.391-47.255,21.643-28.3l4.344-6.174s6.352,0,3.811,9.019l4.878-7.037a10.359,10.359,0,0,1,3.356,8.028" transform="translate(274.327 222.838)" fill="#ffbf9d"/>
            <path id="Path_4280" data-name="Path 4280" d="M197.877,146.8c.353.2-2.9,6.2-6.024,13.973s-4.878,14.405-5.259,14.3a49.531,49.531,0,0,1,4.04-14.786,51.217,51.217,0,0,1,7.243-13.491" transform="translate(287.468 226.166)" fill="#ff9a6c"/>
            <path id="Path_4281" data-name="Path 4281" d="M203.662,146.463c.3.229-3.811,6.148-7.469,14.253s-5.767,14.99-6.148,14.888A51.694,51.694,0,0,1,195,160.157a45.373,45.373,0,0,1,8.663-13.694" transform="translate(292.783 225.642)" fill="#ff9a6c"/>
            <path id="Path_4282" data-name="Path 4282" d="M191.245,165.387c-.3.152-1.245-.991-1.372-2.744s.559-3.049.889-2.947.279,1.372.432,2.82.381,2.693.051,2.871" transform="translate(292.497 246.021)" fill="#ff9a6c"/>
            <path id="Path_4283" data-name="Path 4283" d="M308.639,169.852a20.07,20.07,0,0,0,4.647-10.391c.155-8.841-5.716-30.487-9.781-38.262-5.081-9.705-16.87-19.817-26.547-24.873a48.659,48.659,0,0,0-17.33-4.344,98.528,98.528,0,0,0-31.859.813,46.308,46.308,0,0,0-26.93,16.082,36.779,36.779,0,0,0-7.063,27.464l96.01,45.553,12.83,13.77a75.453,75.453,0,0,0,6.024-25.813" transform="translate(297.944 140.288)" fill="#263238"/>
            <path id="Path_4284" data-name="Path 4284" d="M199.549,110.146l14.609-9.883c.508,24.542,19.131,72.89,23.856,96.975-9.631-5.894-34.7-25.736-38.544-36.356s-19.639-44.1.079-50.736" transform="translate(292.477 154.466)" fill="#263238"/>
            <path id="Path_4285" data-name="Path 4285" d="M282.54,114.732a29.7,29.7,0,0,0-31.5-15.955l-40.65,6.91c-16.565,5.31-18.5,29.446-12.5,45.731,6.682,18.14,14.227,37.067,22.129,49.313,15.879,24.644,37.677,19.055,37.677,19.055a188.053,188.053,0,0,0,10.721,16.565l42.5,15.244,5.818-38.109L282.87,115.113c-.279-.559-.025.2-.33-.381" transform="translate(300.082 151.531)" fill="#ec9681"/>
            <path id="Path_4286" data-name="Path 4286" d="M203.432,127.665a3.68,3.68,0,0,0,4.774,1.982,3.5,3.5,0,0,0,2.218-4.433c-.018-.056-.038-.112-.058-.165a3.684,3.684,0,0,0-4.776-1.982,3.5,3.5,0,0,0-2.218,4.433c.018.056.038.112.061.165" transform="translate(313.036 189.182)" fill="#263238"/>
            <path id="Path_4287" data-name="Path 4287" d="M199.424,126.877c.61.254,2.363-2.769,6.021-4.37s7.139-.965,7.342-1.575-.686-.915-2.21-1.245a10.163,10.163,0,0,0-6.123.711,9.786,9.786,0,0,0-4.548,4.04c-.737,1.372-.762,2.337-.483,2.439" transform="translate(306.98 184.101)" fill="#263238"/>
            <path id="Path_4288" data-name="Path 4288" d="M216.067,121.465a3.709,3.709,0,0,0,4.776,1.982,3.584,3.584,0,0,0,2.167-4.581l-.008-.018a3.736,3.736,0,0,0-4.8-2.007,3.556,3.556,0,0,0-2.165,4.54l.03.084" transform="translate(332.511 179.605)" fill="#263238"/>
            <path id="Path_4289" data-name="Path 4289" d="M213.075,120.827c.635.254,2.36-2.795,6.019-4.4s7.139-.94,7.342-1.575-.658-.889-2.208-1.22a10.169,10.169,0,0,0-6.125.711,9.892,9.892,0,0,0-4.548,4.04c-.737,1.346-.76,2.337-.48,2.439" transform="translate(328.011 174.781)" fill="#263238"/>
            <path id="Path_4290" data-name="Path 4290" d="M220.807,148.521a28.138,28.138,0,0,0-6.43,1.55c-.963.3-1.931.508-2.36,0a5.079,5.079,0,0,1-.612-3.049c0-2.541-.229-5.411-.356-8.308-.635-11.814-1.522-21.367-2-21.341s-.356,9.629.279,21.443c.175,2.9.328,5.666.506,8.308a5.848,5.848,0,0,0,1.12,3.887,2.538,2.538,0,0,0,2.157.686,6.884,6.884,0,0,0,1.677-.483,24.939,24.939,0,0,0,6.024-2.693" transform="translate(321.601 180.826)" fill="#263238"/>
            <path id="Path_4291" data-name="Path 4291" d="M250.4,136.1s1.115,23.628-26.5,32.85l-4.393-7.266A77.624,77.624,0,0,0,250.4,136.1" transform="translate(338.171 209.681)" fill="#b76455"/>
            <path id="Path_4292" data-name="Path 4292" d="M211.2,115.28c.813.838,4.243-1.245,8.765-2.541s8.486-1.728,8.663-2.871c0-.534-.94-1.219-2.769-1.55a15.9,15.9,0,0,0-13.287,4.192c-1.3,1.245-1.728,2.363-1.372,2.769" transform="translate(325.187 166.608)" fill="#263238"/>
            <path id="Path_4293" data-name="Path 4293" d="M198.039,122.306c1.016.533,3.15-1.423,6.148-2.82s5.843-1.906,6.047-3.023c0-.534-.686-1.194-2.16-1.474a9.706,9.706,0,0,0-9.832,4.7c-.661,1.321-.661,2.337-.2,2.617" transform="translate(304.605 176.985)" fill="#263238"/>
            <path id="Path_4294" data-name="Path 4294" d="M231.234,115.688c0-.864,11.534-11.966,18.216,2.541,6.5,14.177-9.121,17.784-9.349,17.352s-8.867-19.893-8.867-19.893" transform="translate(356.241 170.722)" fill="#ec9681"/>
            <path id="Path_4295" data-name="Path 4295" d="M237.686,125.384h.81a2.726,2.726,0,0,0,1.883-.788,6.76,6.76,0,0,0,.328-6.783,8.768,8.768,0,0,0-2.309-3.227,3.073,3.073,0,0,0-2.721-1.042,1.345,1.345,0,0,0-1.141,1.321c0,.483.2.737.127.788s-.406,0-.559-.737a1.885,1.885,0,0,1,.152-1.143,2.052,2.052,0,0,1,1.217-.965,3.792,3.792,0,0,1,3.585,1.016,9.1,9.1,0,0,1,2.541,3.557,7.034,7.034,0,0,1-.816,7.774,2.993,2.993,0,0,1-2.541.661c-.381-.1-.607-.381-.556-.432" transform="translate(360.615 173.628)" fill="#b76455"/>
            <path id="Path_4296" data-name="Path 4296" d="M298.235,137.317a13.716,13.716,0,0,0-5.081-10.162c-2.365-1.728-5.541-2.541-7.37-4.776s-1.753-4.853-2.9-7.19a16.942,16.942,0,0,0-5.46-5.64,75.194,75.194,0,0,0-37.118-15.4,48.971,48.971,0,0,0-25.889,4.294,37.41,37.41,0,0,0-18.193,18.572c-2.055,4.8-4.217,9.781-.455,13.389a12.7,12.7,0,0,1,7.342-11.153,24.579,24.579,0,0,1,13.793-1.855c18.524,1.982,35.365,18.216,53.632,22.357,2.289,3.913,4.55,7.825,6.987,11.636,1.855,2.947,4.243,6.1,7.622,6.453,4.243.432,7.751-3.913,8.005-8.181a20.136,20.136,0,0,0-2.541-10.01,11.285,11.285,0,0,1,6.2,9.2,41.394,41.394,0,0,0,1.425-11.534" transform="translate(298.439 144.622)" fill="#263238"/>
            <path id="Path_4297" data-name="Path 4297" d="M194.764,107.918a28.289,28.289,0,0,1,3.4-1.88,26.619,26.619,0,0,1,10.162-2.541,32.824,32.824,0,0,1,7.266.407,69.742,69.742,0,0,1,8.155,1.956,80.5,80.5,0,0,1,17.784,7.622c2.922,1.753,5.691,3.633,8.511,5.284a37.828,37.828,0,0,0,8.562,3.887,67.546,67.546,0,0,0,15.625,2.718c4.5.33,8.13.33,10.645.33H287.8a4.967,4.967,0,0,0,.991,0,3.808,3.808,0,0,0-.991,0l-2.9-.127c-2.541,0-6.148-.2-10.62-.584a72.415,72.415,0,0,1-15.447-2.871,39.718,39.718,0,0,1-8.359-3.862c-2.769-1.626-5.538-3.531-8.511-5.31a79,79,0,0,0-17.784-7.622,69.478,69.478,0,0,0-8.282-1.88,33.8,33.8,0,0,0-7.393-.33,26.036,26.036,0,0,0-10.315,2.769,18.544,18.544,0,0,0-2.541,1.55,5.269,5.269,0,0,0-.889.483" transform="translate(300.055 158.752)" fill="#455a64"/>
            <path id="Path_4298" data-name="Path 4298" d="M230.926,120.469a6.918,6.918,0,0,0,1.626.279l4.573.534,1.524.152a3.983,3.983,0,0,0,1.778-.178,1.623,1.623,0,0,0,.864-.661,1.346,1.346,0,0,0,.127-1.169,3.51,3.51,0,0,0-1.474-1.5l-7.19-4.853-.33.762a16.413,16.413,0,0,0,10.975-1.4,5.066,5.066,0,0,0,1.194-.788,1.926,1.926,0,0,0,.686-1.474,1.7,1.7,0,0,0-.889-1.321,7.968,7.968,0,0,0-1.194-.534,32.792,32.792,0,0,1-7.622-3.963,56.74,56.74,0,0,1-6.021-5.208,8.559,8.559,0,0,0,1.321,1.728,27.9,27.9,0,0,0,4.319,3.963,32.469,32.469,0,0,0,7.622,4.243c.762.254,1.55.61,1.55,1.143s-.686,1.118-1.423,1.448a15.515,15.515,0,0,1-5.081,1.55,15.271,15.271,0,0,1-5.284-.229l-2.261-.483,1.931,1.27,7.215,4.751a2.82,2.82,0,0,1,1.22,1.143c.178.406,0,.788-.534.965a8.2,8.2,0,0,1-3.049,0l-4.573-.254a6.9,6.9,0,0,0-1.6.076" transform="translate(353.653 152.756)" fill="#455a64"/>
            <path id="Path_4299" data-name="Path 4299" d="M225.639,131.093a5.235,5.235,0,0,0-6.532-1.448,5.441,5.441,0,0,0-2.541,4.421,6.629,6.629,0,0,0,1.905,4.878l.229.3a5.95,5.95,0,0,0,6.684-1.423,5.543,5.543,0,0,0,.254-6.733" transform="translate(333.638 198.838)" fill="#b76455"/>
            <path id="Path_4300" data-name="Path 4300" d="M216.351,142.459c-.254-.559,3.506-2.007,4.954-6.275s-.534-8.13,0-8.359,1.092.61,1.778,2.312a9.912,9.912,0,0,1,.229,6.885,8.744,8.744,0,0,1-4.243,5.081c-1.55.686-2.642.635-2.718.356" transform="translate(333.294 196.872)" fill="#263238"/>
            <path id="Path_4301" data-name="Path 4301" d="M289.527,124.745a8.306,8.306,0,0,1-1.067,0,19.479,19.479,0,0,1-3.074-.457,55.33,55.33,0,0,1-10.8-3.582,155.727,155.727,0,0,1-14.837-8.054,124.053,124.053,0,0,0-18.267-9.451,49.319,49.319,0,0,0-10.162-2.541,39.993,39.993,0,0,0-9.858,0,44.587,44.587,0,0,0-15.93,4.827,43.186,43.186,0,0,0-9.222,6.479c-1.016.864-1.7,1.651-2.21,2.134l-.788.762a5.878,5.878,0,0,1,.686-.838,23.65,23.65,0,0,1,2.109-2.261,40.674,40.674,0,0,1,9.2-6.707,43.968,43.968,0,0,1,16.082-5.081,40,40,0,0,1,10.01,0,49,49,0,0,1,10.416,2.541,120.032,120.032,0,0,1,18.343,9.527,155.406,155.406,0,0,0,14.71,8.155,56.957,56.957,0,0,0,10.671,3.786c1.3.3,2.312.432,3.023.584Z" transform="translate(297.821 153.536)" fill="#455a64"/>
            <path id="Path_4302" data-name="Path 4302" d="M254.369,126.229a10.442,10.442,0,1,1-11-9.858h.02a10.443,10.443,0,0,1,10.975,9.858" transform="translate(359.732 179.261)" fill="#455a64"/>
          </g>
        </g>
      </g>
    </g>
  </g>
</svg>
