<svg xmlns="http://www.w3.org/2000/svg" xmlns:xlink="http://www.w3.org/1999/xlink" width="85.716" height="95.365" viewBox="0 0 85.716 95.365">
  <defs>
    <clipPath id="clip-path">
      <rect id="Rectangle_400" data-name="Rectangle 400" width="85.716" height="95.365" fill="#29407c"/>
    </clipPath>
  </defs>
  <g id="Group_701" data-name="Group 701" transform="translate(-1413.924 -1209)">
    <g id="Group_700" data-name="Group 700" transform="translate(1413.924 1209)">
      <g id="Group_699" data-name="Group 699" clip-path="url(#clip-path)">
        <path id="Path_1826" data-name="Path 1826" d="M238.88,0c.479.109.961.209,1.438.327a8.8,8.8,0,0,1,6.994,7.566,21.028,21.028,0,0,1-.057,7.685,7.882,7.882,0,0,1-1.684,3.637c.986.812,2.02,1.533,2.9,2.41a14.5,14.5,0,0,1,4.478,9.448c.051.711.082,1.424.082,2.137q.01,8.31,0,16.619a6.38,6.38,0,0,1-4.147,6.093.6.6,0,0,0-.323.408c-.171,2.273-.322,4.548-.47,6.823q-.3,4.644-.6,9.287c-.142,2.229-.278,4.458-.424,6.686-.14,2.136-.3,4.27-.434,6.406-.077,1.192-.077,2.392-.214,3.576a6.555,6.555,0,0,1-4.174,5.786,5.814,5.814,0,0,1-1.987.419c-1.689.04-3.382.021-5.07-.058a5.748,5.748,0,0,1-4.215-2.351,7.825,7.825,0,0,1-1.586-4.717c-.291-4.768-.621-9.534-.916-14.3-.212-3.421-.384-6.845-.587-10.267q-.216-3.646-.482-7.289a.714.714,0,0,0-.411-.453,6.324,6.324,0,0,1-3.942-4.455,6.931,6.931,0,0,1-.164-2.071,1.766,1.766,0,0,1,1.877-1.627,1.879,1.879,0,0,1,1.818,1.827c.018.247,0,.5.031.743a2.426,2.426,0,0,0,2.3,2.23,2.025,2.025,0,0,1,1.9,1.174,3.721,3.721,0,0,1,.22,1.133q.493,7.709.963,15.42.424,6.874.846,13.748c.1,1.594.228,3.187.345,4.78a2.767,2.767,0,0,0,3.049,2.837c1.273,0,2.545-.008,3.818,0a2.335,2.335,0,0,0,2.279-1.466,4.65,4.65,0,0,0,.407-1.6c.228-3.327.407-6.657.617-9.985.227-3.607.474-7.212.7-10.819q.353-5.526.693-11.053c.05-.789.1-1.579.171-2.366a1.832,1.832,0,0,1,1.65-1.735,7.719,7.719,0,0,0,.913-.163,2.429,2.429,0,0,0,1.814-2.367c.006-6.191.1-12.385-.037-18.573a10.01,10.01,0,0,0-3.763-7.611,21.369,21.369,0,0,0-2.669-1.761.909.909,0,0,0-.732-.039,9.476,9.476,0,0,1-8.187-.011.968.968,0,0,0-.913.009,11.377,11.377,0,0,0-5.236,5.226,10.547,10.547,0,0,0-1.188,5.288,1.864,1.864,0,1,1-3.718.214c-.071-5.763,2.461-10.112,7.207-13.258.077-.051.156-.1.231-.155a.541.541,0,0,0,.075-.1,8.892,8.892,0,0,1-1.783-3.973,8.015,8.015,0,0,1-.182-1.567,30.241,30.241,0,0,1,.217-6.216,8.873,8.873,0,0,1,4.17-6.11A9.24,9.24,0,0,1,236.424.183c.06-.008.4.17.222-.183Zm5.007,11.441-.11,0a18.933,18.933,0,0,0-.025-2.969,5.911,5.911,0,0,0-6.336-4.8,5.983,5.983,0,0,0-5.348,5.548c-.039,1.472.008,2.946,0,4.419A5.88,5.88,0,0,0,238,19.316a5.812,5.812,0,0,0,5.668-4.542,27.547,27.547,0,0,0,.216-3.333" transform="translate(-167.319)" fill="#29407c"/>
        <path id="Path_1827" data-name="Path 1827" d="M113.036,85.686a9.41,9.41,0,0,1-1.7-6.125,30.979,30.979,0,0,1,.2-3.847,8.107,8.107,0,0,1,7.24-6.819,8.243,8.243,0,0,1,8.3,3.738,7.385,7.385,0,0,1,1.261,3.748c.08,1.5.151,3.009.087,4.509-.081,1.913-.418,2.723-1.637,4.812.112.088.226.187.348.272a13.25,13.25,0,0,1,6.059,11.32c.042,4.406.016,8.813.008,13.22a5.628,5.628,0,0,1-3.569,5.442.649.649,0,0,0-.429.658c-.224,3.419-.467,6.837-.7,10.256-.137,1.98-.268,3.961-.411,5.941-.213,2.938-.373,5.881-.668,8.811a5.788,5.788,0,0,1-4.574,5.234,5.993,5.993,0,0,1-1.29.146c-1.348,0-2.706.05-4.043-.083a5.591,5.591,0,0,1-5.046-4.781c-.3-1.99-.417-4.008-.569-6.017-.26-3.433-.487-6.868-.719-10.3q-.312-4.618-.6-9.239a.554.554,0,0,0-.365-.56,5.755,5.755,0,0,1-3.375-3.736,7.091,7.091,0,0,1-.257-1.878c-.019-4.546-.085-9.094.02-13.638a12.9,12.9,0,0,1,4.455-9.543c.458-.415.976-.763,1.466-1.142l.509-.4M110.3,103.4h-.061c0,2.358-.007,4.716,0,7.074a2.024,2.024,0,0,0,2,2.27,1.93,1.93,0,0,1,1.879,1.985c.083.989.156,1.979.229,2.968q.352,4.826.7,9.652c.3,4.208.576,8.416.877,12.624a10.191,10.191,0,0,0,.269,1.88,1.848,1.848,0,0,0,1.8,1.429c1.3.017,2.606.009,3.91.007a1.625,1.625,0,0,0,1.3-.619,2.849,2.849,0,0,0,.615-1.717q.336-5.036.687-10.071.345-4.919.707-9.837c.155-2.134.3-4.269.48-6.4a1.9,1.9,0,0,1,1.9-1.9,2.013,2.013,0,0,0,1.953-2.262c0-2.482,0-4.965-.008-7.447-.008-2.217.072-4.442-.071-6.651a9.293,9.293,0,0,0-4.723-7.625,1.731,1.731,0,0,0-1.782-.158,8.013,8.013,0,0,1-6.545-.11.975.975,0,0,0-.73-.034,9.184,9.184,0,0,0-5.361,8.016c-.141,2.3-.026,4.62-.026,6.931m14.521-24.053a25.325,25.325,0,0,0-.231-3.207,4.838,4.838,0,0,0-4.465-3.638,4.7,4.7,0,0,0-4.808,3.265,3.334,3.334,0,0,0-.221.944,45.875,45.875,0,0,0,.077,4.918,4.517,4.517,0,0,0,4.182,3.844,4.619,4.619,0,0,0,5.084-3.157,18.463,18.463,0,0,0,.382-2.969" transform="translate(-79.992 -51.672)" fill="#29407c"/>
        <path id="Path_1828" data-name="Path 1828" d="M5.733,153.105a8.233,8.233,0,0,1-1.45-4.836,17.445,17.445,0,0,1,.314-4.717,7.5,7.5,0,0,1,6.385-5.587,7.75,7.75,0,0,1,6.963,2.412,7.936,7.936,0,0,1,2,5.188,32.474,32.474,0,0,1-.024,3.953,6.661,6.661,0,0,1-1.2,3.378,1.779,1.779,0,0,0-.115.246c.145.111.287.225.434.332a12.217,12.217,0,0,1,5.214,10.1c.067,3.288.021,6.579.011,9.868a5.127,5.127,0,0,1-3.173,5.025.729.729,0,0,0-.5.682c-.121,1.467-.267,2.933-.418,4.4q-.432,4.186-.883,8.369c-.09.831-.157,1.67-.327,2.485a5.293,5.293,0,0,1-5.138,4.428,20.006,20.006,0,0,1-4.315-.129A5.027,5.027,0,0,1,5.386,194.7,19.585,19.585,0,0,1,5,191.8q-.467-4.112-.917-8.225c-.167-1.525-.311-3.053-.489-4.578a.628.628,0,0,0-.312-.428A5.05,5.05,0,0,1,.075,173.75c-.084-3.582-.115-7.171,0-10.752a11.838,11.838,0,0,1,4.849-9.287c.255-.2.518-.389.808-.606M3.776,168.364q0,2.722,0,5.444a1.376,1.376,0,0,0,1.116,1.4c.2.045.4.066.6.1a1.792,1.792,0,0,1,1.565,1.39,7.085,7.085,0,0,1,.166,1.007q.365,3.374.717,6.749c.23,2.173.454,4.346.692,6.518.106.969.183,1.947.374,2.9a1.461,1.461,0,0,0,1.641,1.264c1.07,0,2.14,0,3.211,0a1.324,1.324,0,0,0,1.309-.863,3.178,3.178,0,0,0,.243-.891c.292-2.743.565-5.488.849-8.231.278-2.682.555-5.365.848-8.046a1.869,1.869,0,0,1,1.764-1.837,1.656,1.656,0,0,0,1.665-1.93c0-1.768.012-3.537,0-5.3-.014-1.829.064-3.669-.106-5.485a8.068,8.068,0,0,0-4.334-6.639.921.921,0,0,0-.913-.042,7.559,7.559,0,0,1-6.095.029.951.951,0,0,0-.908.033,8.049,8.049,0,0,0-4.39,7.17c-.064,1.75-.011,3.5-.011,5.258m12.565-20.831c-.072-1.042-.073-1.838-.19-2.616a3.979,3.979,0,0,0-4.139-3.328,3.969,3.969,0,0,0-3.948,3.552,30.852,30.852,0,0,0,0,3.95,3.9,3.9,0,0,0,3.619,3.678,3.909,3.909,0,0,0,4.379-2.859,15.3,15.3,0,0,0,.279-2.376" transform="translate(0 -103.524)" fill="#29407c"/>
        <path id="Path_1829" data-name="Path 1829" d="M224.72,161.517a1.846,1.846,0,1,1,0-3.691,1.868,1.868,0,0,1,1.866,1.857,1.826,1.826,0,0,1-1.87,1.834" transform="translate(-167.324 -118.491)" fill="#29407c"/>
      </g>
    </g>
  </g>
</svg>
