<svg xmlns="http://www.w3.org/2000/svg" xmlns:xlink="http://www.w3.org/1999/xlink" width="197.424" height="229.906" viewBox="0 0 197.424 229.906">
  <defs>
    <filter id="Ellipse_39" x="0" y="32.482" width="197.424" height="197.424" filterUnits="userSpaceOnUse">
      <feOffset dy="9" input="SourceAlpha"/>
      <feGaussianBlur stdDeviation="12" result="blur"/>
      <feFlood flood-opacity="0.153"/>
      <feComposite operator="in" in2="blur"/>
      <feComposite in="SourceGraphic"/>
    </filter>
    <clipPath id="clip-path">
      <path id="Path_1385" data-name="Path 1385" d="M65.218,0C46.85,0,17.257,23.421,5.694,51.729,1.257,62.592,0,74.225,0,85.244v.033c0,14.4,2.151,27.746,2.151,36.958a62.712,62.712,0,1,0,125.424,0c0-22.191,10.91-60.225-6.377-88.93C111.5,17.209,77.661,0,65.218,0Z" fill="none"/>
    </clipPath>
  </defs>
  <g id="Group_500" data-name="Group 500" transform="translate(-459.331 -2235)">
    <g transform="matrix(1, 0, 0, 1, 459.33, 2235)" filter="url(#Ellipse_39)">
      <circle id="Ellipse_39-2" data-name="Ellipse 39" cx="62.712" cy="62.712" r="62.712" transform="translate(36 59.48)" fill="#fff"/>
    </g>
    <g id="Group_485" data-name="Group 485" transform="translate(492.944 2235)" clip-path="url(#clip-path)">
      <path id="Path_1347" data-name="Path 1347" d="M119.647,114.483l5.322-1.006a17.248,17.248,0,1,0-4.067-4.648Z" transform="translate(-34.517 -24.107)" fill="#fff"/>
      <path id="Path_1348" data-name="Path 1348" d="M119.592,114.43l.064-.354.22-1.07.886-4.252a.078.078,0,0,1,.089-.064h.045l-.128.1a17.21,17.21,0,0,1-2.48-8.135,16.662,16.662,0,0,1,.659-5.506,17.36,17.36,0,0,1,33.517.546,17.662,17.662,0,0,1,.12,7.979,17.277,17.277,0,0,1-27.721,9.772h.064l-3.989.709-1.013.177-.333.05.361-.085,1.027-.205,3.919-.794a.072.072,0,0,1,.064,0,17.127,17.127,0,0,0,24.045-2.922l.119-.154a16.945,16.945,0,0,0,3.111-6.675,17.358,17.358,0,0,0-.128-7.795,16.821,16.821,0,0,0-3.848-7.143,17.006,17.006,0,0,0-29.053,6.647,16.786,16.786,0,0,0-.709,5.421,17.179,17.179,0,0,0,2.381,8.085.092.092,0,0,1,0,.113.085.085,0,0,1-.1,0h.135c-.418,1.807-.709,3.2-.971,4.174q-.156.709-.255,1.084c-.057.163-.1.3-.1.3" transform="translate(-34.462 -24.054)" fill="#263238"/>
      <path id="Path_1349" data-name="Path 1349" d="M137.669,111.162l-8.943-6.6,2.3-3.118,5.995,4.429,8.184-9.828,2.976,2.48Z" transform="translate(-37.51 -27.985)" fill="#ec6e7a"/>
      <path id="Path_1350" data-name="Path 1350" d="M114.615,182.455l1.311,20.833L108.174,191.1l-16.128-.3,3.543,6.427a120.015,120.015,0,0,0,11.9,15.66,46.355,46.355,0,0,0,6.271,5.761c2.671,1.906,6.215,3.543,9.75.51,4.96-4.181,3.394-10.828,1.935-19.132-1.63-9.247-2.445-18.162-2.445-18.162Z" transform="translate(-26.821 -52.992)" fill="#ffbf9d"/>
      <path id="Path_1351" data-name="Path 1351" d="M123.85,160.923s-1.46-2.884-2.643-2.636-2.785,1.29-2.99,2.246.05,1.835.5,1.8a7.245,7.245,0,0,0,1.757-.879l1.488,2.126-.709,2.679-1.58.794-.893-1.885.39-2.126s-1.056-.914-1.672.772-1.325,4.741.368,6.236a51.639,51.639,0,0,0,4.9,3.543l7.724-.588,1.934-9.07s3.111-3.1,3.323-4.372.411-5.187.411-5.187a.921.921,0,0,0-1.46.376A23.583,23.583,0,0,0,133.6,159l-2.594,2.459,1.113-11.125s-1.538-1.02-2.2,1.474-1.417,8.68-1.722,8.673-1.254,0-1.105-1.3-.184-11.21-.184-11.21a2.61,2.61,0,0,0-2.126,2.558c.106,2.1,0,8.659-.071,9.155s-.865,1.24-.865,1.24" transform="translate(-34.036 -43.117)" fill="#ffbf9d"/>
      <path id="Path_1352" data-name="Path 1352" d="M126.791,220.087a16.889,16.889,0,0,1-.907-3.961,17.222,17.222,0,0,1-.3-4.046,33.065,33.065,0,0,1,.673,3.989,32.92,32.92,0,0,1,.539,4.018" transform="translate(-36.588 -61.798)" fill="#ff9a6c"/>
      <path id="Path_1353" data-name="Path 1353" d="M127.831,178.225a5.024,5.024,0,0,1-.439-.772,5.177,5.177,0,0,0-1.368-1.531,5.048,5.048,0,0,0-1.871-.865c-.517-.128-.857-.135-.857-.2a1.668,1.668,0,0,1,.907-.064,4.407,4.407,0,0,1,3.423,2.537,1.616,1.616,0,0,1,.205.893" transform="translate(-35.927 -50.924)" fill="#ff9a6c"/>
      <path id="Path_1354" data-name="Path 1354" d="M93.4,251.67S111.218,267,111.013,289.163s-9.318,33.765-14.293,60.9-10.537,56.774-10.537,56.774L70.3,403.454s4.06-43.225,4.471-58.148,3.727-55.151,3.727-55.151l-6.838-26.679Z" transform="translate(-20.484 -73.334)" fill="#263238"/>
      <path id="Path_1355" data-name="Path 1355" d="M46.756,171.31l8.269-.95,17.191,2.225,7.894,3.607L69.4,185.277,55.366,182.9l-6.172-3.869Z" transform="translate(-13.624 -49.641)" fill="#ffbf9d"/>
      <path id="Path_1356" data-name="Path 1356" d="M61.586,106.035c3.947-.666,7.419.85,10.75,3.075a19.84,19.84,0,0,1,7.306,9.339,19.564,19.564,0,0,1,.709,12.386,15.654,15.654,0,0,1-7.71,9.595,15.809,15.809,0,0,1-16.3-1.779A19.83,19.83,0,0,1,48.9,123.679a19.078,19.078,0,0,1,3.012-11.338,14.511,14.511,0,0,1,9.68-6.307" transform="translate(-14.24 -30.851)" fill="#263238"/>
      <path id="Path_1357" data-name="Path 1357" d="M71.674,119.6c-.574-1.516-.347-3.2-.581-4.8-.5-3.543-3.345-6.377-6.626-7.724-3.061-1.283-6.788-1-10.473.191a14.084,14.084,0,0,0-6.583,4.287,11.069,11.069,0,0,0-2.034,9.921l18.041-2.622a20.105,20.105,0,0,0,5.463,3.593,3.7,3.7,0,0,0,1.885.3,1.687,1.687,0,0,0,1.417-1.162,3.57,3.57,0,0,0-.51-1.984" transform="translate(-13.103 -30.956)" fill="#263238"/>
      <path id="Path_1358" data-name="Path 1358" d="M53.767,114.695l15.745,3.33a2.955,2.955,0,0,1,2.749,2.884l-.191,34.084a10.63,10.63,0,0,1-2.218,6.427l-1.5,1.935a7.777,7.777,0,0,1-12.982-.964,3.906,3.906,0,0,1-.361-.893c-.05-.312-.135-.51-.149-.772l-.3-3.323c-.156-3.033-.177-6.115-.177-6.087s-6.448-.815-8.1-9.12c-.815-4.131-.872-10.955-.709-16.532.092-5.017,3.175-11.309,8.192-10.969" transform="translate(-13.259 -33.417)" fill="#ffbf9d"/>
      <path id="Path_1359" data-name="Path 1359" d="M50.456,138.786a1.07,1.07,0,0,0,1.077,1.042,1.02,1.02,0,0,0,1.062-.977v-.029a1.07,1.07,0,0,0-1.07-1.042,1.027,1.027,0,0,0-1.069.984v.022" transform="translate(-14.702 -40.147)" fill="#263238"/>
      <path id="Path_1360" data-name="Path 1360" d="M47.838,134.6c.135.135.921-.5,2.076-.539s2.02.5,2.126.354-.085-.312-.461-.567a2.961,2.961,0,0,0-1.722-.461,2.833,2.833,0,0,0-1.651.609c-.326.283-.439.539-.368.6" transform="translate(-13.934 -38.867)" fill="#263238"/>
      <path id="Path_1361" data-name="Path 1361" d="M65.046,138.423a1.07,1.07,0,0,0,1.07,1.042,1.027,1.027,0,0,0,1.069-.984v-.029a1.07,1.07,0,0,0-1.077-1.042,1.027,1.027,0,0,0-1.062.991c0,.007,0,.015,0,.022" transform="translate(-18.954 -40.04)" fill="#263238"/>
      <path id="Path_1362" data-name="Path 1362" d="M63.288,134.2c.135.135.928-.5,2.083-.539s2.02.5,2.126.354-.085-.312-.468-.567A2.948,2.948,0,0,0,65.307,133a2.834,2.834,0,0,0-1.651.6c-.326.283-.439.546-.368.6" transform="translate(-18.436 -38.753)" fill="#263238"/>
      <path id="Path_1363" data-name="Path 1363" d="M57.2,143.14a7.437,7.437,0,0,0-1.885-.269c-.3,0-.581-.064-.638-.262a1.5,1.5,0,0,1,.163-.879c.248-.709.51-1.488.787-2.282a37.728,37.728,0,0,0,1.722-5.938,38.488,38.488,0,0,0-2.2,5.789l-.751,2.289a1.68,1.68,0,0,0-.106,1.162.758.758,0,0,0,.5.411,2.221,2.221,0,0,0,.5.05,7.89,7.89,0,0,0,1.9-.071" transform="translate(-15.803 -38.903)" fill="#263238"/>
      <path id="Path_1364" data-name="Path 1364" d="M58.036,164.973a21.3,21.3,0,0,0,11.076-3.423s-2.586,5.9-10.983,5.435Z" transform="translate(-16.911 -47.074)" fill="#ff9a6c"/>
      <path id="Path_1365" data-name="Path 1365" d="M59.254,150.621a2.075,2.075,0,0,1,1.828-.843,1.9,1.9,0,0,1,1.339.652,1.2,1.2,0,0,1,.142,1.375,1.417,1.417,0,0,1-1.5.439,4.5,4.5,0,0,1-1.509-.822,1.406,1.406,0,0,1-.34-.333.376.376,0,0,1,0-.425" transform="translate(-17.237 -43.642)" fill="#ff9a6c"/>
      <path id="Path_1366" data-name="Path 1366" d="M61.833,148.02c-.191,0-.142,1.247-1.176,2.175s-2.374.843-2.381,1.02.3.234.872.227a3.139,3.139,0,0,0,1.984-.779,2.743,2.743,0,0,0,.914-1.828c-.014-.524-.163-.829-.213-.815" transform="translate(-16.981 -43.131)" fill="#263238"/>
      <path id="Path_1367" data-name="Path 1367" d="M63.382,129.48c.128.312,1.275.113,2.629.227s2.473.439,2.636.149c.078-.142-.128-.425-.574-.709a4.619,4.619,0,0,0-4.018-.283c-.489.213-.737.468-.673.616" transform="translate(-18.466 -37.453)" fill="#263238"/>
      <path id="Path_1368" data-name="Path 1368" d="M48.023,127.435c.213.255,1-.05,1.956-.1s1.772.106,1.942-.17c.078-.135-.057-.4-.425-.631a2.7,2.7,0,0,0-1.6-.368,2.735,2.735,0,0,0-1.538.588c-.326.283-.425.56-.333.68" transform="translate(-13.984 -36.761)" fill="#263238"/>
      <path id="Path_1369" data-name="Path 1369" d="M77.779,117.158c-1.637-4.8-8.766-11.338-13.811-10.877l-7.972,5a7.794,7.794,0,0,0,5.407,5.853c1.417.4,3.153.489,4.025,1.7s.425,3.068,1.254,4.344c1.155,1.772,4.2,1.623,5.081,3.543.383.843.213,1.857.609,2.686.531,1.113,3.394,2.473,4.556,2.076s1.127-2.388,1.488-3.444a5.5,5.5,0,0,0,.1-3.706c-.56-2.353.043-4.889-.737-7.178" transform="translate(-16.317 -30.962)" fill="#263238"/>
      <path id="Path_1370" data-name="Path 1370" d="M80.686,142.38c0-.624.638-2.126,1.254-2.239,1.63-.319,4.592-.3,4.783,3.869.255,5.669-5.513,4.776-5.534,4.613s-.425-4.1-.5-6.243" transform="translate(-23.511 -40.8)" fill="#ffbf9d"/>
      <path id="Path_1371" data-name="Path 1371" d="M83.714,147.147a1.885,1.885,0,0,0,.269.135,1.007,1.007,0,0,0,.744,0,2.443,2.443,0,0,0,1.035-2.253,3.235,3.235,0,0,0-.34-1.417,1.132,1.132,0,0,0-.779-.709.51.51,0,0,0-.574.3c-.071.163,0,.269-.057.283s-.128-.092-.092-.326a.647.647,0,0,1,.206-.368.744.744,0,0,1,.546-.17,1.418,1.418,0,0,1,1.077.836,3.328,3.328,0,0,1,.411,1.573,2.6,2.6,0,0,1-1.332,2.523,1.04,1.04,0,0,1-.914-.106c-.184-.163-.22-.291-.2-.3" transform="translate(-24.392 -41.557)" fill="#ff9a6c"/>
      <path id="Path_1372" data-name="Path 1372" d="M53.581,110.894c-.524,2.317-4.053,5.293-5.6,7.086-2.948,3.444-3.543,4.585-3.508,12.287A16.083,16.083,0,0,1,42.123,122a12.409,12.409,0,0,1,3.33-8.142,9.661,9.661,0,0,1,8.128-2.962" transform="translate(-12.272 -32.295)" fill="#263238"/>
      <path id="Path_1373" data-name="Path 1373" d="M77.657,100.864a9.4,9.4,0,0,1,4.96-2.062,11.5,11.5,0,0,1,7.511,1.5,8.157,8.157,0,0,1,3.919,6.03,6.8,6.8,0,0,1-3.182,6.278,11.394,11.394,0,0,0,4.351,3.26,3.351,3.351,0,0,1-2.4,1.035,10.183,10.183,0,0,1-2.693-.326,4.65,4.65,0,0,0,2.367,2.175,8.663,8.663,0,0,1-4.379-.638,17.264,17.264,0,0,1-3.77-2.239,28.831,28.831,0,0,1-8.638-9.651,6.979,6.979,0,0,1,1.949-5.357" transform="translate(-22.056 -28.756)" fill="#263238"/>
      <path id="Path_1374" data-name="Path 1374" d="M80.216,152.31a2.48,2.48,0,1,0,2.48-2.48h-.007a2.48,2.48,0,0,0-2.473,2.48" transform="translate(-23.374 -43.659)" fill="#455a64"/>
      <path id="Path_1375" data-name="Path 1375" d="M85.612,116.189c-2.643-4.96-6.377-7.915-9.956-9.1" transform="translate(-22.045 -31.205)" fill="#263238"/>
      <path id="Path_1376" data-name="Path 1376" d="M75.656,107.1a4.975,4.975,0,0,0,.5.213c.319.135.787.333,1.339.616a17.388,17.388,0,0,1,3.933,2.834,21.635,21.635,0,0,1,3.111,3.727c.333.524.609.95.779,1.254a3.379,3.379,0,0,0,.291.461,2.648,2.648,0,0,0-.234-.489c-.156-.319-.411-.751-.709-1.29a19.79,19.79,0,0,0-3.09-3.791,16.316,16.316,0,0,0-4.053-2.827,12.514,12.514,0,0,0-1.368-.567,2.627,2.627,0,0,0-.5-.142" transform="translate(-22.045 -31.208)" fill="#455a64"/>
      <path id="Path_1377" data-name="Path 1377" d="M83.912,121.443h-.071l-.213.057c-.191.064-.468.128-.829.213a13.083,13.083,0,0,1-3.1.276,16.693,16.693,0,0,1-4.556-.808,30.154,30.154,0,0,1-5.194-2.289c-1.772-.964-3.437-1.942-4.911-2.884a31.731,31.731,0,0,1-3.727-2.764,19.86,19.86,0,0,1-2.19-2.232c-.241-.283-.411-.51-.531-.666l-.142-.17c0-.043-.05-.064-.05-.057a.32.32,0,0,0,0,.064l.128.184c.113.163.276.4.51.709a18.28,18.28,0,0,0,2.161,2.282,30.472,30.472,0,0,0,3.727,2.834c1.474.957,3.132,1.934,4.911,2.905a29.2,29.2,0,0,0,5.23,2.289,16.572,16.572,0,0,0,4.592.779,12.337,12.337,0,0,0,3.125-.333,8.083,8.083,0,0,0,.822-.241l.213-.078Z" transform="translate(-17.015 -32.087)" fill="#455a64"/>
      <path id="Path_1378" data-name="Path 1378" d="M72.616,174.155c.588.142,11.522,2.331,14.172,4.521s8.021,13.116,8.021,13.116l-12.67,11.522-1.793-3.926-1.02,20.854s7.618,9.729,7.192,10.686a17.369,17.369,0,0,1-1.9,3.167,23.153,23.153,0,0,1-8.61,6.951c-6.682,3.182-20.918,8.255-32.468.709l-2.778-18.934s-6.781-12.84-6.781-20.125c0-1.658-.057-4.252.113-7.178.6-10.013,2.069-24.61,2.069-24.61h9.772s6.689,11.338,15.377,9.212,11.3-5.966,11.3-5.966" transform="translate(-9.899 -49.802)" fill="#ec6e7a"/>
      <path id="Path_1379" data-name="Path 1379" d="M30.871,170.96c-5.13.85-8.688,5.109-15.065,15.1l15.065,9.091Z" transform="translate(-4.606 -49.816)" fill="#ec6e7a"/>
      <path id="Path_1380" data-name="Path 1380" d="M85.449,245.24a2.856,2.856,0,0,1-.588.5c-.39.3-.971.709-1.7,1.212a61.864,61.864,0,0,1-5.931,3.508,60.256,60.256,0,0,1-6.3,2.834c-.822.312-1.5.546-1.97.709a2.733,2.733,0,0,1-.744.191,3.625,3.625,0,0,1,.709-.326l1.927-.794c1.616-.709,3.841-1.665,6.222-2.9s4.464-2.466,5.959-3.394l1.764-1.113a3.1,3.1,0,0,1,.652-.425" transform="translate(-19.877 -71.461)" fill="#263238"/>
      <path id="Path_1381" data-name="Path 1381" d="M100.39,193.1a2.784,2.784,0,0,1,.064.659v1.8c0,1.516-.12,3.614-.361,5.924s-.581,4.386-.879,5.874c-.149.744-.283,1.346-.39,1.757a2.216,2.216,0,0,1-.2.631,19.918,19.918,0,0,1,.333-2.431c.227-1.5.524-3.543.765-5.867s.383-4.386.468-5.9a18.581,18.581,0,0,1,.2-2.445" transform="translate(-28.739 -56.267)" fill="#263238"/>
      <path id="Path_1382" data-name="Path 1382" d="M36.075,185.65a3.3,3.3,0,0,1-.106.815c-.113.6-.255,1.325-.418,2.19-.354,1.849-.836,4.408-1.176,7.256a69,69,0,0,0-.461,7.327v2.232a3.8,3.8,0,0,1,0,.822,3.445,3.445,0,0,1-.113-.815c-.05-.524-.092-1.29-.12-2.232a51.422,51.422,0,0,1,.347-7.377,72.03,72.03,0,0,1,1.29-7.263c.213-.921.4-1.665.531-2.175a3.549,3.549,0,0,1,.227-.779" transform="translate(-9.809 -54.097)" fill="#263238"/>
      <path id="Path_1383" data-name="Path 1383" d="M18.139,212.194l6.718-12.046L14.036,193.6c-.616.616-6.377,11.65-7.731,14.172-3.09,5.775-2.02,9.921.432,11.536,3.423,2.3,28.855,17.354,28.855,17.354l3.777-5.768s-20.025-17.481-21.23-18.7" transform="translate(-1.284 -56.413)" fill="#ffbf9d"/>
      <path id="Path_1384" data-name="Path 1384" d="M51.034,245.32a16.9,16.9,0,0,1,4.8,4.96,94.13,94.13,0,0,1,4,9.609c.085.446-.446,7.207-.446,7.207l-2.317,5.52s-1.6.177-.8-2.048a35.117,35.117,0,0,0,1.162-3.855l-.269-4.507-.893,4.507-4.089,5.9a1.616,1.616,0,0,1-.957-2.075c.019-.051.04-.1.064-.15.624-1.694,1.779-4.719,1.779-4.719l-3.026,3.741a1.112,1.112,0,0,1-.886-1.516,21.822,21.822,0,0,1,.709-2.225s-1.368.184-.772-1.24a16.157,16.157,0,0,0,.865-2.834l-.354-4.252s-1.963-3.649-2.126-5.669,3.55-6.356,3.55-6.356" transform="translate(-13.835 -71.484)" fill="#ffbf9d"/>
    </g>
  </g>
</svg>
