<svg xmlns="http://www.w3.org/2000/svg" xmlns:xlink="http://www.w3.org/1999/xlink" width="98" height="98" viewBox="0 0 98 98">
  <defs>
    <clipPath id="clip-path">
      <rect id="Rectangle_401" data-name="Rectangle 401" width="98" height="98" transform="translate(0)" fill="#29407c"/>
    </clipPath>
  </defs>
  <g id="Group_704" data-name="Group 704" transform="translate(-476.318 -972.318)">
    <g id="Group_703" data-name="Group 703" transform="translate(476.318 972.318)">
      <g id="Group_702" data-name="Group 702" clip-path="url(#clip-path)">
        <path id="Path_1830" data-name="Path 1830" d="M18.59,98.635l.759-.157a4.086,4.086,0,0,0-.464-.109,14.976,14.976,0,0,1-8.273-3.545,16.838,16.838,0,0,1-6.19-12.608c-.151-2.579-.355-5.154-.534-7.731-.141-2.033-.266-4.067-.427-6.1A1.467,1.467,0,0,1,5.6,66.963a1.282,1.282,0,0,1,.761,1.187c.131,1.809.252,3.618.378,5.427.185,2.657.347,5.316.564,7.971a24.957,24.957,0,0,0,.513,4.091A13.659,13.659,0,0,0,20.441,95.744c.834.029,1.669.02,2.5.02q27.018,0,54.035.016a13.8,13.8,0,0,0,9.239-3.086,13.147,13.147,0,0,0,5.006-9.316c.325-4.319.577-8.644.869-12.966.237-3.506.494-7.01.732-10.516.274-4.05.533-8.1.807-12.152.238-3.522.493-7.042.733-10.564q.364-5.331.712-10.662c.212-3.2.491-6.4.614-9.607a13.1,13.1,0,0,0-5.129-11A13.39,13.39,0,0,0,81.7,2.867q-17.506.037-35.011.015c-9.872,0-19.746.082-29.617-.033A14.039,14.039,0,0,0,3.333,13.108a16.833,16.833,0,0,0-.323,5.638c.189,2.705.367,5.411.554,8.116.214,3.105.439,6.21.65,9.316.239,3.522.467,7.045.7,10.568q.4,6,.81,12.008c.035.528.065,1.058.065,1.587a1.334,1.334,0,0,1-1.242,1.3,1.338,1.338,0,0,1-1.471-.9,6.017,6.017,0,0,1-.183-1.184q-.429-6.1-.841-12.2-.458-6.82-.9-13.641C.941,30.567.712,27.415.526,24.259.411,22.322.361,20.382.2,18.439c-.032.649-.059,1.3-.1,1.947-.019.3-.064.6-.1.9V14.256l.244,1.077A15.151,15.151,0,0,1,4.873,5.078,15.937,15.937,0,0,1,15.019.165L14.545,0H84.572l-.611.124a16.129,16.129,0,0,1,9.96,5,16.037,16.037,0,0,1,4.561,10.246l.152-.733v4.816l-.144-1.173c-.025.2-.04.275-.045.353q-.292,4.61-.582,9.221c-.136,2.145-.267,4.291-.411,6.436-.144,2.129-.308,4.256-.452,6.385-.154,2.273-.286,4.547-.441,6.82-.232,3.41-.48,6.818-.712,10.227-.151,2.225-.279,4.452-.429,6.677-.274,4.066-.541,8.133-.838,12.2-.2,2.687-.27,5.4-.7,8.049a16.135,16.135,0,0,1-9.125,12.287,11.926,11.926,0,0,1-5.492,1.449l.493.249Z" transform="translate(-0.318 -0.318)" fill="#29407c"/>
        <path id="Path_1831" data-name="Path 1831" d="M145.171,62.189a20.2,20.2,0,0,0-5.115-12.124c-.679.69-1.286,1.351-1.941,1.959a1.314,1.314,0,0,1-2.16-.3,1.188,1.188,0,0,1,.163-1.618c.63-.659,1.289-1.291,1.96-1.959a20.037,20.037,0,0,0-6.789-3.838c-.232.874-.436,1.695-.67,2.506a1.425,1.425,0,0,1-2.334.872,1.116,1.116,0,0,1-.458-1.228c.214-.821.429-1.643.658-2.46.067-.239.082-.4-.227-.444a21.479,21.479,0,0,0-7.183.093,2.792,2.792,0,0,0-.308.1c.251.9.488,1.771.744,2.64a1.214,1.214,0,0,1-.323,1.363,1.51,1.51,0,0,1-1.517.361,1.237,1.237,0,0,1-.852-.905c-.209-.723-.4-1.453-.594-2.179-.05-.182-.11-.361-.164-.537a19.035,19.035,0,0,0-6.7,3.953c.386.39.779.78,1.164,1.178a12.9,12.9,0,0,1,.981,1.056,1.266,1.266,0,0,1-.192,1.733,1.224,1.224,0,0,1-1.769.134c-.708-.672-1.346-1.418-2.014-2.133l-.249-.043a2.364,2.364,0,0,1-.22.427,20.314,20.314,0,0,0-4.48,11.068c-.027.293.072.353.345.352q8.621-.018,17.241-.022c.124,0,.248-.018.448-.033-.1-.2-.165-.351-.246-.5q-2.522-4.54-5.044-9.079c-.483-.873-.387-1.456.27-1.959a1.353,1.353,0,0,1,2.169.5c.656,1.158,1.3,2.323,1.946,3.485,1.342,2.408,2.688,4.814,4.017,7.229a.64.64,0,0,0,.655.36q2.914-.013,5.827-.008a6.185,6.185,0,0,1,.959.045,1.4,1.4,0,0,1,.072,2.741,3.2,3.2,0,0,1-.713.083q-14.472.006-28.944,0c-1.339,0-1.969-.615-1.911-1.953A23.467,23.467,0,0,1,121,40.743a21.489,21.489,0,0,1,12.275,1.3,23.181,23.181,0,0,1,13.876,15.2,21.526,21.526,0,0,1,.913,6.117,1.585,1.585,0,0,1-1.631,1.7c-1.766.013-3.532.016-5.3,0a1.447,1.447,0,1,1-.079-2.866c1.172-.011,2.344,0,3.516,0h.594" transform="translate(-75.876 -30.32)" fill="#29407c"/>
        <path id="Path_1832" data-name="Path 1832" d="M312.547,46.216a5.225,5.225,0,0,1-4.979-5.236,5.091,5.091,0,0,1,10.179.225,5.247,5.247,0,0,1-5.2,5.011m.144-2.874a2.161,2.161,0,0,0,2.165-2.168,2.207,2.207,0,0,0-2.249-2.252,2.154,2.154,0,0,0-2.163,2.22,2.2,2.2,0,0,0,2.247,2.2" transform="translate(-228.882 -27.092)" fill="#29407c"/>
        <path id="Path_1833" data-name="Path 1833" d="M59.063,315.51a5.1,5.1,0,0,1,.027-10.192,5.213,5.213,0,0,1,5.089,5.276,5.125,5.125,0,0,1-5.116,4.916m-2.172-5.169a2.207,2.207,0,1,0,4.413.085,2.2,2.2,0,0,0-2.2-2.253,2.142,2.142,0,0,0-2.21,2.168" transform="translate(-40.446 -227.21)" fill="#29407c"/>
        <path id="Path_1834" data-name="Path 1834" d="M295.384,315.523a5.1,5.1,0,1,1,.154-10.189,5.172,5.172,0,0,1,4.962,5.086,5.106,5.106,0,0,1-5.116,5.1m.045-7.323a2.121,2.121,0,0,0-2.226,2.191,2.214,2.214,0,1,0,4.427-.068,2.146,2.146,0,0,0-2.2-2.124" transform="translate(-216.068 -227.223)" fill="#29407c"/>
        <path id="Path_1835" data-name="Path 1835" d="M36.795,41.072A5.278,5.278,0,0,1,41.9,36a5.109,5.109,0,0,1,5.081,5A5.181,5.181,0,0,1,41.9,46.19a5.252,5.252,0,0,1-5.1-5.118m5.09,2.25a2.131,2.131,0,0,0,2.208-2.165,2.209,2.209,0,1,0-2.208,2.165" transform="translate(-27.661 -27.07)" fill="#29407c"/>
      </g>
    </g>
  </g>
</svg>
