<svg xmlns="http://www.w3.org/2000/svg" xmlns:xlink="http://www.w3.org/1999/xlink" width="194.742" height="234.328" viewBox="0 0 194.742 234.328">
  <defs>
    <filter id="Ellipse_39" x="0" y="39.586" width="194.742" height="194.742" filterUnits="userSpaceOnUse">
      <feOffset dy="9" input="SourceAlpha"/>
      <feGaussianBlur stdDeviation="12" result="blur"/>
      <feFlood flood-opacity="0.153"/>
      <feComposite operator="in" in2="blur"/>
      <feComposite in="SourceGraphic"/>
    </filter>
    <clipPath id="clip-path">
      <path id="Path_1099" data-name="Path 1099" d="M66.762,0c-18.8,0-49.1,23.975-60.933,52.954C1.287,64.075,0,75.984,0,87.264V87.3c0,14.74,2.2,28.4,2.2,37.833a64.2,64.2,0,1,0,128.395,0c0-22.716,11.168-61.651-6.529-91.037C114.145,17.616,79.5,0,66.762,0Z" transform="translate(0 -0.001)" fill="none"/>
    </clipPath>
  </defs>
  <g id="Group_500" data-name="Group 500" transform="translate(-459.246 -2226.441)">
    <g transform="matrix(1, 0, 0, 1, 459.25, 2226.44)" filter="url(#Ellipse_39)">
      <circle id="Ellipse_39-2" data-name="Ellipse 39" cx="61.371" cy="61.371" r="61.371" transform="translate(36 66.59)" fill="#fff"/>
    </g>
    <g id="Group_348" data-name="Group 348" transform="translate(491.331 2226.441)" clip-path="url(#clip-path)">
      <path id="Path_1048" data-name="Path 1048" d="M65.03,167.1l8.39-1.487,17.7,1.2L99.416,170l-10.38,9.952L74.551,178.4,68,174.831Z" transform="translate(-17.858 -45.479)" fill="#ffbf9d"/>
      <path id="Path_1049" data-name="Path 1049" d="M76.507,100.845c3.991-.927,7.634.405,11.176,2.471a20.3,20.3,0,0,1,8.048,9.086,20.025,20.025,0,0,1,1.5,12.612A16.023,16.023,0,0,1,89.952,135.3c-5.086,2.986-11.854,2.469-16.764-.8a20.3,20.3,0,0,1-8.545-14.834,19.525,19.525,0,0,1,2.368-11.773,14.856,14.856,0,0,1,9.5-7.049" transform="translate(-17.716 -27.611)" fill="#263238"/>
      <path id="Path_1050" data-name="Path 1050" d="M87.654,114.053c-.681-1.514-.555-3.251-.894-4.872-.736-3.589-3.816-6.307-7.253-7.478-3.208-1.119-7-.6-10.689.85a14.419,14.419,0,0,0-6.459,4.792A11.333,11.333,0,0,0,60.9,117.608L79.172,113.8a20.574,20.574,0,0,0,5.807,3.33,3.788,3.788,0,0,0,1.945.194,1.728,1.728,0,0,0,1.376-1.276,3.661,3.661,0,0,0-.646-2" transform="translate(-16.552 -27.763)" fill="#263238"/>
      <path id="Path_1051" data-name="Path 1051" d="M69.026,110.132l16.3,2.419a3.024,3.024,0,0,1,2.989,2.775l1.935,34.839a10.886,10.886,0,0,1-1.864,6.706l-1.415,2.07a7.961,7.961,0,0,1-13.325-.173,4.01,4.01,0,0,1-.425-.889c-.07-.316-.169-.513-.2-.78l-.511-3.377c-.349-3.089-.564-6.237-.561-6.209s-6.64-.429-8.846-8.812c-1.091-4.17-1.575-11.139-1.757-16.847-.22-5.132,2.537-11.754,7.684-11.72" transform="translate(-16.842 -30.244)" fill="#ffbf9d"/>
      <path id="Path_1052" data-name="Path 1052" d="M75.964,160.077a21.8,21.8,0,0,0,11.1-4.189s-2.274,6.185-10.883,6.24Z" transform="translate(-20.86 -42.808)" fill="#ff9a6c"/>
      <path id="Path_1053" data-name="Path 1053" d="M93.314,111.348c-1.972-4.8-9.665-11.037-14.792-10.251l-7.833,5.609a7.98,7.98,0,0,0,5.89,5.643c1.473.324,3.253.3,4.219,1.486s.626,3.108,1.553,4.36c1.291,1.738,4.4,1.4,5.413,3.3.444.838.333,1.884.791,2.706.612,1.1,3.623,2.315,4.785,1.837s1-2.511,1.3-3.612a5.63,5.63,0,0,0-.13-3.792c-.72-2.369-.263-5-1.2-7.289" transform="translate(-19.412 -27.744)" fill="#263238"/>
      <path id="Path_1054" data-name="Path 1054" d="M97.165,136.319c-.039-.637.519-2.212,1.142-2.366,1.645-.428,4.673-.591,5.129,3.655.614,5.776-5.335,5.224-5.366,5.059s-.691-4.158-.9-6.347" transform="translate(-26.682 -36.728)" fill="#ffbf9d"/>
      <path id="Path_1055" data-name="Path 1055" d="M100.52,140.983a1.929,1.929,0,0,0,.284.12,1.026,1.026,0,0,0,.76-.046,2.5,2.5,0,0,0,.916-2.367,3.312,3.312,0,0,0-.436-1.427,1.16,1.16,0,0,0-.841-.675.523.523,0,0,0-.568.34c-.062.171.017.275-.04.293s-.136-.086-.115-.327a.665.665,0,0,1,.186-.39.766.766,0,0,1,.547-.208,1.454,1.454,0,0,1,1.153.787,3.4,3.4,0,0,1,.518,1.582,2.657,2.657,0,0,1-1.2,2.661,1.066,1.066,0,0,1-.941-.052c-.2-.155-.242-.283-.221-.292" transform="translate(-27.592 -37.428)" fill="#ff9a6c"/>
      <path id="Path_1056" data-name="Path 1056" d="M68.665,106.285c-.391,2.4-3.811,5.662-5.277,7.591-2.8,3.7-3.334,4.906-2.816,12.774a16.473,16.473,0,0,1-2.921-8.3,12.705,12.705,0,0,1,2.9-8.528,9.886,9.886,0,0,1,8.119-3.534" transform="translate(-15.829 -29.183)" fill="#263238"/>
      <path id="Path_1057" data-name="Path 1057" d="M91.76,94.908A9.627,9.627,0,0,1,96.7,92.491a11.768,11.768,0,0,1,7.768,1.058,8.35,8.35,0,0,1,4.381,5.916,6.964,6.964,0,0,1-2.859,6.614,11.668,11.668,0,0,0,4.649,3.059,3.431,3.431,0,0,1-2.382,1.206,10.418,10.418,0,0,1-2.772-.165,4.755,4.755,0,0,0,2.554,2.075,8.856,8.856,0,0,1-4.514-.378,17.614,17.614,0,0,1-3.992-2.052A29.506,29.506,0,0,1,90.1,100.5a7.144,7.144,0,0,1,1.656-5.6" transform="translate(-24.726 -25.332)" fill="#263238"/>
      <path id="Path_1058" data-name="Path 1058" d="M97.3,146.263a2.539,2.539,0,1,0,2.379-2.689h-.007a2.54,2.54,0,0,0-2.372,2.689" transform="translate(-26.719 -39.426)" fill="#455a64"/>
      <path id="Path_1059" data-name="Path 1059" d="M100.673,110.082c-3.01-4.9-7.011-7.689-10.742-8.674" transform="translate(-24.696 -27.848)" fill="#263238"/>
      <path id="Path_1060" data-name="Path 1060" d="M89.932,101.418a4.99,4.99,0,0,0,.527.186c.334.118.825.291,1.407.546a17.8,17.8,0,0,1,4.195,2.651,22.108,22.108,0,0,1,3.412,3.614c.374.515.683.932.875,1.232a3.461,3.461,0,0,0,.326.453,2.679,2.679,0,0,0-.269-.485c-.179-.316-.467-.742-.8-1.274a20.3,20.3,0,0,0-3.394-3.681,16.68,16.68,0,0,0-4.318-2.635,12.8,12.8,0,0,0-1.433-.494,2.69,2.69,0,0,0-.523-.113" transform="translate(-24.696 -27.851)" fill="#455a64"/>
      <path id="Path_1061" data-name="Path 1061" d="M99.669,115.46l-.073,0-.213.071c-.191.078-.47.16-.834.269a13.411,13.411,0,0,1-3.154.477,17.1,17.1,0,0,1-4.706-.54,30.906,30.906,0,0,1-5.45-2.014c-1.87-.874-3.633-1.769-5.2-2.64a32.488,32.488,0,0,1-3.981-2.591,20.3,20.3,0,0,1-2.376-2.144c-.264-.275-.452-.5-.585-.648l-.156-.165c0-.044-.054-.062-.054-.055a.28.28,0,0,0,0,.065l.142.181c.126.16.307.388.565.692a18.816,18.816,0,0,0,2.351,2.2,31.2,31.2,0,0,0,3.986,2.663c1.565.886,3.321,1.781,5.2,2.661a29.969,29.969,0,0,0,5.486,2.012,16.948,16.948,0,0,0,4.74.509,12.662,12.662,0,0,0,3.173-.535,8.351,8.351,0,0,0,.825-.3l.212-.093Z" transform="translate(-20.016 -28.967)" fill="#455a64"/>
      <path id="Path_1062" data-name="Path 1062" d="M24.863,110.967l-6.3-6.521L17,114.761l-8.438-.285,5.279,6.934-5.313,6.972,8.8-1.734L18.6,135.5l7.112-5.388,8.97,4.7-1.964-9.062,10.177-1.6-7.916-4.671,4.614-7.959-7.91,3.093-.962-9.816Z" transform="translate(-2.342 -28.682)" fill="#fff"/>
      <path id="Path_1063" data-name="Path 1063" d="M24.8,110.937s.131-.144.385-.416l1.128-1.2,4.32-4.583.054-.057.008.078c.265,2.664.595,5.981.976,9.815l-.069-.042,7.907-3.1.158-.062-.085.147-4.608,7.962-.024-.09,7.918,4.667.17.1-.2.031-10.177,1.605.061-.089c.627,2.888,1.289,5.944,1.966,9.062l.034.16-.144-.076-7.77-4.068-1.2-.627.082-.007L18.58,135.53l-.1.078-.018-.128q-.65-4.529-1.27-8.853l.088.062-8.8,1.732-.184.036.113-.149,5.317-6.97v.081l-5.275-6.938-.077-.1.126,0,8.438.294-.053.044,1.581-10.313.011-.073.052.053,4.661,4.856,1.2,1.259c.271.283.408.432.408.432s-.138-.136-.409-.413l-1.209-1.24-4.706-4.843.062-.02c-.421,2.8-.939,6.256-1.55,10.318l-.007.046h-.046L8.495,114.5l.05-.1,5.284,6.93.031.04-.031.041L8.52,128.395l-.07-.113,8.8-1.737.076-.015.012.078q.621,4.318,1.273,8.852l-.121-.05L25.6,130.02l.038-.029.044.022,1.2.628,7.77,4.069-.11.084c-.675-3.118-1.336-6.174-1.961-9.062l-.017-.078.078-.012,10.178-1.6-.025.131L34.882,119.5l-.057-.033.033-.057,4.62-7.955.073.085-7.913,3.085-.062.025-.007-.067c-.37-3.835-.69-7.153-.947-9.818l.061.021-4.364,4.571c-.5.518-.877.914-1.135,1.183s-.387.4-.387.4" transform="translate(-2.278 -28.652)" fill="#263238"/>
      <path id="Path_1064" data-name="Path 1064" d="M55.1,139.6a1.949,1.949,0,0,1-2.755,2.755A1.949,1.949,0,0,1,55.1,139.6" transform="translate(-14.236 -38.198)" fill="#fff"/>
      <path id="Path_1065" data-name="Path 1065" d="M55.075,139.584a3.285,3.285,0,0,1-.407-.223,2.2,2.2,0,0,0-1.209-.2l-.2.033c-.065.019-.129.046-.2.07a1.921,1.921,0,0,0-.391.2,2,2,0,0,0-.617.736,1.959,1.959,0,0,0-.14,1.045,2.518,2.518,0,0,0,.461,1.046,2.568,2.568,0,0,0,1.035.452,1.962,1.962,0,0,0,1.046-.139,2.01,2.01,0,0,0,.737-.617,1.959,1.959,0,0,0,.2-.391c.023-.067.051-.131.07-.2s.022-.133.033-.2a2.2,2.2,0,0,0-.2-1.208,3.329,3.329,0,0,1-.223-.407s.03.028.077.091.118.159.2.288a2.166,2.166,0,0,1,.257,1.251c-.01.068-.02.139-.03.21s-.046.139-.069.211a2.022,2.022,0,0,1-.207.421,2.117,2.117,0,0,1-.782.674,2.091,2.091,0,0,1-1.129.16l-.3-.065a2.758,2.758,0,0,1-.285-.112l-.142-.06-.131-.083-.132-.084-.066-.043-.033-.021-.017-.011-.008-.005,0,0h0l-.015-.015a2.632,2.632,0,0,1-.491-1.121,1.929,1.929,0,0,1,.834-1.909,1.976,1.976,0,0,1,.422-.207c.072-.024.141-.051.21-.069l.21-.03a2.171,2.171,0,0,1,1.25.258c.129.082.223.154.288.2s.1.073.091.077" transform="translate(-14.211 -38.181)" fill="#263238"/>
      <path id="Path_1066" data-name="Path 1066" d="M31.91,118.58l-.4,6.666a1.081,1.081,0,0,1-2.154.058l-.763-6.7a.848.848,0,0,1,.852-.944l1.626.017a.849.849,0,0,1,.838.9" transform="translate(-7.851 -32.312)" fill="#ec6e7a"/>
      <path id="Path_1067" data-name="Path 1067" d="M28.773,133.88a1.627,1.627,0,1,0,1.024-2.06,1.626,1.626,0,0,0-1.024,2.06" transform="translate(-7.878 -36.176)" fill="#ff725e"/>
      <path id="Path_1068" data-name="Path 1068" d="M122.207,172.1s4.525,1.49,7.841,8.312c2.566,5.279,7.927,16.583,7.927,16.583l-15.882,5.816-1.612-6.636Z" transform="translate(-33.085 -47.259)" fill="#f9c650"/>
      <path id="Path_1069" data-name="Path 1069" d="M102.357,170.537,89.5,167.869C77.291,185.4,67.135,174.4,64.113,166.418L51.277,169.4l.344,26.4.3,22.1L48.2,246.758h55.276l-1.618-46.124Z" transform="translate(-13.235 -45.7)" fill="#f9c650"/>
      <path id="Path_1070" data-name="Path 1070" d="M123.662,251.784a.755.755,0,0,1-.025-.172c-.01-.12-.025-.289-.044-.507l-.138-1.951c-.106-1.7-.259-4.151-.448-7.178s-.391-6.641-.626-10.647q-.087-1.5-.177-3.078c-.046-1.055-.047-2.124-.073-3.217-.038-2.183-.077-4.445-.117-6.76-.152-9.265-.254-17.654-.289-23.726-.015-3.036-.02-5.493,0-7.191.006-.849.02-1.508.034-1.955.009-.22.015-.388.019-.509a.7.7,0,0,1,.017-.173c.013.845.236,15.079.527,33.548.038,2.315.075,4.577.111,6.76.023,1.09.022,2.167.065,3.211q.086,1.573.167,3.078c.21,4.006.4,7.615.56,10.648s.268,5.48.351,7.181c.035.844.062,1.5.08,1.953.006.22.01.388.013.509a.746.746,0,0,1-.006.174" transform="translate(-33.423 -50.726)" fill="#263238"/>
      <path id="Path_1071" data-name="Path 1071" d="M46.772,170.488a11.3,11.3,0,0,0-6.092,4.973c-2.673,4.141-9.255,15.846-9.255,15.846l15.854,8.67Z" transform="translate(-8.629 -46.818)" fill="#f9c650"/>
      <path id="Path_1072" data-name="Path 1072" d="M48.2,251.784a.445.445,0,0,1,.005-.126c.01-.088.024-.209.041-.366.043-.328.1-.8.185-1.413.173-1.235.424-3.025.738-5.265.654-4.489,1.57-10.784,2.624-18.026l0,.025c-.05-2.6-.1-5.369-.16-8.221-.157-9.3-.3-17.712-.4-23.809-.036-3.043-.066-5.506-.087-7.216,0-.847-.006-1.507-.008-1.962q0-.33.006-.51a.747.747,0,0,1,.012-.174.737.737,0,0,1,.019.173c.006.12.015.289.025.51.015.454.038,1.113.066,1.961.044,1.709.107,4.172.185,7.214.126,6.1.3,14.512.494,23.807.052,2.852.1,5.622.15,8.222v.025c-1.1,7.236-2.051,13.524-2.731,18.01-.35,2.234-.631,4.019-.825,5.252-.1.608-.18,1.079-.234,1.405-.029.156-.051.276-.067.362a.445.445,0,0,1-.031.122" transform="translate(-13.235 -50.726)" fill="#263238"/>
      <path id="Path_1073" data-name="Path 1073" d="M83.843,198.394a5.748,5.748,0,0,1-.762.577c-.5.355-1.237.857-2.151,1.467-1.828,1.22-4.382,2.864-7.247,4.608s-5.5,3.256-7.426,4.318c-.962.532-1.745.953-2.291,1.235a5.632,5.632,0,0,1-.863.412,5.678,5.678,0,0,1,.8-.516l2.242-1.319c1.9-1.11,4.51-2.65,7.374-4.392s5.432-3.354,7.289-4.527l2.2-1.385a5.741,5.741,0,0,1,.828-.477" transform="translate(-17.328 -54.48)" fill="#263238"/>
      <path id="Path_1074" data-name="Path 1074" d="M84.177,211.9s1.083-7.5.95-7.828,3.393,7.239,3.4,7.556,6.81-10.285,6.81-10.285l-.852,11.973,6.09-1.527-3.683,4.019,5.979.847s-5.8,3.139-6.161,3.348l3.053-2.437-4.828-.894,2.517-3.068-4.038,1.418.112-8.19-5.016,6.225-2.744-4.455Z" transform="translate(-23.115 -55.292)" fill="#fff"/>
      <path id="Path_1075" data-name="Path 1075" d="M49.751,256.192l-6.321,3.521,8.188.857-2.536,6.8,6.832-5.025s1.5,4.8,1.568,4.7S61,263.231,61,263.231l-2.989,2.081-1.919-3.9L51.768,263.5l1.269-3.663-5.971-.75Z" transform="translate(-11.926 -70.353)" fill="#fff"/>
      <path id="Path_1076" data-name="Path 1076" d="M105.26,261.832l4.768,2.335-.141-4.046,11.337,1.4-6.78-9.461,3.847-.89-5.956.268,4.792,7.844-8.626-.754.071,3.514Z" transform="translate(-28.905 -68.972)" fill="#fff"/>
      <path id="Path_1077" data-name="Path 1077" d="M90,229.589s-2.947.382-4.529-1.091-3.656-3.7-5.184-4.062a35.529,35.529,0,0,0-6.056-.358c-.211.042-2.131,1.229-2.988,1.763a.472.472,0,0,0-.12.693,2.414,2.414,0,0,0,2.126,1.036,4.015,4.015,0,0,0,2.241-.781l1.832.387a3.51,3.51,0,0,1-1.617,1.376,24.861,24.861,0,0,1-5.893,1.081c-1.091-.1-6.6-.1-7.311.938s-.382,1.637.873,1.855,7.584.218,7.911.328-8.73.491-10.639,1.145-.764,1.692-.273,2.183,11.076-.273,11.076-.273-10.312,2.183-10.64,2.837a1.185,1.185,0,0,0,1.2,1.746c1.309,0,10.694-1.473,10.694-1.473s-8.73,2.674-9,3.219a1.158,1.158,0,0,0,.491,1.473c.437.164,11.513-1.582,11.513-1.582s8.4-.873,9.931-2.019,4.8-.819,4.8-.819Z" transform="translate(-16.362 -61.529)" fill="#ffc09d"/>
      <path id="Path_1078" data-name="Path 1078" d="M101.518,224.929s19.426-1.055,21.2-2.367l-4.318-10.7,13.03-4.772s4.02,11.923,4.328,16.63-.026,8.084-2.006,9.722c-2.238,1.852-4.587,1.719-7.912,2.359a36.392,36.392,0,0,1-11.523.351l-12.8-1.65v-9.24" transform="translate(-27.877 -56.869)" fill="#ffc09d"/>
      <path id="Path_1079" data-name="Path 1079" d="M138.562,230.31c-.035.041-.442-.306-1.178-.731-.185-.105-.387-.22-.615-.321s-.471-.208-.73-.314a9.259,9.259,0,0,0-3.568-.594c-.279.017-.546.024-.793.061a6.848,6.848,0,0,0-.685.105c-.835.164-1.332.361-1.351.31a3.783,3.783,0,0,1,1.3-.522,5.892,5.892,0,0,1,.7-.146,8.064,8.064,0,0,1,.815-.091,8.467,8.467,0,0,1,3.684.613,7.856,7.856,0,0,1,.741.35,5.907,5.907,0,0,1,.614.364,3.8,3.8,0,0,1,1.064.916" transform="translate(-35.6 -62.626)" fill="#ff9b6c"/>
      <path id="Path_1080" data-name="Path 1080" d="M77.01,239.051a1.112,1.112,0,0,0-1.194-1.7,17.052,17.052,0,0,1-3.069.472c-2.009.114-4.433-.271-4.962-.124-1.116.31-5.148,2.419-7.009,2.915a8.2,8.2,0,0,1-3.554.107l-4.638,8.222s19.606,10.527,20.6,10.837,4.4,1.364,4.714.559a2.273,2.273,0,0,0,0-1.551l-6.7-3.6s9.18,2.542,10.172,2.481,1.985-.992.931-1.923-9.056-3.6-9.056-3.6,10.156,1.586,11.289,1.426c1.264-.177,1.365-1.861,0-2.357s-11.1-2.481-10.916-2.977,9.488-.532,10.153-1.172.826-1.806-1.346-2.3-10.172.124-11.413-.683-.992-2.729-.992-2.729,3.472.331,4.776-.248a5.089,5.089,0,0,0,2.217-2.064" transform="translate(-14.439 -65.17)" fill="#ffc09d"/>
      <path id="Path_1081" data-name="Path 1081" d="M34.522,218.913l7.2-12.325-12.493-6.832s-3.443,7.667-5.657,12.306-4.216,7.905-1.792,12.016,24.454,15.706,24.454,15.706l4.638-8.222Z" transform="translate(-5.676 -54.855)" fill="#ffc09d"/>
      <path id="Path_1082" data-name="Path 1082" d="M76.925,260.737a13.019,13.019,0,0,1-3.827-.87c-.959-.39-19.81-10.417-20.612-10.843l.139-.26c.2.1,19.64,10.446,20.585,10.831,1.4.569,4.207,1.209,4.53.623a1.126,1.126,0,0,0,.046-1.212,1.115,1.115,0,0,0-.414-.366l-7.435-3.993,1.272.352c3.121.865,9.182,2.477,10.088,2.477h.036a1.374,1.374,0,0,0,1.209-.749.858.858,0,0,0-.368-.916c-1.02-.9-8.925-3.541-9.005-3.568l.065-.287s10.792,1.366,11.289,1.427a.735.735,0,0,0,.836-.6,1.277,1.277,0,0,0-.907-1.476c-.5-.191-2.253-.6-4.106-1.039-4.7-1.106-6.7-1.623-6.883-1.967a.191.191,0,0,1-.013-.161c.118-.315,1.3-.429,5.287-.659a37.85,37.85,0,0,0,4.7-.416.789.789,0,0,0,.553-.8c-.015-.5-.451-1.132-1.629-1.4a32.367,32.367,0,0,0-5.134-.22c-2.876,0-5.593-.007-6.326-.483-1.3-.847-1.069-2.789-1.058-2.872l.018-.141.142.014c.035,0,3.448.322,4.7-.236a4.946,4.946,0,0,0,2.154-2.013.929.929,0,0,0,0-1.074.955.955,0,0,0-1.034-.395,17.3,17.3,0,0,1-3.1.476,27,27,0,0,1-3.274-.089,8.554,8.554,0,0,0-1.657-.04,26.86,26.86,0,0,0-2.623,1.115,35.357,35.357,0,0,1-4.388,1.8,8.287,8.287,0,0,1-3.626.109l.066-.287a8.136,8.136,0,0,0,3.484-.107,35.394,35.394,0,0,0,4.341-1.784,26.285,26.285,0,0,1,2.667-1.131,7.758,7.758,0,0,1,1.756.029,26.591,26.591,0,0,0,3.237.09,17.051,17.051,0,0,0,3.042-.468,1.257,1.257,0,0,1,1.346.513,1.215,1.215,0,0,1,0,1.409,5.248,5.248,0,0,1-2.278,2.115c-1.185.526-4.012.331-4.7.273a2.78,2.78,0,0,0,.938,2.446c.659.428,3.584.432,6.166.435a32.425,32.425,0,0,1,5.2.226c1.342.307,1.84,1.069,1.858,1.68a1.078,1.078,0,0,1-.765,1.095,36.528,36.528,0,0,1-4.768.427,39.013,39.013,0,0,0-4.944.445,59.281,59.281,0,0,0,6.6,1.76c1.944.457,3.623.852,4.143,1.05a1.586,1.586,0,0,1,1.089,1.824,1.036,1.036,0,0,1-1.159.818c-.383-.047-6.891-.871-9.848-1.245,2.348.811,6.928,2.45,7.731,3.158a1.114,1.114,0,0,1,.451,1.233,1.651,1.651,0,0,1-1.47.947c-.779.057-6.4-1.445-8.964-2.141l5.124,2.751a1.416,1.416,0,0,1,.522.467A1.4,1.4,0,0,1,78,260.36c-.151.273-.554.376-1.072.376" transform="translate(-14.413 -65.115)" fill="#ff9b6c"/>
      <path id="Path_1083" data-name="Path 1083" d="M37.367,226.038c-.007.1-1.6-.054-3.507.3-1.913.336-3.351,1.032-3.39.944a8.133,8.133,0,0,1,3.336-1.247,8.135,8.135,0,0,1,3.562,0" transform="translate(-8.367 -62.022)" fill="#ff9b6c"/>
      <path id="Path_1084" data-name="Path 1084" d="M65.95,135.942a1.171,1.171,0,0,0,1.135,1.177,1.12,1.12,0,0,0,1.2-1.061,1.171,1.171,0,0,0-1.133-1.178,1.122,1.122,0,0,0-1.2,1.062" transform="translate(-18.11 -37.039)" fill="#263238"/>
      <path id="Path_1085" data-name="Path 1085" d="M63.155,130.457c.146.152,1.031-.508,2.292-.51,1.259-.02,2.188.625,2.323.47.067-.069-.082-.345-.486-.636a3.218,3.218,0,0,0-1.861-.565,3.091,3.091,0,0,0-1.823.6c-.387.3-.516.576-.445.644" transform="translate(-17.338 -35.484)" fill="#263238"/>
      <path id="Path_1086" data-name="Path 1086" d="M81.223,135.884a1.171,1.171,0,0,0,1.135,1.177,1.12,1.12,0,0,0,1.2-1.061,1.172,1.172,0,0,0-1.133-1.178,1.121,1.121,0,0,0-1.2,1.062" transform="translate(-22.304 -37.023)" fill="#263238"/>
      <path id="Path_1087" data-name="Path 1087" d="M80.242,130.711c.146.152,1.032-.508,2.292-.51,1.259-.02,2.187.625,2.323.47.067-.069-.081-.344-.487-.635a3.21,3.21,0,0,0-1.861-.566,3.093,3.093,0,0,0-1.824.6c-.385.3-.516.576-.445.644" transform="translate(-22.03 -35.554)" fill="#263238"/>
      <path id="Path_1088" data-name="Path 1088" d="M72.776,140.12a8.335,8.335,0,0,0-2.049-.361c-.322-.032-.627-.094-.683-.314a1.646,1.646,0,0,1,.211-.955l.942-2.455a42.075,42.075,0,0,0,2.112-6.422,42.251,42.251,0,0,0-2.624,6.237q-.471,1.293-.9,2.47a1.86,1.86,0,0,0-.162,1.264.809.809,0,0,0,.531.469,2.164,2.164,0,0,0,.547.073,8.243,8.243,0,0,0,2.076-.005" transform="translate(-19.102 -35.593)" fill="#263238"/>
      <path id="Path_1089" data-name="Path 1089" d="M85.516,127.2c-.083-.351-1.215-.284-2.515-.572-1.306-.26-2.329-.781-2.529-.489-.09.14.068.477.469.844a3.991,3.991,0,0,0,1.829.9,3.849,3.849,0,0,0,2.013-.094c.5-.177.767-.425.733-.591" transform="translate(-22.091 -34.617)" fill="#263238"/>
      <path id="Path_1090" data-name="Path 1090" d="M67.718,126.939c-.263-.289-1.306,0-2.558,0-1.251.038-2.309-.215-2.556.082-.109.144.055.433.516.709a4.077,4.077,0,0,0,2.075.49,4.01,4.01,0,0,0,2.046-.555c.445-.29.593-.584.477-.725" transform="translate(-17.183 -34.824)" fill="#263238"/>
      <path id="Path_1091" data-name="Path 1091" d="M75.771,149.615a1.921,1.921,0,0,0-.659-.392,3.5,3.5,0,0,0-1.734-.049,4.568,4.568,0,0,0-1.386.543c-.681.417-.5.831-.308,1.774a38.314,38.314,0,0,0,4.667-.43,1.559,1.559,0,0,0-.58-1.447" transform="translate(-19.637 -40.942)" fill="#ff9b6c"/>
      <path id="Path_1092" data-name="Path 1092" d="M72.168,149.8l.022-.009h0Z" transform="translate(-19.818 -41.135)" fill="#ff9b6c"/>
      <path id="Path_1093" data-name="Path 1093" d="M71.72,151.479a10.231,10.231,0,0,1,1.8-.215c.559-.041,1.222-.081,1.948-.157l.276-.03c.1-.012.189-.02.256-.036.15-.035.243-.087.271-.178a.527.527,0,0,0-.03-.321c-.039-.119-.08-.239-.13-.357a1.521,1.521,0,0,0-.453-.627,1.674,1.674,0,0,0-.849-.313,4.7,4.7,0,0,0-.989,0,6.164,6.164,0,0,0-.864.131,2.557,2.557,0,0,0-1.032.453c-.184.149-.25.249-.278.243s.006-.11.168-.284a2.266,2.266,0,0,1,1.058-.545,6.046,6.046,0,0,1,.917-.166,5.071,5.071,0,0,1,1.1-.018,2.067,2.067,0,0,1,1.042.369,1.65,1.65,0,0,1,.516.694,3.906,3.906,0,0,1,.132.369.616.616,0,0,1,.024.4.418.418,0,0,1-.184.21,1,1,0,0,1-.321.12c-.119.025-.218.03-.31.041l-.282.028c-.745.067-1.415.093-1.973.116-1.116.039-1.8.1-1.809.071" transform="translate(-19.673 -40.927)" fill="#263238"/>
      <path id="Path_1094" data-name="Path 1094" d="M84.2,139.111c-.051.089-.778-.3-1.761-.361-.981-.075-1.755.215-1.793.12-.017-.039.156-.169.482-.288a3.425,3.425,0,0,1,2.634.178c.306.161.461.313.438.35" transform="translate(-22.147 -38.006)" fill="#ff9b6c"/>
      <path id="Path_1095" data-name="Path 1095" d="M66.931,138.907c-.046.091-.741-.217-1.647-.231-.907-.029-1.614.245-1.655.153-.018-.04.138-.165.435-.285a3.259,3.259,0,0,1,2.446.057c.291.133.442.266.421.305" transform="translate(-17.472 -37.988)" fill="#ff9b6c"/>
      <path id="Path_1096" data-name="Path 1096" d="M73.038,127.783c-.024-.045.111-.149.271-.349a1.666,1.666,0,0,0,.234-1.814c-.1-.233-.207-.369-.173-.406s.2.044.381.281a1.546,1.546,0,0,1-.272,2.112c-.235.184-.421.214-.44.176" transform="translate(-20.056 -34.383)" fill="#ff9b6c"/>
      <path id="Path_1097" data-name="Path 1097" d="M76.351,127.875c-.034.027-.176-.075-.332-.3a2.349,2.349,0,0,1-.223-2.082c.1-.258.221-.387.26-.368.09.042-.143.643-.054,1.4.073.757.428,1.3.348,1.356" transform="translate(-20.774 -34.359)" fill="#ff9b6c"/>
      <path id="Path_1098" data-name="Path 1098" d="M75.911,155.9c-.03.042-.236-.069-.576-.2a4.14,4.14,0,0,0-2.756-.066c-.346.111-.556.213-.585.168s.144-.213.493-.392a3.225,3.225,0,0,1,2.95.07c.339.2.5.382.474.415" transform="translate(-19.769 -42.59)" fill="#ff9b6c"/>
    </g>
  </g>
</svg>
